<svg width="287" height="185" viewBox="0 0 287 185" fill="none" xmlns="http://www.w3.org/2000/svg">
<rect x="0.5" y="0.5" width="286" height="184" rx="11.5" stroke="#001A70"/>
<path d="M76.6871 56.714H39.1768C30.7949 56.714 24 63.5089 24 71.8908V113.109C24 121.491 30.7949 128.286 39.1768 128.286H76.6871C85.0691 128.286 91.8639 121.491 91.8639 113.109V71.8908C91.8639 63.5089 85.0691 56.714 76.6871 56.714Z" fill="#FDCD00"/>
<path d="M80.3353 84.5672C80.2034 83.3886 81.0778 82.7355 82.8223 82.6908C82.9542 82.5164 82.9542 82.2972 82.8223 82.21C81.95 81.4674 82.0373 80.5952 82.3862 79.5933C82.6053 78.9827 82.1245 78.6763 81.6436 78.5019C80.2033 77.9338 79.9417 76.9319 80.9459 75.666C81.1203 75.4043 81.4267 75.2299 81.2523 74.7938C80.6842 74.5746 80.0736 74.749 79.5078 74.7065C78.9397 74.6618 78.4611 74.5321 78.1995 73.964C77.9803 73.396 78.1995 72.9174 78.5059 72.4812C78.7675 72.1324 79.1164 71.8707 79.51 71.7387C79.8164 71.6068 80.0334 71.4771 80.0334 71.0834C80.0334 70.5601 79.8142 70.2537 79.3781 70.0368C78.6803 69.6879 78.3739 70.124 78.0697 70.6921C77.7208 70.5176 77.5464 70.0815 77.1528 70.3432C76.8911 70.6921 77.372 71.0857 77.1528 71.4346C75.8869 71.3026 75.4083 70.4304 75.9317 69.3412C76.2381 68.7731 76.7614 68.2498 76.455 67.552C76.0189 67.3776 75.7125 67.552 75.4083 67.7265C74.6233 68.1201 73.9255 68.2498 73.5319 67.2031C73.0958 66.199 73.3127 65.5012 74.3169 65.0226C74.5361 64.9353 74.7978 64.8906 74.9275 64.5864C74.753 64.1503 74.3594 64.0631 73.968 63.8887C73.7488 64.6312 73.4 65.0673 72.5725 64.9801C71.613 64.8481 70.8705 63.9759 70.5663 62.5378C69.6941 62.3634 69.3452 62.9739 68.8644 63.5845C68.4707 64.1078 67.773 64.4567 67.0752 64.2823C66.5518 64.1503 66.3327 63.5845 66.2029 63.0164C66.071 62.3187 66.5966 61.7953 66.8582 60.9656C65.8988 61.7953 64.9818 61.7953 64.0224 61.0103C63.9351 61.7528 64.416 62.2314 64.2415 62.842C63.8054 63.1909 63.0204 62.71 62.7588 63.5845C62.5396 64.4567 61.9737 64.2398 61.5376 63.7589C61.3185 63.5398 61.144 63.1037 60.7951 63.2781C60.1846 63.627 59.6612 63.4525 59.0507 63.2781C58.7018 63.1909 58.4401 63.2781 58.1784 63.5398C57.3487 64.3695 57.3062 64.3695 56.7381 63.2334C56.302 62.3164 55.8212 62.3164 55.2106 63.1014C54.5128 64.0184 52.9853 64.4098 51.9386 63.9312C51.5897 63.7992 51.3281 63.6695 50.9345 63.9312C49.7558 64.5864 48.6219 65.4587 47.0519 64.3673C47.9689 65.3715 48.0561 66.1565 46.8327 66.7223C46.7455 66.767 46.7008 66.9415 46.6136 67.0712C46.0902 68.0306 45.6966 68.0754 45.0435 67.1584C44.5627 66.5031 43.6905 66.5478 43.4288 67.3329C43.1671 68.1179 42.5566 68.2923 41.9013 68.4668C41.5077 68.554 41.1588 68.2476 40.6802 68.5115C41.0291 69.4709 41.5099 70.5176 40.6802 71.4346C41.0291 71.7835 41.2907 71.9579 41.6843 71.9579C42.9055 71.9132 44.1266 72.0026 45.3477 72.0899C50.4066 72.4388 55.5103 72.7004 60.5692 72.3515C64.1454 72.1324 67.7215 72.3515 71.2552 72.4388C71.736 72.4388 72.2146 72.394 72.6955 72.3068C73.6996 72.1748 74.7016 71.6962 75.7483 72.2196C75.9674 72.3515 76.2291 72.394 76.2291 72.7004C76.2291 72.9621 76.0972 73.2238 75.793 73.1365C75.1377 72.9621 74.5719 73.3557 73.9166 73.311C65.2368 73.1365 56.557 73.6174 47.8347 73.311C46.003 73.2238 44.1266 73.0493 42.2524 73.4429C41.1185 73.7918 40.6377 74.5343 40.6377 75.7107V82.1652C40.4632 82.2972 40.2441 82.4716 40.2888 82.7333C40.3335 82.7333 40.376 82.778 40.376 82.8652C40.9441 83.2141 41.2482 83.6503 40.9866 84.3928C40.5929 85.6586 39.7207 86.0947 38.5443 86.0947C38.021 88.0584 38.3251 88.9306 39.9399 89.6709C40.6377 90.0198 41.0313 90.5431 40.9866 91.1984C40.9866 91.9409 40.2888 92.2898 39.6782 92.5515C39.5038 92.6387 39.2421 92.5962 39.0677 92.6387C38.5868 92.7259 38.3251 93.0323 38.4571 93.4684C38.806 94.3854 38.4124 95.3448 38.9379 96.2596C39.3741 96.2596 39.8549 96.4787 40.291 96.0851C39.8102 95.3001 39.8102 94.5151 40.4655 93.8173C40.9463 93.294 41.4696 92.8579 42.2099 93.1195C42.8652 93.3387 43.2141 93.9493 43.1269 94.6023C43.0397 95.3001 42.7333 95.9979 41.9058 96.1299C40.9016 96.2618 40.7719 96.9596 40.8591 97.7446C40.8591 98.0063 40.9463 98.2679 41.2527 98.3127C41.5144 98.3574 41.6888 98.2679 41.8633 98.0063C42.2122 97.4382 42.693 96.9149 43.2588 96.6107C43.8247 96.3065 44.3927 96.1746 44.9161 96.6979C45.6586 97.4829 45.3969 98.3999 45.1777 99.2721C45.0033 99.8827 44.48 99.9699 43.9119 99.9274C43.3885 99.9274 42.8652 99.5338 42.0355 99.7955C43.9991 100.8 43.0822 102.063 42.6035 103.242C42.4716 103.548 41.6866 103.636 42.2971 104.201C43.1269 103.895 43.8247 102.719 44.9138 103.591C45.9605 104.421 46.3966 105.467 46.0052 106.776C47.4455 107.605 48.7964 108.607 50.4111 107.299C50.0175 106.688 49.7558 106.078 48.7092 106.514C48.1411 106.776 47.3561 106.514 47.0944 105.729C46.8327 104.899 47.4433 104.463 47.9241 104.072C48.4475 103.591 49.058 103.723 49.5389 104.204C51.0664 105.557 51.5897 105.557 52.8109 104.072V103.984C52.7661 103.984 52.8109 104.072 52.8109 104.072C53.7703 103.94 54.4681 104.421 54.9042 105.512C54.5106 105.774 54.1192 105.906 53.6384 105.948C53.1575 105.991 52.6342 105.948 52.1556 106.08C51.0642 106.342 50.8897 106.952 51.5003 107.869C51.8492 108.35 52.1556 108.873 52.3725 109.439C52.5917 110.094 52.8959 110.137 53.332 109.788C53.7681 109.439 54.4234 108.697 54.7275 108.784C55.5573 109.09 56.2975 108.784 56.9953 108.739C57.3442 109.22 56.9953 109.699 57.0826 109.96C58.8717 111.313 59.1759 109.611 59.8312 108.869C57.4314 108.869 55.0339 108.214 52.5045 108.388C52.3725 107.865 51.2833 107.733 51.5875 107.035C51.8939 106.38 52.8086 106.686 53.4192 106.512C53.7256 106.424 54.0298 106.424 54.3786 106.38C55.3381 106.248 56.2551 106.073 57.5634 105.899C56.8209 105.375 56.6464 105.069 57.0826 104.546C57.389 104.197 57.257 103.761 56.6889 103.803C55.8592 103.89 55.2061 103.454 54.4636 103.235C53.7211 102.625 52.7617 103.148 51.9767 102.667C51.0597 101.837 50.798 100.791 50.798 99.6143C50.798 96.1254 50.798 92.5917 50.7533 89.1028C50.7533 87.837 50.8405 86.5733 50.5789 85.265C50.1852 83.2589 48.8769 82.125 46.8708 82.0802H45.9113C44.7327 82.0802 43.5563 82.1675 42.4224 82.0802C41.1565 82.0355 40.8076 81.5994 40.8076 80.3783V76.0171C40.8076 74.3152 41.331 73.7493 43.0329 73.7493C47.3941 73.7493 51.8 73.7941 56.1611 73.8366C62.137 73.8813 68.1107 73.9238 74.0866 73.9238C80.0625 73.9238 76.1374 74.2302 75.963 75.8002C75.7885 77.3702 75.7885 78.8977 75.7885 80.4677C75.7885 81.4719 75.3524 81.908 74.3057 81.908C71.6018 81.908 68.8532 81.9528 66.1493 81.9953C65.3643 81.9953 64.7962 82.2569 64.7962 83.1292C64.7962 84.9608 64.3601 86.7925 64.3601 88.6242V93.247C64.3601 94.817 63.8792 96.0829 62.9645 97.2593C62.3092 98.0443 62.0051 98.7868 62.354 99.876C62.4859 100.357 62.5284 100.967 62.7028 101.533C62.8348 102.014 62.5284 102.625 62.3964 103.148C62.222 103.235 62.1773 103.41 62.1773 103.542C62.0453 103.586 62.0453 103.674 62.0453 103.803C61.6964 104.327 61.1284 105.024 61.9134 105.373C62.7431 105.722 62.8303 106.465 62.7431 106.943C62.6111 107.467 62.0453 108.035 61.3028 108.035C60.5603 108.035 60.605 108.167 60.3858 108.516C61.2581 108.254 62.3495 108.603 62.9153 107.599C63.2642 107.86 63.1345 108.296 63.5706 108.428C63.745 108.384 64.0067 108.341 64.1812 108.167C64.9237 107.469 66.232 107.162 65.7087 105.55C65.4023 104.59 66.3192 103.631 67.3234 103.544C68.1084 103.457 68.2829 103.02 68.1532 102.41C68.0212 101.625 68.2851 101.014 68.8957 100.578C69.2446 100.317 69.5935 100.142 69.9871 99.9229C70.5551 99.6613 70.8593 99.3996 70.5104 98.6146C70.1168 97.7424 70.6849 96.9998 71.689 96.9574C72.4741 96.9574 73.2591 97.0446 73.9143 97.4807C74.3952 97.7871 74.8313 97.7424 75.3099 97.4807C76.4013 96.8254 77.4033 96.8701 78.3202 97.6126C78.5394 97.4807 78.8011 97.351 79.018 97.219C79.4116 96.9574 79.1925 96.4765 79.018 96.4765C78.0138 96.5637 77.7969 95.6043 77.2288 95.1682C76.6183 95.4746 76.0949 95.7362 75.5716 95.9979C74.961 96.3043 74.2632 96.3043 73.7824 95.9107C73.3016 95.5171 72.7782 94.9065 73.0846 94.1662C73.391 93.4684 73.9568 93.0748 74.7866 93.162C74.8313 93.162 74.9185 93.1173 75.0058 93.0748C75.3994 92.2451 75.1377 91.2431 75.5738 90.4134C76.0972 89.4539 76.7077 89.3667 77.5375 90.0645C78.0183 90.4581 78.2352 90.8942 78.0608 91.5473C77.9288 92.0281 77.7119 92.5515 77.7991 93.1173C78.4097 93.2493 79.0202 93.2045 79.8053 93.1173C79.1075 90.9792 80.8094 89.8453 81.5944 88.32C81.9881 87.4903 82.7731 86.6628 82.5114 85.5714C80.9414 85.7906 80.0692 85.4842 79.9819 84.5672V84.5225L80.3308 84.5672H80.3353ZM47.7989 83.4333C47.8861 82.9525 48.235 82.8228 48.6711 82.778C48.8903 82.778 49.1945 82.778 49.2392 82.91C49.4584 84.0439 50.5475 84.7417 50.5923 86.05C50.7242 90.4559 50.5475 94.9043 50.5923 99.3079C50.5923 100.487 50.637 101.663 51.5965 102.58C51.2476 103.016 50.6795 103.016 50.3753 102.712C49.72 102.057 49.1967 101.229 49.5031 100.225C49.7648 99.3951 49.5031 98.6548 49.4159 97.8698C48.5861 97.5209 48.5861 98.6548 47.8884 98.6996C47.6692 98.0018 47.6267 97.3912 48.4117 96.9976C49.2839 96.9976 49.6775 96.5615 49.6328 95.6893C49.5881 94.3362 49.5456 92.9854 49.4584 91.677C49.4584 91.3281 49.5456 90.9345 49.0648 90.8473C48.6286 90.76 48.5414 91.1089 48.4095 91.3706C48.3222 91.5026 48.3222 91.6323 48.235 91.8515C47.5797 90.7176 47.7117 90.0198 48.5839 89.8006C49.4136 89.5814 49.5434 89.1453 49.5009 88.405C49.4561 87.3136 49.5009 86.2245 49.4136 85.133C49.4136 84.7842 49.5009 84.348 49.0648 84.0416C48.5414 84.0416 48.6711 84.7842 48.1053 84.8266C47.45 84.4778 47.7117 83.8672 47.8436 83.2991L47.7989 83.4311V83.4333Z" fill="#001A70"/>
<path d="M40.1206 98.0868C39.6398 98.0868 39.4228 98.3932 39.3356 98.7846C39.2484 99.308 38.9867 99.6144 38.4186 99.5271C38.0697 99.8335 38.4634 99.7888 38.5931 99.876C38.942 100.095 39.4653 100.05 39.5525 100.835C38.3314 100.88 37.4145 99.7016 36.2806 100.093C35.67 99.1335 36.8911 98.1741 36.2358 97.4315C35.6253 96.7338 34.7955 96.2976 33.6191 96.8635C34.5786 95.6424 34.1 94.4637 34.0128 93.2873C34.0128 92.764 34.5361 92.8065 34.885 92.8065C35.4531 92.8065 35.802 93.1129 35.802 93.7235C35.802 94.5085 35.8467 95.2935 36.2381 95.9912C36.6742 96.7763 37.1975 97.0379 38.0273 96.6018C38.3761 96.4274 38.6825 96.1657 39.1612 96.3401H39.1164C39.0292 96.6018 38.9845 96.821 38.942 97.0379C39.2484 96.8635 39.6398 96.906 39.9462 96.906C40.3398 96.906 40.6439 97.0804 40.6887 97.5165C40.7334 97.9526 40.5142 98.1718 40.0781 98.1271L40.1228 98.0824L40.1206 98.0868Z" fill="#001A70"/>
<path d="M56.738 112.391C56.9124 111.911 57.2613 111.474 56.606 111.038C56.1699 110.732 55.6891 110.515 55.2105 110.34C54.8168 110.209 54.3382 110.472 54.5552 110.821C55.036 111.694 54.6424 112.698 54.9913 113.657C55.6891 113.438 56.2571 114.093 56.9102 113.832C57.3038 113.264 56.6038 112.872 56.7782 112.391H56.7335H56.738Z" fill="#001A70"/>
<path d="M38.7248 85.4393C39.1609 85.5265 39.3354 85.1329 39.4673 84.8287C39.5546 84.5223 39.6418 84.1734 39.9907 84.1309C40.646 83.999 40.646 83.4756 40.646 82.997C40.646 82.9523 40.6012 82.9098 40.5587 82.8651C40.3843 82.997 40.2523 82.9523 40.0779 82.8651C38.944 82.6459 38.1143 83.2587 38.1143 84.3926C38.1143 84.8287 38.2015 85.2648 38.7248 85.3968V85.4415V85.4393Z" fill="#001A70"/>
<path d="M31.615 118.148V120.461H57.1289C51.2849 119.282 44.0879 118.28 35.8442 118.148H31.5703H31.615Z" fill="#001A70"/>
<path d="M33.7529 114.659V116.972C35.6718 116.884 37.8099 116.84 40.1202 116.972C47.9278 117.365 53.7717 119.197 57.1309 120.461C55.997 119.501 51.155 115.663 42.2583 114.659C38.8566 114.265 35.8463 114.44 33.7529 114.659Z" fill="#001A70"/>
<path d="M35.8465 111.17V113.483C37.6782 113.308 39.8587 113.221 42.2138 113.483C51.7658 114.487 56.4311 119.633 57.0864 120.461C55.9078 115.88 50.9808 112.217 44.3071 111.17C40.9926 110.647 37.8951 110.864 35.8018 111.17H35.8465Z" fill="#001A70"/>
<path d="M83.8244 118.148V120.461H58.3105C64.1545 119.282 71.3515 118.28 79.5952 118.148H83.8691H83.8244Z" fill="#001A70"/>
<path d="M81.6856 114.659V116.972C79.7667 116.884 77.6286 116.84 75.3183 116.972C67.5108 117.365 61.6668 119.197 58.3076 120.461C59.4415 119.501 64.2835 115.663 73.1803 114.659C76.5819 114.265 79.5923 114.44 81.6856 114.659Z" fill="#001A70"/>
<path d="M79.5475 111.17V113.483C77.7158 113.308 75.5353 113.221 73.1802 113.483C63.6282 114.487 59.0054 119.633 58.3076 120.461C59.4862 115.88 64.4132 112.217 71.0869 111.17C74.4014 110.647 77.4989 110.864 79.5923 111.17H79.5475Z" fill="#001A70"/>
<path d="M125.841 61.2002H91.8643V70.8238H102.644V98.0128H102.651H115.061V70.8238H125.841V61.2002Z" fill="#001A70"/>
<path d="M141.146 61.2002L125.05 98.0128H137.681L140.146 91.5985H154.146L156.611 98.0128H169.442L153.346 61.2002H141.141H141.146ZM143.584 82.6593L147.149 73.3801L150.713 82.6593H143.581H143.584Z" fill="#001A70"/>
<path d="M195.633 77.9403L181.641 61.2002H171.438V98.0128H183.533V81.2704L197.523 98.0128H207.725V61.2002H195.633V77.9403Z" fill="#001A70"/>
<path d="M226.136 61.2002H213.724V98.0128H226.136V61.2002Z" fill="#001A70"/>
<path d="M261.893 81.6106C261.157 80.3134 260.184 79.2622 258.974 78.4549C257.765 77.6475 256.445 76.9989 255.005 76.5091C253.569 76.0193 252.124 75.6347 250.668 75.3551C249.212 75.0755 247.881 74.8116 246.672 74.5634C245.462 74.3218 244.489 74.0132 243.753 73.6464C243.017 73.2774 242.648 72.7787 242.648 72.1457C242.648 71.723 242.796 71.3384 243.093 70.985C243.391 70.6339 243.889 70.3521 244.594 70.1441C245.298 69.9361 246.242 69.831 247.436 69.831C249.047 69.831 250.706 70.0569 252.406 70.5131C254.11 70.9693 255.868 71.6515 257.693 72.564L261.426 63.5711C259.502 62.4819 257.324 61.679 254.906 61.1534C252.489 60.6256 250.035 60.3617 247.546 60.3617C243.76 60.3617 240.593 60.9231 238.052 62.0435C235.507 63.164 233.599 64.6647 232.318 66.5411C231.036 68.422 230.399 70.493 230.399 72.7742C230.399 74.7423 230.768 76.3794 231.504 77.6945C232.239 79.0095 233.212 80.0696 234.422 80.877C235.632 81.6844 236.963 82.3329 238.419 82.8227C239.87 83.3125 241.315 83.7084 242.755 84.0036C244.191 84.301 245.515 84.5806 246.725 84.8445C247.935 85.1084 248.908 85.4327 249.644 85.8174C250.38 86.2021 250.749 86.7299 250.749 87.3941C250.749 87.8123 250.59 88.1746 250.277 88.4721C249.957 88.7695 249.458 88.9932 248.776 89.1542C248.094 89.313 247.155 89.3913 245.963 89.3913C243.93 89.3913 241.834 89.0894 239.68 88.4743C237.527 87.8593 235.57 87.0452 233.814 86.0276L229.817 95.0764C231.676 96.1969 234.044 97.1049 236.92 97.8094C239.79 98.5072 242.776 98.8583 245.86 98.8583L245.855 98.8628C249.675 98.8628 252.853 98.2903 255.376 97.1541C257.899 96.0158 259.802 94.5039 261.081 92.6297C262.363 90.7555 263 88.6935 263 86.4503C263 84.5202 262.631 82.91 261.895 81.6128L261.893 81.6106Z" fill="#001A70"/>
<path d="M102.546 101.242L92.1221 124.406H96.5235L98.8248 119.045H110.41L112.704 124.406H117.238L106.782 101.242H102.546ZM100.274 115.67L104.629 105.532L108.965 115.67H100.274Z" fill="#001A70"/>
<path d="M125.112 110.723C125.929 110.271 126.843 110.045 127.859 110.045C128.74 110.045 129.563 110.249 130.323 110.658C131.084 111.067 131.73 111.678 132.26 112.494L135.405 110.64C134.743 109.294 133.75 108.269 132.426 107.563C131.102 106.856 129.59 106.503 127.892 106.503C126.038 106.503 124.39 106.894 122.945 107.677C121.5 108.459 120.369 109.524 119.552 110.87C118.736 112.217 118.329 113.782 118.329 115.569C118.329 117.356 118.736 118.895 119.552 120.252C120.369 121.61 121.498 122.679 122.945 123.462C124.39 124.245 126.038 124.636 127.892 124.636C129.59 124.636 131.102 124.278 132.426 123.56C133.75 122.845 134.743 121.822 135.405 120.498L132.26 118.644C131.73 119.483 131.086 120.107 130.323 120.514C129.563 120.923 128.74 121.127 127.859 121.127C126.843 121.127 125.929 120.901 125.112 120.449C124.296 119.998 123.656 119.351 123.193 118.512C122.731 117.674 122.498 116.692 122.498 115.567C122.498 114.442 122.731 113.467 123.193 112.639C123.656 111.812 124.296 111.172 125.112 110.721V110.723Z" fill="#001A70"/>
<path d="M145.76 106.503C144.348 106.503 142.991 106.691 141.689 107.066C140.388 107.442 139.251 107.992 138.281 108.721L139.902 111.732C140.587 111.181 141.403 110.75 142.351 110.441C143.299 110.132 144.259 109.978 145.23 109.978C146.73 109.978 147.848 110.314 148.589 110.987C149.327 111.66 149.698 112.604 149.698 113.816V114.08H145.098C143.311 114.08 141.877 114.312 140.797 114.775C139.717 115.238 138.938 115.867 138.464 116.661C137.99 117.455 137.753 118.349 137.753 119.34C137.753 120.331 138.024 121.266 138.565 122.071C139.106 122.876 139.871 123.504 140.864 123.956C141.857 124.408 143.015 124.634 144.339 124.634C145.927 124.634 147.229 124.348 148.244 123.773C148.947 123.375 149.492 122.86 149.899 122.239V124.401H153.804V114.044C153.804 111.486 153.109 109.589 151.72 108.352C150.331 107.118 148.345 106.498 145.764 106.498L145.76 106.503ZM147.929 120.93C147.124 121.393 146.214 121.626 145.198 121.626C144.183 121.626 143.313 121.407 142.716 120.964C142.121 120.523 141.823 119.937 141.823 119.21C141.823 118.526 142.072 117.958 142.568 117.506C143.065 117.054 144.008 116.828 145.397 116.828H149.698V118.879C149.322 119.785 148.732 120.467 147.927 120.93H147.929Z" fill="#001A70"/>
<path d="M172.232 108.846C171.74 108.292 171.179 107.833 170.546 107.48C169.376 106.829 168.052 106.505 166.576 106.505C164.877 106.505 163.349 106.88 161.994 107.63C160.636 108.379 159.572 109.439 158.8 110.805C158.029 112.174 157.642 113.762 157.642 115.569C157.642 117.376 158.026 118.993 158.8 120.351C159.572 121.708 160.636 122.762 161.994 123.511C163.351 124.26 164.879 124.636 166.576 124.636C168.12 124.636 169.473 124.312 170.629 123.661C171.333 123.265 171.944 122.739 172.465 122.086V124.406H176.403V99.8534H172.235V108.846H172.232ZM171.62 118.499C171.146 119.349 170.517 120 169.734 120.451C168.952 120.903 168.064 121.129 167.071 121.129C166.078 121.129 165.19 120.903 164.407 120.451C163.624 120 162.996 119.349 162.522 118.499C162.047 117.649 161.81 116.674 161.81 115.571C161.81 114.469 162.047 113.471 162.522 112.644C162.996 111.816 163.624 111.177 164.407 110.725C165.19 110.273 166.078 110.047 167.071 110.047C168.064 110.047 168.952 110.273 169.734 110.725C170.517 111.177 171.146 111.816 171.62 112.644C172.094 113.471 172.331 114.446 172.331 115.571C172.331 116.696 172.094 117.651 171.62 118.499Z" fill="#001A70"/>
<path d="M194.105 107.645C192.759 106.885 191.227 106.505 189.505 106.505C187.783 106.505 186.168 106.896 184.79 107.679C183.41 108.462 182.33 109.533 181.547 110.888C180.764 112.246 180.373 113.807 180.373 115.571C180.373 117.336 180.776 118.897 181.581 120.255C182.386 121.612 183.522 122.681 184.989 123.464C186.456 124.247 188.172 124.638 190.135 124.638C191.678 124.638 193.052 124.397 194.255 123.909C195.458 123.424 196.467 122.717 197.283 121.791L195.033 119.21C194.416 119.85 193.709 120.335 192.915 120.666C192.121 120.997 191.227 121.163 190.234 121.163C189.064 121.163 188.037 120.937 187.156 120.485C186.273 120.033 185.595 119.398 185.121 118.582C184.824 118.07 184.629 117.504 184.519 116.893H198.375C198.397 116.717 198.413 116.513 198.424 116.28C198.435 116.048 198.439 115.856 198.439 115.701C198.439 113.827 198.052 112.206 197.281 110.837C196.509 109.47 195.451 108.406 194.105 107.643V107.645ZM185.038 112.36C185.457 111.566 186.058 110.953 186.841 110.524C187.624 110.094 188.512 109.877 189.505 109.877C190.498 109.877 191.401 110.092 192.153 110.524C192.902 110.953 193.492 111.561 193.922 112.344C194.224 112.892 194.407 113.496 194.485 114.147H184.481C184.573 113.496 184.752 112.899 185.036 112.36H185.038Z" fill="#001A70"/>
<path d="M228.47 107.33C227.378 106.78 226.126 106.503 224.715 106.503C222.972 106.503 221.438 106.912 220.114 107.726C219.302 108.227 218.638 108.82 218.115 109.504C217.692 108.777 217.149 108.18 216.473 107.726C215.259 106.91 213.825 106.503 212.17 106.503C210.692 106.503 209.386 106.811 208.25 107.428C207.507 107.833 206.892 108.357 206.38 108.976V106.733H202.441V124.403H206.545V115.435C206.545 114.265 206.738 113.29 207.125 112.508C207.509 111.725 208.051 111.134 208.746 110.736C209.442 110.338 210.24 110.141 211.146 110.141C212.425 110.141 213.411 110.528 214.107 111.3C214.802 112.071 215.149 113.241 215.149 114.807V124.403H219.253V115.435C219.253 114.265 219.445 113.29 219.832 112.508C220.217 111.725 220.758 111.134 221.454 110.736C222.149 110.338 222.948 110.141 223.854 110.141C225.133 110.141 226.119 110.528 226.815 111.3C227.51 112.071 227.857 113.241 227.857 114.807V124.403H231.961V114.279C231.961 112.492 231.652 111.025 231.035 109.877C230.418 108.73 229.563 107.88 228.47 107.33Z" fill="#001A70"/>
<path d="M241.389 106.735H237.285V124.406H241.389V106.735Z" fill="#001A70"/>
<path d="M239.34 98.8608C238.569 98.8608 237.934 99.1045 237.437 99.5876C236.941 100.073 236.692 100.648 236.692 101.307C236.692 102.014 236.941 102.609 237.437 103.094C237.934 103.58 238.567 103.821 239.34 103.821C240.114 103.821 240.774 103.573 241.259 103.077C241.745 102.58 241.988 101.978 241.988 101.274C241.988 100.569 241.74 99.9902 241.244 99.5362C240.747 99.0844 240.112 98.8585 239.34 98.8585V98.8608Z" fill="#001A70"/>
<path d="M259.524 108.357C258.135 107.122 256.149 106.503 253.568 106.503C252.157 106.503 250.799 106.691 249.498 107.066C248.196 107.442 247.06 107.992 246.089 108.721L247.711 111.732C248.395 111.182 249.211 110.75 250.16 110.441C251.108 110.133 252.067 109.978 253.038 109.978C254.539 109.978 255.657 110.314 256.397 110.987C257.135 111.66 257.507 112.604 257.507 113.816V114.08H252.906C251.119 114.08 249.686 114.313 248.605 114.776C247.525 115.239 246.747 115.867 246.273 116.661C245.799 117.455 245.562 118.349 245.562 119.34C245.562 120.331 245.832 121.266 246.371 122.071C246.912 122.876 247.677 123.505 248.67 123.956C249.663 124.408 250.822 124.634 252.146 124.634C253.734 124.634 255.035 124.348 256.051 123.773C256.753 123.375 257.299 122.858 257.706 122.239V124.401H261.611V114.044C261.611 111.486 260.915 109.589 259.526 108.352L259.524 108.357ZM255.735 120.93C254.93 121.393 254.02 121.626 253.005 121.626C251.989 121.626 251.119 121.407 250.522 120.964C249.927 120.523 249.63 119.937 249.63 119.211C249.63 118.526 249.878 117.958 250.374 117.506C250.871 117.055 251.815 116.829 253.204 116.829H257.507V118.88C257.131 119.785 256.54 120.467 255.735 120.93Z" fill="#001A70"/>
</svg>
