<?xml version="1.0" encoding="UTF-8"?>
<svg id="Layer_2" data-name="Layer 2" xmlns="http://www.w3.org/2000/svg" viewBox="0 0 306.22 333.24">
  <defs>
    <style>
      .cls-1 {
        fill: blue;
      }

      .cls-2 {
        fill: red;
      }
    </style>
  </defs>
  <g id="Layer_1-2" data-name="Layer 1">
    <g>
      <rect x="13.53" y="9.36" width="1" height="245.36"/>
      <polygon points="9.05 10.82 14.03 2.18 19.02 10.82 9.05 10.82"/>
      <polygon points="9.05 253.26 14.03 261.89 19.02 253.26 9.05 253.26"/>
    </g>
    <g>
      <rect x="41.21" y="9.36" width="1" height="185.3"/>
      <polygon points="36.72 10.82 41.7 2.18 46.69 10.82 36.72 10.82"/>
      <polygon points="36.72 193.2 41.7 201.84 46.69 193.2 36.72 193.2"/>
    </g>
    <g>
      <rect x="77.56" y="327.76" width="56.52" height="1"/>
      <polygon points="79.02 333.24 70.39 328.26 79.02 323.27 79.02 333.24"/>
      <polygon points="132.63 333.24 141.26 328.26 132.63 323.27 132.63 333.24"/>
    </g>
    <path d="M70.89,328.26h-1v-.93h1v.93ZM70.89,323.33h-1v-8h1v8ZM70.89,311.33h-1v-8h1v8ZM70.89,299.33h-1v-8h1v8ZM70.89,287.33h-1v-8h1v8ZM70.89,275.33h-1v-8h1v8ZM70.89,263.33h-1v-8h1v8ZM70.89,251.33h-1v-8h1v8ZM70.89,239.33h-1v-8h1v8ZM70.89,227.33h-1v-8h1v8ZM70.89,215.33h-1v-8h1v8ZM70.89,203.33h-1v-8h1v8Z"/>
    <path d="M141.76,328.26h-1v-6.95h1v6.95ZM141.76,317.31h-1v-8h1v8ZM141.76,305.31h-1v-8h1v8ZM141.76,293.31h-1v-8h1v8ZM141.76,281.31h-1v-8h1v8ZM141.76,269.31h-1v-8h1v8Z"/>
    <path d="M141.26,262.39h-8v-1h8v1ZM129.26,262.39h-8v-1h8v1ZM117.26,262.39h-8v-1h8v1ZM105.26,262.39h-8v-1h8v1ZM93.26,262.39h-8v-1h8v1ZM81.26,262.39h-8v-1h8v1ZM69.26,262.39h-8v-1h8v1ZM57.26,262.39h-8v-1h8v1ZM45.26,262.39h-8v-1h8v1ZM33.26,262.39h-8v-1h8v1ZM21.26,262.39h-7.38v-1h7.38v1Z"/>
    <rect x="70.67" width="226" height="1"/>
    <rect class="cls-1" x="70.67" y="194.83" width="71.09" height="1"/>
    <rect class="cls-1" x="140.76" y="194.83" width="1" height="66.98"/>
    <path class="cls-1" d="M142.01,261.81c-39.77,0-72.12-32.24-72.12-71.87s32.35-71.87,72.12-71.87,72.12,32.24,72.12,71.87-32.35,71.87-72.12,71.87ZM142.01,119.07c-39.22,0-71.12,31.79-71.12,70.87s31.91,70.87,71.12,70.87,71.12-31.79,71.12-70.87-31.91-70.87-71.12-70.87Z"/>
    <path class="cls-2" d="M306.22,262.34l-163.82-.48c-21.52-.06-41.95-9.6-56.04-26.15-9.13-10.73-14.67-24.28-16.47-40.27V0s1,0,1,0v195.38c1.77,15.74,7.23,29.11,16.23,39.68,13.91,16.33,34.06,25.74,55.29,25.8l163.82.48v1Z"/>
    <g>
      <path d="M0,102.01v-5.69h1.96c.44,0,.78.03,1.01.08.33.08.61.21.84.41.3.25.52.58.67.97.15.39.22.85.22,1.35,0,.43-.05.82-.15,1.15-.1.33-.23.61-.39.83-.16.22-.33.39-.52.52s-.41.22-.68.29c-.26.06-.57.1-.91.1H0ZM.75,101.34h1.22c.38,0,.67-.03.88-.1.21-.07.38-.17.51-.3.18-.18.32-.42.42-.72.1-.3.15-.67.15-1.1,0-.6-.1-1.05-.29-1.37s-.43-.53-.71-.64c-.2-.08-.53-.12-.97-.12H.75v4.35Z"/>
      <path d="M9.13,101.34v.67h-3.76c0-.17.02-.33.08-.49.1-.26.25-.51.46-.76.21-.25.52-.54.92-.86.62-.51,1.04-.91,1.25-1.21s.33-.58.33-.84c0-.28-.1-.51-.3-.7-.2-.19-.46-.29-.77-.29-.34,0-.61.1-.81.3-.2.2-.3.48-.31.84l-.72-.07c.05-.54.23-.94.56-1.23.32-.28.75-.42,1.29-.42s.98.15,1.3.45c.32.3.48.68.48,1.13,0,.23-.05.45-.14.67-.09.22-.25.45-.46.69-.22.24-.57.58-1.08,1-.42.35-.69.59-.81.72s-.22.25-.29.38h2.79Z"/>
    </g>
    <g>
      <g>
        <path d="M48.05,48.33v-5.69h1.96c.44,0,.78.03,1.01.08.33.08.6.21.83.41.3.25.52.58.67.97s.22.85.22,1.35c0,.43-.05.82-.15,1.15s-.23.61-.39.83-.33.39-.52.52-.41.22-.68.29-.57.1-.91.1h-2.05ZM48.8,47.66h1.22c.38,0,.67-.03.88-.1s.38-.17.51-.3c.18-.18.32-.42.42-.72s.15-.67.15-1.1c0-.6-.1-1.05-.29-1.37s-.43-.53-.71-.64c-.2-.08-.53-.12-.97-.12h-1.2v4.35Z"/>
        <path d="M56.14,48.33h-.7v-4.45c-.17.16-.39.32-.66.48s-.52.28-.74.36v-.68c.39-.18.73-.41,1.03-.67s.5-.52.62-.76h.45v5.72Z"/>
      </g>
      <g>
        <path d="M48.19,56.76v-5.69h.75v2.82l2.83-2.82h1.02l-2.39,2.31,2.49,3.39h-.99l-2.03-2.88-.93.91v1.97h-.75Z"/>
        <path d="M59.7,56.76v-5.69h2.15c.38,0,.67.02.87.05.28.05.51.14.7.27s.34.31.46.55.17.49.17.78c0,.48-.15.89-.46,1.23s-.86.5-1.67.5h-1.46v2.31h-.75ZM60.45,53.77h1.47c.49,0,.83-.09,1.04-.27s.31-.44.31-.76c0-.24-.06-.44-.18-.61s-.28-.28-.48-.34c-.13-.03-.36-.05-.7-.05h-1.46v2.03Z"/>
        <path d="M53.42,53.99c0-.94.25-1.68.76-2.22s1.16-.8,1.96-.8c.53,0,1,.13,1.42.38s.74.6.96,1.05.33.96.33,1.53-.12,1.09-.35,1.55-.56.8-.99,1.03-.89.35-1.38.35c-.54,0-1.01-.13-1.44-.39s-.74-.61-.96-1.06-.33-.92-.33-1.42ZM54.2,54c0,.69.18,1.23.55,1.62s.83.59,1.39.59,1.03-.2,1.4-.6.55-.96.55-1.7c0-.46-.08-.87-.23-1.21s-.39-.61-.69-.8-.64-.29-1.02-.29c-.53,0-.99.18-1.38.55s-.58.98-.58,1.83Z"/>
      </g>
    </g>
    <g>
      <path d="M100.06,321.95l2.21-2.98-1.95-2.74h.9l1.04,1.47c.22.3.37.54.46.7.13-.21.28-.43.45-.65l1.15-1.52h.82l-2.01,2.7,2.17,3.03h-.94l-1.44-2.04c-.08-.12-.16-.24-.25-.38-.13.21-.22.35-.27.43l-1.44,2h-.91Z"/>
      <path d="M109.39,321.27v.68h-3.79c0-.17.02-.33.08-.49.1-.26.25-.51.46-.76.21-.25.52-.54.92-.87.62-.51,1.04-.91,1.26-1.21s.33-.58.33-.85c0-.28-.1-.51-.3-.71s-.46-.29-.78-.29c-.34,0-.61.1-.81.3s-.31.48-.31.84l-.72-.07c.05-.54.24-.95.56-1.23.32-.28.76-.42,1.3-.42s.98.15,1.3.46.48.68.48,1.13c0,.23-.05.45-.14.68s-.25.45-.47.7c-.22.24-.58.58-1.08,1.01-.42.35-.69.59-.81.72-.12.13-.22.25-.3.38h2.81Z"/>
    </g>
    <path d="M132.48,202.69c0-2.45,1-4.32,2.81-4.32s2.7,1.74,2.7,4.32-.88,4.46-2.73,4.46c-1.71,0-2.77-1.5-2.77-4.46ZM136.94,202.23c-.01-1.7-.55-3.08-1.72-3.08-1.07,0-1.7,1.45-1.7,3.08h3.42ZM133.52,203.02c0,2.13.72,3.35,1.75,3.35,1.13,0,1.67-1.39,1.67-3.35h-3.42Z"/>
    <circle cx="141.26" cy="195.33" r="1.6"/>
  </g>
</svg>