<?xml version="1.0" encoding="UTF-8"?>
<svg id="Layer_2" data-name="Layer 2" xmlns="http://www.w3.org/2000/svg" viewBox="0 0 308.87 365.49">
  <defs>
    <style>
      .cls-1 {
        fill: blue;
      }

      .cls-2 {
        fill: red;
      }
    </style>
  </defs>
  <g id="Layer_1-2" data-name="Layer 1">
    <path d="M109.92,224.23v-1c5.09,0,10.09-1.8,14.1-5.05l.63.78c-4.18,3.39-9.41,5.26-14.73,5.27Z"/>
    <g>
      <rect x="19.87" y="7.68" width="1" height="309.65"/>
      <polygon points="15.39 9.14 20.37 .5 25.36 9.14 15.39 9.14"/>
      <polygon points="15.39 315.87 20.37 324.5 25.36 315.87 15.39 315.87"/>
    </g>
    <g>
      <rect x="90.55" y="342" width="12.65" height="1"/>
      <polygon points="101.74 337.52 110.37 342.5 101.74 347.49 101.74 337.52"/>
      <polygon points="92.01 337.52 83.37 342.5 92.01 347.49 92.01 337.52"/>
    </g>
    <g>
      <rect x="92.93" y="360" width="126.58" height="1"/>
      <polygon points="218.06 355.52 226.69 360.5 218.06 365.49 218.06 355.52"/>
      <polygon points="94.39 355.52 85.76 360.5 94.39 365.49 94.39 355.52"/>
    </g>
    <g>
      <rect x="43.88" y="7.68" width="1" height="186.93"/>
      <polygon points="39.4 9.14 44.38 .5 49.37 9.14 39.4 9.14"/>
      <polygon points="39.4 193.15 44.38 201.79 49.37 193.15 39.4 193.15"/>
    </g>
    <g>
      <rect x="68.89" y="7.68" width="1" height="129.65"/>
      <polygon points="64.4 9.14 69.39 .5 74.37 9.14 64.4 9.14"/>
      <polygon points="64.4 135.87 69.39 144.5 74.37 135.87 64.4 135.87"/>
    </g>
    <path d="M85.4,360.5h-1v-6h1v6ZM85.4,350.5h-1v-8h1v8ZM85.4,338.5h-1v-8h1v8ZM85.4,326.5h-1v-8h1v8ZM85.4,314.5h-1v-8h1v8ZM85.4,302.5h-1v-8h1v8ZM85.4,290.5h-1v-8h1v8ZM85.4,278.5h-1v-8h1v8ZM85.4,266.5h-1v-8h1v8ZM85.4,254.5h-1v-8h1v8ZM85.4,242.5h-1v-8h1v8ZM85.4,230.5h-1v-8h1v8ZM85.4,218.5h-1v-8h1v8ZM85.4,206.5h-1v-8h1v8ZM85.4,194.5h-1v-8h1v8ZM85.4,182.5h-1v-8h1v8ZM85.4,170.5h-1v-8h1v8Z"/>
    <g>
      <rect x="106.37" y="201.29" width="4" height="1"/>
      <path d="M102.94,202.29h-6.88v-1h6.88v1ZM92.62,202.29h-6.88v-1h6.88v1Z"/>
      <path d="M82.31,202.29h-6.88v-1h6.88v1ZM72,202.29h-6.88v-1h6.88v1ZM61.69,202.29h-6.88v-1h6.88v1Z"/>
      <rect x="47.37" y="201.29" width="4" height="1"/>
    </g>
    <g>
      <rect x="223.37" y="324" width="4" height="1"/>
      <path d="M219.55,325h-7.65v-1h7.65v1ZM208.07,325h-7.65v-1h7.65v1Z"/>
      <path d="M196.58,325h-7.65v-1h7.65v1ZM185.1,325h-7.65v-1h7.65v1ZM173.62,325h-7.65v-1h7.65v1ZM162.14,325h-7.65v-1h7.65v1ZM150.66,325h-7.65v-1h7.65v1ZM139.18,325h-7.65v-1h7.65v1ZM127.7,325h-7.65v-1h7.65v1ZM116.22,325h-7.65v-1h7.65v1ZM104.74,325h-7.65v-1h7.65v1ZM93.26,325h-7.65v-1h7.65v1ZM81.78,325h-7.65v-1h7.65v1ZM70.3,325h-7.65v-1h7.65v1ZM58.81,325h-7.65v-1h7.65v1ZM47.33,325h-7.65v-1h7.65v1ZM35.85,325h-7.65v-1h7.65v1Z"/>
      <rect x="20.37" y="324" width="4" height="1"/>
    </g>
    <g>
      <rect x="109.87" y="338.5" width="1" height="4"/>
      <path d="M110.87,334.6h-1v-7.81h1v7.81ZM110.87,322.89h-1v-7.81h1v7.81Z"/>
      <path d="M110.87,311.18h-1v-7.81h1v7.81ZM110.87,299.47h-1v-7.81h1v7.81ZM110.87,287.76h-1v-7.81h1v7.81ZM110.87,276.05h-1v-7.81h1v7.81ZM110.87,264.34h-1v-7.81h1v7.81ZM110.87,252.63h-1v-7.81h1v7.81ZM110.87,240.92h-1v-7.81h1v7.81ZM110.87,229.21h-1v-7.81h1v7.81ZM110.87,217.5h-1v-7.81h1v7.81Z"/>
      <rect x="109.87" y="201.79" width="1" height="4"/>
    </g>
    <g>
      <rect x="226.87" y="356.5" width="1" height="4"/>
      <path d="M227.87,352.5h-1v-8h1v8ZM227.87,340.5h-1v-8h1v8Z"/>
      <rect x="226.87" y="324.5" width="1" height="4"/>
    </g>
    <rect x="82.87" y="0" width="226" height="1"/>
    <rect class="cls-1" x="96.87" y="165.56" width="108.01" height="1" transform="translate(-72.13 141.42) rotate(-41.44)"/>
    <rect class="cls-1" x="83.37" y="129.83" width="216" height="1"/>
    <rect class="cls-1" x="208.87" y="128.68" width="1" height="197.48" transform="translate(-37.95 41.98) rotate(-10.5)"/>
    <rect class="cls-1" x="109.87" y="130.33" width="1" height="71.46"/>
    <path class="cls-1" d="M191.37,239.77c-60.34,0-109.43-49.09-109.43-109.43S131.03,20.9,191.37,20.9s109.43,49.09,109.43,109.43-49.09,109.43-109.43,109.43ZM191.37,21.9c-59.79,0-108.43,48.64-108.43,108.43s48.64,108.43,108.43,108.43,108.43-48.64,108.43-108.43S251.16,21.9,191.37,21.9Z"/>
    <path class="cls-2" d="M227.38,325.21l-.36-.35c-61.39-59.97-101.94-103.6-118.01-122.75-6.86-8.17-14.63-18.58-20.32-33.85-4.27-11.47-6.53-23.7-6.74-36.35L82.88,0h1s0,.51,0,.51l-.92,131.4c.2,12.52,2.45,24.64,6.67,36,5.63,15.13,13.34,25.45,20.15,33.56,16.06,19.13,56.58,62.74,117.95,122.68l.36.35-.7.72Z"/>
    <g>
      <path d="M33.41,101.15v-5.69h1.96c.44,0,.78.03,1.01.08.33.08.6.21.83.41.3.25.52.58.67.97.15.39.22.85.22,1.35,0,.43-.05.82-.15,1.15-.1.33-.23.61-.39.83-.16.22-.33.39-.52.52s-.41.22-.68.29c-.27.06-.57.1-.91.1h-2.05ZM34.17,100.47h1.22c.38,0,.67-.03.88-.1s.38-.17.51-.3c.18-.18.32-.42.42-.72.1-.3.15-.67.15-1.1,0-.6-.1-1.05-.29-1.37s-.43-.53-.71-.64c-.2-.08-.53-.12-.97-.12h-1.2v4.35Z"/>
      <path d="M42.55,100.47v.67h-3.76c0-.17.02-.33.08-.49.1-.26.25-.51.46-.76.21-.25.52-.54.91-.86.62-.51,1.04-.91,1.25-1.21.22-.3.33-.58.33-.84,0-.28-.1-.51-.3-.7-.2-.19-.46-.29-.77-.29-.34,0-.61.1-.81.3s-.3.48-.31.84l-.72-.07c.05-.54.23-.94.56-1.23.32-.28.75-.42,1.29-.42s.98.15,1.3.45c.32.3.48.68.48,1.13,0,.23-.05.45-.14.67-.09.22-.25.45-.46.69-.22.24-.58.58-1.08,1-.42.35-.69.59-.81.72s-.22.25-.29.38h2.79Z"/>
    </g>
    <g>
      <g>
        <path d="M49.37,48.34v-5.69h1.96c.44,0,.78.03,1.01.08.33.08.6.21.83.41.3.25.52.58.67.97s.22.85.22,1.35c0,.43-.05.82-.15,1.15s-.23.61-.39.83-.33.39-.52.52-.41.22-.68.29-.57.1-.91.1h-2.05ZM50.12,47.67h1.22c.38,0,.67-.03.88-.1s.38-.17.51-.3c.18-.18.32-.42.42-.72s.15-.67.15-1.1c0-.6-.1-1.05-.29-1.37s-.43-.53-.71-.64c-.2-.08-.53-.12-.97-.12h-1.2v4.35Z"/>
        <path d="M57.46,48.34h-.7v-4.45c-.17.16-.39.32-.66.48s-.52.28-.74.36v-.68c.39-.18.73-.41,1.03-.67s.5-.52.62-.76h.45v5.72Z"/>
      </g>
      <g>
        <path d="M49.51,56.76v-5.69h.75v2.82l2.83-2.82h1.02l-2.39,2.31,2.49,3.39h-.99l-2.03-2.88-.93.91v1.97h-.75Z"/>
        <path d="M61.02,56.76v-5.69h2.15c.38,0,.67.02.87.05.28.05.51.14.7.27s.34.31.46.55.17.49.17.78c0,.48-.15.89-.46,1.23s-.86.5-1.67.5h-1.46v2.31h-.75ZM61.77,53.78h1.47c.49,0,.83-.09,1.04-.27s.31-.44.31-.76c0-.24-.06-.44-.18-.61s-.28-.28-.48-.34c-.13-.03-.36-.05-.7-.05h-1.46v2.03Z"/>
        <path d="M54.74,53.99c0-.94.25-1.68.76-2.22s1.16-.8,1.96-.8c.53,0,1,.13,1.42.38s.74.6.96,1.05.33.96.33,1.53-.12,1.09-.35,1.55-.56.8-.99,1.03-.89.35-1.38.35c-.54,0-1.01-.13-1.44-.39s-.74-.61-.96-1.06-.33-.92-.33-1.42ZM55.52,54c0,.69.18,1.23.55,1.62s.83.59,1.39.59,1.03-.2,1.4-.6.55-.96.55-1.7c0-.46-.08-.87-.23-1.21s-.39-.61-.69-.8-.64-.29-1.02-.29c-.53,0-.99.18-1.38.55s-.58.98-.58,1.83Z"/>
      </g>
    </g>
    <g>
      <path d="M91.54,333.5l2.21-2.98-1.95-2.74h.9l1.04,1.47c.22.3.37.54.46.7.13-.21.28-.43.45-.65l1.15-1.52h.82l-2.01,2.7,2.17,3.03h-.94l-1.44-2.04c-.08-.12-.16-.25-.25-.38-.13.21-.22.35-.27.43l-1.44,2h-.91Z"/>
      <path d="M100.87,332.83v.68h-3.79c0-.17.02-.33.08-.49.1-.26.25-.51.46-.76s.52-.54.92-.87c.62-.51,1.04-.92,1.26-1.21.22-.3.33-.58.33-.85,0-.28-.1-.51-.3-.71s-.46-.29-.78-.29c-.34,0-.61.1-.81.3s-.31.48-.31.84l-.72-.07c.05-.54.24-.95.56-1.23.32-.28.76-.42,1.3-.42s.98.15,1.3.46.48.68.48,1.13c0,.23-.05.45-.14.68-.09.22-.25.45-.47.7-.22.24-.58.58-1.08,1.01-.42.35-.69.59-.81.72-.12.13-.22.25-.3.38h2.81Z"/>
    </g>
    <g>
      <path d="M145.69,354.91l2.21-2.98-1.95-2.74h.9l1.04,1.47c.22.3.37.54.46.7.13-.21.28-.43.45-.65l1.15-1.52h.82l-2.01,2.7,2.17,3.03h-.94l-1.44-2.04c-.08-.12-.16-.24-.25-.38-.13.21-.22.35-.27.43l-1.44,2h-.91Z"/>
      <path d="M151.33,353.4l.7-.09c.08.4.22.69.41.86.19.18.43.26.71.26.33,0,.61-.11.84-.34.23-.23.34-.51.34-.85s-.11-.59-.32-.8-.48-.31-.8-.31c-.13,0-.3.03-.5.08l.08-.62s.08,0,.11,0c.3,0,.57-.08.81-.23.24-.16.36-.4.36-.72,0-.26-.09-.47-.26-.64-.17-.17-.4-.25-.68-.25s-.5.09-.68.26c-.18.17-.3.43-.35.77l-.7-.12c.09-.47.28-.84.59-1.1s.68-.39,1.14-.39c.31,0,.6.07.86.2.26.13.46.32.6.55.14.23.21.48.21.74s-.07.47-.2.68-.33.36-.59.48c.34.08.6.24.79.49s.28.55.28.92c0,.5-.18.92-.55,1.27-.37.35-.83.52-1.38.52-.5,0-.92-.15-1.25-.45s-.52-.69-.57-1.16Z"/>
    </g>
    <g>
      <path d="M0,168.61v-5.73h1.97c.45,0,.79.03,1.02.08.33.08.61.21.84.41.3.26.53.58.68.98s.22.85.22,1.36c0,.44-.05.82-.15,1.16s-.23.61-.39.83-.33.39-.52.52-.42.22-.68.29-.57.1-.92.1H0ZM.76,167.94h1.22c.38,0,.67-.04.89-.11s.39-.17.51-.3c.18-.18.32-.42.42-.72s.15-.67.15-1.1c0-.6-.1-1.06-.29-1.38s-.44-.54-.72-.65c-.2-.08-.53-.12-.98-.12H.76v4.38Z"/>
      <path d="M7.75,168.61v-1.37h-2.48v-.64l2.61-3.71h.57v3.71h.77v.64h-.77v1.37h-.7ZM7.75,166.6v-2.58l-1.79,2.58h1.79Z"/>
    </g>
    <g>
      <path d="M1.89,176.06v-5.05H0v-.68h4.54v.68h-1.89v5.05h-.76Z"/>
      <path d="M6.95,176.06l-2.22-5.73h.82l1.49,4.16c.12.33.22.65.3.94.09-.31.19-.62.31-.94l1.55-4.16h.77l-2.24,5.73h-.78Z"/>
      <path d="M10.65,176.06v-5.73h1.97c.45,0,.79.03,1.02.08.33.08.61.21.84.41.3.26.53.58.68.98s.22.85.22,1.36c0,.44-.05.82-.15,1.16s-.23.61-.39.83-.33.39-.52.52-.42.22-.68.29-.57.1-.92.1h-2.07ZM11.41,175.39h1.22c.38,0,.67-.04.89-.11s.39-.17.51-.3c.18-.18.32-.42.42-.72s.15-.67.15-1.1c0-.6-.1-1.06-.29-1.38s-.44-.54-.72-.65c-.2-.08-.53-.12-.98-.12h-1.2v4.38Z"/>
    </g>
    <path d="M87.11,124.06l-.84,2.54h-1.08l2.75-8.08h1.26l2.76,8.08h-1.12l-.86-2.54h-2.87ZM89.76,123.25l-.79-2.33c-.18-.53-.3-1.01-.42-1.48h-.02c-.12.48-.25.97-.41,1.46l-.79,2.34h2.43Z"/>
    <path d="M101.78,204.86c.46-.1,1.18-.17,1.91-.17,1.04,0,1.71.18,2.22.59.42.31.67.79.67,1.43,0,.78-.52,1.46-1.37,1.77v.02c.77.19,1.67.83,1.67,2.03,0,.7-.28,1.22-.68,1.62-.56.52-1.48.76-2.79.76-.72,0-1.27-.05-1.62-.1v-7.95ZM102.82,208.17h.95c1.1,0,1.75-.58,1.75-1.35,0-.95-.72-1.32-1.78-1.32-.48,0-.75.04-.92.07v2.6ZM102.82,212.04c.2.04.5.05.88.05,1.08,0,2.08-.4,2.08-1.57,0-1.1-.95-1.56-2.09-1.56h-.86v3.08Z"/>
    <path d="M159.27,140.17c0-2.45,1-4.32,2.81-4.32s2.7,1.74,2.7,4.32-.88,4.46-2.73,4.46c-1.71,0-2.77-1.5-2.77-4.46ZM163.73,139.72c-.01-1.7-.55-3.08-1.72-3.08-1.07,0-1.7,1.45-1.7,3.08h3.42ZM160.31,140.51c0,2.13.72,3.35,1.75,3.35,1.13,0,1.67-1.39,1.67-3.35h-3.42Z"/>
    <path d="M118.43,239.61c0-2.45,1-4.32,2.81-4.32s2.7,1.74,2.7,4.32-.88,4.46-2.73,4.46c-1.71,0-2.77-1.5-2.77-4.46ZM122.89,239.16c-.01-1.7-.55-3.08-1.72-3.08-1.07,0-1.7,1.45-1.7,3.08h3.42ZM119.47,239.95c0,2.13.72,3.35,1.75,3.35,1.13,0,1.67-1.39,1.67-3.35h-3.42Z"/>
    <path d="M195.02,122.48c0,2.78-1.69,4.26-3.75,4.26s-3.63-1.65-3.63-4.1c0-2.57,1.6-4.25,3.75-4.25s3.63,1.69,3.63,4.09ZM188.74,122.61c0,1.73.93,3.27,2.58,3.27s2.59-1.52,2.59-3.36c0-1.61-.84-3.29-2.58-3.29s-2.59,1.59-2.59,3.37Z"/>
    <path d="M176.68,143.05c-3.06-3.53-4.74-8.05-4.74-12.72h1c0,4.43,1.6,8.72,4.5,12.06l-.76.65Z"/>
    <circle cx="82.44" cy="130.65" r="1.6"/>
    <circle cx="191.02" cy="130.65" r="1.6"/>
    <circle cx="109.92" cy="201.79" r="1.6"/>
  </g>
</svg>