<?xml version="1.0" encoding="UTF-8"?>
<svg id="Layer_2" data-name="Layer 2" xmlns="http://www.w3.org/2000/svg" viewBox="0 0 326.38 389.8">
  <defs>
    <style>
      .cls-1 {
        fill: blue;
      }

      .cls-2 {
        fill: red;
      }
    </style>
  </defs>
  <g id="Layer_1-2" data-name="Layer 1">
    <path d="M147.14,319.34h-1c0-2.88-.98-5.72-2.76-7.98l.79-.62c1.92,2.44,2.97,5.49,2.97,8.6Z"/>
    <path class="cls-1" d="M226.94,241.48c-.11,0-.23-.04-.32-.11-12.4-10.26-26.33-17.94-41.4-22.83-9.35-3.03-19.1-4.96-28.97-5.72-.28-.02-.48-.26-.46-.54.02-.28.29-.48.54-.46,9.95.76,19.77,2.7,29.2,5.76,15.19,4.93,29.23,12.67,41.72,23.01.21.18.24.49.07.7-.1.12-.24.18-.38.18Z"/>
    <path d="M167.29,98.6c-4.15-4.25-6.44-9.89-6.44-15.88h1c0,5.73,2.19,11.12,6.16,15.18l-.71.7Z"/>
    <path d="M127.7,160.42c-2.01,0-3.56-.54-4.17-.79l.38-.92c.9.37,4.13,1.47,7.66-.09,3.52-1.55,4.9-4.64,5.24-5.56l.94.35c-.37,1.01-1.89,4.42-5.78,6.12-1.52.67-2.99.89-4.28.89Z"/>
    <g>
      <rect x="108.05" y="347" width="9.04" height="1"/>
      <polygon points="115.63 342.51 124.27 347.5 115.63 352.49 115.63 342.51"/>
      <polygon points="109.51 342.51 100.88 347.5 109.51 352.49 109.51 342.51"/>
    </g>
    <g>
      <rect x="108.05" y="362.46" width="111.71" height="1"/>
      <polygon points="218.31 357.97 226.94 362.96 218.31 367.95 218.31 357.97"/>
      <polygon points="109.51 357.97 100.88 362.96 109.51 367.95 109.51 357.97"/>
    </g>
    <g>
      <rect x="108.05" y="379.7" width="169.4" height="1"/>
      <polygon points="275.99 375.21 284.62 380.2 275.99 385.19 275.99 375.21"/>
      <polygon points="109.51 375.21 100.88 380.2 109.51 385.19 109.51 375.21"/>
    </g>
    <g>
      <rect x="19.47" y="9.36" width="1" height="302.8"/>
      <polygon points="14.99 10.82 19.97 2.18 24.96 10.82 14.99 10.82"/>
      <polygon points="14.99 310.7 19.97 319.34 24.96 310.7 14.99 310.7"/>
    </g>
    <g>
      <rect x="47.14" y="9.36" width="1" height="224.75"/>
      <polygon points="42.66 10.82 47.64 2.18 52.63 10.82 42.66 10.82"/>
      <polygon points="42.66 232.65 47.64 241.29 52.63 232.65 42.66 232.65"/>
    </g>
    <g>
      <rect x="68.49" y="9.36" width="1" height="120.58"/>
      <polygon points="64 10.82 68.99 2.18 73.97 10.82 64 10.82"/>
      <polygon points="64 128.48 68.99 137.12 73.97 128.48 64 128.48"/>
    </g>
    <g>
      <rect x="78.62" y="9.36" width="1" height="77.78"/>
      <polygon points="74.13 10.82 79.12 2.18 84.1 10.82 74.13 10.82"/>
      <polygon points="74.13 85.68 79.12 94.31 84.1 85.68 74.13 85.68"/>
    </g>
    <path d="M101.38,389.8h-1v-7.08h1v7.08ZM101.38,378.72h-1v-8h1v8ZM101.38,366.72h-1v-8h1v8ZM101.38,354.72h-1v-8h1v8ZM101.38,342.72h-1v-8h1v8ZM101.38,330.72h-1v-8h1v8ZM101.38,318.72h-1v-8h1v8ZM101.38,306.72h-1v-8h1v8ZM101.38,294.72h-1v-8h1v8ZM101.38,282.72h-1v-8h1v8ZM101.38,270.72h-1v-8h1v8ZM101.38,258.72h-1v-8h1v8ZM101.38,246.72h-1v-8h1v8ZM101.38,234.72h-1v-8h1v8ZM101.38,222.72h-1v-8h1v8ZM101.38,210.72h-1v-8h1v8ZM101.38,198.72h-1v-8h1v8ZM101.38,186.72h-1v-8h1v8ZM101.38,174.72h-1v-8h1v8ZM101.38,162.72h-1v-8h1v8ZM101.38,150.72h-1v-8h1v8ZM101.38,138.72h-1v-8h1v8ZM101.38,126.72h-1v-8h1v8ZM101.38,114.72h-1v-8h1v8ZM101.38,102.72h-1v-8h1v8ZM101.38,90.72h-1v-8h1v8Z"/>
    <path d="M124.22,347.5h-1v-3.98h1v3.98ZM124.22,339.52h-1v-8h1v8ZM124.22,327.52h-1v-8h1v8ZM124.22,315.52h-1v-8h1v8ZM124.22,303.52h-1v-8h1v8ZM124.22,291.52h-1v-8h1v8ZM124.22,279.52h-1v-8h1v8ZM124.22,267.52h-1v-8h1v8ZM124.22,255.52h-1v-8h1v8ZM124.22,243.52h-1v-8h1v8ZM124.22,231.52h-1v-8h1v8ZM124.22,219.52h-1v-8h1v8ZM124.22,207.52h-1v-8h1v8ZM124.22,195.52h-1v-8h1v8ZM124.22,183.52h-1v-8h1v8ZM124.22,171.52h-1v-8h1v8ZM124.22,159.52h-1v-8h1v8ZM124.22,147.52h-1v-8h1v8Z"/>
    <path d="M227.44,362.96h-1v-1.98h1v1.98ZM227.44,356.98h-1v-8h1v8ZM227.44,344.98h-1v-8h1v8ZM227.44,332.98h-1v-8h1v8ZM227.44,320.98h-1v-8h1v8ZM227.44,308.98h-1v-8h1v8ZM227.44,296.98h-1v-8h1v8ZM227.44,284.98h-1v-8h1v8ZM227.44,272.98h-1v-8h1v8ZM227.44,260.98h-1v-8h1v8ZM227.44,248.98h-1v-8h1v8Z"/>
    <path d="M285.12,380.2h-1v-.86h1v.86ZM285.12,375.34h-1v-8h1v8ZM285.12,363.34h-1v-8h1v8ZM285.12,351.34h-1v-8h1v8ZM285.12,339.34h-1v-8h1v8ZM285.12,327.34h-1v-8h1v8Z"/>
    <path d="M284.62,319.84h-8v-1h8v1ZM272.62,319.84h-8v-1h8v1ZM260.62,319.84h-8v-1h8v1ZM248.62,319.84h-8v-1h8v1ZM236.62,319.84h-8v-1h8v1ZM224.62,319.84h-8v-1h8v1ZM212.62,319.84h-8v-1h8v1ZM200.62,319.84h-8v-1h8v1ZM188.62,319.84h-8v-1h8v1ZM176.62,319.84h-8v-1h8v1ZM164.62,319.84h-8v-1h8v1ZM152.62,319.84h-8v-1h8v1ZM140.62,319.84h-8v-1h8v1ZM128.62,319.84h-8v-1h8v1ZM116.62,319.84h-8v-1h8v1ZM104.62,319.84h-8v-1h8v1ZM92.62,319.84h-8v-1h8v1ZM80.62,319.84h-8v-1h8v1ZM68.62,319.84h-8v-1h8v1ZM56.62,319.84h-8v-1h8v1ZM44.62,319.84h-8v-1h8v1ZM32.62,319.84h-8v-1h8v1ZM20.62,319.84h-4.58v-1h4.58v1Z"/>
    <path d="M226.97,241.48h-8v-1h8v1ZM214.97,241.48h-8v-1h8v1ZM202.97,241.48h-8v-1h8v1ZM190.97,241.48h-8v-1h8v1ZM178.97,241.48h-8v-1h8v1ZM166.97,241.48h-8v-1h8v1ZM154.97,241.48h-8v-1h8v1ZM142.97,241.48h-8v-1h8v1ZM130.97,241.48h-8v-1h8v1ZM118.97,241.48h-8v-1h8v1ZM106.97,241.48h-8v-1h8v1ZM94.97,241.48h-8v-1h8v1ZM82.97,241.48h-8v-1h8v1ZM70.97,241.48h-8v-1h8v1ZM58.97,241.48h-8v-1h8v1Z"/>
    <path d="M123.72,140.02h-8v-1h8v1ZM111.72,140.02h-8v-1h8v1ZM99.72,140.02h-8v-1h8v1ZM87.72,140.02h-8v-1h8v1ZM75.72,140.02h-6.73v-1h6.73v1Z"/>
    <rect x="100.38" width="226" height="1"/>
    <rect class="cls-1" x="183.74" y="82.72" width="1" height="236.62"/>
    <path class="cls-1" d="M288.77,190.21c-.13,0-.26-.05-.36-.15l-104.53-107c-.19-.2-.19-.51,0-.71.2-.19.52-.19.71,0l104.53,107c.19.2.19.51,0,.71-.1.1-.22.14-.35.14Z"/>
    <rect class="cls-1" x="109.76" y="254.02" width="202.48" height="1" transform="translate(-114.05 194.11) rotate(-39.81)"/>
    <rect class="cls-1" x="37.71" y="200.53" width="242.06" height="1" transform="translate(-71.25 313.79) rotate(-77.82)"/>
    <path class="cls-1" d="M184.24,83.22h-22.23c-.28,0-.5-.22-.5-.5s.22-.5.5-.5h22.23c.28,0,.5.22.5.5s-.22.5-.5.5Z"/>
    <path class="cls-1" d="M162.01,83.22h-61.13c-.28,0-.5-.22-.5-.5s.22-.5.5-.5h61.13c.28,0,.5.22.5.5s-.22.5-.5.5Z"/>
    <rect class="cls-1" x="112.48" y="110.62" width="83.01" height="1" transform="translate(-34.36 135.33) rotate(-43.14)"/>
    <path class="cls-1" d="M183.54,165.38c-45.86,0-83.17-37.31-83.17-83.17h1c0,45.31,36.86,82.17,82.17,82.17v1Z"/>
    <path class="cls-2" d="M284.34,319.99l-.19-.46c-6.89-17.3-16.1-33.35-27.38-47.69-12.58-16-24.58-25.87-29.7-30.09l-.45-.37c-25.33-20.88-60.07-55.03-103.27-101.5-7.02-7.52-12.55-16.02-16.43-25.25-2.66-6.32-4.6-13.17-5.61-19.8-.63-4.13-.94-8.25-.94-12.6V0h1v82.22c0,4.3.3,8.37.92,12.45,1,6.55,2.92,13.31,5.55,19.56,3.84,9.12,9.3,17.52,16.24,24.95,43.17,46.43,77.88,80.55,103.17,101.41l.45.37c5.15,4.24,17.2,14.16,29.85,30.25,11.34,14.42,20.6,30.55,27.53,47.94l.18.46-.93.37Z"/>
    <g>
      <path d="M53.24,69.65v-5.69h1.96c.44,0,.78.03,1.01.08.33.08.6.21.83.41.3.25.52.58.67.97.15.39.22.85.22,1.35,0,.43-.05.82-.15,1.15-.1.33-.23.61-.39.83-.16.22-.33.39-.52.52s-.41.22-.68.29c-.27.06-.57.1-.91.1h-2.05ZM54,68.98h1.22c.38,0,.67-.03.88-.1s.38-.17.51-.3c.18-.18.32-.42.42-.72.1-.3.15-.67.15-1.1,0-.6-.1-1.05-.29-1.37s-.43-.53-.71-.64c-.2-.08-.53-.12-.97-.12h-1.2v4.35Z"/>
      <path d="M62.38,68.98v.67h-3.76c0-.17.02-.33.08-.49.1-.26.25-.51.46-.76.21-.25.52-.54.91-.86.62-.51,1.04-.91,1.25-1.21.22-.3.33-.58.33-.84,0-.28-.1-.51-.3-.7-.2-.19-.46-.29-.77-.29-.34,0-.61.1-.81.3s-.3.48-.31.84l-.72-.07c.05-.54.23-.94.56-1.23.32-.28.75-.42,1.29-.42s.98.15,1.3.45c.32.3.48.68.48,1.13,0,.23-.05.45-.14.67-.09.22-.25.45-.46.69-.22.24-.58.58-1.08,1-.42.35-.69.59-.81.72s-.22.25-.29.38h2.79Z"/>
    </g>
    <g>
      <g>
        <path d="M82,48.33v-5.69h1.96c.44,0,.78.03,1.01.08.33.08.6.21.83.41.3.25.52.58.67.97s.22.85.22,1.35c0,.43-.05.82-.15,1.15s-.23.61-.39.83-.33.39-.52.52-.41.22-.68.29-.57.1-.91.1h-2.05ZM82.75,47.66h1.22c.38,0,.67-.03.88-.1s.38-.17.51-.3c.18-.18.32-.42.42-.72s.15-.67.15-1.1c0-.6-.1-1.05-.29-1.37s-.43-.53-.71-.64c-.2-.08-.53-.12-.97-.12h-1.2v4.35Z"/>
        <path d="M90.09,48.33h-.7v-4.45c-.17.16-.39.32-.66.48s-.52.28-.74.36v-.68c.39-.18.73-.41,1.03-.67s.5-.52.62-.76h.45v5.72Z"/>
      </g>
      <g>
        <path d="M82.14,56.76v-5.69h.75v2.82l2.83-2.82h1.02l-2.39,2.31,2.49,3.39h-.99l-2.03-2.88-.93.91v1.97h-.75Z"/>
        <path d="M93.65,56.76v-5.69h2.15c.38,0,.67.02.87.05.28.05.51.14.7.27s.34.31.46.55.17.49.17.78c0,.48-.15.89-.46,1.23s-.86.5-1.67.5h-1.46v2.31h-.75ZM94.4,53.77h1.47c.49,0,.83-.09,1.04-.27s.31-.44.31-.76c0-.24-.06-.44-.18-.61s-.28-.28-.48-.34c-.13-.03-.36-.05-.7-.05h-1.46v2.03Z"/>
        <path d="M87.37,53.99c0-.94.25-1.68.76-2.22s1.16-.8,1.96-.8c.53,0,1,.13,1.42.38s.74.6.96,1.05.33.96.33,1.53-.12,1.09-.35,1.55-.56.8-.99,1.03-.89.35-1.38.35c-.54,0-1.01-.13-1.44-.39s-.74-.61-.96-1.06-.33-.92-.33-1.42ZM88.15,54c0,.69.18,1.23.55,1.62s.83.59,1.39.59,1.03-.2,1.4-.6.55-.96.55-1.7c0-.46-.08-.87-.23-1.21s-.39-.61-.69-.8-.64-.29-1.02-.29c-.53,0-.99.18-1.38.55s-.58.98-.58,1.83Z"/>
      </g>
    </g>
    <g>
      <path d="M35.12,121.21v-5.69h1.96c.44,0,.78.03,1.01.08.33.08.6.21.83.41.3.25.52.58.67.97s.22.85.22,1.35c0,.43-.05.82-.15,1.15s-.23.61-.39.83-.33.39-.52.52-.41.22-.68.29-.57.1-.91.1h-2.05ZM35.87,120.53h1.22c.38,0,.67-.03.88-.1s.38-.17.51-.3c.18-.18.32-.42.42-.72s.15-.67.15-1.1c0-.6-.1-1.05-.29-1.37s-.43-.53-.71-.64c-.2-.08-.53-.12-.97-.12h-1.2v4.35Z"/>
      <path d="M40.58,119.7l.7-.09c.08.4.22.68.41.86s.43.26.7.26c.33,0,.61-.11.83-.34s.34-.51.34-.85-.1-.59-.31-.79-.48-.31-.8-.31c-.13,0-.3.03-.49.08l.08-.61s.08,0,.11,0c.3,0,.57-.08.8-.23s.36-.39.36-.72c0-.26-.09-.47-.26-.64s-.4-.25-.67-.25-.5.09-.68.26-.3.43-.35.77l-.7-.12c.09-.47.28-.83.58-1.09s.68-.39,1.13-.39c.31,0,.6.07.86.2s.46.32.6.55.21.47.21.73-.07.47-.2.67-.33.36-.59.48c.34.08.6.24.78.48s.28.55.28.92c0,.5-.18.92-.54,1.26s-.82.52-1.37.52c-.5,0-.91-.15-1.24-.45s-.52-.68-.56-1.16Z"/>
    </g>
    <g>
      <path d="M107.03,337.83l2.21-2.98-1.95-2.74h.9l1.04,1.47c.22.3.37.54.46.7.13-.21.28-.43.45-.65l1.15-1.52h.82l-2.01,2.7,2.17,3.03h-.94l-1.44-2.04c-.08-.12-.16-.24-.25-.38-.13.21-.22.35-.27.43l-1.44,2h-.91Z"/>
      <path d="M116.36,337.15v.68h-3.79c0-.17.02-.33.08-.49.1-.26.25-.51.46-.76.21-.25.52-.54.92-.87.62-.51,1.04-.91,1.26-1.21s.33-.58.33-.85c0-.28-.1-.51-.3-.71s-.46-.29-.78-.29c-.34,0-.61.1-.81.3s-.31.48-.31.84l-.72-.07c.05-.54.24-.95.56-1.23.32-.28.76-.42,1.3-.42s.98.15,1.3.46.48.68.48,1.13c0,.23-.05.45-.14.68s-.25.45-.47.7c-.22.24-.58.58-1.08,1.01-.42.35-.69.59-.81.72-.12.13-.22.25-.3.38h2.81Z"/>
    </g>
    <g>
      <path d="M184.21,376.63l2.21-2.98-1.95-2.74h.9l1.04,1.47c.22.3.37.54.46.7.13-.21.28-.43.45-.65l1.15-1.52h.82l-2.01,2.7,2.17,3.03h-.94l-1.44-2.04c-.08-.12-.16-.24-.25-.38-.13.21-.22.35-.27.43l-1.44,2h-.91Z"/>
      <path d="M192.1,376.63v-1.37h-2.48v-.64l2.61-3.71h.57v3.71h.77v.64h-.77v1.37h-.7ZM192.1,374.62v-2.58l-1.79,2.58h1.79Z"/>
    </g>
    <g>
      <path d="M163.94,354.9l2.21-2.98-1.95-2.74h.9l1.04,1.47c.22.3.37.54.46.7.13-.21.28-.43.45-.65l1.15-1.52h.82l-2.01,2.7,2.17,3.03h-.94l-1.44-2.04c-.08-.12-.16-.24-.25-.38-.13.21-.22.35-.27.43l-1.44,2h-.91Z"/>
      <path d="M169.58,353.39l.7-.09c.08.4.22.69.41.86.19.18.43.26.71.26.33,0,.61-.11.84-.34.23-.23.34-.51.34-.85s-.11-.59-.32-.8-.48-.31-.8-.31c-.13,0-.3.03-.5.08l.08-.62s.08,0,.11,0c.3,0,.57-.08.81-.23.24-.16.36-.4.36-.72,0-.26-.09-.47-.26-.64-.17-.17-.4-.25-.68-.25s-.5.09-.68.26c-.18.17-.3.43-.35.77l-.7-.12c.09-.47.28-.84.59-1.1s.68-.39,1.14-.39c.31,0,.6.07.86.2.26.13.46.32.6.55.14.23.21.48.21.74s-.07.47-.2.68-.33.36-.59.48c.34.08.6.24.79.49s.28.55.28.92c0,.5-.18.92-.55,1.27-.36.35-.83.52-1.38.52-.5,0-.92-.15-1.25-.45s-.52-.69-.57-1.16Z"/>
    </g>
    <g>
      <path d="M0,168.61v-5.73h1.97c.45,0,.79.03,1.02.08.33.08.61.21.84.41.3.26.53.58.68.98s.22.85.22,1.36c0,.44-.05.82-.15,1.16s-.23.61-.39.83-.33.39-.52.52-.42.22-.68.29-.57.1-.92.1H0ZM.76,167.93h1.22c.38,0,.67-.04.89-.11s.39-.17.51-.3c.18-.18.32-.42.42-.72s.15-.67.15-1.1c0-.6-.1-1.06-.29-1.38s-.44-.54-.72-.65c-.2-.08-.53-.12-.98-.12H.76v4.38Z"/>
      <path d="M7.75,168.61v-1.37h-2.48v-.64l2.61-3.71h.57v3.71h.77v.64h-.77v1.37h-.7ZM7.75,166.59v-2.58l-1.79,2.58h1.79Z"/>
    </g>
    <g>
      <path d="M1.89,176.06v-5.05H0v-.68h4.54v.68h-1.89v5.05h-.76Z"/>
      <path d="M6.95,176.06l-2.22-5.73h.82l1.49,4.16c.12.33.22.65.3.94.09-.31.19-.62.31-.94l1.55-4.16h.77l-2.24,5.73h-.78Z"/>
      <path d="M10.65,176.06v-5.73h1.97c.45,0,.79.03,1.02.08.33.08.61.21.84.41.3.26.53.58.68.98s.22.85.22,1.36c0,.44-.05.82-.15,1.16s-.23.61-.39.83-.33.39-.52.52-.42.22-.68.29-.57.1-.92.1h-2.07ZM11.41,175.39h1.22c.38,0,.67-.04.89-.11s.39-.17.51-.3c.18-.18.32-.42.42-.72s.15-.67.15-1.1c0-.6-.1-1.06-.29-1.38s-.44-.54-.72-.65c-.2-.08-.53-.12-.98-.12h-1.2v4.38Z"/>
    </g>
    <path d="M105.94,77.29l-.84,2.54h-1.08l2.75-8.08h1.26l2.76,8.08h-1.12l-.86-2.54h-2.87ZM108.59,76.47l-.79-2.33c-.18-.53-.3-1.01-.42-1.48h-.02c-.12.48-.25.97-.41,1.46l-.79,2.34h2.43Z"/>
    <path d="M300.03,193.67c-.47.17-1.39.44-2.48.44-1.22,0-2.23-.31-3.02-1.07-.7-.67-1.13-1.75-1.13-3.01.01-2.41,1.67-4.17,4.38-4.17.93,0,1.67.2,2.01.37l-.25.85c-.43-.19-.97-.35-1.79-.35-1.97,0-3.25,1.22-3.25,3.25s1.24,3.26,3.12,3.26c.68,0,1.15-.1,1.39-.22v-2.41h-1.64v-.84h2.66v3.89Z"/>
    <path d="M229.29,235.01c-.38.19-1.15.38-2.13.38-2.28,0-3.99-1.44-3.99-4.09s1.72-4.25,4.22-4.25c1.01,0,1.64.22,1.92.36l-.25.85c-.4-.19-.96-.34-1.63-.34-1.89,0-3.15,1.21-3.15,3.33,0,1.98,1.14,3.25,3.11,3.25.64,0,1.28-.13,1.7-.34l.22.83Z"/>
    <path d="M135.6,328.29h-3.14v2.91h3.5v.88h-4.55v-8.08h4.37v.88h-3.32v2.55h3.14v.86Z"/>
    <path d="M180.75,324h4.35v.88h-3.31v2.69h3.06v.86h-3.06v3.66h-1.04v-8.08Z"/>
    <path d="M274.66,324.1c.64-.1,1.39-.17,2.22-.17,1.5,0,2.57.35,3.27,1.01.72.66,1.14,1.6,1.14,2.9s-.41,2.4-1.16,3.14c-.75.76-2,1.16-3.57,1.16-.74,0-1.37-.04-1.9-.1v-7.95ZM275.71,331.25c.26.05.65.06,1.06.06,2.23,0,3.44-1.25,3.44-3.43.01-1.91-1.07-3.12-3.27-3.12-.54,0-.95.05-1.22.11v6.38Z"/>
    <path d="M122.15,127.66c.46-.1,1.18-.17,1.91-.17,1.04,0,1.72.18,2.22.59.42.31.67.79.67,1.43,0,.78-.52,1.46-1.37,1.77v.02c.77.19,1.67.83,1.67,2.03,0,.7-.28,1.22-.68,1.62-.56.52-1.47.76-2.79.76-.72,0-1.27-.05-1.62-.1v-7.95ZM123.2,130.97h.95c1.1,0,1.75-.58,1.75-1.35,0-.95-.72-1.32-1.78-1.32-.48,0-.75.04-.92.07v2.6ZM123.2,134.84c.2.04.5.05.88.05,1.08,0,2.07-.4,2.07-1.57,0-1.1-.95-1.56-2.09-1.56h-.86v3.08Z"/>
    <path d="M178.76,126v.8c0,.68.01,1.68.13,2.17h-.98c-.14-.38-.18-1.2-.18-2.04v-5.53c0-1.65.44-2.39.9-2.82.41-.38.94-.64,1.7-.64,1.19,0,2.1.84,2.1,2.09,0,.91-.52,1.6-1.07,1.87v.05c.91.19,1.78.96,1.78,2.29,0,1.61-1.22,2.48-2.51,2.48-.8,0-1.4-.26-1.85-.73h-.02ZM178.75,124.96c.28.44.86.96,1.69.96.96,0,1.64-.71,1.64-1.67,0-1.15-.82-1.74-1.87-1.78-.11-.01-.22,0-.32,0v-.72c.07,0,.13-.01.2-.02.91-.06,1.37-.77,1.37-1.54,0-.85-.52-1.4-1.22-1.4-.97,0-1.49.84-1.49,2.49v3.67Z"/>
    <path d="M195.84,108.03c.56.04,1.42.44,1.97,1.09.61.68,1.1,1.69,1.25,2.96h.05c.2-1.3.83-2.3,1.4-2.94.56-.6,1.31-1.03,1.85-1.12l.18.85c-.89.34-2.22,1.49-2.77,3.57-.12.48-.23,1.03-.23,1.66v2.07h-1.04v-2.09c0-.6-.06-1.14-.17-1.63-.48-2.17-1.61-3.35-2.67-3.59l.19-.85Z"/>
    <path d="M159.85,90.48c-.06.61-.16,2.6-.16,4.15,0,.68.17.97.58.98l-.08.76c-.07.04-.24.05-.36.05-.52,0-.94-.34-1-1.22h-.04c-.38.7-1.06,1.22-1.98,1.22-1.38,0-2.38-1.15-2.38-2.91,0-1.9,1.25-3.15,2.59-3.15.84,0,1.47.43,1.79,1.16h.05c.02-.46.06-.74.11-1.03h.88ZM157.08,95.57c.73,0,1.37-.71,1.55-1.48.06-.26.07-.49.07-.82,0-.23,0-.42-.05-.62-.14-.78-.72-1.49-1.49-1.49-.98,0-1.66.97-1.66,2.29,0,1.1.56,2.11,1.57,2.11Z"/>
    <path d="M136.37,164.53c-.06.61-.16,2.6-.16,4.15,0,.68.17.97.58.98l-.08.76c-.07.04-.24.05-.36.05-.52,0-.94-.34-1-1.22h-.04c-.38.7-1.06,1.22-1.98,1.22-1.38,0-2.38-1.15-2.38-2.91,0-1.9,1.25-3.15,2.59-3.15.84,0,1.47.43,1.79,1.16h.05c.02-.46.06-.74.11-1.03h.88ZM133.6,169.63c.73,0,1.37-.71,1.55-1.48.06-.26.07-.49.07-.82,0-.23,0-.42-.05-.62-.14-.78-.72-1.49-1.49-1.49-.98,0-1.66.97-1.66,2.29,0,1.1.56,2.11,1.57,2.11Z"/>
    <path d="M157.88,307.82c-.25-.18-.92-.48-1.58-.48s-.98.25-.98.54c0,.31.32.54.86.97l.98.79c.96.73,1.54,1.57,1.54,2.72,0,1.8-1.26,2.96-2.82,2.96s-2.82-1.06-2.82-2.91c0-1.49,1.02-2.47,2.21-3.03v-.06l-.28-.22c-.28-.23-.73-.65-.73-1.2,0-.65.66-1.36,2.01-1.36.84,0,1.57.3,1.92.58l-.31.7ZM155.87,309.87c-.91.48-1.75,1.26-1.75,2.53,0,1.35.9,2.13,1.81,2.13s1.7-.78,1.7-2.1c0-.82-.38-1.49-1.13-2.06l-.63-.5Z"/>
    <path d="M188.05,75.71c0,2.78-1.69,4.26-3.75,4.26s-3.63-1.65-3.63-4.1c0-2.57,1.6-4.25,3.75-4.25s3.63,1.69,3.63,4.09ZM181.78,75.84c0,1.73.94,3.27,2.58,3.27s2.59-1.52,2.59-3.36c0-1.61-.84-3.29-2.58-3.29s-2.59,1.59-2.59,3.37Z"/>
    <path d="M183.7,105.9c-1.33-.05-2.66-.22-3.96-.5l.21-.98c1.24.26,2.52.42,3.79.47l-.04,1Z"/>
    <path d="M184.83,105.92v-1c5.62-.06,11.12-2.32,15.08-6.21l.7.71c-4.15,4.07-9.9,6.44-15.79,6.5Z"/>
    <circle cx="100.88" cy="82.72" r="1.6"/>
    <circle cx="184.24" cy="82.72" r="1.6"/>
    <circle cx="123.72" cy="139.52" r="1.6"/>
    <circle cx="226.94" cy="240.98" r="1.6"/>
    <circle cx="184.24" cy="319.34" r="1.6"/>
    <circle cx="133.23" cy="319.34" r="1.6"/>
    <circle cx="284.62" cy="319.34" r="1.6"/>
    <circle cx="288.77" cy="189.71" r="1.6"/>
  </g>
</svg>