<svg xmlns="http://www.w3.org/2000/svg" id="Layer_2" data-name="Layer 2" viewBox="0 0 829.22 839.69"><defs><style>.cls-1{fill:#001a70}.cls-2{fill:none}.cls-3{fill:#001a70}</style></defs><g id="Layer_1-2" data-name="Layer 1"><path d="M342.61 443.81h5.24v8.13h-5.24zM287.82 334.97v58.7h2.28v-58.7h-.54v-8.87h.54v-78.69h-.54v-8.87h.54v-49.15h-2.28v49.15h.54v8.87h-.54v78.69h.54v8.87zM342.61 177.06v20.18h12.44v-18.67l-6.74-9.7zM294.38 238.54h.55v8.87h-.55v78.69h.55v8.87h-.55v58.7h16.07l8.85-185.9h-5.66v-10.53h6.16l.38-7.85h-25.8zM292.84 334.97v-8.87h.54v-78.69h-.54v-8.87h.54v-49.15h-2.28v49.15h.54v8.87h-.54v78.69h.54v8.87h-.54v58.7h2.28v-58.7zM342.61 171.29l3.69-5.3-3.69-5.31zM338.27 443.81h4.09v8.13h-4.09zM350.31 165.99l4.74 6.81v-13.63zM342.61 133.27v21.65l5.7 8.18 6.74-9.7v-20.13zM355.3 128.08h11.16l-11.16-16.06zM342.36 128.08V110.6l-12.15 17.48zM342.36 88.35V70.76h-12.23zM342.36 154.56v-21.29h-14.79zM355.3 92v14.96l14.68 21.12h1.2l-2.71-55.03zM366.54 70.76H355.3v16.17zM352.48 38.46c0-2.02-1.64-3.66-3.66-3.66s-3.66 1.64-3.66 3.66 1.64 3.66 3.66 3.66 3.66-1.64 3.66-3.66" class="cls-2"/><path d="M355.05 49.48V40.8c-.95 2.53-3.38 4.33-6.23 4.33s-5.23-1.75-6.2-4.23v8.58zM342.61 63.89h12.43v2.31h-12.43z" class="cls-2"/><path d="M342.36 40.12c-.14-.53-.22-1.08-.22-1.66 0-3.68 2.98-6.66 6.66-6.66s6.66 2.98 6.66 6.66c0 .52-.07 1.03-.18 1.52v9.5h2.76V29.01h-18.89v20.47h3.2v-9.36ZM355.3 362.1v31.57h28.98l-1.56-31.57zM373.9 443.81h11.13v8.13H373.9zM355.3 443.81h4.91v8.13h-4.91zM355.3 234.9v12.78l23.34 31.72-3.53-71.63h-.47zM355.3 158.81v14.35l16.74 24.08h2.55l-3.05-61.8zM349.83 443.81h5.21v8.13h-5.21zM355.3 133.27v19.77l13.74-19.77zM342.61 286.08v26.96l5.58 6.12 6.86-7.48v-25.6zM342.36 312.77v-26.69h-24.33zM355.05 317.84l-4.04 4.4 4.04 4.43zM345.45 322.15l-2.84-3.1v6.19zM322.97 280.22h19.39v-27.19zM342.36 325.51v-6.74l-24.93-27.33-3.08 64.63zM342.36 207.77h-16.44l16.44 22.34zM342.36 331.67l-22.5 24.56h22.5zM326.24 443.81h10.06v8.13h-10.06zM342.61 236.99v9.05l3.28-4.6zM328.58 197.24h13.78v-19.83zM318.24 280.22l24.12-33.83v-9.74l-20.96-28.48-3.43 72.05zM317.36 443.81h6.9v8.13h-6.9zM355.3 197.24h12.73l-12.73-18.31zM355.3 280.22h19.13l-19.13-26zM350.67 241.39l4.38 5.95v-12.09zM355.3 207.77v20.49l14.6-20.49zM342.36 393.67V362.1h-28.29l-1.51 31.57zM342.61 207.77v22.68l5.65 7.67 6.79-9.51v-20.84zM378.39 286.08H355.3v25.32l23.34-25.47-.25-.33zM342.61 362.1h12.43v31.57h-12.43zM348.26 325.24l-5.65 6.16v24.83h12.44v-23.55zM355.3 332.95v23.28h21.23zM378.95 285.6l-.03-.52-.11.67zM355.3 317.56v9.39l26.71 29.28h.42l-3.19-64.79zM342.61 252.68v27.54h12.44v-26.34l-6.75-9.17zM775.14 751.62c-1.7 0-2.93 1.03-3.19 2.69h6.36c-.26-1.63-1.49-2.69-3.17-2.69M264.38 540.29h-4.46v8.4h4.46c3.36 0 5.14-1.54 5.14-4.18s-1.78-4.22-5.14-4.22M245.35 540.2c-4.06 0-7.08 2.95-7.08 6.96s3.02 6.96 7.08 6.96 7.03-2.95 7.03-6.96-3-6.96-7.03-6.96M342.09 484.37l2.42-3.17h-2.42zM305.78 14.93c1.87 0 3.29-1.34 3.29-3.58s-1.42-3.58-3.29-3.58-3.31 1.34-3.31 3.58 1.44 3.58 3.31 3.58M372.38 475.55v-12.38h1.94v-5.36H355.3v12.87h1.13l-1.13 1.48v3.39zM344.93 475.55l-2.32-3.03v3.03zM342.61 457.81v12.87h2.56l2.81 3.73h1.8l2.82-3.73h2.45v-12.87zM328.11 67.37l-.02.45.02.03zM736.72 823.78c-2.45 0-4.25 1.73-4.46 4.2h8.95c-.22-2.47-2.02-4.2-4.49-4.2M355.05 472.48l-2.35 3.07h2.35zM752.25 759.01c1.87 0 3.29-1.34 3.29-3.58s-1.42-3.58-3.29-3.58-3.29 1.34-3.29 3.58 1.42 3.58 3.29 3.58M822.14 751.86c-1.87 0-3.31 1.34-3.31 3.58s1.44 3.58 3.31 3.58 3.29-1.34 3.29-3.58-1.42-3.58-3.29-3.58M733.41 758.87c3 0 5.26-2.18 5.26-5.38s-2.26-5.38-5.26-5.38-5.26 2.18-5.26 5.38 2.26 5.38 5.26 5.38M338.28 14.93c1.85 0 3.29-1.34 3.29-3.58s-1.44-3.58-3.29-3.58-3.31 1.34-3.31 3.58 1.44 3.58 3.31 3.58M395.73 14.93c1.87 0 3.29-1.34 3.29-3.58s-1.42-3.58-3.29-3.58-3.31 1.34-3.31 3.58 1.44 3.58 3.31 3.58M430.45 175.12c-2.45 0-4.25 1.73-4.46 4.2h8.95c-.22-2.47-2.02-4.2-4.49-4.2M323.67 457.81v7.55h2.97v10.19h15.72v-3.36l-1.15-1.51h1.15v-12.87zM353.17 481.2l2.61 3.41.02-3.41zM273.88 146.21h6.37v39.39h-6.37zM362.19 443.81h9.74v8.13h-9.74zM355.05 128.08v-16.42l-6.71-9.65-5.73 8.23v17.84zM439.01 620h-4.46v8.42h4.46c3.36 0 5.14-1.56 5.14-4.2s-1.78-4.22-5.14-4.22M346.58 99.48l-3.97-5.7v11.4zM281.25 146.21h2.28v39.39h-2.28zM318.92 185.6l2.34-39.39h-26.88v39.39zM284.54 146.21h2.28v39.39h-2.28zM326.96 128.08l-.05-.31 15.45-22.23V93.42l-14.5-20.86-2.64 55.52zM287.82 146.21h2.28v39.39h-2.28zM291.1 146.21h2.28v39.39h-2.28zM283.54 334.97h-.55v-8.87h.55v-78.69h-.55v-8.87h.55v-49.15h-2.29v49.15h.55v8.87h-.55v78.69h.55v8.87h-.55v58.7h2.29zM402.8 619.92h-5.35v6.1h5.35c2.69 0 4.25-1.03 4.25-3.05s-1.56-3.05-4.25-3.05M397.45 627.48v6.31h5.93c2.95 0 4.56-.96 4.56-3.17s-1.61-3.14-4.56-3.14zM324.57 197.24l17.79-25.59v-11.33l-17.48-25.15-2.55 53.47v.75h-.03l-.38 7.85zM284.54 334.97v58.7h2.28v-58.7h-.55v-8.87h.55v-78.69h-.55v-8.87h.55v-49.15h-2.28v49.15h.54v8.87h-.54v78.69h.54v8.87zM306.28 451.94h8.11v-8.13h-8.11v-5.86h-11.9v37.6h8.9v-10.19h3v-13.42M342.61 70.76v17.95l5.73 8.24 6.71-9.66V70.76zM355.05 92.36l-4.95 7.12 4.95 7.12z" class="cls-2"/><path d="M342.09 484.37v-3.17h2.42l2.38-3.11-1.95-2.55h-2.32v-3.03l-.25-.33v3.36h-15.73v-10.19h-2.97v-7.55h18.69v12.87h.25V457.8h12.43v12.87h.25V457.8h19.02v5.36h-1.95v12.39h-17.08v-3.39l-.25.33v3.07h-2.35l-1.93 2.52 2.4 3.13h2.63l-.02 3.41.93 1.21h-.94l-.44 77.09c.06 5.06.03 10.29 0 15.38-.09 20.04-.18 38.96 4.25 56.06 3.09 12.05 8.86 22.49 16.67 30.19 6.22 6.22 14.14 11.48 24.2 16.09 5.67 2.6 12.23 5.1 20.1 7.64 60.1 17.61 121.36 35.09 180.61 52 25.61 7.31 26.56 7.59 35.65 10.22 4.64 1.35 11.41 3.31 24.62 7.12l.1-.34.06.02 1.51-4.98-3.17 2.79c-11.86-3.42-18.17-5.25-22.56-6.52-9.09-2.63-10.04-2.91-35.67-10.22-59.24-16.91-120.49-34.39-180.56-51.99-7.76-2.51-14.25-4.97-19.85-7.55-9.84-4.51-17.57-9.64-23.63-15.69-7.56-7.45-13.14-17.57-16.15-29.27-4.36-16.85-4.28-35.65-4.18-55.59.02-5.06.05-10.29 0-15.35l.47-81.7h295.11v-5.65H395.71v-12.39h-3.99v-5.36h1.46v-5.87h-6.19v-8.13h6.19v-5.87h7.42v-44.28h-14.22l-9.17-185.89h5.13v-10.53h-5.65l-6.47-131.2-1.38.51v-.35h-13.57v-2.31h13.89v-4.56h-4.88V49.5h-5.26V28.03h-20.89V49.5h-5.5v9.85h-4.23v4.56h13.93v2.31h-14.25v.6l-.98-.36-1.07-.4-3.72 78.17h-27.95V130.7h-1v13.53h-2.28V130.7h-1v13.53h-2.28V130.7h-1v13.53h-2.28V130.7h-1v13.53h-2.28V130.7h-1v13.53h-8.37v43.39h-18.26v1.79h26.64v49.15h-.54v8.88h.54v78.68h-.54V335h.54v58.69h-8.2v20.3c-22.78 5.51-45.55 11.02-68.33 16.52v45.06H0v5.65h340.09v81.79c.06 5 .03 10.13.01 15.09v.13c-.09 20.13-.19 40.94 4.73 59.94 3.78 14.72 10.94 27.59 20.7 37.2 7.5 7.5 16.85 13.76 28.59 19.13 6.24 2.87 13.38 5.59 21.85 8.32l.21.07c60.32 17.67 121.58 35.15 180.81 52.06 25.55 7.29 26.5 7.57 35.56 10.19 4.31 1.25 10.47 3.03 21.95 6.35l1.42 4.6 1.03-3.9c.09.03.17.05.26.08l.55-1.92c-13.26-3.83-20.02-5.79-24.66-7.13-9.07-2.63-10.02-2.9-35.57-10.2-59.23-16.91-120.48-34.39-180.78-52.05l-.19-.06c-8.38-2.7-15.46-5.4-21.62-8.23-11.52-5.27-20.68-11.4-28.01-18.73-9.5-9.37-16.48-21.91-20.17-36.28-4.85-18.75-4.76-39.43-4.67-59.43v-.13c.02-4.97.05-10.11 0-15.11v-77.16h-1.11l1.11-1.45Zm-35.81-19.01h-3v10.19h-8.9v-37.6h11.9v5.87h8.12v8.13h-8.12zM284.54 326.1v-78.68h.54v-8.88h-.54v-49.15h2.28v49.15h-.54v8.88h.54v78.68h-.54v8.88h.54v58.69h-2.28v-58.69h.54v-8.88zm37.79-136.71v-.75l2.55-53.47 17.48 25.15v11.33l-17.79 25.59h-2.65l.37-7.85zm26.01-92.44-5.72-8.23V70.76h12.43V87.3zm6.71-4.59v14.24l-4.95-7.12zm-8.47 7.12-3.96 5.7v-11.4zm1.76 2.53 6.71 9.65v16.42h-12.43v-17.84zm23.59 341.8v8.13h-9.74v-8.13zm-47.67 0v8.13h-6.9v-8.13zm1.98 0h10.06v8.13h-10.06zm16.12-236.04v22.34l-16.44-22.34zm-13.78-10.53 13.78-19.83v19.83zm13.78 39.41v9.74l-24.12 33.83h-.27l3.43-72.05zm.25.34 3.28 4.45-3.28 4.6zm5.58 82.17-5.58-6.12v-26.96h12.43v25.59l-6.86 7.48Zm6.86-1.32v8.84l-4.04-4.43zm-9.6 4.31-2.83 3.09v-6.2zm-3.09-9.38-24.34-26.68h24.34zm-19.39-32.55 19.39-27.19v27.19zm-5.54 11.22 24.93 27.33v6.74l-28.01 30.56 3.08-64.64Zm24.93 40.23v24.56h-22.51zm-28.29 30.43h28.3v31.57h-29.8zm28.54 31.57V362.1h12.43v31.57zm0-37.44V331.4l5.65-6.16 6.78 7.44v23.56h-12.43Zm12.69-23.28 21.23 23.28H355.3zm26.71 23.28-26.71-29.29v-9.38l23.94-26.12 3.19 64.79zm-3.06-70.63-.14.15.12-.67.03.52Zm-23.65 25.8v-25.32h23.09v-.49l.25.34zm0-31.18v-26l19.14 26zm-.25 0h-12.43v-27.54l5.68-7.97 6.75 9.17zm-4.38-38.83 4.38-6.14v12.1l-4.38-5.95Zm-2.41-3.27-5.65-7.67v-22.68h12.43v20.83l-6.79 9.52Zm7.04-30.35h14.61l-14.61 20.48zm0-10.53v-18.32l12.73 18.32zm-.25 0h-12.43v-20.19l5.69-8.19 6.74 9.7zm-12.44-25.95v-10.61l3.69 5.3-3.69 5.3Zm7.7-5.3 4.74-6.81v13.63l-4.74-6.81Zm-2-2.89-5.69-8.19v-21.64h12.43v20.13zm6.99-29.83h13.74l-13.74 19.77zm0-5.19v-16.06l11.17 16.06zm-12.94 0h-12.15l12.15-17.48zm0 5.19v21.28l-14.79-21.28zm-22.56 63.97h-6.16v10.53h5.66l-8.86 185.89h-16.07v-58.69h.54v-8.88h-.54v-78.68h.54v-8.88h-.54v-49.15h25.8l-.37 7.85ZM287.82 326.1v-78.68h.54v-8.88h-.54v-49.15h2.28v49.15h-.54v8.88h.54v78.68h-.54v8.88h.54v58.69h-2.28v-58.69h.54v-8.88zm3.28 67.57v-58.69h.54v-8.88h-.54v-78.68h.54v-8.88h-.54v-49.15h2.28v49.15h-.54v8.88h.54v78.68h-.54v8.88h.54v58.69zm47.17 58.27v-8.13h4.09v8.13zm4.34-8.13h5.24v8.13h-5.24zm7.22 8.13v-8.13h5.21v8.13zm5.47-8.13h4.91v8.13h-4.91zm29.74 8.13h-11.13v-8.13h11.13zm-29.74-58.27V362.1h27.42l1.56 31.57zm23.34-114.27-23.35-31.72v-12.79l19.34-27.12h.47l3.53 71.63Zm-6.6-82.16-16.74-24.08v-14.35l16.25-23.37 3.05 61.8h-2.55Zm-.86-69.16h-1.2l-14.69-21.13V91.99l13.17-18.95 2.71 55.04Zm-4.64-57.32L355.3 86.94V70.76zm-17.73-25.63c2.86 0 5.29-1.8 6.23-4.33v8.68h-12.43V40.9a6.67 6.67 0 0 0 6.2 4.23m-3.66-6.67c0-2.02 1.64-3.66 3.66-3.66s3.66 1.64 3.66 3.66-1.64 3.66-3.66 3.66-3.66-1.64-3.66-3.66m-5.98-9.45h18.89v20.47h-2.76v-9.5c.11-.49.18-.99.18-1.52 0-3.68-2.98-6.66-6.66-6.66s-6.66 2.98-6.66 6.66c0 .57.08 1.13.22 1.66v9.36h-3.2V29.01Zm3.44 34.88h12.43v2.31h-12.43zm-.25 24.46-12.23-17.6h12.23zm-14.25-20.98v.48l-.02-.03zm-.25 5.19 14.5 20.86v12.12l-15.46 22.24.05.31h-1.74zm-6.6 73.65-2.34 39.39h-24.54v-39.39zm-27.88 0v39.39h-2.28v-39.39zm-3.28 0v39.39h-2.28v-39.39zm-3.28 0v39.39h-2.28v-39.39zm-3.28 0v39.39h-2.28v-39.39zm-9.66 0h6.37v39.39h-6.37zm7.37 188.76h.54v-8.88h-.54v-78.68h.54v-8.88h-.54v-49.15h2.28v49.15h-.54v8.88h.54v78.68h-.54v8.88h.54v58.69h-2.28z" class="cls-1"/><path d="M732.39 789.05c-.02.06 0 .14.03.19l2.04 2.63s.06.06.1.07l8.56 2.62c.11.03.23-.03.26-.14l.28-.9.9-.03c.18 0 .25-.23.1-.34l-.91-.66 1.05-.4c.17-.06.16-.3-.01-.35l-1.07-.33.86-.72c.14-.11.05-.34-.13-.33l-1.12.04.58-.96c.09-.15-.06-.34-.23-.27l-1.05.4.24-1.1c.04-.17-.17-.3-.3-.18l-.86.72-.13-1.12c-.02-.18-.25-.23-.35-.08l-.56.92s-.06-.08-.09-.11l-.41-.86c-.06-.14-.24-.13-.31-.02-.12-.14-.23-.28-.35-.43-.09-.11-.04-.29.1-.33.18-.05.35-.1.53-.16 0 .13.14.23.27.16l.83-.49s.09-.03.13-.04l-.05 1.08c0 .18.21.27.33.13l.73-.85.31 1.08c.05.17.29.18.35.02l.42-1.04.64.92c.1.15.33.08.34-.1l.05-1.12.91.66c.14.11.34-.03.29-.2l-.31-1.08 1.07.33c.17.05.31-.14.21-.29l-.65-.92 1.12-.04c.18 0 .25-.23.1-.34l-.73-.53.28-.9c.03-.11-.03-.23-.14-.26l-8.56-2.62s-.08-.01-.13 0l-3.16 1.03c-.06.02-.11.07-.13.14l-1.12 3.66.43-1.41-16.16-4.87c-39.24-11.32-79.18-22.71-117.81-33.73-59.27-16.91-120.56-34.39-180.65-51.98-8.07-2.6-14.85-5.18-20.73-7.88-10.63-4.86-19.02-10.45-25.66-17.09-8.48-8.35-14.72-19.6-18.04-32.54-4.59-17.73-4.5-37.86-4.41-57.33.02-5.04.05-10.26 0-15.36v-80.16l-1.68-2.27-1.32 1.76v80.69c.06 5.09.03 10.3 0 15.33-.09 19.66-.18 39.99 4.51 58.09 3.46 13.46 9.97 25.19 18.83 33.92 6.89 6.89 15.57 12.67 26.53 17.69 5.98 2.75 12.87 5.37 21.09 8.02 60.14 17.61 121.44 35.09 180.71 52 38.62 11.02 78.56 22.41 117.79 33.72l16.14 4.86-.73 2.37ZM348.88 475.61l.9-1.2h-1.8zM761.385 802.065l.282-.959.96.283-.283.959zM763.301 802.624l.283-.959.96.283-.284.959zM740.361 795.83l.283-.96.959.283-.282.96zM759.477 801.499l.283-.96.96.283-.283.96zM721.228 790.114l.283-.959.959.283-.283.96zM738.427 795.201l.283-.959.96.283-.284.96zM757.505 800.815l.283-.959.96.283-.284.96zM730.788 792.942l.284-.96.959.284-.284.959zM734.601 794.075l.284-.96.959.284-.284.959zM732.693 793.518l.284-.959.959.283-.283.96zM728.922 792.487l.283-.96.959.283-.283.96zM746.112 797.55l.282-.959.96.283-.283.96zM723.191 790.795l.283-.96.959.284-.283.959zM736.51 794.642l.283-.96.959.284-.284.959zM742.268 796.386l.282-.96.96.283-.283.959zM751.775 799.123l.283-.959.96.283-.284.96zM744.204 796.994l.283-.959.96.283-.283.959zM765.181 803.146l.282-.959.96.282-.283.96zM753.683 799.68l.283-.96.96.284-.284.959zM690.736 781.226l.282-.96.96.284-.283.959zM688.829 780.67l.282-.96.96.283-.283.96zM671.65 775.596l.282-.96.959.283-.283.96zM663.957 773.233l.283-.96.96.283-.284.96zM717.413 788.988l.283-.959.959.283-.283.96zM755.59 800.247l.284-.96.959.283-.283.96zM660.132 772.107l.283-.96.96.284-.283.959zM725.093 791.318l.282-.96.96.283-.283.96zM662.05 772.666l.283-.96.959.284-.283.959zM694.505 782.241l.283-.959.96.283-.284.96zM692.643 781.792l.283-.959.959.283-.283.959zM675.473 776.721l.283-.959.959.283-.283.959zM665.865 773.79l.283-.96.96.283-.284.96zM677.32 777.164l.283-.959.96.283-.284.96zM667.835 774.474l.283-.96.959.283-.283.96zM679.228 777.73l.283-.958.959.283-.283.959zM686.922 780.104l.282-.96.96.283-.283.96zM683.053 778.857l.283-.96.959.284-.283.959zM684.957 779.423l.283-.96.96.284-.283.959zM681.145 778.29l.283-.959.96.283-.284.96zM706.021 785.724l.283-.96.959.284-.283.959zM707.928 786.29l.283-.959.96.283-.284.959zM673.556 776.152l.283-.959.96.283-.284.959zM709.832 786.856l.283-.96.96.284-.283.959zM702.145 784.49l.283-.958.96.283-.284.959zM696.413 782.798l.283-.959.959.283-.283.96zM711.74 787.422l.282-.959.96.283-.283.959zM715.505 788.432l.283-.96.96.284-.284.959zM748.019 798.117l.282-.96.96.283-.283.96zM713.597 787.865l.283-.959.96.283-.283.96zM700.238 783.924l.283-.96.959.284-.283.96zM704.104 785.165l.283-.96.96.284-.283.959zM658.238 771.54l.283-.959.959.283-.283.96zM698.32 783.365l.283-.96.96.284-.284.959zM719.39 789.688l.283-.96.96.284-.284.959zM749.878 798.567l.283-.96.959.284-.283.959zM669.742 775.03l.283-.96.959.283-.283.96zM727 791.884l.282-.96.96.283-.283.96z" class="cls-1"/><path d="m708.362 770.577.27-.962.963.27-.27.963zM731.437 777.195l.271-.962.962.271-.271.963zM729.518 776.647l.272-.962.962.271-.271.963zM733.347 777.724l.272-.962.962.271-.271.963zM741.018 779.888l.272-.962.962.271-.271.963zM735.268 778.263l.272-.963.962.272-.271.962zM727.597 776.108l.272-.962.962.271-.271.963zM737.19 778.801l.27-.962.963.271-.271.963zM739.043 779.228l.27-.962.963.27-.27.963zM718.018 773.408l.27-.963.963.272-.27.962zM716.04 772.74l.271-.962.963.27-.271.963zM725.616 775.45l.271-.962.963.271-.271.963zM714.18 772.332l.27-.963.963.271-.27.963zM721.788 774.365l.271-.963.963.271-.271.963zM719.868 773.826l.271-.962.963.27-.272.963zM775.53 789.612l.272-.962.963.271-.272.963zM752.53 783.136l.27-.963.963.271-.271.963zM754.38 783.544l.27-.963.963.271-.27.963zM756.29 784.082l.271-.962.963.27-.271.963zM773.61 789.074l.271-.963.963.272-.272.962zM758.21 784.62l.271-.962.963.271-.271.963zM712.2 771.663l.27-.962.963.271-.271.963zM748.692 782.05l.27-.963.963.27-.27.963zM742.873 780.305l.271-.963.963.271-.271.963zM760.128 785.168l.271-.962.963.27-.272.963zM744.794 780.843l.27-.962.963.27-.27.963zM746.768 781.514l.272-.962.962.271-.271.962zM750.542 782.458l.27-.963.963.271-.27.963zM762.048 785.707l.271-.963.963.271-.271.963zM723.708 774.903l.272-.963.962.271-.271.963zM679.668 762.604l.271-.962.963.27-.272.963zM681.528 763.023l.271-.963.963.271-.271.963zM675.78 761.398l.271-.963.963.272-.271.962zM710.282 771.116l.27-.963.963.271-.27.963zM687.276 764.647l.272-.962.962.27-.271.963zM685.366 764.109l.271-.963.963.271-.271.963zM689.197 765.175l.27-.962.963.27-.27.963zM683.506 763.69l.27-.962.963.271-.27.963zM664.271 758.169l.271-.963.963.271-.271.963zM666.251 758.827l.271-.963.963.271-.271.963zM662.41 757.75l.272-.962.962.27-.27.963zM671.94 760.321l.27-.962.963.271-.271.963zM673.86 760.86l.27-.963.963.271-.27.963zM670.02 759.783l.27-.962.963.27-.271.963zM668.112 759.245l.27-.962.963.27-.27.963zM677.688 761.946l.27-.963.963.272-.27.962zM698.783 767.886l.27-.962.963.27-.27.963zM691.114 765.723l.271-.962.963.27-.271.963zM702.613 768.963l.271-.963.963.271-.271.963zM706.451 770.049l.271-.963.963.272-.271.962zM704.53 769.51l.272-.962.963.271-.272.963zM700.706 768.429l.271-.963.963.272-.272.962zM693.035 766.262l.27-.963.963.271-.27.963zM694.945 766.8l.271-.963.963.271-.272.963zM696.922 767.468l.272-.963.962.271-.271.963z" class="cls-1"/><path d="m348.83 480.6 1.68 2.28 2.18 2.94h4.02l-.93-1.21-2.61-3.41-2.41-3.13 1.94-2.52 2.35-3.07.25-.32 1.13-1.48h-3.83l-2.82 3.73-.9 1.2-.9-1.2-2.81-3.73h-3.96l1.15 1.51.25.33 2.32 3.03 1.95 2.55-2.37 3.1-2.42 3.17-1.11 1.45h3.94l2.59-3.46z" class="cls-3"/><path d="m788.1 808.94-9.15-11.92 8.71-11.38h-5.89l-3.3 4.37.19-.62-.98-.28-.27.96h.01l-.01.01.48.13.35.11-.64.85-.48-.15-.29.96.12.04-.91 1.2-3.41-4.54.26-.92-.96-.27-.05.19-1.54-2.04h-5.13l.01-.04-.96-.27-.27.97.96.27 8.02 10.48-4.71 6.17.06-.21-.96-.28-.28.96.67.2-3.86 5.05h6.06l2.98-3.98-.12.42.96.28.28-.95-.76-.23.64-.85.41.12.29-.96-.06-.02 1.4-1.86 5.94 8.03z" class="cls-1"/><path d="m425.31 675.34-6.14-7.86-1.48 3.67c-6.17-2.69-32.04-14.7-40.2-30.07-8.38-15.79-7.38-28.77-7.06-35.95 0-.13.01-.25.02-.37h4.04l-4.99-8.63-4.99 8.63h3.93c0 .09 0 .18-.01.28-.33 7.32-1.35 20.71 7.29 36.98 8.59 16.19 34.9 28.27 41.22 30.99l-1.5 3.71z" class="cls-3"/><path d="m192.78 589.41 4.98 8.63 4.99-8.63h-3.98V499h3.98l-4.99-8.63-4.98 8.63h3.99v90.41zM172.57 499l-4.99-8.63-4.98 8.63h3.98v304.32h-3.98l4.98 8.63 4.99-8.63h-3.99V499z" class="cls-1"/><path d="M733.41 762.18c5.28 0 9.19-3.67 9.19-8.69s-3.91-8.69-9.19-8.69-9.19 3.7-9.19 8.69 3.89 8.69 9.19 8.69m0-14.07c3 0 5.26 2.18 5.26 5.38s-2.26 5.38-5.26 5.38-5.26-2.18-5.26-5.38 2.26-5.38 5.26-5.38M748.84 760.4c.94 1.13 2.33 1.68 4.06 1.68 3.62 0 6.43-2.59 6.43-6.65s-2.81-6.65-6.43-6.65c-1.61 0-2.93.5-3.89 1.56v-6.26h-3.74v17.81h3.58v-1.49Zm3.41-8.54c1.87 0 3.29 1.34 3.29 3.58s-1.42 3.58-3.29 3.58-3.29-1.34-3.29-3.58 1.42-3.58 3.29-3.58M757.86 766.02c.72.5 1.85.72 3 .72 3.12 0 4.87-1.9 4.87-4.87v-12.89h-3.74v12.91c0 1.27-.6 1.87-1.54 1.87-.62 0-1.18-.17-1.58-.46l-1.01 2.71ZM763.86 747.18c1.39 0 2.33-.91 2.33-2.16 0-1.15-.94-2.02-2.33-2.02s-2.33.91-2.33 2.09.94 2.09 2.33 2.09M775.6 762.08c2.33 0 4.13-.72 5.33-2.09l-1.99-2.16c-.89.84-1.87 1.25-3.24 1.25-1.97 0-3.34-.98-3.7-2.59h9.77c.02-.31.07-.72.07-1.01 0-4.15-2.93-6.7-6.72-6.7s-6.89 2.78-6.89 6.65 2.9 6.65 7.37 6.65m-.46-10.46c1.68 0 2.9 1.06 3.17 2.69h-6.36c.26-1.66 1.49-2.69 3.19-2.69M784.79 757.45c0 3.07 1.78 4.63 4.82 4.63 1.15 0 2.28-.26 3.05-.82l-1.01-2.64c-.41.31-.96.48-1.51.48-1.01 0-1.61-.6-1.61-1.7v-5.26h3.22v-2.88h-3.22v-3.14h-3.74v3.14h-1.99v2.88h1.99v5.3ZM794.78 748.98h3.74v12.91h-3.74zM796.65 747.18c1.39 0 2.33-.91 2.33-2.16 0-1.15-.94-2.02-2.33-2.02s-2.33.91-2.33 2.09.94 2.09 2.33 2.09M809.37 761.89l5.45-12.91h-3.6l-3.7 8.78-3.58-8.78h-3.86l5.42 12.91zM822.14 748.79c-4.1 0-7.1 2.76-7.1 6.65s3 6.65 7.1 6.65 7.08-2.76 7.08-6.65-2.98-6.65-7.08-6.65m0 10.22c-1.87 0-3.31-1.34-3.31-3.58s1.44-3.58 3.31-3.58 3.29 1.34 3.29 3.58-1.42 3.58-3.29 3.58M422.19 191.03c-1.9-3.29-2.74-6.96-2.74-11.23s.84-7.94 2.74-11.23h-1.63c-1.78 2.86-2.78 6.82-2.78 11.23s1.01 8.33 2.78 11.23zM430.9 186.49c1.99 0 3.74-.72 4.87-2.06l-.96-1.1c-.96 1.1-2.33 1.66-3.86 1.66-2.76 0-4.78-1.75-4.97-4.39h10.56c0-.19.02-.38.02-.53 0-3.79-2.57-6.41-6.12-6.41s-6.17 2.67-6.17 6.41 2.69 6.43 6.62 6.43Zm-.45-11.37c2.47 0 4.27 1.73 4.49 4.2h-8.95c.22-2.47 2.02-4.2 4.46-4.2M446.55 166.16h-1.56l-7.92 22.61h1.56zM449.93 186.37h1.61l3.99-10.34 3.98 10.34h1.61l4.78-12.62h-1.56l-4.01 10.73-4.03-10.73h-1.47l-4.06 10.73-3.96-10.73h-1.63zM467.43 186.4l-.82 3.48h1.15l1.01-3.31c.24-.67.34-.98.34-1.39 0-.72-.53-1.3-1.27-1.3s-1.27.55-1.27 1.3c0 .62.36 1.08.86 1.22M480.73 179.75c0-2.88 1.7-4.56 4.42-4.56 2.4 0 3.79 1.37 3.79 4.03v7.15h1.7v-7.32c0-3.62-2.11-5.4-5.18-5.4-2.18 0-3.89.89-4.8 2.42v-2.33h-1.63v12.62h1.7v-6.62ZM501.77 166.16h-1.56l-7.92 22.61h1.56zM500.38 177.25c0 4.99 8.18 2.4 8.18 5.69 0 1.25-.98 2.06-3.38 2.06-1.78 0-3.48-.62-4.49-1.42l-.77 1.34c1.03.89 3.05 1.56 5.14 1.56 3.29 0 5.21-1.42 5.21-3.6 0-4.85-8.18-2.28-8.18-5.69 0-1.2 1.01-2.09 3.29-2.09 1.3 0 2.62.31 3.72 1.08l.74-1.37c-1.06-.72-2.83-1.18-4.46-1.18-3.22 0-4.99 1.54-4.99 3.6ZM513.63 191.03c1.8-2.9 2.81-6.82 2.81-11.23s-1.01-8.38-2.81-11.23H512c1.92 3.29 2.76 6.96 2.76 11.23s-.84 7.95-2.76 11.23zM221.54 538.76v16.8h1.77v-4.42l3.43-3.48 6.87 7.9h2.11l-7.78-9.19 7.28-7.61h-2.04l-9.87 10.15v-10.15zM245.35 538.61c-5.09 0-8.83 3.65-8.83 8.54s3.74 8.54 8.83 8.54 8.81-3.62 8.81-8.54-3.77-8.54-8.81-8.54m0 15.51c-4.06 0-7.08-2.95-7.08-6.96s3.02-6.96 7.08-6.96 7.03 2.95 7.03 6.96-3 6.96-7.03 6.96M264.42 538.76h-6.29v16.8h1.78v-5.3h4.51c4.27 0 6.86-2.16 6.86-5.74s-2.59-5.76-6.86-5.76m-.04 9.93h-4.46v-8.4h4.46c3.36 0 5.14 1.54 5.14 4.22s-1.78 4.18-5.14 4.18M408.82 622.78c0-2.74-2.16-4.32-5.9-4.32h-7.25v16.8h7.73c4.2 0 6.31-1.63 6.31-4.49 0-2.28-1.3-3.7-3.46-4.18 1.54-.62 2.57-1.9 2.57-3.82Zm-.88 7.85c0 2.21-1.61 3.17-4.56 3.17h-5.93v-6.31h5.93c2.95 0 4.56.96 4.56 3.14m-5.14-4.61h-5.35v-6.1h5.35c2.69 0 4.25 1.03 4.25 3.05s-1.56 3.05-4.25 3.05M427.42 628.08v-9.62h-1.73v9.55c0 3.98-1.87 5.81-5.16 5.81s-5.14-1.82-5.14-5.81v-9.55h-1.78v9.62c0 4.82 2.62 7.32 6.91 7.32s6.89-2.5 6.89-7.32ZM445.93 624.22c0-3.6-2.59-5.76-6.86-5.76h-6.29v16.8h1.78v-5.33h4.51c.48 0 .91-.02 1.34-.07l3.84 5.4h1.94l-4.1-5.76c2.45-.79 3.84-2.64 3.84-5.28m-6.92 4.2h-4.46V620h4.46c3.36 0 5.14 1.54 5.14 4.22s-1.78 4.2-5.14 4.2M726.83 817.23c-1.78 2.86-2.78 6.82-2.78 11.23s1.01 8.33 2.78 11.23h1.63c-1.9-3.29-2.74-6.96-2.74-11.23s.84-7.94 2.74-11.23zM736.72 822.32c-3.55 0-6.17 2.66-6.17 6.41s2.69 6.43 6.62 6.43c1.99 0 3.74-.72 4.87-2.06l-.96-1.1c-.96 1.1-2.33 1.66-3.86 1.66-2.76 0-4.78-1.75-4.97-4.39h10.56c0-.19.02-.38.02-.53 0-3.79-2.57-6.41-6.12-6.41Zm-4.46 5.66c.22-2.47 2.02-4.2 4.46-4.2s4.27 1.73 4.49 4.2zM751.27 814.83l-7.92 22.61h1.56l7.92-22.61zM766.6 833.14l-4.03-10.73h-1.46l-4.06 10.73-3.96-10.73h-1.63l4.75 12.63h1.61l3.98-10.35 3.99 10.35h1.61l4.77-12.63h-1.56zM774.11 832.54c-.72 0-1.27.55-1.27 1.3 0 .62.36 1.08.86 1.22l-.82 3.48h1.15l1.01-3.31c.24-.67.34-.98.34-1.39 0-.72-.53-1.3-1.27-1.3M791.73 822.32c-2.18 0-3.89.89-4.8 2.42v-2.33h-1.63v12.62h1.71v-6.62c0-2.88 1.7-4.56 4.42-4.56 2.4 0 3.79 1.37 3.79 4.03v7.15h1.7v-7.32c0-3.62-2.11-5.4-5.18-5.4ZM806.49 814.83l-7.92 22.61h1.56l7.92-22.61zM808.36 825.87c0-1.2 1.01-2.09 3.29-2.09 1.3 0 2.62.31 3.72 1.08l.74-1.37c-1.06-.72-2.83-1.18-4.46-1.18-3.22 0-4.99 1.54-4.99 3.6 0 4.99 8.18 2.4 8.18 5.69 0 1.25-.98 2.06-3.38 2.06-1.78 0-3.48-.62-4.49-1.42l-.77 1.34c1.03.89 3.05 1.56 5.14 1.56 3.29 0 5.21-1.42 5.21-3.6 0-4.85-8.18-2.28-8.18-5.69ZM818.27 817.23c1.92 3.29 2.76 6.96 2.76 11.23s-.84 7.94-2.76 11.23h1.63c1.8-2.9 2.81-6.82 2.81-11.23s-1.01-8.38-2.81-11.23zM290.8 18.1c2.93 0 5.35-1.06 6.94-3l-2.5-2.3c-1.13 1.32-2.54 1.99-4.22 1.99-3.14 0-5.38-2.21-5.38-5.38s2.23-5.38 5.38-5.38c1.68 0 3.1.67 4.22 1.97l2.5-2.3c-1.58-1.92-4.01-2.98-6.91-2.98-5.23 0-9.12 3.62-9.12 8.69s3.89 8.69 9.1 8.69ZM305.78 18c4.1 0 7.08-2.76 7.08-6.65s-2.98-6.65-7.08-6.65-7.1 2.76-7.1 6.65 3 6.65 7.1 6.65m0-10.22c1.87 0 3.29 1.34 3.29 3.58s-1.42 3.58-3.29 3.58-3.31-1.34-3.31-3.58 1.44-3.58 3.31-3.58M319.1 11.42c0-2.38 1.3-3.48 3.1-3.48 1.66 0 2.62.96 2.62 3.05v6.82h3.74v-7.39c0-3.94-2.3-5.71-5.35-5.71-1.75 0-3.26.6-4.27 1.7V4.9h-3.58v12.91h3.74v-6.38ZM337.63 18c1.73 0 3.1-.55 4.03-1.68v1.49h3.58V0h-3.74v6.26c-.94-1.06-2.28-1.56-3.86-1.56-3.65 0-6.46 2.59-6.46 6.65s2.81 6.65 6.46 6.65Zm.65-10.22c1.85 0 3.29 1.34 3.29 3.58s-1.44 3.58-3.29 3.58-3.31-1.34-3.31-3.58 1.44-3.58 3.31-3.58M354.14 18c1.58 0 3.02-.6 4.01-1.73v1.54h3.55V4.9h-3.74v6.38c0 2.38-1.25 3.48-2.98 3.48s-2.62-.96-2.62-3.12V4.9h-3.74v7.3c0 3.98 2.28 5.81 5.52 5.81ZM371.42 18c2.71 0 4.85-1.2 5.78-3.26l-2.9-1.58c-.7 1.25-1.73 1.78-2.9 1.78-1.9 0-3.38-1.32-3.38-3.58s1.49-3.58 3.38-3.58c1.18 0 2.21.55 2.9 1.78L377.2 8c-.94-2.11-3.07-3.29-5.78-3.29-4.2 0-7.2 2.76-7.2 6.65s3 6.65 7.2 6.65ZM380.01 13.37c0 3.07 1.78 4.63 4.82 4.63 1.15 0 2.28-.26 3.05-.82l-1.01-2.64c-.41.31-.96.48-1.51.48-1.01 0-1.61-.6-1.61-1.7V8.06h3.22V5.18h-3.22V2.04h-3.74v3.14h-1.99v2.88h1.99v5.3ZM395.73 18c4.1 0 7.08-2.76 7.08-6.65s-2.98-6.65-7.08-6.65-7.1 2.76-7.1 6.65 3 6.65 7.1 6.65m0-10.22c1.87 0 3.29 1.34 3.29 3.58s-1.42 3.58-3.29 3.58-3.31-1.34-3.31-3.58 1.44-3.58 3.31-3.58M409.05 11.71c0-2.47 1.37-3.6 3.43-3.6.29 0 .53.02.84.05V4.7c-1.99 0-3.53.65-4.44 1.9V4.9h-3.58v12.91h3.74v-6.1Z" class="cls-3"/><path d="M251.82 779.71v6.31h5.93c2.95 0 4.56-.96 4.56-3.17s-1.61-3.14-4.56-3.14zM236.41 750.29c0-4.03-2.88-6.86-7.34-6.86h-4.97v13.73h4.97c4.46 0 7.34-2.83 7.34-6.86ZM244.29 779.08c0-4.01-3-6.96-7.03-6.96s-7.08 2.95-7.08 6.96 3.02 6.96 7.08 6.96 7.03-2.95 7.03-6.96M251.82 772.15v6.1h5.35c2.69 0 4.25-1.03 4.25-3.05s-1.56-3.05-4.25-3.05zM194.1 781.56h8.07l-4.04-9.03zM340.64 772.12c-4.06 0-7.08 2.95-7.08 6.96s3.02 6.96 7.08 6.96 7.03-2.95 7.03-6.96-3-6.96-7.03-6.96" class="cls-2"/><path d="M189.64 743.42h5.9v15.27h1.78v-15.27h5.9v-1.54h-13.58zM210.71 758.69h1.75l7.44-16.81h-1.8l-6.48 14.6-6.43-14.6h-1.92zM222.32 758.69h6.84c5.38 0 9-3.46 9-8.4s-3.62-8.4-9-8.4h-6.84zm1.78-15.27h4.97c4.46 0 7.34 2.83 7.34 6.86s-2.88 6.86-7.34 6.86h-4.97v-13.73ZM197.27 770.68l-7.68 16.8h1.85l2.02-4.49h9.36l2.02 4.49h1.87l-7.68-16.8h-1.75Zm-3.17 10.88 4.03-9.02 4.03 9.02zM220.67 785.95h-9.41v-15.27h-1.77v16.81h11.18zM246.06 779.08c0-4.92-3.77-8.54-8.81-8.54s-8.83 3.65-8.83 8.54 3.74 8.54 8.83 8.54 8.81-3.62 8.81-8.54m-15.89 0c0-4.01 3.02-6.96 7.08-6.96s7.03 2.95 7.03 6.96-3 6.96-7.03 6.96-7.08-2.95-7.08-6.96M250.04 770.68v16.8h7.73c4.2 0 6.31-1.63 6.31-4.49 0-2.28-1.3-3.7-3.46-4.18 1.54-.62 2.57-1.9 2.57-3.82 0-2.74-2.16-4.32-5.9-4.32h-7.25Zm12.27 12.17c0 2.21-1.61 3.17-4.56 3.17h-5.93v-6.31h5.93c2.95 0 4.56.96 4.56 3.14m-.89-7.65c0 2.02-1.56 3.05-4.25 3.05h-5.35v-6.1h5.35c2.69 0 4.25 1.03 4.25 3.05M266.94 772.22h6.14v10.18c0 2.47-1.06 3.7-3.12 3.7-1.49 0-2.71-.72-3.62-2.06l-1.06 1.2c1.03 1.54 2.76 2.4 4.66 2.4 3.22 0 4.9-1.75 4.9-5.3V770.7h-7.9v1.54ZM291.69 772.22v-1.54h-11.53v16.81h11.89v-1.54h-10.11v-6.24h8.69v-1.51h-8.69v-5.98zM293.58 772.22h5.9v15.27h1.78v-15.27h5.9v-1.54h-13.58zM310 770.68h1.78v16.8H310zM329.22 770.68l-6.48 14.6-6.43-14.6h-1.92l7.44 16.81h1.75l7.44-16.81zM340.64 770.54c-5.09 0-8.83 3.65-8.83 8.54s3.75 8.54 8.83 8.54 8.81-3.62 8.81-8.54-3.77-8.54-8.81-8.54m0 15.51c-4.06 0-7.08-2.95-7.08-6.96s3.02-6.96 7.08-6.96 7.03 2.95 7.03 6.96-3 6.96-7.03 6.96" class="cls-3"/></g></svg>