<?xml version="1.0" encoding="UTF-8" standalone="no"?>
<!DOCTYPE svg PUBLIC "-//W3C//DTD SVG 1.1//EN" "http://www.w3.org/Graphics/SVG/1.1/DTD/svg11.dtd">
<svg width="100%" height="100%" viewBox="0 0 1080 1080" version="1.1" xmlns="http://www.w3.org/2000/svg" xmlns:xlink="http://www.w3.org/1999/xlink" xml:space="preserve" xmlns:serif="http://www.serif.com/" style="fill-rule:evenodd;clip-rule:evenodd;stroke-linejoin:round;stroke-miterlimit:2;">
    <g>
        <g id="Layer_1">
            <path d="M962.3,516.7C959.9,492.8 977.3,479.6 1012.3,478.9C1015,475.7 1015,471.2 1012.6,469.1C995.2,454.1 997.1,436.4 1003.5,417.1C1007.6,404.7 998.5,399.1 988.8,395.3C959.6,383.6 954.6,363.8 974.7,338.3C978.6,333.4 984.5,329.6 980.7,321.3C969.5,317 957.5,320.2 945.6,319.2C934.5,318.2 924.6,315.4 919.8,304C915.1,292.8 919.2,283.2 925.8,274.3C931.1,267.5 937.7,262.2 946,259.3C952.3,257 956.5,253.9 956.8,245.8C957.3,235 952.5,229.5 943.7,225.1C929.6,218.2 923.1,227.2 917.9,238C911.1,234.8 907.7,225.7 899.2,231C894.4,238.3 903.7,245.9 898.9,253.2C873.2,250.2 863.6,233 874.9,210.8C880.7,199.4 891.8,189.3 885.4,174.7C876.9,171 870.7,174.7 864.4,177.9C848.6,185.9 834.9,187.9 826.3,167.6C817.7,147.3 822,133.8 841.7,124.2C846,122.1 851.3,121.6 854.1,115.8C850.8,107.4 842.9,105.1 834.9,101.6C830.5,116.1 823.5,125.4 807.3,123.1C787.7,120.4 773.5,103.1 767.4,73.8C749.5,70.5 742.8,82.9 733.5,94.8C725.5,105 711.4,112.4 698.1,109C687.9,106.4 682.9,94.6 680.8,83.9C678,69.6 688.9,59.4 693.7,43.1C674.8,59.4 656,59.3 637.2,44.3C635.1,59.5 645.2,69.2 641.6,80.8C632.7,87.8 616.7,78 611.8,95.4C607.1,112.4 596.5,108.5 587,98.7C582.7,94.2 579,85.4 572.4,89.1C560.3,96 549.5,92.3 537.8,89.7C531.3,88.3 525.6,89.7 520.5,94.9C503.9,111.6 502.9,111.3 492,89.1C483.2,71.1 473.9,70.2 461.7,86.1C447.6,104.6 417.6,112 395.8,102.6C389.3,99.7 383.4,97.7 376,102C352.7,115.5 329.5,132.6 298.3,110.8C316.4,131 318.3,146.5 293.8,157.9C291.6,158.8 290.9,162.6 289.4,165.1C278.6,184.6 271.4,185.1 258.2,167.3C248.3,154 231.3,155.2 226.2,170.9C221,186.6 209.1,190.1 196,193.9C188.3,196 180.9,189.5 171.8,194.8C178.3,214.4 188.4,234.6 171.8,253.6C178.5,260.2 183.9,264.1 191.6,263.8C216,262.6 240.2,264.6 264.6,266.4C366.1,273.8 467.9,278.6 569.9,272C641.4,267.4 713,271.2 784.5,273.6C794.2,273.9 803.8,272.3 813.5,270.9C833.6,267.9 854,258.9 874.8,268.8C879.4,271.1 884.6,271.9 884.1,278.4C883.7,283.6 881.4,289.2 875.1,287.6C861.9,284 850.3,291.6 837.4,291.3C663.2,287.6 489,297.5 314.8,290.9C277.6,289.5 240.1,285.6 203,293.5C180.5,300.3 170.3,315.7 170.9,339C171.2,348.2 170.5,357.4 170.5,366.6C170.7,400.5 171,434.4 171.3,468.4C167.5,471.4 163.4,474.1 164.5,479.9C165.4,480.5 166.1,481.2 166.4,482.1C177.6,489.5 183.8,497.4 179,513.1C171.2,538.2 153.8,547.1 130.4,547.6C119.7,587.2 125.9,604.4 158.8,619.6C172.7,626.1 180.7,636.8 180.2,650C179.8,664.7 166.5,672.2 153.6,677.3C149.7,678.8 145.2,678.5 141.1,679.2C131.8,680.8 126,687.2 129.2,695.6C135.8,713.5 127.9,733.2 138.7,751.8C147.5,752.1 156.7,755.7 166,748.2C156.4,732.4 156.7,716.8 169.6,702.5C179.1,691.9 190,683.5 204.7,688.7C218.1,693.3 225.2,705.2 223.3,718.9C221.3,732.9 215.5,747.1 198.8,749.4C178.2,752.1 176.4,765.6 177.7,781.8C178.1,786.9 179.1,791.8 185.2,793.1C190.8,794.3 194.2,791.9 197.4,787.1C204.9,775.8 213.8,765.6 225.7,759.1C236.7,753.1 248.5,750.4 258.8,761.2C273.9,777.1 268.5,795.5 263.8,813.2C260.4,825.8 250.2,827.2 238.4,826.6C227.7,826 217.7,818.4 201.1,823.7C240.6,844.2 222.1,868.7 212.4,893C210,899.1 193.7,901.1 206.5,912.3C223.5,906.4 236.9,882.9 258.9,899.9C279.9,916.3 288.9,937.5 280.6,963.6C309.2,980.1 336.2,1000.8 368.8,974.1C361,961.5 355.3,949.2 335,958.8C323.3,964.4 308.2,959.6 302.7,943.4C297.2,927.1 309.5,918.4 318.9,909.7C329.5,899.8 341.4,903.2 351.3,912.1C382.1,939.4 392.4,939 416.6,909C435.667,905.867 449.667,915.5 458.6,937.9C451,943 442.4,945.5 433.2,946.4C423.3,947.3 413.2,947 403.7,949.3C381.8,954.6 378.1,966.6 390.4,984.8C397.1,994.7 403.9,1005.2 407.6,1016.5C411.9,1029.7 417.7,1030.1 427.2,1023.1C436.7,1016.1 449.1,1001.1 455.2,1003.3C471.8,1009.4 486.7,1003.3 501.1,1002.4C507.8,1012.3 500.6,1022.1 503.2,1027.1C539.2,1054.1 545,1020 558.7,1005.1C510.7,1004.4 462.6,991.5 412,995.2C409.7,984.6 387.1,982.2 393.3,967.9C399.1,954.7 417.4,960.8 430.1,957.8C436.3,956.4 442.7,955.9 449,955C468,952.1 487,949.1 512.5,945.1C497.8,935.1 493.9,928.2 503.4,917.8C509.6,910.9 507.1,901.7 495.4,902.8C478.9,904.2 465.4,895.6 450.5,891.6C435.8,879.5 416,889.7 400.8,880.1L400.8,879.8C382.6,863.5 377.3,842.7 377.4,818.7C377.8,748.5 376.9,678.2 376.5,607.9C376.5,582.4 378.2,556.8 373.3,531.4C365.7,491.6 338.8,468.2 299.1,467.4C292.7,467.3 286.3,467.7 280,467.8C256.6,468.1 233.2,469.7 210,468.6C184.6,467.4 177.6,458.8 177.5,434.1C177.4,405 177.2,375.9 177.5,346.8C177.9,313 188.5,301.6 221.9,301.6C309.7,301.7 397.5,302.9 485.3,303.5C605,304.3 724.6,305.5 844.2,305.5C963.8,305.5 885.4,311.2 882,343.3C878.6,374.5 878.1,405.5 878.7,436.8C879,456.6 870.2,466 848.8,465.7C794.3,465.2 739.8,467 685.3,467.1C669.3,467.1 658.6,472.2 658.4,489.3C657.8,526.2 649.4,562.6 649.6,599C649.8,629.9 649,660.8 649.6,691.7C650.2,723.1 640.2,748.8 621.7,771.9C608.9,787.9 602.9,802.3 609.3,824.1C612.2,834 613.2,845.9 616,856.9C618.4,866.7 612.4,878.6 610,889.5C606.7,891.3 605.6,894.3 605.5,897.8C603.3,898.7 602.9,900.6 602.9,902.9C595.4,913.3 584.8,927.6 600.6,934.8C617.1,942.3 619.2,956.3 616.8,966.2C614.4,976.8 603.2,987.7 588.2,987.7C580.5,987.7 574.1,990.1 570.1,997.6C587.7,992.1 609.4,999.3 621.1,979.2C627.6,984 625.2,993 634.1,996.1C637.4,994.8 642.8,994 646.1,990.9C661.1,976.7 687.2,970.9 676.7,938.7C670.3,919.3 688.6,899.9 709.3,898C725,896.6 728.2,887.9 725.9,874.9C723,859.1 729,847 741.1,837.8C747.8,832.8 755.4,828.7 763,825C774.5,819.4 780.2,814 773.5,799C765.7,781.4 777.4,766.5 796.8,765.7C812.5,765 828,767.3 841.5,776.5C850.9,782.8 859.6,782 869.2,776.5C902.4,757 902.5,757.1 929.8,779.2C934.4,776.5 939.4,773.9 944,770.9C952,765.6 947.4,755.7 943.6,756C923,757.9 918.9,738.4 908.1,729.9C896,735.7 885.3,741 874.5,746.1C862.1,752 848,752.1 838.7,744C829.4,735.8 818.2,723.8 824.7,708.9C830.6,694.9 842.5,687.2 858.8,689C860,689.1 861.3,688.1 862.9,687.4C870.4,670.6 865.6,650.9 874.7,634.1C884.9,615.1 897.4,612.7 913.7,626.8C922.9,634.9 927.3,643.5 924,656.7C921.4,666.6 916.5,676.7 918.5,688.4C931.2,690.7 943.4,690 959.2,688.2C944.9,645.5 979,623 994.7,592.3C1003,575.8 1018.7,559 1012.6,536.7C980.8,541.4 963.8,534.6 962.1,516.9L962.3,516.7ZM309.9,493.8C312,484.3 318.7,481.7 327,481C331.4,480.6 337.8,480.2 338.5,484.1C342.6,507.1 364.9,520.8 365.7,546.8C367.9,635.4 364.5,724 366.1,812.6C366.5,836.2 367.4,860.1 386.3,878.2C379,887.2 368.1,887.3 361.7,881.1C348.2,868 338.2,851 344.2,831.5C349.4,814.7 345,799.8 342.2,784.6C325.4,777.7 325.4,800 311.8,801.2C307.2,786.9 306.2,774.8 321.8,767.2C339.6,767.7 347.1,758.7 346.2,741.3C344.9,714.4 344.2,687.5 343.1,660.6C342.8,653.9 345,645.7 335,643.6C326.3,641.8 324.8,649.2 321.8,654.6C320.4,657.1 319.7,660 318.1,664.1C304.8,641.8 307.3,627.8 324.8,623.1C341,618.7 343.8,609.8 343.1,595.5C342,573.5 342.4,551.6 341.4,529.7C341.1,522.4 343,513.7 334.5,508.2C324.4,508.7 326.8,523.2 315.2,524.4C302.1,517.3 307.4,505.4 309.9,494.1L309.9,493.8ZM606,898.5C1010,1497.5 1010,1497.5 606,898.5Z" style="fill:rgb(255,207,0);fill-rule:nonzero;"/>
            <path d="M558.9,1005C510.9,1004.3 462.8,991.4 412.2,995.1C409.9,984.5 387.3,982.1 393.5,967.8C399.3,954.6 417.6,960.7 430.3,957.7C436.5,956.3 442.9,955.8 449.2,954.9C468.2,952 487.2,949 512.7,945C498,935 494.1,928.1 503.6,917.7C509.8,910.8 507.3,901.6 495.6,902.7C479.1,904.1 465.6,895.5 450.7,891.5C436,879.4 416.2,889.6 401,880L401,879.7C382.8,863.4 377.5,842.6 377.6,818.6C378,748.4 377.1,678.1 376.7,607.8C376.7,582.3 378.4,556.7 373.5,531.3C365.9,491.5 339,468.1 299.3,467.3C292.9,467.2 286.5,467.6 280.2,467.7C256.8,468 233.4,469.6 210.2,468.5C184.8,467.3 177.8,458.7 177.7,434C177.6,404.9 177.4,375.8 177.7,346.7C178.1,312.9 188.7,301.5 222.1,301.5C309.9,301.6 397.7,302.8 485.5,303.4C605.2,304.2 724.8,305.4 844.4,305.4C964,305.4 885.6,311.1 882.2,343.2C878.8,374.4 878.3,405.4 878.9,436.7C879.2,456.5 870.4,465.9 849,465.6C794.5,465.1 740,466.9 685.5,467C669.5,467 658.8,472.1 658.6,489.2C658,526.1 649.6,562.5 649.8,598.9C650,629.8 649.2,660.7 649.8,691.6C650.4,723 640.4,748.7 621.9,771.8C609.1,787.8 603.1,802.2 609.5,824C612.4,833.9 613.4,845.8 616.2,856.8C618.6,866.6 612.6,878.5 610.2,889.4C606.9,891.2 605.8,894.2 605.7,897.7C603.5,898.6 603.1,900.5 603.1,902.8C595.6,913.2 585,927.5 600.8,934.7C617.3,942.2 619.4,956.2 617,966.1C614.6,976.7 603.4,987.6 588.4,987.6C580.7,987.6 574.3,990 570.3,997.5L570.1,997.5C568.6,997.9 566.3,998.5 563.7,1000.2C561.3,1001.8 559.7,1003.6 558.9,1004.8" style="fill:rgb(0,26,101);fill-rule:nonzero;"/>
        </g>
    </g>
</svg>
