<svg width="364" height="337" viewBox="0 0 364 337" fill="none" xmlns="http://www.w3.org/2000/svg">
<rect x="0.5" y="0.5" width="363" height="336" rx="11.5" fill="white"/>
<rect x="0.5" y="0.5" width="363" height="336" rx="11.5" stroke="#001A70"/>
<g clip-path="url(#clip0_39_161)">
<path d="M324.394 316.525L324.505 316.166C324.517 316.122 324.493 316.074 324.45 316.062L321.04 315.017C321.04 315.017 321.008 315.013 320.988 315.017L319.729 315.428C319.705 315.436 319.685 315.456 319.677 315.484L319.223 316.967L319.398 316.381L312.961 314.439C297.329 309.923 281.414 305.38 266.029 300.984C242.418 294.239 218.002 287.266 194.064 280.25C190.849 279.213 188.148 278.184 185.805 277.107C181.571 275.168 178.229 272.939 175.583 270.29C172.205 266.959 169.719 262.472 168.397 257.31C166.568 250.238 166.604 242.208 166.64 234.442C166.648 232.432 166.66 230.349 166.64 228.315V195.674H168.747L168.56 228.263C168.584 230.27 168.572 232.344 168.56 234.346V234.398C168.524 242.392 168.488 249.939 170.253 256.76C171.488 261.566 173.783 265.731 176.894 268.802C179.372 271.283 182.527 273.381 186.534 275.22C188.793 276.261 191.407 277.254 194.542 278.268C218.436 285.276 242.792 292.237 266.344 298.97L266.491 299.01C276.709 301.93 277.012 302.017 280.709 303.09C282.557 303.625 285.254 304.411 290.501 305.926L290.54 305.791L290.568 305.799L291.17 303.812L289.907 304.925C285.198 303.565 282.685 302.835 280.936 302.328C277.315 301.279 276.936 301.168 266.714 298.248L266.567 298.204C243.015 291.475 218.659 284.514 194.781 277.51C191.689 276.513 189.104 275.527 186.873 274.498C182.949 272.699 179.874 270.653 177.46 268.24C174.448 265.268 172.225 261.231 171.026 256.564C169.289 249.843 169.325 242.344 169.361 234.406V234.354C169.369 232.348 169.381 230.274 169.361 228.267L169.548 195.678H287.111V193.425H184.658V188.482H183.069V186.344H183.65V184.003H181.184V180.76H183.65V178.419H186.606V160.756H180.941L177.288 86.607H179.332V82.4068H177.081L174.504 30.073L173.954 30.2764V30.1368H168.548V29.2154H174.081V27.3965H172.137V23.4674H170.042V14.9034H161.72V23.4674H159.529V27.3965H157.844V29.2154H163.393V30.1368H157.717V30.3761L157.326 30.2325L156.9 30.077L155.418 61.2579H144.284V55.8609H143.885V61.2579H142.977V55.8609H142.579V61.2579H141.67V55.8609H141.272V61.2579H140.364V55.8609H139.965V61.2579H139.057V55.8609H138.659V61.2579H135.324V78.5655H138.659H128.046V79.2795H138.659V98.8847H138.443V102.427H138.659V133.811H138.443V137.353H138.659V160.764H135.392V168.861C126.317 171.059 117.246 173.257 108.171 175.451V193.425H27V195.678H162.481V228.303C162.505 230.31 162.493 232.368 162.481 234.374C162.445 242.404 162.405 250.705 164.365 258.283C165.871 264.155 168.723 269.289 172.612 273.122C175.599 276.114 179.324 278.611 184.001 280.753C186.483 281.897 189.331 282.982 192.709 284.071L192.793 284.095C216.83 291.148 241.23 298.12 264.822 304.861C275.012 307.773 275.391 307.885 279.004 308.93C280.721 309.429 283.171 310.139 287.736 311.459L288.302 313.294L288.712 311.738C288.748 311.75 288.78 311.758 288.815 311.77L289.035 311.004C283.768 309.48 281.071 308.699 279.223 308.164C275.61 307.115 275.231 307.007 265.037 304.091C241.446 297.35 217.049 290.378 193.016 283.329L192.944 283.306C189.602 282.225 186.785 281.152 184.332 280.023C179.742 277.921 176.093 275.475 173.173 272.552C169.389 268.814 166.608 263.808 165.138 258.076C163.206 250.597 163.242 242.348 163.278 234.354C163.286 232.36 163.298 230.298 163.278 228.287V195.666H165.441V228.315C165.465 230.346 165.453 232.424 165.441 234.43C165.405 242.272 165.369 250.382 167.238 257.601C168.616 262.97 171.209 267.649 174.739 271.132C177.484 273.88 180.941 276.185 185.308 278.188C187.69 279.285 190.435 280.33 193.709 281.387C217.667 288.411 242.083 295.384 265.698 302.129C281.083 306.525 296.994 311.068 312.622 315.579L319.052 317.518L318.761 318.463C318.753 318.487 318.761 318.519 318.773 318.539L319.585 319.588C319.585 319.588 319.609 319.612 319.625 319.616L323.035 320.661C323.079 320.673 323.127 320.649 323.139 320.605L323.25 320.246L323.609 320.234C323.681 320.234 323.709 320.143 323.649 320.099L323.286 319.836L323.705 319.676C323.772 319.652 323.768 319.556 323.701 319.536L323.274 319.405L323.617 319.117C323.673 319.074 323.637 318.982 323.565 318.986L323.119 319.002L323.35 318.619C323.386 318.559 323.326 318.483 323.258 318.511L322.84 318.671L322.936 318.232C322.952 318.164 322.868 318.112 322.816 318.16L322.474 318.447L322.422 318.001C322.414 317.929 322.322 317.909 322.282 317.969L322.059 318.336C322.059 318.336 322.035 318.304 322.023 318.292L321.86 317.949C321.836 317.893 321.765 317.897 321.737 317.941C321.689 317.885 321.645 317.829 321.597 317.769C321.561 317.725 321.581 317.654 321.637 317.638C321.709 317.618 321.776 317.598 321.848 317.574C321.848 317.626 321.904 317.666 321.956 317.638L322.286 317.442L322.338 317.426L322.318 317.857C322.318 317.929 322.402 317.965 322.45 317.909L322.741 317.57L322.864 318.001C322.884 318.068 322.98 318.072 323.003 318.009L323.171 317.594L323.426 317.961C323.466 318.021 323.557 317.993 323.561 317.921L323.581 317.474L323.944 317.737C323.999 317.781 324.079 317.725 324.059 317.658L323.936 317.227L324.362 317.358C324.43 317.378 324.485 317.303 324.446 317.243L324.187 316.876L324.633 316.86C324.704 316.86 324.732 316.768 324.673 316.724L324.382 316.513L324.394 316.525ZM155.394 79.2795L155.41 79.2795V78.9803L156.426 57.6519L163.389 67.6839V72.2033L156.302 82.4108H155.247L155.394 79.2795ZM163.385 56.894V65.3823L157.493 56.894H163.385ZM158.545 54.8238L163.385 47.8513L163.385 54.8238H158.545ZM157.896 82.4108L163.385 74.5009V82.4108H157.896ZM163.385 86.611L163.385 95.5221L156.836 86.611H163.385ZM155.035 86.7706L163.385 98.1308V102.016L153.777 115.51H153.669L155.035 86.7706ZM163.385 117.848V128.49L153.689 117.848L163.385 117.848ZM155.66 115.506L163.385 104.661V115.506H155.66ZM153.454 119.982L163.385 130.883V133.572L152.227 145.762L153.454 119.978L153.454 119.982ZM163.385 136.033V145.83L154.418 145.83L163.385 136.033ZM152.116 148.167L163.389 148.167V160.76H151.518L152.116 148.167ZM153.427 184.007V180.764H156.175V184.007H153.427ZM156.964 180.764H160.971V184.007H156.964V180.764ZM161.756 180.764H163.386V184.007H161.756V180.764ZM165.955 21.7323C167.094 21.7323 168.062 21.0143 168.437 20.0051V23.4674H163.485V20.045C163.871 21.0302 164.831 21.7323 165.955 21.7323ZM164.497 19.0717C164.497 18.266 165.15 17.6118 165.955 17.6118C166.76 17.6118 167.413 18.266 167.413 19.0717C167.413 19.8775 166.76 20.5316 165.955 20.5316C165.15 20.5316 164.497 19.8775 164.497 19.0717ZM174.014 56.894L168.54 64.78V56.894H174.014ZM168.54 54.8238L168.54 48.4177L172.99 54.8238L168.54 54.8238ZM174.356 86.611L168.536 94.7802V86.611L174.356 86.611ZM168.54 82.4108V75.1032L173.611 82.4108H168.54ZM177.739 117.652L177.838 117.788L168.54 127.948V117.848H177.739V117.652ZM168.54 115.506V105.135L176.165 115.506H168.54ZM168.54 136.544L176.998 145.83H168.54V136.544ZM168.54 184.007V180.764H170.496V184.007H168.54ZM171.285 180.764H175.165V184.007H171.285V180.764ZM175.949 180.764H180.383V184.007H175.949V180.764ZM163.485 160.76V148.167H168.437V160.76H163.485ZM163.485 145.83V135.925L165.736 133.468L168.437 136.436V145.834H163.485L163.485 145.83ZM163.485 133.468V130.995L164.612 132.236L163.485 133.468ZM166.831 132.271L168.441 130.512V134.039L166.831 132.271ZM165.708 131.039L163.485 128.598L163.485 117.844H168.437V128.051L165.704 131.035L165.708 131.039ZM163.485 115.506V104.521L165.748 101.342L168.437 105V115.506H163.485ZM163.485 101.872V98.2625L164.792 100.038L163.485 101.872ZM166.696 100.018L168.441 97.5684V102.395L166.696 100.022L166.696 100.018ZM165.736 98.7172L163.485 95.6578L163.485 86.611L168.437 86.611V94.9198L165.732 98.7172H165.736ZM163.485 82.4108V74.3573L165.752 71.0904L168.437 74.9596V82.4108L163.485 82.4108ZM163.485 72.0557V67.8235L164.955 69.9376L163.485 72.0517L163.485 72.0557ZM166.553 69.9416L168.441 67.2252V72.662L166.552 69.9456L166.553 69.9416ZM165.756 68.7928L163.489 65.5259V56.894L168.441 56.894V64.9236L165.756 68.7928ZM163.485 54.8238L163.485 47.7077L165.764 44.4249L168.437 48.2741V54.8238L163.485 54.8238ZM163.485 45.6854V41.1381L165.062 43.4117L163.485 45.6854ZM166.469 43.4117L168.441 40.5716V46.2518L166.469 43.4117ZM165.768 42.4025L163.489 39.1197V31.9557H168.441V38.5533L165.768 42.4025ZM163.485 30.1408V29.2194H168.437V30.1408H163.485ZM163.485 180.764H165.572V184.007H163.485V180.764ZM166.361 180.764H168.437V184.007H166.361V180.764ZM168.54 193.421V186.344H176.117V188.482H175.344V193.425H168.54L168.54 193.421ZM180.085 160.76H168.54V148.167H179.463L180.085 160.76ZM179.348 145.83H179.181L168.54 134.146V130.405L178.077 119.986L179.348 145.83ZM177.961 117.651L177.906 117.711L177.954 117.445L177.966 117.652L177.961 117.651ZM177.838 115.179L168.536 102.527V97.4248L176.241 86.607H176.428L177.834 115.179L177.838 115.179ZM176.225 82.4108H175.209L168.54 72.8056V67.0816L175.014 57.7596L176.229 82.4108L176.225 82.4108ZM174.866 54.8238H174.388L168.536 46.3954V40.428L173.783 32.8692L174.862 54.8238L174.866 54.8238ZM173.018 31.9557L168.54 38.4097V31.9557H173.018ZM162.115 15.3022H169.64V23.4674H168.54V19.678C168.584 19.4826 168.612 19.2831 168.612 19.0717C168.612 17.6038 167.425 16.4151 165.959 16.4151C164.493 16.4151 163.306 17.6038 163.306 19.0717C163.306 19.2991 163.338 19.5224 163.393 19.7339V23.4674H162.118V15.3022H162.115ZM163.385 31.9557V38.9761L158.513 31.9557H163.385ZM157.708 30.6074L157.709 30.7989L157.701 30.787L157.708 30.6074ZM157.609 32.6737L163.385 40.9945V45.829L157.227 54.7002L157.246 54.8238H156.553L157.609 32.6737ZM144.271 62.0556H154.979L154.047 77.7677H144.271V62.0556ZM144.271 79.2795H154.549L154.402 82.4108H151.948V86.611H154.203L150.673 160.76H144.271L144.272 137.349H144.487V133.807H144.271V102.423L144.487 102.423V98.8808L144.271 98.8808L144.272 79.2755L144.271 79.2795ZM142.965 62.0556H143.873V77.7677H142.965V62.0556ZM142.965 79.2795H143.873L143.873 98.8847H143.658V102.427H143.873V133.811H143.658V137.353H143.873V160.764H142.965V137.353H143.18V133.811H142.965V102.427H143.18V98.8847H142.965L142.965 79.2795ZM141.658 62.0556H142.567V77.7677H141.658V62.0556ZM141.658 79.2795H142.567L142.567 98.8847H142.351V102.427H142.567V133.811H142.351V137.353H142.567V160.764H141.658V137.353H141.873V133.811H141.658V102.427H141.873V98.8847H141.658L141.658 79.2795ZM140.352 62.0556H141.26V77.7677H140.352V62.0556ZM140.352 79.2795H141.26L141.26 98.8847H141.045V102.427H141.26V133.811H141.045V137.353H141.26V160.764H140.352V137.353H140.567V133.811H140.352V102.427H140.567V98.8847H140.352L140.352 79.2795ZM139.041 62.0556H139.949V77.7677H139.041V62.0556ZM136.105 77.7677V62.0556H138.643V77.7677H136.105ZM139.041 133.807V102.423L139.256 102.423V98.8808L139.041 98.8808L139.041 79.2755H139.949V98.8808L139.734 98.8808V102.423L139.949 102.423V133.807H139.734L139.734 137.349H139.949V160.76H139.041L139.041 137.349H139.256V133.807H139.041ZM144.271 193.421V178.423H149.012V180.764L152.247 180.764V184.007L149.012 184.007V189.356H147.817V193.421H144.271ZM157.123 193.421V189.356H155.94V186.344H163.385V193.421L157.119 193.421L157.123 193.421ZM165.437 192.966V193.421H163.485V186.344L168.437 186.344V193.421H166.628V192.966H165.433L165.437 192.966Z" fill="#001A70"/>
<path d="M330.425 323.282L330.313 323.665L330.695 323.778L330.807 323.395L330.425 323.282Z" fill="#001A70"/>
<path d="M331.184 323.504L331.072 323.887L331.454 323.999L331.567 323.617L331.184 323.504Z" fill="#001A70"/>
<path d="M331.92 323.684L331.808 324.067L332.19 324.18L332.302 323.797L331.92 323.684Z" fill="#001A70"/>
<path d="M333.444 324.133L333.331 324.516L333.713 324.629L333.826 324.246L333.444 324.133Z" fill="#001A70"/>
<path d="M332.684 323.907L332.571 324.29L332.953 324.403L333.066 324.02L332.684 323.907Z" fill="#001A70"/>
<path d="M290.09 311.333L289.977 311.715L290.359 311.828L290.472 311.445L290.09 311.333Z" fill="#001A70"/>
<path d="M289.332 311.106L289.219 311.488L289.601 311.601L289.714 311.218L289.332 311.106Z" fill="#001A70"/>
<path d="M328.903 322.83L328.79 323.212L329.172 323.325L329.285 322.942L328.903 322.83Z" fill="#001A70"/>
<path d="M329.662 323.055L329.549 323.438L329.931 323.551L330.044 323.168L329.662 323.055Z" fill="#001A70"/>
<path d="M328.143 322.604L328.031 322.986L328.413 323.099L328.526 322.717L328.143 322.604Z" fill="#001A70"/>
<path d="M313.691 318.338L313.578 318.721L313.96 318.833L314.073 318.451L313.691 318.338Z" fill="#001A70"/>
<path d="M315.948 318.964L315.836 319.346L316.218 319.459L316.33 319.077L315.948 318.964Z" fill="#001A70"/>
<path d="M315.189 318.742L315.076 319.124L315.459 319.237L315.571 318.854L315.189 318.742Z" fill="#001A70"/>
<path d="M316.709 319.19L316.596 319.572L316.978 319.685L317.091 319.302L316.709 319.19Z" fill="#001A70"/>
<path d="M318.232 319.639L318.12 320.021L318.502 320.134L318.614 319.752L318.232 319.639Z" fill="#001A70"/>
<path d="M314.429 318.518L314.316 318.901L314.698 319.014L314.811 318.631L314.429 318.518Z" fill="#001A70"/>
<path d="M318.993 319.861L318.88 320.243L319.262 320.356L319.375 319.974L318.993 319.861Z" fill="#001A70"/>
<path d="M317.472 319.413L317.36 319.795L317.742 319.908L317.855 319.526L317.472 319.413Z" fill="#001A70"/>
<path d="M309.103 316.942L308.99 317.325L309.372 317.438L309.485 317.055L309.103 316.942Z" fill="#001A70"/>
<path d="M311.408 317.663L311.295 318.046L311.677 318.159L311.79 317.776L311.408 317.663Z" fill="#001A70"/>
<path d="M312.167 317.889L312.054 318.272L312.436 318.384L312.549 318.002L312.167 317.889Z" fill="#001A70"/>
<path d="M312.931 318.112L312.818 318.495L313.2 318.608L313.313 318.225L312.931 318.112Z" fill="#001A70"/>
<path d="M334.2 324.355L334.087 324.738L334.469 324.851L334.582 324.468L334.2 324.355Z" fill="#001A70"/>
<path d="M310.648 317.441L310.535 317.824L310.917 317.937L311.03 317.554L310.648 317.441Z" fill="#001A70"/>
<path d="M326.599 322.108L326.486 322.491L326.868 322.603L326.981 322.221L326.599 322.108Z" fill="#001A70"/>
<path d="M327.358 322.335L327.245 322.718L327.627 322.831L327.74 322.448L327.358 322.335Z" fill="#001A70"/>
<path d="M325.078 321.66L324.966 322.043L325.348 322.155L325.46 321.773L325.078 321.66Z" fill="#001A70"/>
<path d="M325.838 321.886L325.725 322.268L326.108 322.381L326.22 321.999L325.838 321.886Z" fill="#001A70"/>
<path d="M319.779 320.136L319.666 320.519L320.048 320.631L320.161 320.249L319.779 320.136Z" fill="#001A70"/>
<path d="M324.315 321.437L324.202 321.819L324.584 321.932L324.697 321.55L324.315 321.437Z" fill="#001A70"/>
<path d="M320.539 320.362L320.426 320.744L320.808 320.857L320.921 320.475L320.539 320.362Z" fill="#001A70"/>
<path d="M323.554 321.211L323.441 321.593L323.823 321.706L323.936 321.324L323.554 321.211Z" fill="#001A70"/>
<path d="M321.298 320.584L321.185 320.966L321.568 321.079L321.68 320.696L321.298 320.584Z" fill="#001A70"/>
<path d="M322.058 320.81L321.945 321.192L322.328 321.305L322.44 320.922L322.058 320.81Z" fill="#001A70"/>
<path d="M322.822 321.033L322.709 321.415L323.091 321.528L323.204 321.145L322.822 321.033Z" fill="#001A70"/>
<path d="M298.457 313.798L298.345 314.181L298.727 314.293L298.839 313.911L298.457 313.798Z" fill="#001A70"/>
<path d="M296.196 313.172L296.084 313.554L296.466 313.667L296.578 313.285L296.196 313.172Z" fill="#001A70"/>
<path d="M295.437 312.946L295.324 313.329L295.707 313.441L295.819 313.059L295.437 312.946Z" fill="#001A70"/>
<path d="M296.956 313.394L296.844 313.776L297.226 313.889L297.338 313.506L296.956 313.394Z" fill="#001A70"/>
<path d="M290.85 311.559L290.738 311.941L291.12 312.054L291.232 311.671L290.85 311.559Z" fill="#001A70"/>
<path d="M297.697 313.576L297.584 313.958L297.966 314.071L298.079 313.689L297.697 313.576Z" fill="#001A70"/>
<path d="M294.677 312.724L294.564 313.107L294.947 313.219L295.059 312.837L294.677 312.724Z" fill="#001A70"/>
<path d="M292.374 312.008L292.261 312.39L292.643 312.503L292.756 312.121L292.374 312.008Z" fill="#001A70"/>
<path d="M291.61 311.781L291.498 312.163L291.88 312.276L291.992 311.893L291.61 311.781Z" fill="#001A70"/>
<path d="M293.134 312.23L293.022 312.612L293.404 312.725L293.516 312.343L293.134 312.23Z" fill="#001A70"/>
<path d="M299.217 314.024L299.105 314.407L299.487 314.519L299.599 314.137L299.217 314.024Z" fill="#001A70"/>
<path d="M293.907 312.486L293.795 312.869L294.177 312.981L294.289 312.599L293.907 312.486Z" fill="#001A70"/>
<path d="M302.285 314.97L302.172 315.353L302.555 315.465L302.667 315.083L302.285 314.97Z" fill="#001A70"/>
<path d="M304.563 315.643L304.451 316.026L304.833 316.139L304.945 315.756L304.563 315.643Z" fill="#001A70"/>
<path d="M305.327 315.866L305.215 316.249L305.597 316.362L305.709 315.979L305.327 315.866Z" fill="#001A70"/>
<path d="M306.063 316.045L305.95 316.428L306.333 316.541L306.445 316.158L306.063 316.045Z" fill="#001A70"/>
<path d="M306.823 316.271L306.71 316.654L307.092 316.767L307.205 316.384L306.823 316.271Z" fill="#001A70"/>
<path d="M307.587 316.494L307.474 316.877L307.856 316.99L307.969 316.607L307.587 316.494Z" fill="#001A70"/>
<path d="M301.5 314.699L301.388 315.082L301.77 315.194L301.882 314.812L301.5 314.699Z" fill="#001A70"/>
<path d="M300.74 314.477L300.627 314.86L301.009 314.972L301.122 314.59L300.74 314.477Z" fill="#001A70"/>
<path d="M303.804 315.418L303.692 315.8L304.074 315.913L304.186 315.53L303.804 315.418Z" fill="#001A70"/>
<path d="M299.98 314.251L299.867 314.633L300.249 314.746L300.362 314.364L299.98 314.251Z" fill="#001A70"/>
<path d="M308.347 316.72L308.234 317.103L308.616 317.216L308.729 316.833L308.347 316.72Z" fill="#001A70"/>
<path d="M303.044 315.196L302.932 315.578L303.314 315.691L303.426 315.309L303.044 315.196Z" fill="#001A70"/>
<path d="M309.865 317.173L309.753 317.556L310.135 317.669L310.248 317.286L309.865 317.173Z" fill="#001A70"/>
<path d="M334.978 324.602H334.974L334.862 324.985L335.245 325.097L335.356 324.718L334.978 324.602Z" fill="#001A70"/>
<path d="M335.219 323.858L335.104 324.24L335.486 324.355L335.601 323.973L335.219 323.858Z" fill="#001A70"/>
<path d="M335.448 323.098L335.334 323.48L335.715 323.595L335.83 323.213L335.448 323.098Z" fill="#001A70"/>
<path d="M335.674 322.333L335.559 322.715L335.941 322.83L336.056 322.448L335.674 322.333Z" fill="#001A70"/>
<path d="M335.881 321.527L335.766 321.909L336.148 322.024L336.262 321.641L335.881 321.527Z" fill="#001A70"/>
<path d="M336.111 320.764L335.997 321.146L336.379 321.26L336.493 320.878L336.111 320.764Z" fill="#001A70"/>
<path d="M336.363 320.043L336.248 320.425L336.63 320.54L336.745 320.158L336.363 320.043Z" fill="#001A70"/>
<path d="M336.594 319.279L336.479 319.661L336.86 319.776L336.975 319.394L336.594 319.279Z" fill="#001A70"/>
<path d="M336.803 318.499L336.695 318.878H336.699L336.695 318.882L337.074 318.994L337.193 318.607L336.803 318.499Z" fill="#001A70"/>
<path d="M326.892 315.73L326.784 316.114L327.167 316.222L327.275 315.838L326.892 315.73Z" fill="#001A70"/>
<path d="M326.104 315.461L325.996 315.845L326.379 315.953L326.487 315.57L326.104 315.461Z" fill="#001A70"/>
<path d="M327.657 315.945L327.549 316.328L327.932 316.437L328.04 316.053L327.657 315.945Z" fill="#001A70"/>
<path d="M331.475 317.019L331.366 317.403L331.75 317.511L331.858 317.127L331.475 317.019Z" fill="#001A70"/>
<path d="M330.713 316.804L330.605 317.188L330.988 317.296L331.096 316.912L330.713 316.804Z" fill="#001A70"/>
<path d="M329.184 316.37L329.075 316.754L329.459 316.862L329.567 316.479L329.184 316.37Z" fill="#001A70"/>
<path d="M329.92 316.541L329.812 316.925L330.196 317.033L330.304 316.649L329.92 316.541Z" fill="#001A70"/>
<path d="M332.238 317.237L332.13 317.621L332.514 317.73L332.622 317.346L332.238 317.237Z" fill="#001A70"/>
<path d="M333.003 317.452L332.895 317.836L333.279 317.945L333.387 317.561L333.003 317.452Z" fill="#001A70"/>
<path d="M333.769 317.667L333.661 318.051L334.045 318.159L334.153 317.775L333.769 317.667Z" fill="#001A70"/>
<path d="M328.422 316.155L328.314 316.539L328.697 316.648L328.805 316.264L328.422 316.155Z" fill="#001A70"/>
<path d="M325.339 315.247L325.231 315.631L325.614 315.739L325.722 315.355L325.339 315.247Z" fill="#001A70"/>
<path d="M334.53 317.878L334.421 318.262L334.805 318.37L334.913 317.986L334.53 317.878Z" fill="#001A70"/>
<path d="M307.794 310.344L307.686 310.728L308.069 310.836L308.177 310.452L307.794 310.344Z" fill="#001A70"/>
<path d="M311.59 311.37L311.482 311.754L311.866 311.863L311.974 311.479L311.59 311.37Z" fill="#001A70"/>
<path d="M312.355 311.585L312.247 311.969L312.63 312.077L312.738 311.693L312.355 311.585Z" fill="#001A70"/>
<path d="M313.884 312.018L313.776 312.402L314.159 312.51L314.267 312.127L313.884 312.018Z" fill="#001A70"/>
<path d="M313.119 311.804L313.011 312.188L313.394 312.296L313.502 311.912L313.119 311.804Z" fill="#001A70"/>
<path d="M314.673 312.281L314.565 312.665L314.949 312.773L315.057 312.389L314.673 312.281Z" fill="#001A70"/>
<path d="M315.41 312.444L315.302 312.828L315.686 312.936L315.794 312.552L315.41 312.444Z" fill="#001A70"/>
<path d="M310.065 310.937L309.957 311.321L310.341 311.429L310.449 311.045L310.065 310.937Z" fill="#001A70"/>
<path d="M308.535 310.508L308.427 310.892L308.811 311L308.919 310.616L308.535 310.508Z" fill="#001A70"/>
<path d="M307.007 310.077L306.899 310.461L307.282 310.569L307.39 310.185L307.007 310.077Z" fill="#001A70"/>
<path d="M316.174 312.662L316.066 313.046L316.449 313.155L316.557 312.771L316.174 312.662Z" fill="#001A70"/>
<path d="M309.324 310.769L309.216 311.153L309.599 311.261L309.707 310.877L309.324 310.769Z" fill="#001A70"/>
<path d="M310.829 311.156L310.721 311.54L311.104 311.648L311.212 311.264L310.829 311.156Z" fill="#001A70"/>
<path d="M335.294 318.097L335.186 318.481L335.57 318.589L335.678 318.205L335.294 318.097Z" fill="#001A70"/>
<path d="M323.809 314.813L323.701 315.197L324.084 315.306L324.192 314.922L323.809 314.813Z" fill="#001A70"/>
<path d="M323.049 314.599L322.941 314.983L323.324 315.091L323.432 314.707L323.049 314.599Z" fill="#001A70"/>
<path d="M322.284 314.388L322.176 314.772L322.559 314.88L322.667 314.496L322.284 314.388Z" fill="#001A70"/>
<path d="M321.546 314.221L321.438 314.605L321.821 314.713L321.929 314.329L321.546 314.221Z" fill="#001A70"/>
<path d="M306.242 309.863L306.134 310.247L306.517 310.355L306.625 309.971L306.242 309.863Z" fill="#001A70"/>
<path d="M336.028 318.264L335.92 318.648L336.303 318.756L336.411 318.372L336.028 318.264Z" fill="#001A70"/>
<path d="M317.7 313.092L317.592 313.476L317.976 313.584L318.084 313.2L317.7 313.092Z" fill="#001A70"/>
<path d="M320.755 313.955L320.647 314.339L321.031 314.447L321.139 314.063L320.755 313.955Z" fill="#001A70"/>
<path d="M316.939 312.877L316.831 313.261L317.214 313.369L317.322 312.985L316.939 312.877Z" fill="#001A70"/>
<path d="M318.464 313.311L318.356 313.694L318.739 313.803L318.847 313.419L318.464 313.311Z" fill="#001A70"/>
<path d="M324.574 315.032L324.466 315.416L324.849 315.524L324.957 315.14L324.574 315.032Z" fill="#001A70"/>
<path d="M319.229 313.525L319.121 313.909L319.504 314.017L319.612 313.633L319.229 313.525Z" fill="#001A70"/>
<path d="M320.017 313.788L319.909 314.172L320.293 314.28L320.401 313.896L320.017 313.788Z" fill="#001A70"/>
<path d="M294.787 306.63L294.679 307.014L295.062 307.122L295.17 306.739L294.787 306.63Z" fill="#001A70"/>
<path d="M295.576 306.893L295.468 307.277L295.852 307.385L295.96 307.001L295.576 306.893Z" fill="#001A70"/>
<path d="M305.477 309.648L305.369 310.032L305.752 310.14L305.86 309.756L305.477 309.648Z" fill="#001A70"/>
<path d="M297.1 307.326L296.992 307.71L297.376 307.818L297.484 307.434L297.1 307.326Z" fill="#001A70"/>
<path d="M294.022 306.416L293.914 306.8L294.297 306.908L294.405 306.524L294.022 306.416Z" fill="#001A70"/>
<path d="M296.313 307.06L296.205 307.444L296.589 307.552L296.697 307.168L296.313 307.06Z" fill="#001A70"/>
<path d="M291.732 305.772L291.624 306.156L292.007 306.264L292.115 305.88L291.732 305.772Z" fill="#001A70"/>
<path d="M290.968 305.553L290.86 305.937L291.244 306.045L291.352 305.661L290.968 305.553Z" fill="#001A70"/>
<path d="M293.258 306.197L293.15 306.581L293.533 306.689L293.641 306.305L293.258 306.197Z" fill="#001A70"/>
<path d="M292.497 305.982L292.389 306.366L292.772 306.475L292.88 306.091L292.497 305.982Z" fill="#001A70"/>
<path d="M297.842 307.493L297.734 307.877L298.117 307.985L298.225 307.601L297.842 307.493Z" fill="#001A70"/>
<path d="M301.662 308.567L301.554 308.951L301.937 309.059L302.045 308.675L301.662 308.567Z" fill="#001A70"/>
<path d="M302.45 308.833L302.342 309.217L302.725 309.325L302.833 308.941L302.45 308.833Z" fill="#001A70"/>
<path d="M303.197 309.02L303.088 309.404L303.472 309.512L303.58 309.128L303.197 309.02Z" fill="#001A70"/>
<path d="M304.715 309.433L304.607 309.817L304.991 309.925L305.099 309.541L304.715 309.433Z" fill="#001A70"/>
<path d="M303.952 309.215L303.844 309.599L304.227 309.707L304.335 309.323L303.952 309.215Z" fill="#001A70"/>
<path d="M298.607 307.708L298.499 308.092L298.882 308.2L298.99 307.816L298.607 307.708Z" fill="#001A70"/>
<path d="M299.367 307.926L299.259 308.31L299.642 308.419L299.75 308.035L299.367 307.926Z" fill="#001A70"/>
<path d="M300.132 308.137L300.024 308.521L300.407 308.629L300.515 308.245L300.132 308.137Z" fill="#001A70"/>
<path d="M300.92 308.4L300.812 308.784L301.196 308.892L301.304 308.508L300.92 308.4Z" fill="#001A70"/>
</g>
<defs>
<clipPath id="clip0_39_161">
<rect width="309" height="309" fill="white" transform="translate(27 14)"/>
</clipPath>
</defs>
</svg>
