<?xml version="1.0" encoding="UTF-8"?>
<svg id="Layer_2" data-name="Layer 2" xmlns="http://www.w3.org/2000/svg" xmlns:xlink="http://www.w3.org/1999/xlink" viewBox="0 0 364 337">
  <defs>
    <style>
      .cls-1 {
        fill: #001a70;
      }

      .cls-2 {
        fill: #fff;
      }

      .cls-3, .cls-4 {
        fill: none;
      }

      .cls-4 {
        stroke: #001a70;
      }

      .cls-5 {
        clip-path: url(#clippath);
      }
    </style>
    <clipPath id="clippath">
      <rect class="cls-3" x="27" y="14" width="309" height="309"/>
    </clipPath>
  </defs>
  <g id="Layer_1-2" data-name="Layer 1">
    <rect class="cls-2" x=".5" y=".5" width="363" height="336" rx="11.5" ry="11.5"/>
    <rect class="cls-4" x=".5" y=".5" width="363" height="336" rx="11.5" ry="11.5"/>
    <g class="cls-5">
      <g>
        <path class="cls-1" d="M324.39,316.52l.11-.36s-.01-.09-.05-.1l-3.41-1.05s-.03,0-.05,0l-1.26.41s-.04.03-.05.06l-.45,1.48.18-.59-6.44-1.94c-15.63-4.52-31.55-9.06-46.93-13.45-23.61-6.74-48.03-13.72-71.96-20.73-3.21-1.04-5.92-2.07-8.26-3.14-4.23-1.94-7.58-4.17-10.22-6.82-3.38-3.33-5.86-7.82-7.19-12.98-1.83-7.07-1.79-15.1-1.76-22.87,0-2.01.02-4.09,0-6.13v-32.64h2.11l-.19,32.59c.02,2.01.01,4.08,0,6.08v.05c-.04,7.99-.07,15.54,1.69,22.36,1.24,4.81,3.53,8.97,6.64,12.04,2.48,2.48,5.63,4.58,9.64,6.42,2.26,1.04,4.87,2.03,8.01,3.05,23.89,7.01,48.25,13.97,71.8,20.7l.15.04c10.22,2.92,10.52,3.01,14.22,4.08,1.85.54,4.54,1.32,9.79,2.84l.04-.14h.03s.6-1.98.6-1.98l-1.26,1.11c-4.71-1.36-7.22-2.09-8.97-2.6-3.62-1.05-4-1.16-14.22-4.08l-.15-.04c-23.55-6.73-47.91-13.69-71.79-20.69-3.09-1-5.68-1.98-7.91-3.01-3.92-1.8-7-3.84-9.41-6.26-3.01-2.97-5.24-7.01-6.43-11.68-1.74-6.72-1.7-14.22-1.67-22.16v-.05c0-2.01.02-4.08,0-6.09l.19-32.59h117.56v-2.25h-102.45v-4.94h-1.59v-2.14h.58v-2.34h-2.47v-3.24h2.47v-2.34h2.96v-17.66h-5.67l-3.65-74.15h2.04v-4.2h-2.25l-2.58-52.33-.55.2v-.14h-5.41v-.92h5.53v-1.82h-1.94v-3.93h-2.09v-8.56h-8.32v8.56h-2.19v3.93h-1.69v1.82h5.55v.92h-5.68v.24l-.39-.14-.43-.16-1.48,31.18h-11.13v-5.4h-.4v5.4h-.91v-5.4h-.4v5.4h-.91v-5.4h-.4v5.4h-.91v-5.4h-.4v5.4h-.91v-5.4h-.4v5.4h-3.33v17.31h3.33-10.61v.71h10.61v19.61h-.22v3.54h.22v31.38h-.22v3.54h.22v23.41h-3.27v8.1c-9.07,2.2-18.15,4.4-27.22,6.59v17.97H27v2.25h135.48v32.62c.02,2.01.01,4.07,0,6.07-.04,8.03-.08,16.33,1.88,23.91,1.51,5.87,4.36,11.01,8.25,14.84,2.99,2.99,6.71,5.49,11.39,7.63,2.48,1.14,5.33,2.23,8.71,3.32l.08.02c24.04,7.05,48.44,14.02,72.03,20.77,10.19,2.91,10.57,3.02,14.18,4.07,1.72.5,4.17,1.21,8.73,2.53l.57,1.83.41-1.56s.07.02.1.03l.22-.77c-5.27-1.52-7.96-2.3-9.81-2.84-3.61-1.05-3.99-1.16-14.19-4.07-23.59-6.74-47.99-13.71-72.02-20.76l-.07-.02c-3.34-1.08-6.16-2.15-8.61-3.28-4.59-2.1-8.24-4.55-11.16-7.47-3.78-3.74-6.57-8.74-8.04-14.48-1.93-7.48-1.9-15.73-1.86-23.72,0-1.99.02-4.06,0-6.07v-32.62h2.16v32.65c.02,2.03.01,4.11,0,6.11-.04,7.84-.07,15.95,1.8,23.17,1.38,5.37,3.97,10.05,7.5,13.53,2.74,2.75,6.2,5.05,10.57,7.06,2.38,1.1,5.13,2.14,8.4,3.2,23.96,7.02,48.37,14,71.99,20.74,15.39,4.4,31.3,8.94,46.92,13.45l6.43,1.94-.29.95s0,.06.01.08l.81,1.05s.02.02.04.03l3.41,1.05s.09-.01.1-.06l.11-.36h.36c.07-.01.1-.1.04-.15l-.36-.26.42-.16c.07-.02.06-.12,0-.14l-.43-.13.34-.29c.06-.04.02-.14-.05-.13l-.45.02.23-.38c.04-.06-.02-.14-.09-.11l-.42.16.1-.44c.02-.07-.07-.12-.12-.07l-.34.29-.05-.45c0-.07-.1-.09-.14-.03l-.22.37s-.02-.03-.04-.04l-.16-.34c-.02-.06-.09-.05-.12,0-.05-.06-.09-.11-.14-.17-.04-.04-.02-.12.04-.13.07-.02.14-.04.21-.06,0,.05.06.09.11.06l.33-.2.05-.02-.02.43c0,.07.08.11.13.05l.29-.34.12.43c.02.07.12.07.14,0l.17-.42.26.37c.04.06.13.03.14-.04l.02-.45.36.26c.05.04.14-.01.11-.08l-.12-.43.43.13c.07.02.12-.05.08-.11l-.26-.37.45-.02c.07,0,.1-.09.04-.14l-.29-.21h.01ZM155.39,79.28h.02v-.3l1.02-21.33,6.96,10.03v4.52l-7.09,10.21h-1.06l.15-3.13ZM163.38,56.89v8.49l-5.89-8.49h5.89ZM158.54,54.82l4.84-6.97v6.97h-4.84ZM157.9,82.41l5.49-7.91v7.91h-5.49ZM163.38,86.61v8.91l-6.55-8.91h6.55ZM155.04,86.77l8.35,11.36v3.89l-9.61,13.49h-.11l1.37-28.74ZM163.38,117.85v10.64l-9.7-10.64h9.7ZM155.66,115.51l7.72-10.84v10.84h-7.72ZM153.45,119.98l9.93,10.9v2.69l-11.16,12.19,1.23-25.78h0ZM163.38,136.03v9.8h-8.97l8.97-9.8ZM152.12,148.17h11.27v12.59h-11.87l.6-12.59ZM153.43,184.01v-3.24h2.75v3.24h-2.75ZM156.96,180.76h4.01v3.24h-4.01v-3.24ZM161.76,180.76h1.63v3.24h-1.63v-3.24ZM165.96,21.73c1.14,0,2.11-.72,2.48-1.73v3.46h-4.95v-3.42c.39.99,1.35,1.69,2.47,1.69ZM164.5,19.07c0-.81.65-1.46,1.46-1.46s1.46.65,1.46,1.46-.65,1.46-1.46,1.46-1.46-.65-1.46-1.46ZM174.01,56.89l-5.47,7.89v-7.89h5.47ZM168.54,54.82v-6.41l4.45,6.41h-4.45ZM174.36,86.61l-5.82,8.17v-8.17h5.82ZM168.54,82.41v-7.31l5.07,7.31h-5.07ZM177.74,117.65l.1.14-9.3,10.16v-10.1h9.2v-.2ZM168.54,115.51v-10.37l7.62,10.37h-7.62ZM168.54,136.54l8.46,9.29h-8.46v-9.29ZM168.54,184.01v-3.24h1.96v3.24h-1.96ZM171.29,180.76h3.88v3.24h-3.88v-3.24ZM175.95,180.76h4.43v3.24h-4.43v-3.24ZM163.49,160.76v-12.59h4.95v12.59h-4.95ZM163.49,145.83v-9.9l2.25-2.46,2.7,2.97v9.4h-4.95ZM163.49,133.47v-2.47l1.13,1.24-1.13,1.23ZM166.83,132.27l1.61-1.76v3.53l-1.61-1.77ZM165.71,131.04l-2.22-2.44v-10.75h4.95v10.21l-2.73,2.98h0ZM163.49,115.51v-10.98l2.26-3.18,2.69,3.66v10.51h-4.95ZM163.49,101.87v-3.61l1.31,1.78-1.31,1.83ZM166.7,100.02l1.74-2.45v4.83l-1.74-2.37h0ZM165.74,98.72l-2.25-3.06v-9.05h4.95v8.31l-2.71,3.8h0ZM163.49,82.41v-8.05l2.27-3.27,2.68,3.87v7.45h-4.95ZM163.49,72.06v-4.23l1.47,2.11-1.47,2.11h0ZM166.55,69.94l1.89-2.72v5.44l-1.89-2.72h0ZM165.76,68.79l-2.27-3.27v-8.63h4.95v8.03l-2.68,3.87ZM163.49,54.82v-7.12l2.28-3.28,2.67,3.85v6.55h-4.95ZM163.49,45.69v-4.55l1.58,2.27-1.58,2.27ZM166.47,43.41l1.97-2.84v5.68l-1.97-2.84ZM165.77,42.4l-2.28-3.28v-7.16h4.95v6.6l-2.67,3.85ZM163.49,30.14v-.92h4.95v.92h-4.95ZM163.49,180.76h2.09v3.24h-2.09v-3.24ZM166.36,180.76h2.08v3.24h-2.08v-3.24ZM168.54,193.42v-7.08h7.58v2.14h-.77v4.94h-6.8ZM180.09,160.76h-11.55v-12.59h10.92l.62,12.59ZM179.35,145.83h-.17l-10.64-11.68v-3.74l9.54-10.42,1.27,25.84ZM177.96,117.65l-.05.06.05-.27v.21s0,0,0,0ZM177.84,115.18l-9.3-12.65v-5.1l7.71-10.82h.19l1.41,28.57h0ZM176.23,82.41h-1.02l-6.67-9.61v-5.72l6.47-9.32,1.21,24.65h0ZM174.87,54.82h-.48l-5.85-8.43v-5.97l5.25-7.56,1.08,21.95h0ZM173.02,31.96l-4.48,6.45v-6.45h4.48ZM162.12,15.3h7.52v8.17h-1.1v-3.79c.04-.2.07-.39.07-.61,0-1.47-1.19-2.66-2.65-2.66s-2.65,1.19-2.65,2.66c0,.23.03.45.09.66v3.73h-1.28v-8.17h0ZM163.38,31.96v7.02l-4.87-7.02h4.87ZM157.71,30.61v.19s0-.01,0-.01v-.18ZM157.61,32.67l5.78,8.32v4.83l-6.16,8.87.02.12h-.69l1.06-22.15ZM144.27,62.06h10.71l-.93,15.71h-9.78v-15.71ZM144.27,79.28h10.28l-.15,3.13h-2.45v4.2h2.26l-3.53,74.15h-6.4v-23.41h.22v-3.54h-.22v-31.38h.22v-3.54h-.22v-19.61s0,0,0,0ZM142.96,62.06h.91v15.71h-.91v-15.71ZM142.96,79.28h.91v19.61h-.21v3.54h.21v31.38h-.21v3.54h.21v23.41h-.91v-23.41h.21v-3.54h-.21v-31.38h.21v-3.54h-.21v-19.61ZM141.66,62.06h.91v15.71h-.91v-15.71ZM141.66,79.28h.91v19.61h-.22v3.54h.22v31.38h-.22v3.54h.22v23.41h-.91v-23.41h.21v-3.54h-.21v-31.38h.21v-3.54h-.21v-19.61ZM140.35,62.06h.91v15.71h-.91v-15.71ZM140.35,79.28h.91v19.61h-.21v3.54h.21v31.38h-.21v3.54h.21v23.41h-.91v-23.41h.21v-3.54h-.21v-31.38h.21v-3.54h-.21v-19.61ZM139.04,62.06h.91v15.71h-.91v-15.71ZM136.1,77.77v-15.71h2.54v15.71h-2.54ZM139.04,133.81v-31.38h.21v-3.54h-.21v-19.61h.91v19.61h-.22v3.54h.22v31.38h-.22v3.54h.22v23.41h-.91v-23.41h.21v-3.54h-.21ZM144.27,193.42v-15h4.74v2.34h3.24v3.24h-3.24v5.35h-1.19v4.07h-3.55ZM157.12,193.42v-4.07h-1.18v-3.01h7.44v7.08h-6.27,0ZM165.44,192.97v.46h-1.95v-7.08h4.95v7.08h-1.81v-.46h-1.2,0Z"/>
        <path class="cls-1" d="M330.42,323.28l-.11.38.38.11.11-.38-.38-.11Z"/>
        <path class="cls-1" d="M331.18,323.5l-.11.38.38.11.11-.38-.38-.11Z"/>
        <path class="cls-1" d="M331.92,323.68l-.11.38.38.11.11-.38-.38-.11Z"/>
        <path class="cls-1" d="M333.44,324.13l-.11.38.38.11.11-.38-.38-.11Z"/>
        <path class="cls-1" d="M332.68,323.91l-.11.38.38.11.11-.38-.38-.11Z"/>
        <path class="cls-1" d="M290.09,311.33l-.11.38.38.11.11-.38-.38-.11Z"/>
        <path class="cls-1" d="M289.33,311.11l-.11.38.38.11.11-.38-.38-.11Z"/>
        <path class="cls-1" d="M328.9,322.83l-.11.38.38.11.11-.38-.38-.11Z"/>
        <path class="cls-1" d="M329.66,323.05l-.11.38.38.11.11-.38-.38-.11Z"/>
        <path class="cls-1" d="M328.14,322.6l-.11.38.38.11.11-.38-.38-.11Z"/>
        <path class="cls-1" d="M313.69,318.34l-.11.38.38.11.11-.38-.38-.11Z"/>
        <path class="cls-1" d="M315.95,318.96l-.11.38.38.11.11-.38-.38-.11Z"/>
        <path class="cls-1" d="M315.19,318.74l-.11.38.38.11.11-.38-.38-.11Z"/>
        <path class="cls-1" d="M316.71,319.19l-.11.38.38.11.11-.38-.38-.11Z"/>
        <path class="cls-1" d="M318.23,319.64l-.11.38.38.11.11-.38-.38-.11Z"/>
        <path class="cls-1" d="M314.43,318.52l-.11.38.38.11.11-.38-.38-.11Z"/>
        <path class="cls-1" d="M318.99,319.86l-.11.38.38.11.11-.38-.38-.11Z"/>
        <path class="cls-1" d="M317.47,319.41l-.11.38.38.11.11-.38-.38-.11Z"/>
        <path class="cls-1" d="M309.1,316.94l-.11.38.38.11.11-.38-.38-.11Z"/>
        <path class="cls-1" d="M311.41,317.66l-.11.38.38.11.11-.38-.38-.11Z"/>
        <path class="cls-1" d="M312.17,317.89l-.11.38.38.11.11-.38-.38-.11Z"/>
        <path class="cls-1" d="M312.93,318.11l-.11.38.38.11.11-.38-.38-.11Z"/>
        <path class="cls-1" d="M334.2,324.36l-.11.38.38.11.11-.38-.38-.11Z"/>
        <path class="cls-1" d="M310.65,317.44l-.11.38.38.11.11-.38-.38-.11Z"/>
        <path class="cls-1" d="M326.6,322.11l-.11.38.38.11.11-.38-.38-.11Z"/>
        <path class="cls-1" d="M327.36,322.33l-.11.38.38.11.11-.38-.38-.11Z"/>
        <path class="cls-1" d="M325.08,321.66l-.11.38.38.11.11-.38-.38-.11Z"/>
        <path class="cls-1" d="M325.84,321.89l-.11.38.38.11.11-.38-.38-.11Z"/>
        <path class="cls-1" d="M319.78,320.14l-.11.38.38.11.11-.38-.38-.11Z"/>
        <path class="cls-1" d="M324.32,321.44l-.11.38.38.11.11-.38-.38-.11Z"/>
        <path class="cls-1" d="M320.54,320.36l-.11.38.38.11.11-.38-.38-.11Z"/>
        <path class="cls-1" d="M323.55,321.21l-.11.38.38.11.11-.38-.38-.11Z"/>
        <path class="cls-1" d="M321.3,320.58l-.11.38.38.11.11-.38-.38-.11Z"/>
        <path class="cls-1" d="M322.06,320.81l-.11.38.38.11.11-.38-.38-.11Z"/>
        <path class="cls-1" d="M322.82,321.03l-.11.38.38.11.11-.38-.38-.11Z"/>
        <path class="cls-1" d="M298.46,313.8l-.11.38.38.11.11-.38-.38-.11Z"/>
        <path class="cls-1" d="M296.2,313.17l-.11.38.38.11.11-.38-.38-.11Z"/>
        <path class="cls-1" d="M295.44,312.95l-.11.38.38.11.11-.38-.38-.11Z"/>
        <path class="cls-1" d="M296.96,313.39l-.11.38.38.11.11-.38-.38-.11Z"/>
        <path class="cls-1" d="M290.85,311.56l-.11.38.38.11.11-.38-.38-.11Z"/>
        <path class="cls-1" d="M297.7,313.58l-.11.38.38.11.11-.38-.38-.11Z"/>
        <path class="cls-1" d="M294.68,312.72l-.11.38.38.11.11-.38-.38-.11Z"/>
        <path class="cls-1" d="M292.37,312.01l-.11.38.38.11.11-.38-.38-.11Z"/>
        <path class="cls-1" d="M291.61,311.78l-.11.38.38.11.11-.38-.38-.11Z"/>
        <path class="cls-1" d="M293.13,312.23l-.11.38.38.11.11-.38-.38-.11Z"/>
        <path class="cls-1" d="M299.22,314.02l-.11.38.38.11.11-.38-.38-.11Z"/>
        <path class="cls-1" d="M293.91,312.49l-.11.38.38.11.11-.38-.38-.11Z"/>
        <path class="cls-1" d="M302.29,314.97l-.11.38.38.11.11-.38-.38-.11Z"/>
        <path class="cls-1" d="M304.56,315.64l-.11.38.38.11.11-.38-.38-.11Z"/>
        <path class="cls-1" d="M305.33,315.87l-.11.38.38.11.11-.38-.38-.11Z"/>
        <path class="cls-1" d="M306.06,316.05l-.11.38.38.11.11-.38-.38-.11Z"/>
        <path class="cls-1" d="M306.82,316.27l-.11.38.38.11.11-.38-.38-.11Z"/>
        <path class="cls-1" d="M307.59,316.49l-.11.38.38.11.11-.38-.38-.11Z"/>
        <path class="cls-1" d="M301.5,314.7l-.11.38.38.11.11-.38-.38-.11Z"/>
        <path class="cls-1" d="M300.74,314.48l-.11.38.38.11.11-.38-.38-.11Z"/>
        <path class="cls-1" d="M303.8,315.42l-.11.38.38.11.11-.38-.38-.11Z"/>
        <path class="cls-1" d="M299.98,314.25l-.11.38.38.11.11-.38-.38-.11Z"/>
        <path class="cls-1" d="M308.35,316.72l-.11.38.38.11.11-.38-.38-.11Z"/>
        <path class="cls-1" d="M303.04,315.2l-.11.38.38.11.11-.38-.38-.11Z"/>
        <path class="cls-1" d="M309.86,317.17l-.11.38.38.11.11-.38-.38-.11Z"/>
        <path class="cls-1" d="M334.98,324.6h0l-.11.38.38.11.11-.38-.38-.12Z"/>
        <path class="cls-1" d="M335.22,323.86l-.11.38.38.12.12-.38-.38-.11Z"/>
        <path class="cls-1" d="M335.45,323.1l-.11.38.38.11.11-.38-.38-.12Z"/>
        <path class="cls-1" d="M335.67,322.33l-.12.38.38.11.11-.38-.38-.11Z"/>
        <path class="cls-1" d="M335.88,321.53l-.12.38.38.11.11-.38-.38-.11Z"/>
        <path class="cls-1" d="M336.11,320.76l-.11.38.38.11.11-.38-.38-.11Z"/>
        <path class="cls-1" d="M336.36,320.04l-.12.38.38.12.11-.38-.38-.11Z"/>
        <path class="cls-1" d="M336.59,319.28l-.11.38.38.11.12-.38-.38-.12Z"/>
        <path class="cls-1" d="M336.8,318.5l-.11.38h0,0s.38.12.38.12l.12-.39-.39-.11Z"/>
        <path class="cls-1" d="M326.89,315.73l-.11.38.38.11.11-.38-.38-.11Z"/>
        <path class="cls-1" d="M326.1,315.46l-.11.38.38.11.11-.38-.38-.11Z"/>
        <path class="cls-1" d="M327.66,315.95l-.11.38.38.11.11-.38-.38-.11Z"/>
        <path class="cls-1" d="M331.48,317.02l-.11.38.38.11.11-.38-.38-.11Z"/>
        <path class="cls-1" d="M330.71,316.8l-.11.38.38.11.11-.38-.38-.11Z"/>
        <path class="cls-1" d="M329.18,316.37l-.11.38.38.11.11-.38-.38-.11Z"/>
        <path class="cls-1" d="M329.92,316.54l-.11.38.38.11.11-.38-.38-.11Z"/>
        <path class="cls-1" d="M332.24,317.24l-.11.38.38.11.11-.38-.38-.11Z"/>
        <path class="cls-1" d="M333,317.45l-.11.38.38.11.11-.38-.38-.11Z"/>
        <path class="cls-1" d="M333.77,317.67l-.11.38.38.11.11-.38-.38-.11Z"/>
        <path class="cls-1" d="M328.42,316.15l-.11.38.38.11.11-.38-.38-.11Z"/>
        <path class="cls-1" d="M325.34,315.25l-.11.38.38.11.11-.38-.38-.11Z"/>
        <path class="cls-1" d="M334.53,317.88l-.11.38.38.11.11-.38-.38-.11Z"/>
        <path class="cls-1" d="M307.79,310.34l-.11.38.38.11.11-.38-.38-.11Z"/>
        <path class="cls-1" d="M311.59,311.37l-.11.38.38.11.11-.38-.38-.11Z"/>
        <path class="cls-1" d="M312.36,311.58l-.11.38.38.11.11-.38-.38-.11Z"/>
        <path class="cls-1" d="M313.88,312.02l-.11.38.38.11.11-.38-.38-.11Z"/>
        <path class="cls-1" d="M313.12,311.8l-.11.38.38.11.11-.38-.38-.11Z"/>
        <path class="cls-1" d="M314.67,312.28l-.11.38.38.11.11-.38-.38-.11Z"/>
        <path class="cls-1" d="M315.41,312.44l-.11.38.38.11.11-.38-.38-.11Z"/>
        <path class="cls-1" d="M310.07,310.94l-.11.38.38.11.11-.38-.38-.11Z"/>
        <path class="cls-1" d="M308.54,310.51l-.11.38.38.11.11-.38-.38-.11Z"/>
        <path class="cls-1" d="M307.01,310.08l-.11.38.38.11.11-.38-.38-.11Z"/>
        <path class="cls-1" d="M316.17,312.66l-.11.38.38.11.11-.38-.38-.11Z"/>
        <path class="cls-1" d="M309.32,310.77l-.11.38.38.11.11-.38-.38-.11Z"/>
        <path class="cls-1" d="M310.83,311.16l-.11.38.38.11.11-.38-.38-.11Z"/>
        <path class="cls-1" d="M335.29,318.1l-.11.38.38.11.11-.38-.38-.11Z"/>
        <path class="cls-1" d="M323.81,314.81l-.11.38.38.11.11-.38-.38-.11Z"/>
        <path class="cls-1" d="M323.05,314.6l-.11.38.38.11.11-.38-.38-.11Z"/>
        <path class="cls-1" d="M322.28,314.39l-.11.38.38.11.11-.38-.38-.11Z"/>
        <path class="cls-1" d="M321.55,314.22l-.11.38.38.11.11-.38-.38-.11Z"/>
        <path class="cls-1" d="M306.24,309.86l-.11.38.38.11.11-.38-.38-.11Z"/>
        <path class="cls-1" d="M336.03,318.26l-.11.38.38.11.11-.38-.38-.11Z"/>
        <path class="cls-1" d="M317.7,313.09l-.11.38.38.11.11-.38-.38-.11Z"/>
        <path class="cls-1" d="M320.76,313.95l-.11.38.38.11.11-.38-.38-.11Z"/>
        <path class="cls-1" d="M316.94,312.88l-.11.38.38.11.11-.38-.38-.11Z"/>
        <path class="cls-1" d="M318.46,313.31l-.11.38.38.11.11-.38-.38-.11Z"/>
        <path class="cls-1" d="M324.57,315.03l-.11.38.38.11.11-.38-.38-.11Z"/>
        <path class="cls-1" d="M319.23,313.52l-.11.38.38.11.11-.38-.38-.11Z"/>
        <path class="cls-1" d="M320.02,313.79l-.11.38.38.11.11-.38-.38-.11Z"/>
        <path class="cls-1" d="M294.79,306.63l-.11.38.38.11.11-.38-.38-.11Z"/>
        <path class="cls-1" d="M295.58,306.89l-.11.38.38.11.11-.38-.38-.11Z"/>
        <path class="cls-1" d="M305.48,309.65l-.11.38.38.11.11-.38-.38-.11Z"/>
        <path class="cls-1" d="M297.1,307.33l-.11.38.38.11.11-.38-.38-.11Z"/>
        <path class="cls-1" d="M294.02,306.42l-.11.38.38.11.11-.38-.38-.11Z"/>
        <path class="cls-1" d="M296.31,307.06l-.11.38.38.11.11-.38-.38-.11Z"/>
        <path class="cls-1" d="M291.73,305.77l-.11.38.38.11.11-.38-.38-.11Z"/>
        <path class="cls-1" d="M290.97,305.55l-.11.38.38.11.11-.38-.38-.11Z"/>
        <path class="cls-1" d="M293.26,306.2l-.11.38.38.11.11-.38-.38-.11Z"/>
        <path class="cls-1" d="M292.5,305.98l-.11.38.38.11.11-.38-.38-.11Z"/>
        <path class="cls-1" d="M297.84,307.49l-.11.38.38.11.11-.38-.38-.11Z"/>
        <path class="cls-1" d="M301.66,308.57l-.11.38.38.11.11-.38-.38-.11Z"/>
        <path class="cls-1" d="M302.45,308.83l-.11.38.38.11.11-.38-.38-.11Z"/>
        <path class="cls-1" d="M303.2,309.02l-.11.38.38.11.11-.38-.38-.11Z"/>
        <path class="cls-1" d="M304.71,309.43l-.11.38.38.11.11-.38-.38-.11Z"/>
        <path class="cls-1" d="M303.95,309.21l-.11.38.38.11.11-.38-.38-.11Z"/>
        <path class="cls-1" d="M298.61,307.71l-.11.38.38.11.11-.38-.38-.11Z"/>
        <path class="cls-1" d="M299.37,307.93l-.11.38.38.11.11-.38-.38-.11Z"/>
        <path class="cls-1" d="M300.13,308.14l-.11.38.38.11.11-.38-.38-.11Z"/>
        <path class="cls-1" d="M300.92,308.4l-.11.38.38.11.11-.38-.38-.11Z"/>
      </g>
    </g>
  </g>
</svg>