<?xml version="1.0" encoding="UTF-8"?>
<svg id="Layer_2" data-name="Layer 2" xmlns="http://www.w3.org/2000/svg" viewBox="0 0 683.77 880.48">
  <defs>
    <style>
      .cls-1 {
        fill: #fff;
      }
    </style>
  </defs>
  <g id="Layer_1-2" data-name="Layer 1">
    <g>
      <polygon class="cls-1" points=".05 643.78 5.95 643.78 5.95 659.04 7.73 659.04 7.73 643.78 13.63 643.78 13.63 642.24 .05 642.24 .05 643.78"/>
      <g>
        <polygon class="cls-1" points="356.71 484.56 356.19 485.25 357.23 485.25 356.71 484.56"/>
        <path class="cls-1" d="M425.2,694.25c.48,0,.95,0,1.42,0l3.46,4.68h6.19l-3.6-4.69c1.91,0,3.79.03,5.64.09h113.05s2.93,4.71,2.93,4.71v-4.7h0v-1h-115.96c-2.1-.07-4.24-.09-6.43-.1l-3.56-4.64c3.45-.01,6.78,0,10.08.09h115.86v2.43c0,.06.03.11.08.15l2.38,1.67s.07.03.1.03h7.84c.1,0,.18-.08.18-.18v-.82l.75-.26c.15-.05.15-.26,0-.31l-.93-.32.78-.6c.12-.1.06-.29-.1-.29h-.98s.54-.82.54-.82c.09-.13-.04-.3-.19-.24l-.93.32.24-.95c.04-.15-.14-.27-.26-.17l-.77.6-.08-.98c-.01-.16-.21-.21-.3-.08l-.54.82-.39-.9c-.06-.14-.27-.13-.31.03l-.23.92s-.07-.05-.11-.07l-.57-.62c-.09-.1-.23-.05-.27.06l-.4-.27c-.11-.07-.11-.23,0-.3.13-.09.27-.18.4-.27.04.11.18.16.27.06l.57-.62s.07-.04.1-.07l.23.92c.04.15.25.17.31.03l.39-.9.54.82c.09.13.29.08.3-.08l.08-.98.77.6c.12.1.3-.02.26-.17l-.24-.95.93.32c.15.05.28-.11.19-.25l-.54-.82h.98c.16,0,.22-.2.1-.29l-.78-.6.93-.32c.15-.05.15-.26,0-.31l-.75-.26v-.82c0-.1-.08-.18-.18-.18h-7.84s-.07.01-.1.03l-2.38,1.68s-.08.09-.08.15v2.43h-115.83c-3.57-.11-7.32-.11-11.02-.09l4.11-5.36c2.37,0,4.74.03,7.06.1h115.68v-1h0v-4.33l-2.69,4.33h-112.97c-2.07-.06-4.19-.09-6.31-.09l3.53-4.6h-5.89l-3.49,4.62c-.44,0-.88,0-1.32,0v.5s-.11-.5-.11-.5c-1.01,0-2.02.01-3.02.02l-3.49-4.64h-5.29l-.57.33,3.29,4.3c-17.52-.17-34.36-1.95-43.61-14.68-7.9-12.43-7.81-53.43-7.78-68.96,0-3.3.01-6.71-.05-10.03v-96.82s-1,0-1,0v96.83c.07,3.31.06,6.72.05,10.11-.03,15.51-.12,56.72,7.95,69.42,9.68,13.33,27.16,15,45.21,15.13l4.11,5.36c-20.83.07-41.71-.84-53.54-17.32-8.91-13.88-8.85-48.38-8.82-71.22,0-4.59.01-8.56-.05-11.81v-99.41s-1.08-1.46-1.08-1.46h-.92v100.88c.07,3.25.06,7.21.05,11.79-.04,23.07-.09,57.93,9.16,72.34,12.26,17.08,33.26,18.23,54.29,18.19l-3.54,4.63c-20.43-.16-41.83-2.3-54.72-20.26l-.18-.27c-10.06-15.67-9.96-59.54-9.93-76.1,0-3.42.01-6.64-.05-9.85v-.13s0-96.89,0-96.89h-1v96.89s0,.14,0,.14c.07,3.2.06,6.42.05,9.88-.04,16.59-.13,60.68,10.09,76.6l.2.29c13.01,18.12,34.31,20.46,54.78,20.67l-3.57,4.67h6.06l3.49-4.66c1.2,0,2.39-.01,3.57-.02ZM425.14,693.25c-.91,0-1.83.01-2.76.02l1.77-2.36,1.74,2.35c-.25,0-.5,0-.75,0ZM425.04,681.25h.11c.18,0,.37,0,.56,0l-1.49,1.96-1.46-1.95c.76,0,1.52,0,2.28-.01Z"/>
        <rect class="cls-1" x="572.93" y="693.85" width="1" height="1" transform="translate(-127.07 1260.25) rotate(-89.38)"/>
        <rect class="cls-1" x="650.57" y="694.67" width="1" height="1" transform="translate(-51.09 1338.7) rotate(-89.38)"/>
        <rect class="cls-1" x="606.77" y="694.21" width="1" height="1" transform="translate(-93.95 1294.44) rotate(-89.38)"/>
        <rect class="cls-1" x="668.49" y="694.86" width="1" height="1" transform="translate(-33.55 1356.8) rotate(-89.38)"/>
        <rect class="cls-1" x="652.56" y="694.69" width="1" height="1" transform="translate(-49.14 1340.72) rotate(-89.38)"/>
        <rect class="cls-1" x="670.48" y="694.88" width="1" height="1" transform="translate(-31.6 1358.82) rotate(-89.38)"/>
        <rect class="cls-1" x="580.89" y="693.94" width="1" height="1" transform="translate(-119 1268.64) rotate(-89.41)"/>
        <rect class="cls-1" x="582.88" y="693.96" width="1" height="1" transform="translate(-117.05 1270.65) rotate(-89.41)"/>
        <rect class="cls-1" x="660.53" y="694.78" width="1" height="1" transform="translate(-41.02 1349.11) rotate(-89.41)"/>
        <rect class="cls-1" x="648.58" y="694.65" width="1" height="1" transform="translate(-53.03 1336.69) rotate(-89.38)"/>
        <rect class="cls-1" x="586.86" y="694" width="1" height="1" transform="translate(-113.44 1274.33) rotate(-89.38)"/>
        <rect class="cls-1" x="608.76" y="694.23" width="1" height="1" transform="translate(-92 1296.46) rotate(-89.38)"/>
        <rect class="cls-1" x="584.87" y="693.98" width="1" height="1" transform="translate(-115.1 1272.66) rotate(-89.41)"/>
        <rect class="cls-1" x="656.54" y="694.74" width="1" height="1" transform="translate(-45.24 1344.74) rotate(-89.38)"/>
        <rect class="cls-1" x="662.52" y="694.8" width="1" height="1" transform="translate(-39.07 1351.12) rotate(-89.41)"/>
        <rect class="cls-1" x="658.53" y="694.76" width="1" height="1" transform="translate(-42.97 1347.09) rotate(-89.41)"/>
        <rect class="cls-1" x="654.55" y="694.72" width="1" height="1" transform="translate(-47.19 1342.73) rotate(-89.38)"/>
        <rect class="cls-1" x="672.47" y="694.91" width="1" height="1" transform="translate(-29.33 1361.18) rotate(-89.41)"/>
        <rect class="cls-1" x="600.8" y="694.15" width="1" height="1" transform="translate(-99.51 1288.75) rotate(-89.41)"/>
        <rect class="cls-1" x="638.63" y="694.55" width="1" height="1" transform="translate(-62.78 1326.63) rotate(-89.38)"/>
        <rect class="cls-1" x="626.68" y="694.42" width="1" height="1" transform="translate(-74.16 1314.91) rotate(-89.41)"/>
        <rect class="cls-1" x="646.59" y="694.63" width="1" height="1" transform="translate(-54.67 1335.02) rotate(-89.41)"/>
        <rect class="cls-1" x="602.79" y="694.17" width="1" height="1" transform="translate(-97.84 1290.43) rotate(-89.38)"/>
        <rect class="cls-1" x="636.63" y="694.53" width="1" height="1" transform="translate(-64.73 1324.62) rotate(-89.38)"/>
        <rect class="cls-1" x="664.51" y="694.82" width="1" height="1" transform="translate(-37.45 1352.79) rotate(-89.38)"/>
        <rect class="cls-1" x="604.78" y="694.19" width="1" height="1" transform="translate(-95.9 1292.44) rotate(-89.38)"/>
        <rect class="cls-1" x="644.6" y="694.61" width="1" height="1" transform="translate(-56.62 1333.01) rotate(-89.41)"/>
        <rect class="cls-1" x="642.61" y="694.59" width="1" height="1" transform="translate(-58.56 1331.01) rotate(-89.41)"/>
        <rect class="cls-1" x="666.5" y="694.84" width="1" height="1" transform="translate(-35.5 1354.8) rotate(-89.38)"/>
        <rect class="cls-1" x="598.81" y="694.13" width="1" height="1" transform="translate(-101.45 1286.75) rotate(-89.41)"/>
        <rect class="cls-1" x="640.62" y="694.57" width="1" height="1" transform="translate(-60.83 1328.65) rotate(-89.38)"/>
        <rect class="cls-1" x="634.64" y="694.5" width="1" height="1" transform="translate(-66.67 1322.62) rotate(-89.38)"/>
        <rect class="cls-1" x="588.85" y="694.02" width="1" height="1" transform="translate(-111.48 1276.34) rotate(-89.38)"/>
        <rect class="cls-1" x="632.65" y="694.48" width="1" height="1" transform="translate(-68.62 1320.6) rotate(-89.38)"/>
        <rect class="cls-1" x="624.69" y="694.4" width="1" height="1" transform="translate(-76.42 1312.55) rotate(-89.38)"/>
        <rect class="cls-1" x="620.71" y="694.36" width="1" height="1" transform="translate(-80.31 1308.53) rotate(-89.38)"/>
        <rect class="cls-1" x="574.92" y="693.87" width="1" height="1" transform="translate(-125.13 1262.26) rotate(-89.38)"/>
        <rect class="cls-1" x="578.9" y="693.92" width="1" height="1" transform="translate(-120.94 1266.63) rotate(-89.41)"/>
        <rect class="cls-1" x="630.66" y="694.46" width="1" height="1" transform="translate(-70.27 1318.93) rotate(-89.41)"/>
        <rect class="cls-1" x="576.91" y="693.89" width="1" height="1" transform="translate(-123.17 1264.27) rotate(-89.38)"/>
        <rect class="cls-1" x="564.96" y="693.77" width="1" height="1" transform="translate(-134.29 1252.92) rotate(-89.44)"/>
        <rect class="cls-1" x="560.98" y="693.73" width="1" height="1" transform="translate(-138.73 1248.21) rotate(-89.38)"/>
        <rect class="cls-1" x="622.7" y="694.38" width="1" height="1" transform="translate(-78.36 1310.54) rotate(-89.38)"/>
        <rect class="cls-1" x="566.95" y="693.79" width="1" height="1" transform="translate(-132.64 1254.56) rotate(-89.41)"/>
        <rect class="cls-1" x="570.94" y="693.83" width="1" height="1" transform="translate(-129.02 1258.24) rotate(-89.38)"/>
        <rect class="cls-1" x="674.46" y="694.93" width="1" height="1" transform="translate(-27.38 1363.19) rotate(-89.41)"/>
        <rect class="cls-1" x="568.94" y="693.81" width="1" height="1" transform="translate(-130.69 1256.57) rotate(-89.41)"/>
        <rect class="cls-1" x="596.82" y="694.1" width="1" height="1" transform="translate(-103.4 1284.73) rotate(-89.41)"/>
        <rect class="cls-1" x="618.72" y="694.34" width="1" height="1" transform="translate(-82.26 1306.51) rotate(-89.38)"/>
        <rect class="cls-1" x="616.73" y="694.32" width="1" height="1" transform="translate(-84.21 1304.51) rotate(-89.38)"/>
        <rect class="cls-1" x="555.01" y="693.66" width="1" height="1" transform="translate(-144.58 1242.18) rotate(-89.38)"/>
        <rect class="cls-1" x="614.73" y="694.29" width="1" height="1" transform="translate(-85.86 1302.84) rotate(-89.41)"/>
        <rect class="cls-1" x="594.83" y="694.08" width="1" height="1" transform="translate(-105.35 1282.72) rotate(-89.41)"/>
        <rect class="cls-1" x="610.75" y="694.25" width="1" height="1" transform="translate(-89.76 1298.82) rotate(-89.41)"/>
        <rect class="cls-1" x="592.83" y="694.06" width="1" height="1" transform="translate(-107.59 1280.36) rotate(-89.38)"/>
        <rect class="cls-1" x="590.84" y="694.04" width="1" height="1" transform="translate(-109.53 1278.36) rotate(-89.38)"/>
        <rect class="cls-1" x="612.74" y="694.27" width="1" height="1" transform="translate(-87.81 1300.83) rotate(-89.41)"/>
        <rect class="cls-1" x="557" y="693.68" width="1" height="1" transform="translate(-142.63 1244.19) rotate(-89.38)"/>
        <rect class="cls-1" x="562.97" y="693.75" width="1" height="1" transform="translate(-136.54 1250.54) rotate(-89.41)"/>
        <rect class="cls-1" x="558.99" y="693.7" width="1" height="1" transform="translate(-140.68 1246.2) rotate(-89.38)"/>
        <rect class="cls-1" x="628.67" y="694.44" width="1" height="1" transform="translate(-72.21 1316.92) rotate(-89.41)"/>
        <polygon class="cls-1" points="676.45 694.95 676.46 695.44 676.45 695.94 677.46 695.95 677.45 694.94 676.45 694.95"/>
        <rect class="cls-1" x="676.31" y="683.22" width="1" height=".98" transform="translate(-8.62 8.65) rotate(-.73)"/>
        <rect class="cls-1" x="676.41" y="691.04" width="1" height=".98" transform="translate(-8.72 8.65) rotate(-.73)"/>
        <rect class="cls-1" x="676.38" y="689.08" width="1" height=".98" transform="translate(-8.7 8.65) rotate(-.73)"/>
        <rect class="cls-1" x="676.43" y="692.99" width="1" height=".98" transform="translate(-8.75 8.65) rotate(-.73)"/>
        <rect class="cls-1" x="676.36" y="687.13" width="1" height=".98" transform="translate(-8.67 8.65) rotate(-.73)"/>
        <rect class="cls-1" x="676.33" y="685.17" width="1" height=".98" transform="translate(-8.65 8.65) rotate(-.73)"/>
        <polygon class="cls-1" points="677.29 682.23 677.28 681.24 676.29 681.23 676.29 682.24 677.29 682.23"/>
        <rect class="cls-1" x="660.34" y="681.09" width="1" height="1" transform="translate(-27.19 1335.71) rotate(-89.44)"/>
        <rect class="cls-1" x="664.32" y="681.12" width="1" height="1" transform="translate(-23.28 1339.73) rotate(-89.44)"/>
        <rect class="cls-1" x="610.51" y="680.61" width="1" height="1" transform="translate(-75.75 1285.75) rotate(-89.47)"/>
        <rect class="cls-1" x="648.38" y="680.97" width="1" height="1" transform="translate(-38.6 1323.98) rotate(-89.47)"/>
        <rect class="cls-1" x="646.39" y="680.95" width="1" height="1" transform="translate(-40.56 1321.96) rotate(-89.47)"/>
        <rect class="cls-1" x="666.32" y="681.14" width="1" height="1" transform="translate(-21.33 1341.74) rotate(-89.44)"/>
        <rect class="cls-1" x="586.6" y="680.38" width="1" height="1" transform="translate(-99.5 1261.27) rotate(-89.44)"/>
        <rect class="cls-1" x="588.59" y="680.4" width="1" height="1" transform="translate(-97.26 1263.62) rotate(-89.47)"/>
        <rect class="cls-1" x="614.5" y="680.65" width="1" height="1" transform="translate(-72.14 1289.44) rotate(-89.44)"/>
        <rect class="cls-1" x="642.4" y="680.91" width="1" height="1" transform="translate(-44.78 1317.61) rotate(-89.44)"/>
        <rect class="cls-1" x="662.33" y="681.11" width="1" height="1" transform="translate(-24.92 1338.06) rotate(-89.47)"/>
        <rect class="cls-1" x="592.58" y="680.43" width="1" height="1" transform="translate(-93.64 1267.31) rotate(-89.44)"/>
        <rect class="cls-1" x="650.37" y="680.99" width="1" height="1" transform="translate(-36.96 1325.65) rotate(-89.44)"/>
        <rect class="cls-1" x="644.39" y="680.93" width="1" height="1" transform="translate(-42.82 1319.62) rotate(-89.44)"/>
        <rect class="cls-1" x="590.58" y="680.42" width="1" height="1" transform="translate(-95.31 1265.63) rotate(-89.47)"/>
        <rect class="cls-1" x="616.49" y="680.66" width="1" height="1" transform="translate(-70.18 1291.45) rotate(-89.44)"/>
        <rect class="cls-1" x="600.55" y="680.51" width="1" height="1" transform="translate(-85.82 1275.35) rotate(-89.44)"/>
        <rect class="cls-1" x="652.36" y="681.01" width="1" height="1" transform="translate(-35 1327.67) rotate(-89.44)"/>
        <rect class="cls-1" x="654.36" y="681.03" width="1" height="1" transform="translate(-32.74 1330.01) rotate(-89.47)"/>
        <rect class="cls-1" x="584.6" y="680.36" width="1" height="1" transform="translate(-101.45 1259.26) rotate(-89.44)"/>
        <rect class="cls-1" x="606.53" y="680.57" width="1" height="1" transform="translate(-79.96 1281.39) rotate(-89.44)"/>
        <rect class="cls-1" x="602.54" y="680.53" width="1" height="1" transform="translate(-83.86 1277.37) rotate(-89.44)"/>
        <rect class="cls-1" x="608.52" y="680.59" width="1" height="1" transform="translate(-78 1283.4) rotate(-89.44)"/>
        <rect class="cls-1" x="658.34" y="681.07" width="1" height="1" transform="translate(-29.15 1333.7) rotate(-89.44)"/>
        <rect class="cls-1" x="604.53" y="680.55" width="1" height="1" transform="translate(-81.62 1279.72) rotate(-89.47)"/>
        <rect class="cls-1" x="636.42" y="680.86" width="1" height="1" transform="translate(-50.65 1311.56) rotate(-89.44)"/>
        <rect class="cls-1" x="640.41" y="680.89" width="1" height="1" transform="translate(-46.43 1315.93) rotate(-89.47)"/>
        <rect class="cls-1" x="638.41" y="680.88" width="1" height="1" transform="translate(-48.69 1313.58) rotate(-89.44)"/>
        <rect class="cls-1" x="656.35" y="681.05" width="1" height="1" transform="translate(-31.1 1331.68) rotate(-89.44)"/>
        <rect class="cls-1" x="612.51" y="680.63" width="1" height="1" transform="translate(-73.8 1287.76) rotate(-89.47)"/>
        <rect class="cls-1" x="598.55" y="680.49" width="1" height="1" transform="translate(-87.78 1273.34) rotate(-89.44)"/>
        <rect class="cls-1" x="576.63" y="680.28" width="1" height="1" transform="translate(-108.99 1251.55) rotate(-89.47)"/>
        <rect class="cls-1" x="574.64" y="680.26" width="1" height="1" transform="translate(-110.95 1249.54) rotate(-89.47)"/>
        <rect class="cls-1" x="572.65" y="680.24" width="1" height="1" transform="translate(-113.18 1247.19) rotate(-89.44)"/>
        <rect class="cls-1" x="564.67" y="680.17" width="1" height="1" transform="translate(-120.98 1239.16) rotate(-89.44)"/>
        <rect class="cls-1" x="562.68" y="680.15" width="1" height="1" transform="translate(-122.93 1237.15) rotate(-89.44)"/>
        <rect class="cls-1" x="578.62" y="680.3" width="1" height="1" transform="translate(-107.32 1253.22) rotate(-89.44)"/>
        <rect class="cls-1" x="674.29" y="681.22" width="1" height="1" transform="translate(-13.51 1349.79) rotate(-89.44)"/>
        <rect class="cls-1" x="570.65" y="680.22" width="1" height="1" transform="translate(-115.14 1245.17) rotate(-89.44)"/>
        <rect class="cls-1" x="582.61" y="680.34" width="1" height="1" transform="translate(-103.13 1257.58) rotate(-89.47)"/>
        <rect class="cls-1" x="626.46" y="680.76" width="1" height="1" transform="translate(-60.11 1301.85) rotate(-89.47)"/>
        <rect class="cls-1" x="568.66" y="680.2" width="1" height="1" transform="translate(-116.81 1243.5) rotate(-89.47)"/>
        <rect class="cls-1" x="628.45" y="680.78" width="1" height="1" transform="translate(-58.46 1303.52) rotate(-89.44)"/>
        <rect class="cls-1" x="630.44" y="680.8" width="1" height="1" transform="translate(-56.5 1305.53) rotate(-89.44)"/>
        <rect class="cls-1" x="624.46" y="680.74" width="1" height="1" transform="translate(-62.37 1299.5) rotate(-89.44)"/>
        <rect class="cls-1" x="560.69" y="680.13" width="1" height="1" transform="translate(-124.89 1235.14) rotate(-89.44)"/>
        <rect class="cls-1" x="566.67" y="680.18" width="1" height="1" transform="translate(-119.04 1241.15) rotate(-89.44)"/>
        <rect class="cls-1" x="634.43" y="680.84" width="1" height="1" transform="translate(-52.29 1309.89) rotate(-89.47)"/>
        <rect class="cls-1" x="632.43" y="680.82" width="1" height="1" transform="translate(-54.25 1307.88) rotate(-89.47)"/>
        <rect class="cls-1" x="558.7" y="680.11" width="1" height="1" transform="translate(-126.84 1233.13) rotate(-89.44)"/>
        <rect class="cls-1" x="596.56" y="680.47" width="1" height="1" transform="translate(-89.44 1271.67) rotate(-89.47)"/>
        <rect class="cls-1" x="668.31" y="681.16" width="1" height="1" transform="translate(-19.05 1344.1) rotate(-89.47)"/>
        <rect class="cls-1" x="594.57" y="680.45" width="1" height="1" transform="translate(-91.68 1269.32) rotate(-89.44)"/>
        <rect class="cls-1" x="620.48" y="680.7" width="1" height="1" transform="translate(-66.28 1295.47) rotate(-89.44)"/>
        <rect class="cls-1" x="670.3" y="681.18" width="1" height="1" transform="translate(-17.09 1346.11) rotate(-89.47)"/>
        <rect class="cls-1" x="580.62" y="680.32" width="1" height="1" transform="translate(-105.36 1255.23) rotate(-89.44)"/>
        <rect class="cls-1" x="618.48" y="680.68" width="1" height="1" transform="translate(-67.93 1293.8) rotate(-89.47)"/>
        <rect class="cls-1" x="554.71" y="680.07" width="1" height="1" transform="translate(-130.48 1229.44) rotate(-89.47)"/>
        <rect class="cls-1" x="556.7" y="680.09" width="1" height="1" transform="translate(-128.79 1231.12) rotate(-89.44)"/>
        <rect class="cls-1" x="672.29" y="681.2" width="1" height="1" transform="translate(-15.46 1347.79) rotate(-89.44)"/>
        <rect class="cls-1" x="622.47" y="680.72" width="1" height="1" transform="translate(-64.32 1297.49) rotate(-89.44)"/>
        <polygon class="cls-1" points="364.59 489.77 360.57 489.77 358.43 486.88 357.35 485.43 357.22 485.26 356.71 484.56 356.19 485.26 352.8 489.77 348.86 489.77 350.52 487.61 351.52 486.3 352.31 485.26 354.76 482.05 352.89 479.6 351.22 477.43 350.97 477.1 349.09 474.64 353.05 474.64 356.76 479.56 360.48 474.64 364.31 474.64 363.91 475.15 363.66 475.48 360.5 479.6 358.64 482.03 361.12 485.26 363.52 488.37 364.52 489.67 364.59 489.77"/>
        <path class="cls-1" d="M416.46,673.77l-8.63-4.99v3.97c-30.49-.27-34-9.32-34.09-45.82h3.98l-4.99-8.63-4.99,8.63h3.99c.11,37.57,4.71,47.52,36.09,47.82v4l4.85-2.8.57-.33,3.22-1.86Z"/>
        <polygon class="cls-1" points="200.66 611.04 205.65 619.67 210.63 611.04 206.65 611.04 206.65 502.96 210.63 502.96 205.65 494.32 200.66 502.96 204.65 502.96 204.65 611.04 200.66 611.04"/>
        <polygon class="cls-1" points="180.45 502.96 175.46 494.32 170.48 502.96 174.47 502.96 174.47 687.06 170.48 687.06 175.46 695.7 180.45 687.06 176.47 687.06 176.47 502.96 180.45 502.96"/>
        <path class="cls-1" d="M303.53,18.1c2.93,0,5.35-1.06,6.94-3l-2.5-2.3c-1.13,1.32-2.54,1.99-4.22,1.99-3.14,0-5.38-2.21-5.38-5.38s2.23-5.38,5.38-5.38c1.68,0,3.1.67,4.22,1.97l2.5-2.3c-1.58-1.92-4.01-2.98-6.91-2.98-5.23,0-9.12,3.62-9.12,8.69s3.89,8.69,9.1,8.69Z"/>
        <path class="cls-1" d="M318.51,18c4.1,0,7.08-2.76,7.08-6.65s-2.98-6.65-7.08-6.65-7.1,2.76-7.1,6.65,3,6.65,7.1,6.65ZM318.51,7.78c1.87,0,3.29,1.34,3.29,3.58s-1.42,3.58-3.29,3.58-3.31-1.34-3.31-3.58,1.44-3.58,3.31-3.58Z"/>
        <path class="cls-1" d="M331.83,11.42c0-2.38,1.3-3.48,3.1-3.48,1.66,0,2.62.96,2.62,3.05v6.82h3.74v-7.39c0-3.94-2.3-5.71-5.35-5.71-1.75,0-3.26.6-4.27,1.7v-1.51h-3.58v12.91h3.74v-6.38Z"/>
        <path class="cls-1" d="M350.36,18c1.73,0,3.1-.55,4.03-1.68v1.49h3.58V0h-3.74v6.26c-.94-1.06-2.28-1.56-3.86-1.56-3.65,0-6.46,2.59-6.46,6.65s2.81,6.65,6.46,6.65ZM351.01,7.78c1.85,0,3.29,1.34,3.29,3.58s-1.44,3.58-3.29,3.58-3.31-1.34-3.31-3.58,1.44-3.58,3.31-3.58Z"/>
        <path class="cls-1" d="M366.87,18c1.58,0,3.02-.6,4.01-1.73v1.54h3.55V4.9h-3.74v6.38c0,2.38-1.25,3.48-2.98,3.48s-2.62-.96-2.62-3.12v-6.74h-3.74v7.3c0,3.98,2.28,5.81,5.52,5.81Z"/>
        <path class="cls-1" d="M384.15,18c2.71,0,4.85-1.2,5.78-3.26l-2.9-1.58c-.7,1.25-1.73,1.78-2.9,1.78-1.9,0-3.38-1.32-3.38-3.58s1.49-3.58,3.38-3.58c1.18,0,2.21.55,2.9,1.78l2.9-1.56c-.94-2.11-3.07-3.29-5.78-3.29-4.2,0-7.2,2.76-7.2,6.65s3,6.65,7.2,6.65Z"/>
        <path class="cls-1" d="M392.74,13.37c0,3.07,1.78,4.63,4.82,4.63,1.15,0,2.28-.26,3.05-.82l-1.01-2.64c-.41.31-.96.48-1.51.48-1.01,0-1.61-.6-1.61-1.7v-5.26h3.22v-2.88h-3.22v-3.14h-3.74v3.14h-1.99v2.88h1.99v5.3Z"/>
        <path class="cls-1" d="M408.46,18c4.1,0,7.08-2.76,7.08-6.65s-2.98-6.65-7.08-6.65-7.1,2.76-7.1,6.65,3,6.65,7.1,6.65ZM408.46,7.78c1.87,0,3.29,1.34,3.29,3.58s-1.42,3.58-3.29,3.58-3.31-1.34-3.31-3.58,1.44-3.58,3.31-3.58Z"/>
        <path class="cls-1" d="M421.78,11.71c0-2.47,1.37-3.6,3.43-3.6.29,0,.53.02.84.05v-3.46c-1.99,0-3.53.65-4.44,1.9v-1.7h-3.58v12.91h3.74v-6.1Z"/>
        <path class="cls-1" d="M426.68,726.74c0-5.02-3.91-8.69-9.19-8.69s-9.19,3.7-9.19,8.69,3.89,8.69,9.19,8.69,9.19-3.67,9.19-8.69ZM412.23,726.74c0-3.19,2.26-5.38,5.26-5.38s5.26,2.18,5.26,5.38-2.26,5.38-5.26,5.38-5.26-2.18-5.26-5.38Z"/>
        <path class="cls-1" d="M429.34,735.14h3.58v-1.49c.94,1.13,2.33,1.68,4.06,1.68,3.62,0,6.43-2.59,6.43-6.65s-2.81-6.65-6.43-6.65c-1.61,0-2.93.5-3.89,1.56v-6.26h-3.75v17.81ZM436.33,725.1c1.87,0,3.29,1.34,3.29,3.58s-1.42,3.58-3.29,3.58-3.29-1.34-3.29-3.58,1.42-3.58,3.29-3.58Z"/>
        <path class="cls-1" d="M447.94,720.42c1.39,0,2.33-.91,2.33-2.16,0-1.15-.94-2.02-2.33-2.02s-2.33.91-2.33,2.09.94,2.09,2.33,2.09Z"/>
        <path class="cls-1" d="M441.94,739.27c.72.5,1.85.72,3,.72,3.12,0,4.87-1.9,4.87-4.87v-12.89h-3.75v12.91c0,1.27-.6,1.87-1.54,1.87-.62,0-1.18-.17-1.58-.46l-1.01,2.71Z"/>
        <path class="cls-1" d="M465.92,728.73c0-4.15-2.93-6.7-6.72-6.7s-6.89,2.78-6.89,6.65,2.9,6.65,7.37,6.65c2.33,0,4.13-.72,5.33-2.09l-1.99-2.16c-.89.84-1.87,1.25-3.24,1.25-1.97,0-3.34-.98-3.7-2.59h9.77c.02-.31.07-.72.07-1.01ZM456.03,727.55c.26-1.66,1.49-2.69,3.19-2.69s2.9,1.06,3.17,2.69h-6.36Z"/>
        <path class="cls-1" d="M468.87,730.7c0,3.07,1.78,4.63,4.83,4.63,1.15,0,2.28-.26,3.05-.82l-1.01-2.64c-.41.31-.96.48-1.51.48-1.01,0-1.61-.6-1.61-1.7v-5.26h3.22v-2.88h-3.22v-3.14h-3.75v3.14h-1.99v2.88h1.99v5.3Z"/>
        <rect class="cls-1" x="478.85" y="722.22" width="3.74" height="12.91"/>
        <path class="cls-1" d="M480.73,720.42c1.39,0,2.33-.91,2.33-2.16,0-1.15-.94-2.02-2.33-2.02s-2.33.91-2.33,2.09.94,2.09,2.33,2.09Z"/>
        <polygon class="cls-1" points="493.45 735.14 498.9 722.22 495.3 722.22 491.6 731.01 488.02 722.22 484.16 722.22 489.58 735.14 493.45 735.14"/>
        <path class="cls-1" d="M499.11,728.68c0,3.89,3,6.65,7.1,6.65s7.08-2.76,7.08-6.65-2.98-6.65-7.08-6.65-7.1,2.76-7.1,6.65ZM509.5,728.68c0,2.23-1.42,3.58-3.29,3.58s-3.31-1.34-3.31-3.58,1.44-3.58,3.31-3.58,3.29,1.34,3.29,3.58Z"/>
        <polygon class="cls-1" points="229.42 543.76 229.42 560.56 231.2 560.56 231.2 556.14 234.63 552.66 241.49 560.56 243.61 560.56 235.83 551.37 243.1 543.76 241.06 543.76 231.2 553.91 231.2 543.76 229.42 543.76"/>
        <path class="cls-1" d="M253.23,543.61c-5.09,0-8.83,3.65-8.83,8.54s3.74,8.54,8.83,8.54,8.81-3.62,8.81-8.54-3.77-8.54-8.81-8.54ZM253.23,559.12c-4.06,0-7.08-2.95-7.08-6.96s3.02-6.96,7.08-6.96,7.03,2.95,7.03,6.96-3,6.96-7.03,6.96Z"/>
        <path class="cls-1" d="M272.31,543.76h-6.29v16.8h1.78v-5.3h4.51c4.27,0,6.86-2.16,6.86-5.74s-2.59-5.76-6.86-5.76ZM272.26,553.69h-4.46v-8.4h4.46c3.36,0,5.14,1.54,5.14,4.22s-1.78,4.18-5.14,4.18Z"/>
        <polygon class="cls-1" points="675.14 818 429.85 818 429.85 814.02 421.22 819 429.85 823.99 429.85 820 675.14 820 675.14 823.99 683.77 819 675.14 814.02 675.14 818"/>
        <path class="cls-1" d="M463.96,834.88h-6.84v16.8h6.84c5.38,0,9-3.46,9-8.4s-3.62-8.4-9-8.4ZM463.87,850.14h-4.97v-13.73h4.97c4.46,0,7.34,2.83,7.34,6.86s-2.88,6.86-7.34,6.86Z"/>
        <rect class="cls-1" x="476.95" y="834.88" width="1.78" height="16.8"/>
        <path class="cls-1" d="M488.83,850.31c-2.21,0-4.34-.86-5.54-2.04l-.7,1.37c1.25,1.3,3.72,2.18,6.24,2.18,4.3,0,6.26-2.11,6.26-4.58,0-6.12-10.35-3.34-10.35-7.94,0-1.68,1.37-3.05,4.44-3.05,1.49,0,3.17.46,4.61,1.39l.6-1.42c-1.34-.94-3.31-1.49-5.21-1.49-4.27,0-6.19,2.14-6.19,4.61,0,6.22,10.34,3.38,10.34,7.99,0,1.66-1.37,2.98-4.51,2.98Z"/>
        <polygon class="cls-1" points="496.07 836.42 501.98 836.42 501.98 851.68 503.75 851.68 503.75 836.42 509.66 836.42 509.66 834.88 496.07 834.88 496.07 836.42"/>
        <path class="cls-1" d="M510.81,851.68l2.02-4.49h9.36l2.02,4.49h1.87l-7.68-16.8h-1.75l-7.68,16.8h1.85ZM517.51,836.73l4.03,9.02h-8.06l4.03-9.02Z"/>
        <polygon class="cls-1" points="541.15 848.51 530.32 834.88 528.86 834.88 528.86 851.68 530.63 851.68 530.63 838.05 541.43 851.68 542.9 851.68 542.9 834.88 541.15 834.88 541.15 848.51"/>
        <path class="cls-1" d="M555.74,836.32c1.92,0,3.6.6,4.97,1.99l1.13-1.13c-1.49-1.63-3.7-2.45-6.14-2.45-5.06,0-8.81,3.62-8.81,8.54s3.75,8.54,8.79,8.54c2.47,0,4.68-.84,6.17-2.47l-1.13-1.13c-1.37,1.42-3.05,2.02-4.97,2.02-4.06,0-7.1-2.98-7.1-6.96s3.05-6.96,7.1-6.96Z"/>
        <rect class="cls-1" x="565.62" y="834.88" width="1.78" height="16.8"/>
        <path class="cls-1" d="M577.86,834.88l-7.68,16.8h1.85l2.02-4.49h9.36l2.02,4.49h1.87l-7.68-16.8h-1.75ZM574.7,845.75l4.03-9.02,4.03,9.02h-8.06Z"/>
        <polygon class="cls-1" points="458.9 872.7 467.59 872.7 467.59 871.19 458.9 871.19 458.9 865.21 468.64 865.21 468.64 863.68 457.12 863.68 457.12 880.48 469 880.48 469 878.94 458.9 878.94 458.9 872.7"/>
        <polygon class="cls-1" points="485.11 863.68 483.19 863.68 478.15 870.54 473.08 863.68 471.04 863.68 477.02 871.84 470.63 880.48 472.67 880.48 478.07 873.09 483.5 880.48 485.56 880.48 479.16 871.79 485.11 863.68"/>
        <polygon class="cls-1" points="485.35 865.21 491.25 865.21 491.25 880.48 493.03 880.48 493.03 865.21 498.93 865.21 498.93 863.68 485.35 863.68 485.35 865.21"/>
        <path class="cls-1" d="M514.91,869.44c0-3.6-2.59-5.76-6.86-5.76h-6.29v16.8h1.78v-5.33h4.51c.48,0,.91-.02,1.34-.07l3.84,5.4h1.94l-4.1-5.76c2.45-.79,3.84-2.64,3.84-5.28ZM508,873.64h-4.46v-8.42h4.46c3.36,0,5.14,1.54,5.14,4.22s-1.78,4.2-5.14,4.2Z"/>
        <path class="cls-1" d="M524.11,863.68l-7.68,16.8h1.85l2.02-4.49h9.36l2.02,4.49h1.87l-7.68-16.8h-1.75ZM520.94,874.55l4.03-9.02,4.03,9.02h-8.06Z"/>
        <path class="cls-1" d="M404.5,624.09c0-2.74-2.16-4.32-5.9-4.32h-7.25v16.8h7.73c4.2,0,6.31-1.63,6.31-4.49,0-2.28-1.3-3.7-3.46-4.18,1.54-.62,2.57-1.9,2.57-3.82ZM403.61,631.94c0,2.21-1.61,3.17-4.56,3.17h-5.93v-6.31h5.93c2.95,0,4.56.96,4.56,3.14ZM398.48,627.33h-5.35v-6.1h5.35c2.69,0,4.25,1.03,4.25,3.05s-1.56,3.05-4.25,3.05Z"/>
        <path class="cls-1" d="M409.3,619.77v9.62c0,4.83,2.62,7.32,6.91,7.32s6.89-2.5,6.89-7.32v-9.62h-1.73v9.55c0,3.98-1.87,5.81-5.16,5.81s-5.14-1.82-5.14-5.81v-9.55h-1.78Z"/>
        <path class="cls-1" d="M441.6,625.53c0-3.6-2.59-5.76-6.86-5.76h-6.29v16.8h1.78v-5.33h4.51c.48,0,.91-.02,1.34-.07l3.84,5.4h1.94l-4.1-5.76c2.45-.79,3.84-2.64,3.84-5.28ZM434.69,629.73h-4.46v-8.42h4.46c3.36,0,5.14,1.54,5.14,4.22s-1.78,4.2-5.14,4.2Z"/>
        <path class="cls-1" d="M427.91,195.24h1.63c-1.9-3.29-2.74-6.96-2.74-11.23s.84-7.94,2.74-11.23h-1.63c-1.78,2.86-2.78,6.82-2.78,11.23s1.01,8.33,2.78,11.23Z"/>
        <path class="cls-1" d="M438.25,190.71c1.99,0,3.74-.72,4.87-2.06l-.96-1.1c-.96,1.1-2.33,1.66-3.86,1.66-2.76,0-4.78-1.75-4.97-4.39h10.56c0-.19.02-.38.02-.53,0-3.79-2.57-6.41-6.12-6.41s-6.17,2.66-6.17,6.41,2.69,6.43,6.62,6.43ZM437.79,179.33c2.47,0,4.27,1.73,4.49,4.2h-8.95c.22-2.47,2.02-4.2,4.46-4.2Z"/>
        <polygon class="cls-1" points="453.9 170.38 452.34 170.38 444.42 192.99 445.98 192.99 453.9 170.38"/>
        <polygon class="cls-1" points="457.28 190.59 458.89 190.59 462.87 180.24 466.86 190.59 468.47 190.59 473.24 177.96 471.68 177.96 467.67 188.69 463.64 177.96 462.18 177.96 458.12 188.69 454.16 177.96 452.53 177.96 457.28 190.59"/>
        <path class="cls-1" d="M476.86,197.78c-1.04,0-2.03-.36-2.62-.83l-.45.78c.6.52,1.78.91,2.99.91,1.92,0,3.04-.83,3.04-2.1,0-2.83-4.77-1.33-4.77-3.32,0-.7.59-1.22,1.92-1.22.76,0,1.53.18,2.17.63l.43-.8c-.62-.42-1.65-.69-2.6-.69-1.88,0-2.91.9-2.91,2.1,0,2.91,4.77,1.4,4.77,3.32,0,.73-.57,1.2-1.97,1.2Z"/>
        <path class="cls-1" d="M484.7,198.65c1.18,0,2.13-.52,2.64-1.41v1.34h.95v-7.36h-.99v3.86c0,1.68-.97,2.67-2.5,2.67-1.4,0-2.21-.8-2.21-2.36v-4.17h-.99v4.27c0,2.11,1.23,3.16,3.11,3.16Z"/>
        <path class="cls-1" d="M492.07,197.2c.62.95,1.62,1.46,2.8,1.46,2.1,0,3.67-1.51,3.67-3.75s-1.57-3.74-3.67-3.74c-1.22,0-2.24.53-2.84,1.51v-1.46h-.95v10.07h.99v-4.1ZM494.8,192.03c1.55,0,2.74,1.16,2.74,2.87s-1.19,2.87-2.74,2.87-2.74-1.15-2.74-2.87,1.18-2.87,2.74-2.87Z"/>
        <path class="cls-1" d="M501.34,190.61l-.82,3.48h1.15l1.01-3.31c.24-.67.34-.98.34-1.39,0-.72-.53-1.3-1.27-1.3s-1.27.55-1.27,1.3c0,.62.36,1.08.86,1.22Z"/>
        <path class="cls-1" d="M514.63,183.96c0-2.88,1.7-4.56,4.42-4.56,2.4,0,3.79,1.37,3.79,4.03v7.15h1.7v-7.32c0-3.62-2.11-5.4-5.18-5.4-2.18,0-3.89.89-4.8,2.42v-2.33h-1.63v12.62h1.7v-6.62Z"/>
        <polygon class="cls-1" points="535.68 170.38 534.12 170.38 526.2 192.99 527.76 192.99 535.68 170.38"/>
        <path class="cls-1" d="M534.29,181.47c0,4.99,8.18,2.4,8.18,5.69,0,1.25-.98,2.06-3.38,2.06-1.78,0-3.48-.62-4.49-1.42l-.77,1.34c1.03.89,3.05,1.56,5.14,1.56,3.29,0,5.21-1.42,5.21-3.6,0-4.85-8.18-2.28-8.18-5.69,0-1.2,1.01-2.09,3.29-2.09,1.3,0,2.62.31,3.72,1.08l.74-1.37c-1.06-.72-2.83-1.18-4.46-1.18-3.22,0-4.99,1.54-4.99,3.6Z"/>
        <path class="cls-1" d="M548.37,197.78c-1.04,0-2.03-.36-2.62-.83l-.45.78c.6.52,1.78.91,2.99.91,1.92,0,3.04-.83,3.04-2.1,0-2.83-4.77-1.33-4.77-3.32,0-.7.59-1.22,1.92-1.22.76,0,1.53.18,2.17.63l.43-.8c-.62-.42-1.65-.69-2.6-.69-1.88,0-2.91.9-2.91,2.1,0,2.91,4.77,1.4,4.77,3.32,0,.73-.57,1.2-1.97,1.2Z"/>
        <path class="cls-1" d="M556.21,198.65c1.18,0,2.13-.52,2.64-1.41v1.34h.95v-7.36h-.99v3.86c0,1.68-.97,2.67-2.5,2.67-1.4,0-2.21-.8-2.21-2.36v-4.17h-.99v4.27c0,2.11,1.23,3.16,3.11,3.16Z"/>
        <path class="cls-1" d="M563.58,197.2c.62.95,1.62,1.46,2.8,1.46,2.1,0,3.67-1.51,3.67-3.75s-1.57-3.74-3.67-3.74c-1.22,0-2.24.53-2.84,1.51v-1.46h-.95v10.07h.99v-4.1ZM566.31,192.03c1.55,0,2.74,1.16,2.74,2.87s-1.19,2.87-2.74,2.87-2.74-1.15-2.74-2.87,1.18-2.87,2.74-2.87Z"/>
        <path class="cls-1" d="M573.28,195.24c1.8-2.9,2.81-6.82,2.81-11.23s-1.01-8.38-2.81-11.23h-1.63c1.92,3.29,2.76,6.96,2.76,11.23s-.84,7.94-2.76,11.23h1.63Z"/>
        <path class="cls-1" d="M411.72,750.08c-1.78,2.86-2.78,6.82-2.78,11.23s1.01,8.33,2.78,11.23h1.63c-1.9-3.29-2.74-6.96-2.74-11.23s.84-7.94,2.74-11.23h-1.63Z"/>
        <path class="cls-1" d="M427.73,761.57c0-3.79-2.57-6.41-6.12-6.41s-6.17,2.66-6.17,6.41,2.69,6.43,6.62,6.43c1.99,0,3.75-.72,4.87-2.06l-.96-1.1c-.96,1.1-2.33,1.66-3.86,1.66-2.76,0-4.78-1.75-4.97-4.39h10.56c0-.19.02-.38.02-.53ZM417.14,760.83c.22-2.47,2.02-4.2,4.46-4.2s4.27,1.73,4.49,4.2h-8.95Z"/>
        <polygon class="cls-1" points="437.71 747.68 436.15 747.68 428.23 770.29 429.79 770.29 437.71 747.68"/>
        <polygon class="cls-1" points="442.7 767.89 446.69 757.54 450.67 767.89 452.28 767.89 457.06 755.26 455.5 755.26 451.49 765.99 447.46 755.26 445.99 755.26 441.94 765.99 437.97 755.26 436.34 755.26 441.1 767.89 442.7 767.89"/>
        <path class="cls-1" d="M461.64,768.46c-2.15,0-3.75,1.55-3.75,3.74s1.6,3.75,3.75,3.75,3.74-1.57,3.74-3.75-1.58-3.74-3.74-3.74ZM461.64,775.07c-1.57,0-2.74-1.15-2.74-2.87s1.18-2.87,2.74-2.87,2.73,1.15,2.73,2.87-1.16,2.87-2.73,2.87Z"/>
        <path class="cls-1" d="M468.36,774.42c.6.99,1.62,1.52,2.84,1.52,2.1,0,3.67-1.52,3.67-3.75s-1.57-3.74-3.67-3.74c-1.18,0-2.18.5-2.8,1.46v-4.42h-.99v10.38h.95v-1.46ZM471.13,769.33c1.55,0,2.74,1.15,2.74,2.87s-1.19,2.87-2.74,2.87-2.74-1.15-2.74-2.87,1.17-2.87,2.74-2.87Z"/>
        <path class="cls-1" d="M477.96,776.42v-7.91h-.99v7.91c0,.91-.43,1.39-1.22,1.39-.46,0-.85-.13-1.15-.38l-.35.76c.36.32.96.48,1.55.48,1.4,0,2.16-.88,2.16-2.24Z"/>
        <path class="cls-1" d="M478.19,766.18c0-.38-.32-.69-.73-.69s-.73.32-.73.7.32.71.73.71.73-.32.73-.73Z"/>
        <path class="cls-1" d="M481.84,771.39l1.01-3.31c.24-.67.34-.98.34-1.39,0-.72-.53-1.3-1.27-1.3s-1.27.55-1.27,1.3c0,.62.36,1.08.86,1.22l-.82,3.48h1.15Z"/>
        <path class="cls-1" d="M504.71,767.89v-7.32c0-3.62-2.11-5.4-5.18-5.4-2.18,0-3.89.89-4.8,2.42v-2.33h-1.63v12.62h1.71v-6.62c0-2.88,1.7-4.56,4.42-4.56,2.4,0,3.79,1.37,3.79,4.03v7.15h1.7Z"/>
        <polygon class="cls-1" points="506.36 770.29 507.92 770.29 515.84 747.68 514.28 747.68 506.36 770.29"/>
        <path class="cls-1" d="M516.16,758.72c0-1.2,1.01-2.09,3.29-2.09,1.3,0,2.62.31,3.72,1.08l.74-1.37c-1.06-.72-2.83-1.18-4.46-1.18-3.22,0-4.99,1.54-4.99,3.6,0,4.99,8.18,2.4,8.18,5.69,0,1.25-.98,2.06-3.38,2.06-1.78,0-3.48-.62-4.49-1.42l-.77,1.34c1.03.89,3.05,1.56,5.14,1.56,3.29,0,5.21-1.42,5.21-3.6,0-4.85-8.18-2.28-8.18-5.69Z"/>
        <path class="cls-1" d="M529.5,768.46c-2.15,0-3.75,1.55-3.75,3.74s1.6,3.75,3.75,3.75,3.74-1.57,3.74-3.75-1.58-3.74-3.74-3.74ZM529.5,775.07c-1.57,0-2.74-1.15-2.74-2.87s1.18-2.87,2.74-2.87,2.73,1.15,2.73,2.87-1.16,2.87-2.73,2.87Z"/>
        <path class="cls-1" d="M539.06,768.46c-1.17,0-2.18.5-2.8,1.46v-4.42h-.99v10.38h.95v-1.46c.6.99,1.62,1.52,2.84,1.52,2.1,0,3.67-1.52,3.67-3.75s-1.57-3.74-3.67-3.74ZM538.99,775.07c-1.57,0-2.74-1.15-2.74-2.87s1.18-2.87,2.74-2.87,2.74,1.15,2.74,2.87-1.19,2.87-2.74,2.87Z"/>
        <path class="cls-1" d="M545.33,765.5c-.41,0-.73.32-.73.7s.32.71.73.71.73-.32.73-.73c0-.38-.32-.69-.73-.69Z"/>
        <path class="cls-1" d="M544.82,776.42c0,.91-.43,1.39-1.22,1.39-.46,0-.85-.13-1.15-.38l-.35.76c.36.32.96.48,1.55.48,1.4,0,2.16-.88,2.16-2.24v-7.91h-.99v7.91Z"/>
        <path class="cls-1" d="M549.79,750.08h-1.63c1.92,3.29,2.76,6.96,2.76,11.23s-.84,7.94-2.76,11.23h1.63c1.8-2.9,2.81-6.82,2.81-11.23s-1.01-8.38-2.81-11.23Z"/>
        <polygon class="cls-1" points="21.12 659.04 22.87 659.04 30.31 642.24 28.51 642.24 22.03 656.84 15.6 642.24 13.68 642.24 21.12 659.04"/>
        <path class="cls-1" d="M32.74,659.04h6.84c5.38,0,9-3.46,9-8.4s-3.62-8.4-9-8.4h-6.84v16.8ZM34.51,643.78h4.97c4.46,0,7.34,2.83,7.34,6.86s-2.88,6.86-7.34,6.86h-4.97v-13.73Z"/>
        <path class="cls-1" d="M7.68,671.04l-7.68,16.8h1.85l2.02-4.49h9.36l2.02,4.49h1.87l-7.68-16.8h-1.75ZM4.51,681.91l4.03-9.02,4.03,9.02H4.51Z"/>
        <polygon class="cls-1" points="31.08 686.31 21.67 686.31 21.67 671.04 19.9 671.04 19.9 687.84 31.08 687.84 31.08 686.31"/>
        <path class="cls-1" d="M56.47,679.44c0-4.92-3.77-8.54-8.81-8.54s-8.83,3.65-8.83,8.54,3.74,8.54,8.83,8.54,8.81-3.62,8.81-8.54ZM40.58,679.44c0-4.01,3.02-6.96,7.08-6.96s7.03,2.95,7.03,6.96-3,6.96-7.03,6.96-7.08-2.95-7.08-6.96Z"/>
        <path class="cls-1" d="M60.46,671.04v16.8h7.73c4.2,0,6.31-1.63,6.31-4.49,0-2.28-1.3-3.7-3.46-4.18,1.54-.62,2.57-1.9,2.57-3.82,0-2.74-2.16-4.32-5.9-4.32h-7.25ZM72.72,683.21c0,2.21-1.61,3.17-4.56,3.17h-5.93v-6.31h5.93c2.95,0,4.56.96,4.56,3.14ZM71.83,675.55c0,2.02-1.56,3.05-4.25,3.05h-5.35v-6.1h5.35c2.69,0,4.25,1.03,4.25,3.05Z"/>
        <path class="cls-1" d="M77.35,672.58h6.14v10.18c0,2.47-1.06,3.7-3.12,3.7-1.49,0-2.71-.72-3.62-2.06l-1.06,1.2c1.03,1.54,2.76,2.4,4.66,2.4,3.22,0,4.9-1.75,4.9-5.3v-11.64h-7.9v1.54Z"/>
        <polygon class="cls-1" points="102.1 672.58 102.1 671.04 90.58 671.04 90.58 687.84 102.46 687.84 102.46 686.31 92.35 686.31 92.35 680.07 101.04 680.07 101.04 678.55 92.35 678.55 92.35 672.58 102.1 672.58"/>
        <polygon class="cls-1" points="103.99 672.58 109.9 672.58 109.9 687.84 111.67 687.84 111.67 672.58 117.58 672.58 117.58 671.04 103.99 671.04 103.99 672.58"/>
        <rect class="cls-1" x="120.41" y="671.04" width="1.78" height="16.8"/>
        <polygon class="cls-1" points="139.63 671.04 133.15 685.63 126.72 671.04 124.8 671.04 132.24 687.84 133.99 687.84 141.43 671.04 139.63 671.04"/>
        <path class="cls-1" d="M151.06,670.9c-5.09,0-8.83,3.65-8.83,8.54s3.75,8.54,8.83,8.54,8.81-3.62,8.81-8.54-3.77-8.54-8.81-8.54ZM151.06,686.4c-4.06,0-7.08-2.95-7.08-6.96s3.02-6.96,7.08-6.96,7.03,2.95,7.03,6.96-3,6.96-7.03,6.96Z"/>
        <path class="cls-1" d="M404.35,479.6v-12.38h-3.99v-5.36h1.45v-5.86h-6.18v-8.13h6.18v-5.87h7.43v-44.28h-14.23l-9.16-185.89h5.12v-10.54h-5.64c-2.17-43.69-4.35-87.39-6.52-131.08-4.96.01-9.93.03-14.9.04v-2.31h13.89v-4.55h-4.88v-9.86h-5.25v-21.47h-20.89v21.47h-5.5v9.86h-4.23v4.55h13.92v2.31h-14.24c-.59.02-1.19.04-1.78.06-1.33,25.99-2.67,51.97-4,77.96h-27.95v-13.54h-1v13.54h-2.29v-13.54h-1v13.54h-2.28v-13.54h-1v13.54h-2.28v-13.54h-1v13.54h-2.28v-13.54h-1v13.54h-8.37v43.39h-18.27v1.78h26.64v49.15h-.55v8.88h.55v78.68h-.55v8.88h.55v58.69h-8.2v20.3c-22.78,5.51-45.55,11.02-68.33,16.52v45.06H8.61v5.66h341.91v2.35l1-1.31v-1.04h.79l2.45-3.21-1.87-2.45h-1.67v-2.17l-.25-.33v2.5h-15.72v-10.19h-2.97v-7.55h18.69v12.78h.25v-12.78h12.44v12.78h.25v-12.78h19.02v5.36h-1.94v12.38h-17.08v-4.45l-.25.33v4.12h-3.16l-1.86,2.43,2.48,3.23h2.4v3.11l1,1.3v-4.41h295.81v-5.66h-255.98ZM288.87,189.66h-6.37v-39.39h6.37v39.39ZM292.15,242.59h-.54v8.88h.54v78.68h-.54v8.88h.54v58.69h-2.28v-58.69h.54v-8.88h-.54v-78.68h.54v-8.88h-.54v-49.15h2.28v49.15ZM292.15,189.66h-2.28v-39.39h2.28v39.39ZM295.43,242.59h-.54v8.88h.54v78.68h-.54v8.88h.54v58.69h-2.28v-58.69h.54v-8.88h-.54v-78.68h.54v-8.88h-.54v-49.15h2.28v49.15ZM295.43,189.66h-2.28v-39.39h2.28v39.39ZM298.71,242.59h-.54v8.88h.54v78.68h-.54v8.88h.54v58.69h-2.28v-58.69h.55v-8.88h-.55v-78.68h.55v-8.88h-.55v-49.15h2.28v49.15ZM298.71,189.66h-2.28v-39.39h2.28v39.39ZM302,242.59h-.55v8.88h.55v78.68h-.55v8.88h.55v58.69h-2.29v-58.69h.55v-8.88h-.55v-78.68h.55v-8.88h-.55v-49.15h2.29v49.15ZM302,189.66h-2.29v-39.39h2.29v39.39ZM392.89,397.72h-28.98v-31.57h27.43l1.55,31.57ZM363.91,360.29v-23.28l21.23,23.28h-21.23ZM391.05,360.29h-.43l-26.71-29.29v-9.39l23.94-26.11,3.2,64.79ZM387.01,290.14v-.49l.25.34-23.35,25.46v-25.31h23.1ZM363.91,284.27v-25.99l19.14,25.99h-19.14ZM387.54,289.15l.03.49-.14.16.11-.65ZM383.73,211.83l3.53,71.62-23.35-31.71v-12.79l19.35-27.12h.47ZM378.52,211.83l-14.61,20.48v-20.48h14.61ZM363.91,201.29v-18.31l12.73,18.31h-12.73ZM379.8,132.14h-1.2l-14.69-21.13v-14.97l13.18-18.95,2.71,55.05ZM377.65,137.33l-13.74,19.76v-19.76h13.74ZM363.91,132.14v-16.06l11.17,16.06h-11.17ZM375.16,74.81l-11.25,16.17v-16.17h11.25ZM347.78,53.53v-20.47h18.89v20.47h-2.76v-9.51c.12-.48.18-.99.18-1.5,0-3.69-2.98-6.67-6.66-6.67s-6.67,2.98-6.67,6.67c0,.56.08,1.11.21,1.64v9.37h-3.19ZM351.22,158.96v-21.63h12.44v19.94h.13l-6.87,9.88-5.7-8.19ZM354.92,170.04l-3.7,5.31v-10.62l3.7,5.31ZM357.43,49.18c2.86,0,5.29-1.81,6.23-4.34v8.69h-12.44v-8.59c.97,2.48,3.38,4.24,6.21,4.24ZM353.76,42.52c0-2.03,1.65-3.67,3.67-3.67s3.66,1.64,3.66,3.67-1.64,3.66-3.66,3.66-3.67-1.64-3.67-3.66ZM363.66,67.94v2.31h-12.44v-2.31h12.44ZM363.66,74.81v16.53l-6.71,9.66-5.73-8.24v-17.95h12.44ZM363.66,96.4v14.25l-4.95-7.12,4.95-7.13ZM355.19,103.53l-3.97,5.71v-11.42l3.97,5.71ZM356.95,106.06l6.71,9.66v16.42h-12.44v-17.84l5.73-8.24ZM350.97,74.81v17.59l-12.22-17.59h12.22ZM336.48,76.61l14.49,20.85v12.14c-5.13,7.51-10.27,15.03-15.4,22.54h-1.74l2.65-55.53ZM338.82,132.14l12.15-17.48v17.48h-12.15ZM350.97,137.33v21.27l-14.78-21.27h14.78ZM330.91,193.44h.04v-.83l2.54-53.39,17.48,25.15v11.16h.13l-17.91,25.76h-2.65l.37-7.85ZM303,150.27h26.87l-2.34,39.39h-24.53v-39.39ZM303,339.03h.54v-8.88h-.54v-78.68h.54v-8.88h-.54v-49.15h25.79l-.37,7.85h-6.16v10.54h5.66l-8.86,185.89h-16.06v-58.69ZM323.01,456h-8.12v13.41h-3v10.19h-8.89v-37.6h11.89v5.87h8.12v8.13ZM332.88,456h-6.91v-8.13h6.91v8.13ZM344.91,456h-10.06v-8.13h10.06v8.13ZM350.97,456h-4.08v-8.13h4.08v8.13ZM350.97,397.72h-29.79l1.5-31.57h28.29v31.57ZM350.97,360.29h-22.5l22.5-24.56v24.56ZM350.97,329.57l-28,30.56,3.08-64.64,24.92,27.33v6.75ZM350.97,316.82l-24.33-26.68h24.33v26.68ZM350.97,284.27h-19.38l19.38-27.17v27.17ZM350.97,250.46l-24.11,33.81h-.28l3.44-72.03,20.95,28.46v9.76ZM350.97,234.16l-16.43-22.33h16.43v22.33ZM350.97,201.29h-13.77l13.77-19.82v19.82ZM356.47,456h-5.25v-8.13h5.25v8.13ZM363.66,456h-5.21v-8.13h5.21v8.13ZM363.66,397.72h-12.44v-31.57h12.44v31.57ZM363.66,360.29h-12.44v-24.83l5.66-6.17,6.78,7.45v23.55ZM351.22,329.3v-6.2l2.84,3.11-2.84,3.09ZM363.66,330.73l-4.04-4.43,4.04-4.41v8.84ZM363.66,315.73l-6.85,7.48-5.59-6.12v-26.95h12.44v25.59ZM363.66,284.27h-12.44v-27.52l5.69-7.98,6.75,9.17v26.33ZM351.22,250.11v-9.07l3.29,4.46-3.29,4.61ZM363.66,251.4l-4.38-5.96,4.38-6.14v12.1ZM363.66,232.66l-6.78,9.52-5.66-7.68v-22.67h12.44v20.83ZM363.66,201.29h-12.44v-20h-.12l5.82-8.37,6.74,9.7v18.67ZM363.66,176.86l-4.74-6.82,4.74-6.82v13.64ZM363.79,163.04l16.37-23.56,3.05,61.81h-2.56l-16.74-24.07v-14.18h-.12ZM368.83,456h-4.92v-8.13h4.92v8.13ZM380.54,456h-9.74v-8.13h9.74v8.13ZM393.65,456h-11.13v-8.13h11.13v8.13Z"/>
      </g>
    </g>
  </g>
</svg>