<svg width="376" height="325" viewBox="0 0 376 325" fill="none" xmlns="http://www.w3.org/2000/svg">
<rect x="0.5" y="0.5" width="375" height="324" rx="11.5" fill="white"/>
<rect x="0.5" y="0.5" width="375" height="324" rx="11.5" stroke="#001A70"/>
<path d="M71.0171 232.082H73.0362V237.299H73.6454V232.082H75.6645V231.556H71.0171V232.082Z" fill="#001A70"/>
<path d="M193.073 177.651L192.895 177.887H193.251L193.073 177.651Z" fill="#001A70"/>
<path d="M216.512 249.336C216.676 249.336 216.837 249.336 216.998 249.336L218.182 250.936H220.3L219.068 249.332C219.722 249.332 220.365 249.342 220.999 249.363H259.687L260.689 250.973V249.025H221.005C220.287 249.001 219.554 248.994 218.805 248.99L217.587 247.404C218.767 247.401 219.907 247.404 221.036 247.435H260.686V248.266C260.686 248.286 260.696 248.303 260.713 248.317L261.528 248.888C261.528 248.888 261.552 248.898 261.562 248.898H264.245C264.279 248.898 264.307 248.871 264.307 248.836V248.556L264.563 248.467C264.615 248.45 264.615 248.378 264.563 248.361L264.245 248.252L264.512 248.047C264.553 248.013 264.532 247.948 264.478 247.948H264.142L264.327 247.667C264.358 247.623 264.313 247.565 264.262 247.585L263.944 247.695L264.026 247.37C264.04 247.319 263.978 247.278 263.937 247.312L263.673 247.517L263.646 247.182C263.643 247.127 263.574 247.11 263.543 247.155L263.359 247.435L263.225 247.127C263.205 247.079 263.133 247.083 263.119 247.137L263.04 247.452C263.04 247.452 263.016 247.435 263.003 247.428L262.808 247.216C262.777 247.182 262.729 247.199 262.715 247.237L262.578 247.144C262.541 247.12 262.541 247.066 262.578 247.042C262.623 247.011 262.671 246.98 262.715 246.949C262.729 246.987 262.777 247.004 262.808 246.97L263.003 246.758C263.003 246.758 263.027 246.744 263.037 246.734L263.116 247.049C263.129 247.1 263.201 247.107 263.222 247.059L263.355 246.751L263.54 247.031C263.571 247.076 263.639 247.059 263.643 247.004L263.67 246.669L263.934 246.874C263.975 246.908 264.036 246.867 264.023 246.816L263.94 246.491L264.259 246.601C264.31 246.618 264.354 246.563 264.324 246.515L264.139 246.235H264.474C264.529 246.235 264.55 246.167 264.508 246.136L264.242 245.931L264.56 245.821C264.611 245.804 264.611 245.732 264.56 245.715L264.303 245.626V245.346C264.303 245.312 264.276 245.285 264.242 245.285H261.559C261.559 245.285 261.535 245.288 261.524 245.295L260.71 245.869C260.71 245.869 260.682 245.9 260.682 245.92V246.751H221.043C219.821 246.714 218.538 246.714 217.272 246.72L218.678 244.888C219.489 244.888 220.3 244.898 221.094 244.922H260.682V243.1L259.762 244.58H221.101C220.393 244.56 219.667 244.55 218.942 244.55L220.15 242.977H218.134L216.94 244.556C216.789 244.556 216.639 244.556 216.488 244.556V244.727L216.45 244.556C216.105 244.556 215.759 244.56 215.417 244.563L214.223 242.977H212.412L212.217 243.09L213.343 244.56C207.347 244.502 201.584 243.893 198.419 239.541C195.715 235.292 195.746 221.276 195.756 215.967C195.756 214.839 195.76 213.673 195.739 212.538V179.439H195.397V212.541C195.421 213.673 195.418 214.839 195.414 215.997C195.404 221.3 195.373 235.388 198.135 239.729C201.448 244.286 207.43 244.857 213.607 244.902L215.013 246.734C207.885 246.758 200.739 246.447 196.691 240.813C193.642 236.068 193.662 224.274 193.672 216.466C193.672 214.897 193.676 213.54 193.655 212.428V178.444L193.286 177.945H192.971V212.432C192.995 213.543 192.991 214.897 192.988 216.462C192.974 224.349 192.957 236.266 196.123 241.193C200.318 247.031 207.505 247.425 214.702 247.411L213.49 248.994C206.499 248.939 199.175 248.207 194.764 242.068L194.702 241.975C191.26 236.618 191.294 221.621 191.304 215.96C191.304 214.791 191.308 213.69 191.287 212.593V179.425H190.945V212.596C190.969 213.69 190.965 214.791 190.962 215.974C190.948 221.645 190.917 236.718 194.415 242.16L194.483 242.259C198.936 248.454 206.225 249.254 213.23 249.325L212.008 250.922H214.082L215.277 249.329C215.687 249.329 216.095 249.325 216.498 249.322L216.512 249.336ZM216.492 248.994C216.18 248.994 215.865 248.997 215.547 249.001L216.153 248.194L216.748 248.997C216.663 248.997 216.577 248.997 216.492 248.997V248.994ZM216.457 244.891H216.495C216.557 244.891 216.622 244.891 216.687 244.891L216.177 245.561L215.677 244.895C215.937 244.895 216.197 244.895 216.457 244.891Z" fill="#001A70"/>
<path d="M267.075 249.203L267.071 249.545L267.414 249.548L267.417 249.207L267.075 249.203Z" fill="#001A70"/>
<path d="M293.645 249.484L293.641 249.826L293.984 249.83L293.987 249.488L293.645 249.484Z" fill="#001A70"/>
<path d="M278.658 249.324L278.654 249.666L278.996 249.67L279 249.328L278.658 249.324Z" fill="#001A70"/>
<path d="M299.779 249.547L299.775 249.889L300.117 249.892L300.121 249.551L299.779 249.547Z" fill="#001A70"/>
<path d="M294.327 249.495L294.323 249.837L294.665 249.84L294.669 249.498L294.327 249.495Z" fill="#001A70"/>
<path d="M300.461 249.557L300.457 249.899L300.799 249.903L300.803 249.561L300.461 249.557Z" fill="#001A70"/>
<path d="M269.794 249.225L269.791 249.567L270.133 249.57L270.136 249.229L269.794 249.225Z" fill="#001A70"/>
<path d="M270.475 249.232L270.472 249.574L270.814 249.577L270.818 249.235L270.475 249.232Z" fill="#001A70"/>
<path d="M297.049 249.513L297.045 249.855L297.387 249.859L297.391 249.517L297.049 249.513Z" fill="#001A70"/>
<path d="M292.967 249.477L292.963 249.819L293.305 249.823L293.309 249.481L292.967 249.477Z" fill="#001A70"/>
<path d="M271.842 249.255L271.839 249.597L272.181 249.6L272.185 249.259L271.842 249.255Z" fill="#001A70"/>
<path d="M279.339 249.335L279.336 249.677L279.678 249.68L279.682 249.339L279.339 249.335Z" fill="#001A70"/>
<path d="M271.156 249.239L271.153 249.581L271.495 249.584L271.499 249.242L271.156 249.239Z" fill="#001A70"/>
<path d="M295.693 249.509L295.689 249.85L296.032 249.854L296.035 249.512L295.693 249.509Z" fill="#001A70"/>
<path d="M297.73 249.52L297.726 249.862L298.068 249.865L298.072 249.524L297.73 249.52Z" fill="#001A70"/>
<path d="M296.367 249.506L296.364 249.848L296.706 249.852L296.71 249.51L296.367 249.506Z" fill="#001A70"/>
<path d="M295.012 249.502L295.008 249.844L295.35 249.847L295.354 249.505L295.012 249.502Z" fill="#001A70"/>
<path d="M301.136 249.558L301.132 249.9L301.474 249.904L301.478 249.562L301.136 249.558Z" fill="#001A70"/>
<path d="M276.606 249.294L276.602 249.636L276.945 249.64L276.948 249.298L276.606 249.294Z" fill="#001A70"/>
<path d="M289.559 249.439L289.556 249.781L289.898 249.785L289.901 249.443L289.559 249.439Z" fill="#001A70"/>
<path d="M285.465 249.392L285.461 249.733L285.804 249.737L285.807 249.395L285.465 249.392Z" fill="#001A70"/>
<path d="M292.277 249.461L292.273 249.803L292.615 249.806L292.619 249.465L292.277 249.461Z" fill="#001A70"/>
<path d="M277.298 249.314L277.295 249.656L277.637 249.66L277.64 249.318L277.298 249.314Z" fill="#001A70"/>
<path d="M288.878 249.436L288.874 249.778L289.216 249.781L289.22 249.439L288.878 249.436Z" fill="#001A70"/>
<path d="M298.416 249.536L298.412 249.878L298.754 249.882L298.758 249.54L298.416 249.536Z" fill="#001A70"/>
<path d="M277.976 249.321L277.973 249.663L278.315 249.666L278.319 249.325L277.976 249.321Z" fill="#001A70"/>
<path d="M291.596 249.454L291.592 249.796L291.934 249.8L291.938 249.458L291.596 249.454Z" fill="#001A70"/>
<path d="M290.918 249.451L290.914 249.792L291.257 249.796L291.26 249.454L290.918 249.451Z" fill="#001A70"/>
<path d="M299.097 249.543L299.094 249.885L299.436 249.889L299.44 249.547L299.097 249.543Z" fill="#001A70"/>
<path d="M275.928 249.291L275.925 249.633L276.267 249.636L276.27 249.294L275.928 249.291Z" fill="#001A70"/>
<path d="M290.241 249.45L290.237 249.791L290.579 249.795L290.583 249.453L290.241 249.45Z" fill="#001A70"/>
<path d="M288.196 249.432L288.192 249.774L288.535 249.778L288.538 249.436L288.196 249.432Z" fill="#001A70"/>
<path d="M272.527 249.262L272.524 249.604L272.866 249.607L272.87 249.266L272.527 249.262Z" fill="#001A70"/>
<path d="M287.515 249.422L287.511 249.764L287.853 249.767L287.857 249.425L287.515 249.422Z" fill="#001A70"/>
<path d="M284.788 249.391L284.785 249.732L285.127 249.736L285.131 249.394L284.788 249.391Z" fill="#001A70"/>
<path d="M283.429 249.377L283.425 249.718L283.767 249.722L283.771 249.38L283.429 249.377Z" fill="#001A70"/>
<path d="M267.753 249.21L267.749 249.552L268.092 249.555L268.095 249.213L267.753 249.21Z" fill="#001A70"/>
<path d="M269.116 249.218L269.113 249.56L269.455 249.563L269.459 249.222L269.116 249.218Z" fill="#001A70"/>
<path d="M286.824 249.406L286.82 249.747L287.163 249.751L287.166 249.409L286.824 249.406Z" fill="#001A70"/>
<path d="M268.438 249.217L268.434 249.559L268.777 249.562L268.78 249.22L268.438 249.217Z" fill="#001A70"/>
<path d="M264.347 249.171L264.344 249.513L264.686 249.516L264.689 249.174L264.347 249.171Z" fill="#001A70"/>
<path d="M262.999 249.171L262.996 249.513L263.338 249.517L263.342 249.175L262.999 249.171Z" fill="#001A70"/>
<path d="M284.11 249.384L284.107 249.725L284.449 249.729L284.452 249.387L284.11 249.384Z" fill="#001A70"/>
<path d="M265.026 249.176L265.022 249.518L265.364 249.522L265.368 249.18L265.026 249.176Z" fill="#001A70"/>
<path d="M266.394 249.196L266.39 249.538L266.732 249.541L266.736 249.2L266.394 249.196Z" fill="#001A70"/>
<path d="M301.817 249.565L301.813 249.907L302.156 249.911L302.159 249.569L301.817 249.565Z" fill="#001A70"/>
<path d="M265.707 249.183L265.703 249.525L266.046 249.529L266.049 249.187L265.707 249.183Z" fill="#001A70"/>
<path d="M275.244 249.281L275.24 249.622L275.582 249.626L275.586 249.284L275.244 249.281Z" fill="#001A70"/>
<path d="M282.747 249.366L282.743 249.708L283.086 249.712L283.089 249.37L282.747 249.366Z" fill="#001A70"/>
<path d="M282.066 249.363L282.062 249.705L282.404 249.708L282.408 249.366L282.066 249.363Z" fill="#001A70"/>
<path d="M260.951 249.15L260.948 249.492L261.29 249.496L261.294 249.154L260.951 249.15Z" fill="#001A70"/>
<path d="M281.374 249.35L281.371 249.692L281.713 249.695L281.717 249.353L281.374 249.35Z" fill="#001A70"/>
<path d="M274.562 249.274L274.559 249.615L274.901 249.619L274.905 249.277L274.562 249.274Z" fill="#001A70"/>
<path d="M280.012 249.336L280.008 249.678L280.351 249.681L280.354 249.34L280.012 249.336Z" fill="#001A70"/>
<path d="M273.887 249.276L273.883 249.618L274.226 249.621L274.229 249.279L273.887 249.276Z" fill="#001A70"/>
<path d="M273.209 249.272L273.205 249.614L273.547 249.618L273.551 249.276L273.209 249.272Z" fill="#001A70"/>
<path d="M280.693 249.343L280.69 249.685L281.032 249.688L281.035 249.347L280.693 249.343Z" fill="#001A70"/>
<path d="M261.633 249.157L261.629 249.499L261.971 249.503L261.975 249.161L261.633 249.157Z" fill="#001A70"/>
<path d="M263.663 249.163L263.66 249.504L264.002 249.508L264.006 249.166L263.663 249.163Z" fill="#001A70"/>
<path d="M262.314 249.164L262.311 249.506L262.653 249.51L262.657 249.168L262.314 249.164Z" fill="#001A70"/>
<path d="M286.146 249.399L286.143 249.74L286.485 249.744L286.488 249.402L286.146 249.399Z" fill="#001A70"/>
<path d="M302.495 249.575L302.498 249.742L302.495 249.913L302.841 249.917L302.837 249.571L302.495 249.575Z" fill="#001A70"/>
<path d="M302.799 245.553L302.457 245.557L302.461 245.892L302.804 245.888L302.799 245.553Z" fill="#001A70"/>
<path d="M302.833 248.226L302.491 248.23L302.496 248.565L302.838 248.561L302.833 248.226Z" fill="#001A70"/>
<path d="M302.822 247.556L302.479 247.56L302.484 247.895L302.826 247.891L302.822 247.556Z" fill="#001A70"/>
<path d="M302.839 248.892L302.496 248.897L302.501 249.232L302.843 249.227L302.839 248.892Z" fill="#001A70"/>
<path d="M302.816 246.889L302.474 246.894L302.479 247.229L302.821 247.224L302.816 246.889Z" fill="#001A70"/>
<path d="M302.804 246.219L302.462 246.224L302.467 246.559L302.809 246.554L302.804 246.219Z" fill="#001A70"/>
<path d="M302.782 245.226L302.779 244.888L302.44 244.885V245.23L302.782 245.226Z" fill="#001A70"/>
<path d="M296.979 244.826L296.975 245.168L297.318 245.171L297.321 244.829L296.979 244.826Z" fill="#001A70"/>
<path d="M298.34 244.84L298.337 245.182L298.679 245.185L298.683 244.843L298.34 244.84Z" fill="#001A70"/>
<path d="M279.921 244.656L279.918 244.998L280.26 245.001L280.263 244.659L279.921 244.656Z" fill="#001A70"/>
<path d="M292.878 244.781L292.875 245.123L293.217 245.126L293.22 244.784L292.878 244.781Z" fill="#001A70"/>
<path d="M292.194 244.771L292.191 245.112L292.533 245.116L292.536 244.774L292.194 244.771Z" fill="#001A70"/>
<path d="M299.021 244.843L299.018 245.185L299.36 245.188L299.363 244.847L299.021 244.843Z" fill="#001A70"/>
<path d="M271.743 244.583L271.74 244.925L272.082 244.928L272.085 244.586L271.743 244.583Z" fill="#001A70"/>
<path d="M272.419 244.583L272.416 244.925L272.758 244.928L272.761 244.587L272.419 244.583Z" fill="#001A70"/>
<path d="M281.292 244.677L281.289 245.019L281.631 245.022L281.634 244.68L281.292 244.677Z" fill="#001A70"/>
<path d="M290.837 244.77L290.834 245.112L291.176 245.116L291.18 244.774L290.837 244.77Z" fill="#001A70"/>
<path d="M297.651 244.826L297.648 245.168L297.99 245.171L297.994 244.829L297.651 244.826Z" fill="#001A70"/>
<path d="M273.786 244.604L273.782 244.946L274.125 244.949L274.128 244.607L273.786 244.604Z" fill="#001A70"/>
<path d="M293.568 244.795L293.564 245.136L293.907 245.14L293.91 244.798L293.568 244.795Z" fill="#001A70"/>
<path d="M291.522 244.777L291.518 245.119L291.861 245.122L291.864 244.781L291.522 244.777Z" fill="#001A70"/>
<path d="M273.099 244.59L273.096 244.932L273.438 244.935L273.441 244.593L273.099 244.59Z" fill="#001A70"/>
<path d="M281.973 244.684L281.97 245.025L282.312 245.029L282.315 244.687L281.973 244.684Z" fill="#001A70"/>
<path d="M276.516 244.628L276.513 244.97L276.855 244.973L276.858 244.631L276.516 244.628Z" fill="#001A70"/>
<path d="M294.252 244.805L294.249 245.147L294.591 245.15L294.594 244.808L294.252 244.805Z" fill="#001A70"/>
<path d="M294.923 244.798L294.919 245.14L295.262 245.143L295.265 244.801L294.923 244.798Z" fill="#001A70"/>
<path d="M271.062 244.58L271.059 244.921L271.401 244.925L271.405 244.583L271.062 244.58Z" fill="#001A70"/>
<path d="M278.562 244.649L278.559 244.991L278.901 244.994L278.904 244.652L278.562 244.649Z" fill="#001A70"/>
<path d="M277.2 244.639L277.197 244.98L277.539 244.984L277.542 244.642L277.2 244.639Z" fill="#001A70"/>
<path d="M279.246 244.656L279.243 244.998L279.585 245.001L279.588 244.659L279.246 244.656Z" fill="#001A70"/>
<path d="M296.294 244.822L296.291 245.164L296.633 245.168L296.637 244.826L296.294 244.822Z" fill="#001A70"/>
<path d="M277.873 244.639L277.87 244.981L278.212 244.984L278.215 244.642L277.873 244.639Z" fill="#001A70"/>
<path d="M288.792 244.746L288.788 245.088L289.13 245.091L289.134 244.749L288.792 244.746Z" fill="#001A70"/>
<path d="M290.146 244.753L290.142 245.095L290.485 245.098L290.488 244.756L290.146 244.753Z" fill="#001A70"/>
<path d="M289.476 244.757L289.472 245.098L289.815 245.102L289.818 244.76L289.476 244.757Z" fill="#001A70"/>
<path d="M295.614 244.812L295.61 245.154L295.952 245.157L295.956 244.815L295.614 244.812Z" fill="#001A70"/>
<path d="M280.602 244.66L280.599 245.002L280.941 245.005L280.944 244.663L280.602 244.66Z" fill="#001A70"/>
<path d="M275.832 244.625L275.828 244.966L276.17 244.97L276.174 244.628L275.832 244.625Z" fill="#001A70"/>
<path d="M268.326 244.545L268.322 244.887L268.665 244.89L268.668 244.548L268.326 244.545Z" fill="#001A70"/>
<path d="M267.642 244.538L267.639 244.88L267.981 244.883L267.984 244.541L267.642 244.538Z" fill="#001A70"/>
<path d="M266.967 244.538L266.964 244.88L267.306 244.883L267.309 244.541L266.967 244.538Z" fill="#001A70"/>
<path d="M264.247 244.52L264.244 244.862L264.586 244.866L264.589 244.524L264.247 244.52Z" fill="#001A70"/>
<path d="M263.566 244.514L263.563 244.855L263.905 244.859L263.908 244.517L263.566 244.514Z" fill="#001A70"/>
<path d="M269.013 244.559L269.01 244.901L269.352 244.904L269.355 244.562L269.013 244.559Z" fill="#001A70"/>
<path d="M301.751 244.871L301.748 245.213L302.09 245.216L302.094 244.874L301.751 244.871Z" fill="#001A70"/>
<path d="M266.283 244.531L266.279 244.873L266.622 244.876L266.625 244.534L266.283 244.531Z" fill="#001A70"/>
<path d="M270.371 244.563L270.367 244.904L270.71 244.908L270.713 244.566L270.371 244.563Z" fill="#001A70"/>
<path d="M285.375 244.708L285.372 245.05L285.714 245.053L285.718 244.711L285.375 244.708Z" fill="#001A70"/>
<path d="M265.597 244.518L265.594 244.859L265.936 244.863L265.939 244.521L265.597 244.518Z" fill="#001A70"/>
<path d="M286.065 244.722L286.061 245.064L286.404 245.067L286.407 244.725L286.065 244.722Z" fill="#001A70"/>
<path d="M286.749 244.729L286.746 245.071L287.088 245.074L287.091 244.732L286.749 244.729Z" fill="#001A70"/>
<path d="M284.7 244.711L284.696 245.053L285.039 245.057L285.042 244.715L284.7 244.711Z" fill="#001A70"/>
<path d="M262.882 244.507L262.879 244.848L263.221 244.852L263.224 244.51L262.882 244.507Z" fill="#001A70"/>
<path d="M264.921 244.517L264.918 244.859L265.26 244.862L265.263 244.52L264.921 244.517Z" fill="#001A70"/>
<path d="M288.104 244.732L288.101 245.074L288.443 245.077L288.446 244.736L288.104 244.732Z" fill="#001A70"/>
<path d="M287.42 244.729L287.417 245.071L287.759 245.074L287.762 244.732L287.42 244.729Z" fill="#001A70"/>
<path d="M262.201 244.5L262.198 244.841L262.54 244.845L262.543 244.503L262.201 244.5Z" fill="#001A70"/>
<path d="M275.144 244.611L275.141 244.953L275.483 244.956L275.486 244.614L275.144 244.611Z" fill="#001A70"/>
<path d="M299.696 244.847L299.693 245.189L300.035 245.192L300.038 244.85L299.696 244.847Z" fill="#001A70"/>
<path d="M274.47 244.611L274.467 244.953L274.809 244.956L274.812 244.614L274.47 244.611Z" fill="#001A70"/>
<path d="M283.335 244.694L283.331 245.036L283.673 245.039L283.677 244.697L283.335 244.694Z" fill="#001A70"/>
<path d="M300.38 244.854L300.377 245.196L300.719 245.199L300.722 244.857L300.38 244.854Z" fill="#001A70"/>
<path d="M269.697 244.562L269.694 244.904L270.036 244.907L270.039 244.566L269.697 244.562Z" fill="#001A70"/>
<path d="M282.647 244.684L282.643 245.026L282.986 245.029L282.989 244.687L282.647 244.684Z" fill="#001A70"/>
<path d="M260.83 244.479L260.827 244.821L261.169 244.824L261.172 244.482L260.83 244.479Z" fill="#001A70"/>
<path d="M261.52 244.496L261.517 244.838L261.859 244.841L261.863 244.499L261.52 244.496Z" fill="#001A70"/>
<path d="M301.071 244.871L301.067 245.213L301.409 245.216L301.413 244.874L301.071 244.871Z" fill="#001A70"/>
<path d="M284.019 244.704L284.015 245.046L284.358 245.05L284.361 244.708L284.019 244.704Z" fill="#001A70"/>
<path d="M195.77 179.432H194.394L193.662 178.444L193.292 177.949L193.248 177.89L193.073 177.651L192.895 177.89L191.735 179.432H190.387L190.955 178.694L191.297 178.246L191.568 177.89L192.406 176.793L191.766 175.956L191.195 175.214L191.109 175.101L190.466 174.26H191.821L193.091 175.942L194.364 174.26H195.674L195.537 174.434L195.452 174.547L194.37 175.956L193.734 176.786L194.583 177.89L195.404 178.954L195.746 179.398L195.77 179.432Z" fill="#001A70"/>
<path d="M213.521 242.334L210.568 240.628V241.986C200.133 241.893 198.932 238.799 198.901 226.322H200.263L198.556 223.371L196.848 226.322H198.214C198.251 239.165 199.825 242.567 210.564 242.669V244.037L212.224 243.08L212.419 242.967L213.521 242.331V242.334Z" fill="#001A70"/>
<path d="M139.67 220.89L141.378 223.84L143.082 220.89H141.72V183.941H143.082L141.378 180.988L139.67 183.941H141.035V220.89H139.67Z" fill="#001A70"/>
<path d="M132.754 183.941L131.046 180.988L129.342 183.941H130.707V246.878H129.342L131.046 249.831L132.754 246.878H131.392V183.941H132.754Z" fill="#001A70"/>
<path d="M174.874 18.1876C175.877 18.1876 176.705 17.8253 177.249 17.1621L176.394 16.3758C176.007 16.827 175.524 17.0561 174.949 17.0561C173.875 17.0561 173.108 16.3006 173.108 15.2169C173.108 14.1332 173.871 13.3777 174.949 13.3777C175.524 13.3777 176.01 13.6067 176.394 14.0512L177.249 13.2649C176.708 12.6085 175.877 12.2461 174.884 12.2461C173.095 12.2461 171.763 13.4837 171.763 15.2169C171.763 16.9501 173.095 18.1876 174.878 18.1876H174.874Z" fill="#001A70"/>
<path d="M180.001 18.1535C181.404 18.1535 182.424 17.2099 182.424 15.8801C182.424 14.5503 181.404 13.6067 180.001 13.6067C178.597 13.6067 177.571 14.5503 177.571 15.8801C177.571 17.2099 178.597 18.1535 180.001 18.1535ZM180.001 14.6597C180.641 14.6597 181.127 15.1178 181.127 15.8835C181.127 16.6493 180.641 17.1074 180.001 17.1074C179.361 17.1074 178.868 16.6493 178.868 15.8835C178.868 15.1178 179.361 14.6597 180.001 14.6597Z" fill="#001A70"/>
<path d="M184.559 15.904C184.559 15.0904 185.004 14.7144 185.62 14.7144C186.188 14.7144 186.516 15.0425 186.516 15.757V18.0885H187.796V15.5622C187.796 14.2152 187.009 13.6102 185.965 13.6102C185.367 13.6102 184.85 13.8153 184.504 14.1913V13.6751H183.279V18.0885H184.559V15.904Z" fill="#001A70"/>
<path d="M190.9 18.1535C191.492 18.1535 191.961 17.9654 192.279 17.5791V18.0885H193.505V12H192.225V14.14C191.903 13.7777 191.444 13.6067 190.904 13.6067C189.655 13.6067 188.693 14.4922 188.693 15.8801C188.693 17.268 189.655 18.1535 190.904 18.1535H190.9ZM191.123 14.6597C191.756 14.6597 192.249 15.1178 192.249 15.8835C192.249 16.6493 191.756 17.1074 191.123 17.1074C190.49 17.1074 189.99 16.6493 189.99 15.8835C189.99 15.1178 190.483 14.6597 191.123 14.6597Z" fill="#001A70"/>
<path d="M196.55 18.1535C197.091 18.1535 197.584 17.9483 197.923 17.562V18.0885H199.138V13.6751H197.858V15.8562C197.858 16.6698 197.43 17.0458 196.838 17.0458C196.246 17.0458 195.941 16.7177 195.941 15.9792V13.6751H194.661V16.1707C194.661 17.5313 195.442 18.1569 196.55 18.1569V18.1535Z" fill="#001A70"/>
<path d="M202.464 18.1535C203.391 18.1535 204.124 17.7432 204.442 17.039L203.45 16.4989C203.21 16.9262 202.857 17.1074 202.457 17.1074C201.807 17.1074 201.3 16.6561 201.3 15.8835C201.3 15.1109 201.81 14.6597 202.457 14.6597C202.861 14.6597 203.213 14.8477 203.45 15.2682L204.442 14.7349C204.12 14.0135 203.391 13.6102 202.464 13.6102C201.027 13.6102 200 14.5537 200 15.8835C200 17.2133 201.027 18.1569 202.464 18.1569V18.1535Z" fill="#001A70"/>
<path d="M205.404 16.5707C205.404 17.6202 206.013 18.1535 207.053 18.1535C207.447 18.1535 207.833 18.0646 208.097 17.8731L207.751 16.9706C207.611 17.0766 207.423 17.1347 207.234 17.1347C206.889 17.1347 206.684 16.9296 206.684 16.5536V14.7554H207.785V13.7708H206.684V12.6974H205.404V13.7708H204.723V14.7554H205.404V16.5707Z" fill="#001A70"/>
<path d="M210.783 18.1535C212.186 18.1535 213.206 17.2099 213.206 15.8801C213.206 14.5503 212.186 13.6067 210.783 13.6067C209.38 13.6067 208.354 14.5503 208.354 15.8801C208.354 17.2099 209.38 18.1535 210.783 18.1535ZM210.783 14.6597C211.423 14.6597 211.909 15.1178 211.909 15.8835C211.909 16.6493 211.423 17.1074 210.783 17.1074C210.143 17.1074 209.651 16.6493 209.651 15.8835C209.651 15.1178 210.143 14.6597 210.783 14.6597Z" fill="#001A70"/>
<path d="M215.342 16.0032C215.342 15.1588 215.811 14.7725 216.516 14.7725C216.615 14.7725 216.697 14.7793 216.803 14.7896V13.6067C216.122 13.6067 215.595 13.8289 215.284 14.2563V13.6751H214.058V18.0885H215.338V16.0032H215.342Z" fill="#001A70"/>
<path d="M217.019 260.443C217.019 258.726 215.68 257.472 213.874 257.472C212.067 257.472 210.729 258.737 210.729 260.443C210.729 262.148 212.06 263.413 213.874 263.413C215.687 263.413 217.019 262.159 217.019 260.443ZM212.073 260.443C212.073 259.352 212.847 258.603 213.874 258.603C214.9 258.603 215.674 259.349 215.674 260.443C215.674 261.537 214.9 262.282 213.874 262.282C212.847 262.282 212.073 261.537 212.073 260.443Z" fill="#001A70"/>
<path d="M217.929 263.314H219.154V262.805C219.476 263.191 219.951 263.379 220.543 263.379C221.782 263.379 222.744 262.494 222.744 261.106C222.744 259.718 221.782 258.832 220.543 258.832C219.992 258.832 219.541 259.003 219.212 259.366V257.226H217.929V263.314ZM220.321 259.882C220.961 259.882 221.447 260.34 221.447 261.106C221.447 261.872 220.961 262.33 220.321 262.33C219.681 262.33 219.195 261.872 219.195 261.106C219.195 260.34 219.681 259.882 220.321 259.882Z" fill="#001A70"/>
<path d="M224.294 258.282C224.77 258.282 225.092 257.971 225.092 257.544C225.092 257.15 224.77 256.853 224.294 256.853C223.818 256.853 223.497 257.164 223.497 257.568C223.497 257.971 223.818 258.282 224.294 258.282Z" fill="#001A70"/>
<path d="M222.241 264.726C222.487 264.897 222.874 264.972 223.268 264.972C224.335 264.972 224.934 264.323 224.934 263.307V258.901H223.651V263.314C223.651 263.748 223.445 263.953 223.124 263.953C222.912 263.953 222.72 263.895 222.583 263.796L222.237 264.723L222.241 264.726Z" fill="#001A70"/>
<path d="M230.447 261.123C230.447 259.704 229.445 258.832 228.148 258.832C226.851 258.832 225.79 259.783 225.79 261.106C225.79 262.429 226.782 263.379 228.312 263.379C229.109 263.379 229.725 263.133 230.136 262.665L229.455 261.926C229.15 262.213 228.815 262.354 228.346 262.354C227.672 262.354 227.203 262.019 227.08 261.468H230.423C230.43 261.362 230.447 261.222 230.447 261.123ZM227.063 260.719C227.152 260.152 227.573 259.8 228.154 259.8C228.736 259.8 229.147 260.162 229.239 260.719H227.063Z" fill="#001A70"/>
<path d="M231.457 261.796C231.457 262.846 232.066 263.379 233.11 263.379C233.503 263.379 233.89 263.29 234.154 263.099L233.808 262.196C233.668 262.302 233.479 262.36 233.291 262.36C232.946 262.36 232.74 262.155 232.74 261.779V259.981H233.842V258.997H232.74V257.923H231.457V258.997H230.776V259.981H231.457V261.796Z" fill="#001A70"/>
<path d="M236.152 258.897H234.872V263.311H236.152V258.897Z" fill="#001A70"/>
<path d="M235.516 258.282C235.991 258.282 236.313 257.971 236.313 257.544C236.313 257.15 235.991 256.853 235.516 256.853C235.04 256.853 234.718 257.164 234.718 257.568C234.718 257.971 235.04 258.282 235.516 258.282Z" fill="#001A70"/>
<path d="M239.869 263.314L241.734 258.897H240.502L239.236 261.902L238.01 258.897H236.689L238.544 263.314H239.869Z" fill="#001A70"/>
<path d="M241.806 261.106C241.806 262.436 242.832 263.379 244.235 263.379C245.638 263.379 246.658 262.436 246.658 261.106C246.658 259.776 245.638 258.832 244.235 258.832C242.832 258.832 241.806 259.776 241.806 261.106ZM245.361 261.106C245.361 261.868 244.875 262.33 244.235 262.33C243.595 262.33 243.103 261.872 243.103 261.106C243.103 260.34 243.595 259.882 244.235 259.882C244.875 259.882 245.361 260.34 245.361 261.106Z" fill="#001A70"/>
<path d="M149.512 197.889V203.632H150.121V202.121L151.295 200.932L153.643 203.632H154.368L151.706 200.491L154.194 197.889H153.496L150.121 201.359V197.889H149.512Z" fill="#001A70"/>
<path d="M157.66 197.838C155.919 197.838 154.639 199.086 154.639 200.757C154.639 202.429 155.919 203.677 157.66 203.677C159.402 203.677 160.675 202.439 160.675 200.757C160.675 199.076 159.385 197.838 157.66 197.838ZM157.66 203.14C156.271 203.14 155.238 202.132 155.238 200.761C155.238 199.39 156.271 198.382 157.66 198.382C159.05 198.382 160.066 199.39 160.066 200.761C160.066 202.132 159.04 203.14 157.66 203.14Z" fill="#001A70"/>
<path d="M164.19 197.889H162.037V203.632H162.647V201.821H164.19C165.651 201.821 166.538 201.082 166.538 199.858C166.538 198.635 165.651 197.889 164.19 197.889ZM164.173 201.284H162.647V198.412H164.173C165.323 198.412 165.932 198.939 165.932 199.855C165.932 200.771 165.323 201.284 164.173 201.284Z" fill="#001A70"/>
<path d="M302.047 291.641H218.103V290.28L215.15 291.983L218.103 293.688V292.324H302.047V293.688L305 291.983L302.047 290.28V291.641Z" fill="#001A70"/>
<path d="M229.777 297.411H227.436V303.154H229.777C231.618 303.154 232.857 301.972 232.857 300.283C232.857 298.594 231.618 297.411 229.777 297.411ZM229.746 302.628H228.045V297.934H229.746C231.272 297.934 232.258 298.902 232.258 300.279C232.258 301.657 231.272 302.625 229.746 302.625V302.628Z" fill="#001A70"/>
<path d="M234.831 297.411H234.222V303.154H234.831V297.411Z" fill="#001A70"/>
<path d="M238.288 302.686C237.531 302.686 236.802 302.392 236.392 301.989L236.152 302.457C236.58 302.901 237.425 303.202 238.288 303.202C239.759 303.202 240.43 302.481 240.43 301.637C240.43 299.544 236.888 300.495 236.888 298.922C236.888 298.348 237.357 297.88 238.407 297.88C238.917 297.88 239.492 298.037 239.985 298.355L240.19 297.869C239.732 297.548 239.058 297.36 238.407 297.36C236.946 297.36 236.289 298.092 236.289 298.936C236.289 301.062 239.828 300.091 239.828 301.667C239.828 302.235 239.359 302.686 238.284 302.686H238.288Z" fill="#001A70"/>
<path d="M240.765 297.938H242.788V303.154H243.393V297.938H245.416V297.411H240.765V297.938Z" fill="#001A70"/>
<path d="M245.81 303.154L246.501 301.62H249.704L250.395 303.154H251.035L248.407 297.411H247.808L245.18 303.154H245.813H245.81ZM248.102 298.044L249.482 301.127H246.723L248.102 298.044Z" fill="#001A70"/>
<path d="M256.193 302.071L252.486 297.411H251.987V303.154H252.592V298.495L256.288 303.154H256.791V297.411H256.193V302.071Z" fill="#001A70"/>
<path d="M261.186 297.904C261.843 297.904 262.418 298.109 262.886 298.584L263.273 298.198C262.763 297.64 262.007 297.36 261.172 297.36C259.44 297.36 258.157 298.597 258.157 300.279C258.157 301.961 259.44 303.199 261.165 303.199C262.01 303.199 262.767 302.912 263.276 302.355L262.89 301.968C262.421 302.454 261.846 302.659 261.189 302.659C259.8 302.659 258.759 301.64 258.759 300.279C258.759 298.919 259.803 297.9 261.189 297.9L261.186 297.904Z" fill="#001A70"/>
<path d="M265.176 297.411H264.567V303.154H265.176V297.411Z" fill="#001A70"/>
<path d="M268.755 297.411L266.127 303.154H266.76L267.452 301.62H270.655L271.346 303.154H271.986L269.358 297.411H268.755ZM267.674 301.127L269.053 298.044L270.432 301.127H267.674Z" fill="#001A70"/>
<path d="M228.045 310.34H231.019V309.824H228.045V307.78H231.378V307.257H227.436V313H231.501V312.474H228.045V310.34Z" fill="#001A70"/>
<path d="M237.014 307.257H236.357L234.633 309.602L232.898 307.257H232.199L234.246 310.046L232.059 313H232.757L234.605 310.474L236.464 313H237.169L234.978 310.029L237.014 307.257Z" fill="#001A70"/>
<path d="M237.097 307.78H239.116V313H239.725V307.78H241.744V307.257H237.097V307.78Z" fill="#001A70"/>
<path d="M247.213 309.226C247.213 307.995 246.326 307.257 244.865 307.257H242.712V313H243.322V311.178H244.865C245.029 311.178 245.176 311.171 245.324 311.154L246.638 313H247.302L245.899 311.031C246.737 310.761 247.213 310.128 247.213 309.226ZM244.848 310.662H243.322V307.783H244.848C245.998 307.783 246.607 308.31 246.607 309.226C246.607 310.142 245.998 310.662 244.848 310.662Z" fill="#001A70"/>
<path d="M250.361 307.257L247.733 313H248.366L249.057 311.465H252.26L252.952 313H253.592L250.963 307.257H250.361ZM249.276 310.973L250.655 307.889L252.035 310.973H249.276Z" fill="#001A70"/>
<path d="M209.428 225.351C209.428 224.414 208.689 223.874 207.409 223.874H204.928V229.617H207.573C209.011 229.617 209.733 229.06 209.733 228.082C209.733 227.303 209.288 226.817 208.549 226.653C209.076 226.441 209.428 226.004 209.428 225.347V225.351ZM209.124 228.034C209.124 228.79 208.573 229.118 207.563 229.118H205.534V226.961H207.563C208.573 226.961 209.124 227.289 209.124 228.034ZM207.368 226.458H205.537V224.373H207.368C208.289 224.373 208.822 224.725 208.822 225.416C208.822 226.106 208.289 226.458 207.368 226.458Z" fill="#001A70"/>
<path d="M211.071 223.874V227.163C211.071 228.814 211.967 229.665 213.436 229.665C214.904 229.665 215.793 228.81 215.793 227.163V223.874H215.201V227.139C215.201 228.499 214.561 229.125 213.436 229.125C212.31 229.125 211.677 228.503 211.677 227.139V223.874H211.067H211.071Z" fill="#001A70"/>
<path d="M222.124 225.843C222.124 224.612 221.238 223.874 219.777 223.874H217.624V229.617H218.233V227.795H219.777C219.941 227.795 220.088 227.788 220.235 227.771L221.55 229.617H222.213L220.81 227.648C221.649 227.378 222.124 226.746 222.124 225.843ZM219.76 227.279H218.233V224.4H219.76C220.91 224.4 221.519 224.927 221.519 225.843C221.519 226.759 220.91 227.279 219.76 227.279Z" fill="#001A70"/>
<path d="M217.439 78.7446H217.997C217.347 77.6198 217.06 76.3652 217.06 74.9055C217.06 73.4457 217.347 72.1911 217.997 71.0664H217.439C216.83 72.0441 216.488 73.3979 216.488 74.9055C216.488 76.4131 216.834 77.7532 217.439 78.7446Z" fill="#001A70"/>
<path d="M220.978 77.1959C221.659 77.1959 222.258 76.9498 222.645 76.4917L222.316 76.1157C221.988 76.4917 221.519 76.6831 220.995 76.6831C220.051 76.6831 219.359 76.0849 219.294 75.1824H222.908C222.908 75.1174 222.915 75.0525 222.915 75.0012C222.915 73.7055 222.036 72.8099 220.821 72.8099C219.606 72.8099 218.709 73.7192 218.709 75.0012C218.709 76.2832 219.63 77.1993 220.975 77.1993L220.978 77.1959ZM220.821 73.3056C221.666 73.3056 222.282 73.897 222.357 74.7414H219.294C219.37 73.897 219.986 73.3056 220.821 73.3056Z" fill="#001A70"/>
<path d="M226.334 70.2459H225.8L223.09 77.9754H223.623L226.334 70.2459Z" fill="#001A70"/>
<path d="M227.491 77.1549H228.041L229.404 73.6167L230.769 77.1549H231.32L232.952 72.8372H232.418L231.046 76.5054L229.667 72.8372H229.167L227.778 76.5054L226.423 72.8372H225.865L227.491 77.1549Z" fill="#001A70"/>
<path d="M234.191 79.6129C233.835 79.6129 233.496 79.4898 233.295 79.3291L233.141 79.5958C233.346 79.7735 233.75 79.9069 234.164 79.9069C234.821 79.9069 235.204 79.6231 235.204 79.189C235.204 78.2215 233.572 78.7343 233.572 78.054C233.572 77.8147 233.774 77.6369 234.229 77.6369C234.489 77.6369 234.752 77.6985 234.971 77.8523L235.119 77.5788C234.906 77.4352 234.554 77.3429 234.229 77.3429C233.585 77.3429 233.233 77.6506 233.233 78.0608C233.233 79.0556 234.865 78.5394 234.865 79.1958C234.865 79.4454 234.67 79.606 234.191 79.606V79.6129Z" fill="#001A70"/>
<path d="M236.874 79.9103C237.278 79.9103 237.603 79.7325 237.778 79.4283V79.8864H238.103V77.3703H237.764V78.6898C237.764 79.2642 237.432 79.6026 236.908 79.6026C236.429 79.6026 236.152 79.3291 236.152 78.7958V77.3703H235.813V78.83C235.813 79.5513 236.234 79.9103 236.878 79.9103H236.874Z" fill="#001A70"/>
<path d="M239.396 79.4146C239.609 79.7394 239.951 79.9137 240.355 79.9137C241.073 79.9137 241.611 79.3975 241.611 78.6317C241.611 77.866 241.073 77.3532 240.355 77.3532C239.937 77.3532 239.588 77.5344 239.383 77.8694V77.3703H239.058V80.8128H239.396V79.4112V79.4146ZM240.331 77.6472C240.861 77.6472 241.268 78.0437 241.268 78.6283C241.268 79.2129 240.861 79.6095 240.331 79.6095C239.8 79.6095 239.393 79.2163 239.393 78.6283C239.393 78.0403 239.797 77.6472 240.331 77.6472Z" fill="#001A70"/>
<path d="M242.569 77.1617L242.288 78.3514H242.682L243.027 77.2199C243.109 76.9908 243.144 76.8848 243.144 76.7447C243.144 76.4985 242.962 76.3003 242.709 76.3003C242.456 76.3003 242.274 76.4883 242.274 76.7447C242.274 76.9566 242.398 77.1139 242.569 77.1617Z" fill="#001A70"/>
<path d="M247.117 74.8884C247.117 73.9038 247.699 73.3295 248.629 73.3295C249.451 73.3295 249.926 73.7978 249.926 74.7072V77.1515H250.508V74.6491C250.508 73.4115 249.786 72.803 248.736 72.803C247.99 72.803 247.404 73.1073 247.093 73.6303V72.8338H246.535V77.1481H247.117V74.885V74.8884Z" fill="#001A70"/>
<path d="M254.321 70.2459H253.787L251.076 77.9754H251.61L254.321 70.2459Z" fill="#001A70"/>
<path d="M253.845 74.0372C253.845 75.743 256.644 74.8576 256.644 75.9823C256.644 76.4097 256.309 76.6866 255.488 76.6866C254.878 76.6866 254.297 76.4746 253.951 76.2011L253.687 76.6592C254.04 76.9635 254.731 77.1925 255.446 77.1925C256.572 77.1925 257.229 76.7071 257.229 75.9618C257.229 74.3038 254.43 75.1824 254.43 74.0166C254.43 73.6064 254.776 73.3022 255.556 73.3022C256.001 73.3022 256.453 73.4081 256.829 73.6714L257.082 73.203C256.72 72.9569 256.114 72.7996 255.556 72.7996C254.454 72.7996 253.848 73.3261 253.848 74.0303L253.845 74.0372Z" fill="#001A70"/>
<path d="M258.663 79.6129C258.307 79.6129 257.969 79.4898 257.767 79.3291L257.613 79.5958C257.818 79.7735 258.222 79.9069 258.636 79.9069C259.293 79.9069 259.676 79.6231 259.676 79.189C259.676 78.2215 258.044 78.7343 258.044 78.054C258.044 77.8147 258.246 77.6369 258.701 77.6369C258.961 77.6369 259.225 77.6985 259.444 77.8523L259.591 77.5788C259.379 77.4352 259.026 77.3429 258.701 77.3429C258.058 77.3429 257.705 77.6506 257.705 78.0608C257.705 79.0556 259.338 78.5394 259.338 79.1958C259.338 79.4454 259.142 79.606 258.663 79.606V79.6129Z" fill="#001A70"/>
<path d="M261.346 79.9103C261.75 79.9103 262.075 79.7325 262.25 79.4283V79.8864H262.575V77.3703H262.236V78.6898C262.236 79.2642 261.904 79.6026 261.381 79.6026C260.901 79.6026 260.624 79.3291 260.624 78.7958V77.3703H260.285V78.83C260.285 79.5513 260.706 79.9103 261.35 79.9103H261.346Z" fill="#001A70"/>
<path d="M263.869 79.4146C264.081 79.7394 264.423 79.9137 264.827 79.9137C265.545 79.9137 266.083 79.3975 266.083 78.6317C266.083 77.866 265.545 77.3532 264.827 77.3532C264.409 77.3532 264.06 77.5344 263.855 77.8694V77.3703H263.53V80.8128H263.869V79.4112V79.4146ZM264.803 77.6472C265.333 77.6472 265.74 78.0437 265.74 78.6283C265.74 79.2129 265.333 79.6095 264.803 79.6095C264.272 79.6095 263.865 79.2163 263.865 78.6283C263.865 78.0403 264.269 77.6472 264.803 77.6472Z" fill="#001A70"/>
<path d="M267.188 78.7446C267.804 77.7532 268.15 76.4131 268.15 74.9055C268.15 73.3979 267.804 72.0407 267.188 71.0664H266.63C267.287 72.1911 267.575 73.4457 267.575 74.9055C267.575 76.3652 267.287 77.6198 266.63 78.7446H267.188Z" fill="#001A70"/>
<path d="M211.899 268.422C211.29 269.399 210.948 270.753 210.948 272.261C210.948 273.768 211.293 275.108 211.899 276.1H212.457C211.807 274.975 211.519 273.72 211.519 272.261C211.519 270.801 211.807 269.546 212.457 268.422H211.899Z" fill="#001A70"/>
<path d="M217.378 272.35C217.378 271.054 216.498 270.158 215.284 270.158C214.069 270.158 213.172 271.068 213.172 272.35C213.172 273.632 214.093 274.548 215.438 274.548C216.119 274.548 216.721 274.302 217.104 273.843L216.776 273.467C216.447 273.843 215.978 274.035 215.455 274.035C214.51 274.035 213.819 273.437 213.754 272.534H217.368C217.368 272.469 217.374 272.404 217.374 272.353L217.378 272.35ZM213.754 272.097C213.829 271.252 214.445 270.661 215.28 270.661C216.115 270.661 216.741 271.252 216.817 272.097H213.754Z" fill="#001A70"/>
<path d="M220.793 267.601H220.259L217.549 275.331H218.083L220.793 267.601Z" fill="#001A70"/>
<path d="M222.501 274.51L223.866 270.972L225.228 274.51H225.779L227.415 270.192H226.881L225.509 273.861L224.13 270.192H223.627L222.241 273.861L220.882 270.192H220.324L221.953 274.51H222.501Z" fill="#001A70"/>
<path d="M228.983 274.705C228.247 274.705 227.699 275.235 227.699 275.984C227.699 276.732 228.247 277.265 228.983 277.265C229.718 277.265 230.262 276.729 230.262 275.984C230.262 275.238 229.722 274.705 228.983 274.705ZM228.983 276.965C228.445 276.965 228.045 276.572 228.045 275.984C228.045 275.396 228.449 275.002 228.983 275.002C229.516 275.002 229.917 275.396 229.917 275.984C229.917 276.572 229.52 276.965 228.983 276.965Z" fill="#001A70"/>
<path d="M231.282 276.742C231.488 277.081 231.837 277.262 232.254 277.262C232.973 277.262 233.51 276.742 233.51 275.98C233.51 275.218 232.973 274.702 232.254 274.702C231.85 274.702 231.508 274.872 231.296 275.201V273.69H230.957V277.238H231.282V276.739V276.742ZM232.23 275.002C232.761 275.002 233.168 275.396 233.168 275.984C233.168 276.572 232.761 276.965 232.23 276.965C231.7 276.965 231.293 276.572 231.293 275.984C231.293 275.396 231.693 275.002 232.23 275.002Z" fill="#001A70"/>
<path d="M234.568 274.722H234.229V277.426C234.229 277.737 234.082 277.901 233.811 277.901C233.654 277.901 233.52 277.857 233.418 277.771L233.298 278.031C233.421 278.141 233.627 278.195 233.828 278.195C234.308 278.195 234.568 277.895 234.568 277.43V274.722Z" fill="#001A70"/>
<path d="M234.646 273.926C234.646 273.796 234.537 273.69 234.397 273.69C234.256 273.69 234.147 273.799 234.147 273.929C234.147 274.059 234.256 274.172 234.397 274.172C234.537 274.172 234.646 274.062 234.646 273.922V273.926Z" fill="#001A70"/>
<path d="M235.895 275.707L236.241 274.575C236.323 274.346 236.357 274.24 236.357 274.1C236.357 273.854 236.176 273.655 235.923 273.655C235.67 273.655 235.488 273.843 235.488 274.1C235.488 274.312 235.611 274.469 235.783 274.517L235.502 275.707H235.895Z" fill="#001A70"/>
<path d="M243.722 274.51V272.008C243.722 270.77 243 270.162 241.949 270.162C241.203 270.162 240.618 270.466 240.307 270.989V270.192H239.749V274.507H240.334V272.244C240.334 271.259 240.916 270.685 241.847 270.685C242.668 270.685 243.144 271.153 243.144 272.062V274.507H243.725L243.722 274.51Z" fill="#001A70"/>
<path d="M244.287 275.331H244.821L247.531 267.601H246.997L244.287 275.331Z" fill="#001A70"/>
<path d="M247.64 271.375C247.64 270.965 247.986 270.661 248.766 270.661C249.211 270.661 249.663 270.767 250.039 271.03L250.293 270.562C249.93 270.315 249.324 270.158 248.766 270.158C247.664 270.158 247.059 270.685 247.059 271.389C247.059 273.095 249.858 272.209 249.858 273.334C249.858 273.761 249.523 274.038 248.701 274.038C248.092 274.038 247.51 273.826 247.165 273.553L246.901 274.011C247.254 274.315 247.945 274.544 248.66 274.544C249.786 274.544 250.443 274.059 250.443 273.314C250.443 271.656 247.644 272.534 247.644 271.368L247.64 271.375Z" fill="#001A70"/>
<path d="M252.206 274.705C251.47 274.705 250.922 275.235 250.922 275.984C250.922 276.732 251.47 277.265 252.206 277.265C252.941 277.265 253.486 276.729 253.486 275.984C253.486 275.238 252.945 274.705 252.206 274.705ZM252.206 276.965C251.668 276.965 251.268 276.572 251.268 275.984C251.268 275.396 251.672 275.002 252.206 275.002C252.74 275.002 253.14 275.396 253.14 275.984C253.14 276.572 252.743 276.965 252.206 276.965Z" fill="#001A70"/>
<path d="M255.477 274.705C255.077 274.705 254.731 274.876 254.519 275.204V273.693H254.18V277.242H254.505V276.742C254.711 277.081 255.06 277.262 255.477 277.262C256.196 277.262 256.733 276.742 256.733 275.98C256.733 275.218 256.196 274.702 255.477 274.702V274.705ZM255.453 276.965C254.916 276.965 254.516 276.572 254.516 275.984C254.516 275.396 254.919 275.002 255.453 275.002C255.987 275.002 256.391 275.396 256.391 275.984C256.391 276.572 255.984 276.965 255.453 276.965Z" fill="#001A70"/>
<path d="M257.623 273.693C257.483 273.693 257.373 273.802 257.373 273.932C257.373 274.062 257.483 274.175 257.623 274.175C257.763 274.175 257.873 274.066 257.873 273.926C257.873 273.796 257.763 273.69 257.623 273.69V273.693Z" fill="#001A70"/>
<path d="M257.448 277.426C257.448 277.737 257.301 277.901 257.031 277.901C256.874 277.901 256.74 277.857 256.637 277.771L256.518 278.031C256.641 278.141 256.846 278.195 257.048 278.195C257.527 278.195 257.787 277.895 257.787 277.43V274.725H257.448V277.43V277.426Z" fill="#001A70"/>
<path d="M259.149 268.422H258.591C259.249 269.546 259.536 270.801 259.536 272.261C259.536 273.72 259.249 274.975 258.591 276.1H259.149C259.765 275.108 260.111 273.768 260.111 272.261C260.111 270.753 259.765 269.396 259.149 268.422Z" fill="#001A70"/>
<path d="M78.2277 237.299H78.8266L81.3727 231.556H80.7567L78.5391 236.547L76.3386 231.556H75.6816L78.2277 237.299Z" fill="#001A70"/>
<path d="M82.2043 237.299H84.5451C86.3862 237.299 87.6251 236.116 87.6251 234.427C87.6251 232.738 86.3862 231.556 84.5451 231.556H82.2043V237.299ZM82.81 232.082H84.5109C86.0372 232.082 87.0228 233.049 87.0228 234.427C87.0228 235.805 86.0372 236.772 84.5109 236.772H82.81V232.079V232.082Z" fill="#001A70"/>
<path d="M73.6283 241.401L71 247.144H71.6331L72.3244 245.609H75.5276L76.2189 247.144H76.8588L74.2306 241.401H73.6283ZM72.5434 245.117L73.9226 242.033L75.3017 245.117H72.5434Z" fill="#001A70"/>
<path d="M81.6362 246.621H78.4159V241.401H77.8102V247.144H81.6362V246.621Z" fill="#001A70"/>
<path d="M90.3252 244.273C90.3252 242.591 89.035 241.353 87.3102 241.353C85.5854 241.353 84.2884 242.601 84.2884 244.273C84.2884 245.944 85.5683 247.192 87.3102 247.192C89.0521 247.192 90.3252 245.955 90.3252 244.273ZM84.8873 244.273C84.8873 242.902 85.9208 241.893 87.3102 241.893C88.6996 241.893 89.716 242.902 89.716 244.273C89.716 245.644 88.6894 246.652 87.3102 246.652C85.9311 246.652 84.8873 245.644 84.8873 244.273Z" fill="#001A70"/>
<path d="M91.6906 247.144H94.336C95.7733 247.144 96.4954 246.587 96.4954 245.609C96.4954 244.83 96.0505 244.344 95.3113 244.18C95.8384 243.968 96.1908 243.531 96.1908 242.874C96.1908 241.938 95.4516 241.398 94.1717 241.398H91.6906V247.144ZM95.8863 245.561C95.8863 246.317 95.3353 246.645 94.3257 246.645H92.2964V244.488H94.3257C95.3353 244.488 95.8863 244.816 95.8863 245.561ZM95.5817 242.943C95.5817 243.633 95.0478 243.986 94.1273 243.986H92.2964V241.9H94.1273C95.0478 241.9 95.5817 242.252 95.5817 242.943Z" fill="#001A70"/>
<path d="M97.4707 241.928H99.572V245.408C99.572 246.252 99.2092 246.673 98.5042 246.673C97.9943 246.673 97.5768 246.426 97.2654 245.968L96.9027 246.379C97.2551 246.905 97.8472 247.199 98.4974 247.199C99.5994 247.199 100.174 246.601 100.174 245.387V241.408H97.4707V241.934V241.928Z" fill="#001A70"/>
<path d="M105.941 241.928V241.401H101.998V247.144H106.064V246.621H102.604V244.488H105.578V243.968H102.604V241.928H105.941Z" fill="#001A70"/>
<path d="M106.587 241.928H108.61V247.144H109.216V241.928H111.238V241.401H106.587V241.928Z" fill="#001A70"/>
<path d="M112.816 241.401H112.207V247.144H112.816V241.401Z" fill="#001A70"/>
<path d="M118.784 241.401L116.567 246.389L114.366 241.401H113.709L116.255 247.144H116.854L119.4 241.401H118.784Z" fill="#001A70"/>
<path d="M122.696 241.353C120.954 241.353 119.674 242.601 119.674 244.273C119.674 245.944 120.957 247.192 122.696 247.192C124.434 247.192 125.711 245.955 125.711 244.273C125.711 242.591 124.421 241.353 122.696 241.353ZM122.696 246.652C121.306 246.652 120.273 245.644 120.273 244.273C120.273 242.902 121.306 241.893 122.696 241.893C124.085 241.893 125.102 242.902 125.102 244.273C125.102 245.644 124.075 246.652 122.696 246.652Z" fill="#001A70"/>
<path d="M209.377 175.956V171.723H208.011V169.891H208.508V167.888H206.393V165.108H208.508V163.102H211.05V147.964H206.18L203.046 84.416H204.798V80.8128H202.868C202.125 65.877 201.379 50.9377 200.636 36.0019C198.939 36.0053 197.238 36.0122 195.537 36.0156V35.2259H200.291V33.6704H198.621V30.2997H196.824V22.96H189.675V30.2997H187.793V33.6704H186.345V35.2259H191.109V36.0156H186.236C186.034 36.0224 185.829 36.0293 185.627 36.0361C185.172 44.921 184.713 53.8025 184.258 62.6874H174.693V58.0587H174.351V62.6874H173.567V58.0587H173.225V62.6874H172.444V58.0587H172.102V62.6874H171.322V58.0587H170.98V62.6874H170.199V58.0587H169.857V62.6874H166.993V77.5207H160.74V78.1292H169.857V94.9316H169.669V97.9673H169.857V124.865H169.669V127.9H169.857V147.964H167.051V154.904C159.255 156.788 151.463 158.671 143.667 160.551V175.956H73.9465V177.89H190.955V178.694L191.297 178.246V177.89H191.568L192.406 176.793L191.766 175.956H191.195V175.214L191.109 175.101V175.956H185.729V172.472H184.713V169.891H191.109V174.26H191.195V169.891H195.452V174.26H195.537V169.891H202.046V171.723H201.383V175.956H195.537V174.434L195.452 174.547V175.956H194.37L193.734 176.786L194.583 177.89H195.404V178.954L195.746 179.398V177.89H296.978V175.956H209.377ZM169.857 76.837H167.677V63.3712H169.857V76.837ZM170.98 94.9316H170.795V97.9673H170.98V124.865H170.795V127.9H170.98V147.964H170.199V127.9H170.384V124.865H170.199V97.9673H170.384V94.9316H170.199V78.1292H170.98V94.9316ZM170.98 76.837H170.199V63.3712H170.98V76.837ZM172.102 94.9316H171.917V97.9673H172.102V124.865H171.917V127.9H172.102V147.964H171.322V127.9H171.507V124.865H171.322V97.9673H171.507V94.9316H171.322V78.1292H172.102V94.9316ZM172.102 76.837H171.322V63.3712H172.102V76.837ZM173.225 94.9316H173.04V97.9673H173.225V124.865H173.04V127.9H173.225V147.964H172.444V127.9H172.633V124.865H172.444V97.9673H172.633V94.9316H172.444V78.1292H173.225V94.9316ZM173.225 76.837H172.444V63.3712H173.225V76.837ZM174.351 94.9316H174.162V97.9673H174.351V124.865H174.162V127.9H174.351V147.964H173.567V127.9H173.755V124.865H173.567V97.9673H173.755V94.9316H173.567V78.1292H174.351V94.9316ZM174.351 76.837H173.567V63.3712H174.351V76.837ZM205.455 147.964H195.537V137.172H204.924L205.455 147.964ZM195.537 135.168V127.21L202.803 135.168H195.537ZM204.825 135.168H204.678L195.537 125.155V121.945L203.73 113.019L204.825 135.168ZM203.443 111.187V111.019L203.528 111.136L195.537 119.839V111.187H203.443ZM195.537 109.18V100.295L202.087 109.18H195.537ZM203.624 110.849L203.634 111.016L203.586 111.071L203.624 110.849ZM202.32 84.416L203.528 108.9L195.537 98.0596V93.6872L202.159 84.416H202.32ZM200.537 84.416L195.537 91.4173V84.416H200.537ZM195.537 80.8128V74.5534L199.894 80.8128H195.537ZM200.975 57.1732H200.565L195.537 49.9498V44.8321L200.048 38.3539L200.975 57.1732ZM200.24 58.9475L195.537 65.7026V58.9475H200.24ZM195.537 57.1732V51.683L199.36 57.1732H195.537ZM199.387 37.5745L195.537 43.1023V37.5745H199.387ZM190.017 30.2997V23.3019H196.482V30.2997H195.537V27.0486C195.578 26.8845 195.599 26.7102 195.599 26.5358C195.599 25.2744 194.579 24.2556 193.32 24.2556C192.06 24.2556 191.037 25.2744 191.037 26.5358C191.037 26.7273 191.065 26.9153 191.109 27.0965V30.2997H190.017ZM191.195 66.3419V58.9475H195.452V65.7642H195.496L193.145 69.1417L191.195 66.3419ZM192.461 70.1297L191.195 71.945V68.3144L192.461 70.1297ZM193.32 28.8126C194.299 28.8126 195.13 28.1939 195.452 27.329V30.2997H191.195V27.3631C191.527 28.211 192.351 28.8126 193.32 28.8126ZM192.064 26.5358C192.064 25.8419 192.629 25.2812 193.32 25.2812C194.011 25.2812 194.572 25.8419 194.572 26.5358C194.572 27.2298 194.011 27.787 193.32 27.787C192.629 27.787 192.064 27.2264 192.064 26.5358ZM195.452 35.2259V36.0156H191.195V35.2259H195.452ZM195.452 37.5745V43.2254L193.156 46.5278L191.195 43.7108V37.5745H195.452ZM195.452 44.9552V49.8267L193.758 47.3927L195.452 44.9552ZM192.553 47.3927L191.195 49.3447V45.4406L192.553 47.3927ZM193.156 48.2576L195.452 51.5599V57.1732H191.195V51.0745L193.156 48.2576ZM191.109 37.5745V43.5878L186.927 37.5745H191.109ZM186.15 38.1898L191.109 45.3176V49.4677C189.353 52.0351 187.594 54.6059 185.839 57.1732H185.243L186.15 38.1898ZM186.951 57.1732L191.109 51.1976V57.1732H186.951ZM191.109 58.9475V66.2188L186.051 58.9475H191.109ZM184.244 78.1292H184.258V77.8455L185.127 59.5936L191.109 68.1914V72.0065H191.154L185.024 80.8128H184.118L184.244 78.1292ZM174.693 63.3712H183.888L183.087 76.837H174.693V63.3712ZM174.693 127.9H174.878V124.865H174.693V97.9673H174.878V94.9316H174.693V78.1292H183.519L183.392 80.8128H181.284V84.416H183.221L180.189 147.964H174.693V127.9ZM181.541 167.888H178.762V172.472H177.735V175.956H174.693V163.102H178.762V165.108H181.541V167.888ZM184.918 167.888H182.554V165.108H184.918V167.888ZM189.035 167.888H185.592V165.108H189.035V167.888ZM191.109 167.888H189.713V165.108H191.109V167.888ZM191.109 147.964H180.914L181.428 137.172H191.109V147.964ZM191.109 135.168H183.409L191.109 126.772V135.168ZM191.109 124.666L181.527 135.114L182.581 113.016L191.109 122.359V124.666ZM191.109 120.308L182.783 111.187H191.109V120.308ZM191.109 109.18H184.477L191.109 99.8919V109.18ZM191.109 97.622L182.858 109.18H182.762L183.94 84.5562L191.109 94.2855V97.622ZM191.109 92.0497L185.486 84.416H191.109V92.0497ZM191.109 80.8128H186.397L191.109 74.0372V80.8128ZM192.991 167.888H191.195V165.108H192.991V167.888ZM195.452 167.888H193.669V165.108H195.452V167.888ZM195.452 147.964H191.195V137.172H195.452V147.964ZM195.452 135.168H191.195V126.68L193.132 124.571L195.452 127.118V135.168ZM191.195 124.574V122.455L192.167 123.518L191.195 124.574ZM195.452 125.063L194.069 123.549L195.452 122.041V125.063ZM195.452 119.935L193.108 122.492L191.195 120.4V111.187H195.452V119.935ZM195.452 109.18H191.195V99.7723L193.142 97.0443L195.452 100.179V109.18ZM191.195 97.5023V94.4017L192.321 95.9264L191.195 97.5023ZM195.452 97.9433L193.953 95.9059L195.452 93.8069V97.9433ZM195.452 91.5369L193.132 94.7914L191.195 92.1659V84.416H195.452V91.5369ZM195.452 80.8128H191.195V73.9756H191.154L193.145 71.1143L195.452 74.4303V80.8128ZM195.452 72.4612L193.83 70.1297L195.452 67.7982V72.4612ZM195.496 67.7367L201.098 59.6825L202.142 80.8128H201.266L195.537 72.5842V67.7367H195.496ZM197.221 167.888H195.537V165.108H197.221V167.888ZM201.229 167.888H197.895V165.108H201.229V167.888ZM205.715 167.888H201.906V165.108H205.715V167.888Z" fill="#001A70"/>
</svg>
