<svg width="376" height="325" viewBox="0 0 376 325" fill="none" xmlns="http://www.w3.org/2000/svg">
<rect x="0.5" y="0.5" width="375" height="324" rx="11.5" fill="white"/>
<rect x="0.5" y="0.5" width="375" height="324" rx="11.5" stroke="#001A70"/>
<g filter="url(#filter0_d_2_2)">
<g clip-path="url(#clip0_2_2)">
<path d="M275.573 281.875C271.34 280.654 269.087 280.006 267.52 279.55C264.276 278.614 263.937 278.517 254.788 275.911C233.641 269.89 211.777 263.665 190.335 257.402C187.565 256.508 185.248 255.628 183.249 254.713C179.736 253.107 176.977 251.281 174.814 249.123C172.119 246.47 170.123 242.866 169.052 238.7C167.496 232.7 167.525 226.006 167.557 218.905C167.567 217.104 167.575 215.241 167.553 213.44L167.721 184.348H273.064V182.336H181.264V177.924H179.836V176.019H180.357V173.928H178.148V171.034H180.357V168.947H183.006V153.176H177.93L174.657 86.9835H176.488V83.234H174.471C173.704 67.6731 172.936 52.1122 172.165 36.5514C172.001 36.5585 171.837 36.5656 171.669 36.5727H166.829V35.7502H171.787V34.1265H170.045V30.619H168.167V22.9703H160.714V30.619H158.747V34.1265H157.241V35.7502H162.209V36.5727H157.123C156.866 36.5692 156.609 36.5656 156.352 36.5621C155.923 45.8238 155.491 55.0891 155.06 64.3508H145.082V59.533H144.726V64.3508H143.912V59.533H143.555V64.3508H142.741V59.533H142.384V64.3508H141.57V59.533H141.213V64.3508H140.396V59.533H140.039V64.3508H137.051V79.8013H130.533V80.4387H140.039V97.9402H139.846V101.099H140.039V129.115H139.846V132.277H140.039V153.176H137.111V160.404C128.983 162.366 120.852 164.328 112.72 166.29V182.336H40V184.348H161.399V213.472C161.417 215.248 161.41 217.079 161.403 218.845V218.891C161.367 226.059 161.335 233.469 163.091 240.235C164.441 245.476 166.993 250.059 170.477 253.481C173.154 256.152 176.492 258.381 180.682 260.297C182.91 261.315 185.458 262.284 188.482 263.259L188.56 263.281C210.092 269.573 231.956 275.801 253.103 281.818C262.223 284.414 262.562 284.514 265.796 285.45C267.335 285.892 269.534 286.529 273.632 287.708L274.138 289.35L274.506 287.961C274.538 287.968 274.567 287.979 274.599 287.986L274.799 287.302C270.066 285.942 267.652 285.244 265.996 284.763C262.759 283.83 262.419 283.73 253.299 281.135C232.153 275.113 210.289 268.889 188.764 262.6L188.7 262.579C185.705 261.618 183.181 260.656 180.979 259.649C176.87 257.772 173.6 255.589 170.98 252.976C167.589 249.643 165.097 245.174 163.78 240.057C162.049 233.38 162.081 226.016 162.113 218.895V218.848C162.124 217.079 162.131 215.248 162.113 213.468V185.989H161.717L162.113 185.476V184.348H162.977L163.823 183.24L163.127 182.336H162.299V181.257L162.209 181.139V182.336H156.598V178.707H155.538V176.019H162.209V180.602H162.299V176.019H166.739V180.602H166.829V176.019H173.618V177.924H172.925V182.336H166.829V181.125L166.739 181.242V182.336H165.9L165.208 183.233L166.068 184.348H167.007L167 185.558L167.332 185.989H167L166.839 213.44C166.861 215.245 166.854 217.104 166.843 218.916C166.811 226.052 166.782 232.789 168.36 238.878C169.467 243.169 171.523 246.887 174.314 249.628C176.534 251.843 179.358 253.72 182.953 255.361C184.973 256.287 187.318 257.177 190.124 258.082C211.577 264.349 233.445 270.577 254.595 276.598C263.74 279.201 264.079 279.297 267.321 280.237C268.98 280.714 271.397 281.412 276.109 282.769L276.145 282.648L276.17 282.655L276.705 280.882L275.573 281.875ZM140.039 79.0891H137.765V65.063H140.039V79.0891ZM141.213 97.9402H141.017V101.099H141.213V129.115H141.017V132.277H141.213V153.176H140.396V132.277H140.592V129.115H140.396V101.099H140.592V97.9402H140.396V80.4387H141.213V97.9402ZM141.213 79.0891H140.396V65.063H141.213V79.0891ZM142.384 97.9402H142.188V101.099H142.384V129.115H142.188V132.277H142.384V153.176H141.57V132.277H141.763V129.115H141.57V101.099H141.763V97.9402H141.57V80.4387H142.384V97.9402ZM142.384 79.0891H141.57V65.063H142.384V79.0891ZM143.555 97.9402H143.362V101.099H143.555V129.115H143.362V132.277H143.555V153.176H142.741V132.277H142.934V129.115H142.741V101.099H142.934V97.9402H142.741V80.4387H143.555V97.9402ZM143.555 79.0891H142.741V65.063H143.555V79.0891ZM144.726 97.9402H144.533V101.099H144.726V129.115H144.533V132.277H144.726V153.176H143.912V132.277H144.104V129.115H143.912V101.099H144.104V97.9402H143.912V80.4387H144.726V97.9402ZM144.726 79.0891H143.912V65.063H144.726V79.0891ZM145.082 65.063H154.678L153.842 79.0891H145.082V65.063ZM145.082 132.277H145.279V129.115H145.082V101.099H145.279V97.9402H145.082V80.4387H154.292L154.156 83.234H151.958V86.9835H153.978L150.819 153.176H145.082V132.277ZM152.225 173.928H149.33V178.707H148.259V182.336H145.082V168.947H149.33V171.034H152.225V173.928ZM155.748 173.928H153.285V171.034H155.748V173.928ZM160.046 173.928H156.455V171.034H160.046V173.928ZM162.209 173.928H160.75V171.034H162.209V173.928ZM162.209 153.176H151.572L152.111 141.938H162.209V153.176ZM162.209 139.848H154.178L162.209 131.102V139.848ZM162.209 128.909L152.211 139.791L153.31 116.777L162.209 126.509V128.909ZM162.209 124.369L153.525 114.868H162.209V124.369ZM162.209 112.782H155.288L162.209 103.1V112.782ZM162.209 100.735L153.6 112.782H153.503L154.728 87.126L162.209 97.2672V100.735ZM162.209 94.9384L156.341 86.9835H162.209V94.9384ZM162.209 83.234H157.291L162.209 76.1728V83.234ZM162.209 74.1218L155.859 83.234H154.913L155.049 80.4387H155.06V80.1716L155.97 61.1318L162.209 70.0874V74.1218ZM162.209 68.0327L156.93 60.4553H162.209V68.0327ZM162.209 58.6072H157.872L162.209 52.3829V58.6072ZM162.209 50.5811C160.378 53.2553 158.543 55.933 156.712 58.6072H156.091L157.034 38.8339L162.209 46.2618V50.5811ZM162.209 44.46L157.844 38.1965H162.209V44.46ZM177.173 153.176H166.829V141.938H176.616L177.173 153.176ZM166.829 139.848V131.558L174.407 139.848H166.829ZM176.513 139.848H176.363L166.829 129.418V126.078L175.374 116.777L176.513 139.848ZM175.071 114.868C172.322 117.874 169.577 120.879 166.829 123.884V114.868H175.071ZM166.829 112.782V103.524L173.657 112.782H166.829ZM173.9 86.9835L175.16 112.49L166.829 101.195V96.6405L173.732 86.9835H173.9ZM172.04 86.9835L166.829 94.2761V86.9835H172.04ZM166.829 83.234V76.7105L171.373 83.234H166.829ZM173.714 83.234H172.804L166.829 74.6595V69.5497L172.626 61.2244L173.714 83.234ZM171.733 60.4553L166.829 67.4951V60.4553H171.733ZM166.829 58.6072V52.8885L170.812 58.6072H166.829ZM172.497 58.6072H172.069L166.829 51.0867V45.7561L171.53 39.0119L172.497 58.6072ZM170.841 38.1965L166.829 43.9544V38.1965H170.841ZM164.173 173.928H162.299V171.034H164.173V173.928ZM166.739 173.928H164.876V171.034H166.739V173.928ZM166.739 153.176H162.299V141.938H166.739V153.176ZM166.739 139.848H162.299V131.006L164.316 128.813L166.739 131.462V139.848ZM162.299 128.813V126.605L163.313 127.712L162.299 128.813ZM166.739 129.322L165.297 127.744L166.739 126.174V129.322ZM166.739 123.981L164.291 126.644L162.299 124.468V114.868H166.739V123.981ZM166.739 112.782H162.299V102.975L164.33 100.137L166.739 103.403V112.782ZM162.299 100.611V97.3883L163.47 98.9729L162.299 100.611ZM166.739 101.074L165.176 98.9551L166.739 96.7652V101.074ZM166.739 94.4008L164.316 97.7907L162.299 95.0595V86.9835H166.739V94.4008ZM166.739 83.234H162.299V76.0446L164.333 73.1319L166.739 76.5823V83.234ZM162.299 73.9936V70.2155L163.616 72.1028L162.299 73.9936ZM166.739 74.5313L165.047 72.1028L166.739 69.6779V74.5313ZM166.739 67.6232L164.333 71.0773L162.299 68.1609V60.4553H166.739V67.6232ZM166.739 58.6072H162.299V52.2547L164.344 49.3241L166.739 52.7603V58.6072ZM162.299 50.4529V46.39L163.716 48.4197L162.299 50.4529ZM166.739 50.9585L164.972 48.4197L166.739 45.8843V50.9585ZM166.739 44.0826L164.344 47.5188L162.299 44.5882V38.1965H166.739V44.0826ZM166.739 36.5727H162.299V35.7502H166.739V36.5727ZM166.739 30.619H162.299V27.5603C162.649 28.4434 163.505 29.0665 164.512 29.0665C165.519 29.0665 166.4 28.4255 166.739 27.5282V30.619ZM163.205 26.695C163.205 25.9757 163.791 25.3882 164.512 25.3882C165.233 25.3882 165.822 25.9757 165.822 26.695C165.822 27.4143 165.233 27.9982 164.512 27.9982C163.791 27.9982 163.205 27.4143 163.205 26.695ZM164.512 24.3199C163.198 24.3199 162.135 25.3846 162.135 26.695C162.135 26.8979 162.163 27.0938 162.209 27.2825V30.619H161.071V23.3264H167.81V30.619H166.829V27.2362C166.868 27.0617 166.893 26.8801 166.893 26.695C166.893 25.3846 165.826 24.3199 164.512 24.3199ZM168.581 173.928H166.829V171.034H168.581V173.928ZM172.765 173.928H169.288V171.034H172.765V173.928ZM173.468 173.928V171.034H177.445V173.928H173.468Z" fill="#001A70"/>
<path d="M301.435 293.968C301.428 293.989 301.435 294.018 301.446 294.036L302.174 294.972C302.174 294.972 302.196 294.993 302.21 294.997L305.266 295.93C305.305 295.941 305.348 295.919 305.358 295.88L305.458 295.56L305.78 295.549C305.844 295.549 305.869 295.467 305.815 295.428L305.49 295.193L305.865 295.05C305.926 295.029 305.922 294.944 305.862 294.926L305.48 294.808L305.787 294.552C305.837 294.513 305.805 294.431 305.74 294.434L305.341 294.449L305.548 294.107C305.58 294.053 305.526 293.986 305.465 294.011L305.091 294.153L305.176 293.761C305.191 293.701 305.116 293.655 305.069 293.697L304.762 293.954L304.716 293.555C304.709 293.491 304.627 293.473 304.591 293.526L304.391 293.854C304.391 293.854 304.37 293.825 304.359 293.815L304.213 293.509C304.191 293.459 304.127 293.462 304.102 293.501C304.059 293.452 304.02 293.402 303.977 293.348C303.945 293.309 303.963 293.245 304.013 293.231C304.077 293.213 304.138 293.195 304.202 293.174C304.202 293.22 304.252 293.256 304.298 293.231L304.594 293.056C304.594 293.056 304.627 293.046 304.641 293.042L304.623 293.427C304.623 293.491 304.698 293.523 304.741 293.473L305.001 293.17L305.112 293.555C305.13 293.615 305.216 293.619 305.237 293.562L305.387 293.192L305.615 293.519C305.651 293.573 305.733 293.548 305.737 293.484L305.755 293.085L306.079 293.32C306.129 293.359 306.201 293.309 306.183 293.249L306.072 292.864L306.454 292.982C306.515 292.999 306.565 292.932 306.529 292.878L306.297 292.551L306.697 292.536C306.761 292.536 306.786 292.455 306.733 292.415L306.472 292.227L306.572 291.906C306.583 291.867 306.561 291.824 306.522 291.814L303.466 290.881C303.466 290.881 303.438 290.877 303.42 290.881L302.292 291.247C302.271 291.255 302.253 291.272 302.246 291.297L301.846 292.601L301.999 292.098L296.231 290.364C282.224 286.333 267.967 282.278 254.177 278.354C233.02 272.332 211.142 266.108 189.692 259.844C186.811 258.919 184.391 258 182.292 257.038C178.498 255.308 175.503 253.317 173.133 250.953C170.105 247.98 167.878 243.974 166.693 239.366C165.054 233.053 165.087 225.885 165.119 218.952C165.126 217.157 165.137 215.298 165.119 213.482V184.939L164.519 184.13L164.048 184.757V213.489C164.069 215.302 164.059 217.157 164.048 218.948C164.016 225.949 163.984 233.188 165.658 239.633C166.893 244.426 169.217 248.603 172.379 251.711C174.839 254.165 177.937 256.223 181.85 258.011C183.984 258.99 186.444 259.923 189.378 260.866C210.846 267.137 232.727 273.361 253.884 279.383C267.67 283.307 281.927 287.363 295.931 291.39L301.692 293.12L301.432 293.964L301.435 293.968Z" fill="#001A70"/>
<path d="M164.537 182.357L164.858 181.93H164.216L164.537 182.357Z" fill="#001A70"/>
<path d="M311.886 298.261L311.785 298.602L312.128 298.703L312.229 298.362L311.886 298.261Z" fill="#001A70"/>
<path d="M312.57 298.46L312.469 298.801L312.812 298.902L312.913 298.561L312.57 298.46Z" fill="#001A70"/>
<path d="M304.382 296.04L304.281 296.382L304.623 296.483L304.724 296.141L304.382 296.04Z" fill="#001A70"/>
<path d="M311.205 298.059L311.105 298.401L311.447 298.501L311.548 298.16L311.205 298.059Z" fill="#001A70"/>
<path d="M297.552 294.005L297.451 294.347L297.793 294.448L297.894 294.106L297.552 294.005Z" fill="#001A70"/>
<path d="M303.691 295.817L303.59 296.158L303.933 296.259L304.034 295.918L303.691 295.817Z" fill="#001A70"/>
<path d="M310.501 297.816L310.4 298.157L310.743 298.258L310.844 297.917L310.501 297.816Z" fill="#001A70"/>
<path d="M300.965 295.012L300.864 295.354L301.206 295.455L301.307 295.113L300.965 295.012Z" fill="#001A70"/>
<path d="M302.326 295.416L302.225 295.757L302.567 295.858L302.668 295.516L302.326 295.416Z" fill="#001A70"/>
<path d="M301.645 295.217L301.544 295.559L301.886 295.66L301.987 295.318L301.645 295.217Z" fill="#001A70"/>
<path d="M300.298 294.85L300.197 295.192L300.54 295.292L300.641 294.951L300.298 294.85Z" fill="#001A70"/>
<path d="M306.434 296.653L306.333 296.995L306.676 297.095L306.777 296.754L306.434 296.653Z" fill="#001A70"/>
<path d="M298.253 294.248L298.152 294.589L298.494 294.69L298.595 294.348L298.253 294.248Z" fill="#001A70"/>
<path d="M303.007 295.614L302.906 295.955L303.248 296.056L303.349 295.715L303.007 295.614Z" fill="#001A70"/>
<path d="M305.062 296.238L304.961 296.58L305.304 296.681L305.405 296.339L305.062 296.238Z" fill="#001A70"/>
<path d="M308.456 297.213L308.355 297.555L308.698 297.656L308.799 297.314L308.456 297.213Z" fill="#001A70"/>
<path d="M305.754 296.455L305.653 296.797L305.995 296.897L306.096 296.556L305.754 296.455Z" fill="#001A70"/>
<path d="M313.241 298.646L313.141 298.987L313.483 299.088L313.584 298.746L313.241 298.646Z" fill="#001A70"/>
<path d="M309.137 297.411L309.036 297.753L309.379 297.854L309.48 297.512L309.137 297.411Z" fill="#001A70"/>
<path d="M286.667 290.84L286.566 291.182L286.909 291.283L287.01 290.941L286.667 290.84Z" fill="#001A70"/>
<path d="M285.987 290.642L285.886 290.984L286.228 291.085L286.329 290.743L285.987 290.642Z" fill="#001A70"/>
<path d="M279.854 288.836L279.753 289.177L280.096 289.278L280.196 288.936L279.854 288.836Z" fill="#001A70"/>
<path d="M277.109 287.994L277.008 288.336L277.35 288.436L277.451 288.095L277.109 287.994Z" fill="#001A70"/>
<path d="M296.19 293.604L296.089 293.946L296.431 294.047L296.532 293.705L296.19 293.604Z" fill="#001A70"/>
<path d="M309.818 297.613L309.717 297.955L310.059 298.056L310.16 297.714L309.818 297.613Z" fill="#001A70"/>
<path d="M275.743 287.593L275.642 287.935L275.985 288.035L276.086 287.694L275.743 287.593Z" fill="#001A70"/>
<path d="M298.931 294.434L298.831 294.775L299.173 294.876L299.274 294.534L298.931 294.434Z" fill="#001A70"/>
<path d="M276.428 287.792L276.327 288.134L276.669 288.235L276.77 287.893L276.428 287.792Z" fill="#001A70"/>
<path d="M288.013 291.202L287.912 291.543L288.254 291.644L288.355 291.303L288.013 291.202Z" fill="#001A70"/>
<path d="M287.348 291.042L287.247 291.384L287.59 291.484L287.69 291.143L287.348 291.042Z" fill="#001A70"/>
<path d="M281.219 289.236L281.118 289.578L281.461 289.678L281.561 289.337L281.219 289.236Z" fill="#001A70"/>
<path d="M277.79 288.192L277.688 288.534L278.031 288.635L278.132 288.293L277.79 288.192Z" fill="#001A70"/>
<path d="M281.879 289.394L281.778 289.736L282.12 289.836L282.221 289.495L281.879 289.394Z" fill="#001A70"/>
<path d="M278.493 288.436L278.392 288.777L278.734 288.878L278.835 288.537L278.493 288.436Z" fill="#001A70"/>
<path d="M282.56 289.596L282.458 289.937L282.801 290.038L282.902 289.697L282.56 289.596Z" fill="#001A70"/>
<path d="M285.306 290.441L285.205 290.782L285.547 290.883L285.648 290.541L285.306 290.441Z" fill="#001A70"/>
<path d="M283.924 290L283.823 290.342L284.165 290.442L284.266 290.101L283.924 290Z" fill="#001A70"/>
<path d="M284.605 290.198L284.504 290.54L284.846 290.641L284.947 290.299L284.605 290.198Z" fill="#001A70"/>
<path d="M283.244 289.795L283.143 290.137L283.485 290.237L283.586 289.896L283.244 289.795Z" fill="#001A70"/>
<path d="M292.124 292.442L292.023 292.784L292.365 292.884L292.466 292.543L292.124 292.442Z" fill="#001A70"/>
<path d="M292.803 292.647L292.702 292.989L293.045 293.089L293.146 292.748L292.803 292.647Z" fill="#001A70"/>
<path d="M280.535 289.034L280.434 289.375L280.776 289.476L280.877 289.134L280.535 289.034Z" fill="#001A70"/>
<path d="M293.484 292.845L293.383 293.187L293.726 293.287L293.826 292.946L293.484 292.845Z" fill="#001A70"/>
<path d="M290.74 292.003L290.639 292.344L290.981 292.445L291.083 292.104L290.74 292.003Z" fill="#001A70"/>
<path d="M288.694 291.4L288.593 291.742L288.935 291.842L289.036 291.501L288.694 291.4Z" fill="#001A70"/>
<path d="M294.165 293.047L294.064 293.388L294.406 293.489L294.507 293.147L294.165 293.047Z" fill="#001A70"/>
<path d="M295.509 293.406L295.408 293.748L295.75 293.849L295.852 293.507L295.509 293.406Z" fill="#001A70"/>
<path d="M307.115 296.855L307.014 297.196L307.357 297.297L307.457 296.955L307.115 296.855Z" fill="#001A70"/>
<path d="M294.828 293.205L294.727 293.546L295.07 293.647L295.171 293.305L294.828 293.205Z" fill="#001A70"/>
<path d="M290.059 291.801L289.958 292.143L290.301 292.243L290.402 291.902L290.059 291.801Z" fill="#001A70"/>
<path d="M291.439 292.243L291.339 292.585L291.681 292.685L291.782 292.344L291.439 292.243Z" fill="#001A70"/>
<path d="M275.067 287.388L274.966 287.729L275.308 287.83L275.409 287.489L275.067 287.388Z" fill="#001A70"/>
<path d="M289.375 291.602L289.274 291.943L289.616 292.044L289.717 291.703L289.375 291.602Z" fill="#001A70"/>
<path d="M296.896 293.854L296.795 294.195L297.137 294.296L297.238 293.954L296.896 293.854Z" fill="#001A70"/>
<path d="M307.779 297.012L307.678 297.353L308.02 297.454L308.121 297.112L307.779 297.012Z" fill="#001A70"/>
<path d="M279.173 288.634L279.072 288.976L279.415 289.076L279.516 288.735L279.173 288.634Z" fill="#001A70"/>
<path d="M299.612 294.635L299.511 294.977L299.854 295.078L299.954 294.736L299.612 294.635Z" fill="#001A70"/>
<path d="M292.955 287.047L292.858 287.39L293.202 287.487L293.298 287.144L292.955 287.047Z" fill="#001A70"/>
<path d="M301.192 289.404L301.095 289.747L301.439 289.843L301.535 289.501L301.192 289.404Z" fill="#001A70"/>
<path d="M300.507 289.209L300.41 289.551L300.754 289.648L300.851 289.305L300.507 289.209Z" fill="#001A70"/>
<path d="M301.874 289.592L301.777 289.935L302.121 290.032L302.218 289.689L301.874 289.592Z" fill="#001A70"/>
<path d="M304.612 290.363L304.515 290.706L304.859 290.802L304.956 290.46L304.612 290.363Z" fill="#001A70"/>
<path d="M302.56 289.784L302.463 290.127L302.806 290.223L302.903 289.881L302.56 289.784Z" fill="#001A70"/>
<path d="M299.822 289.017L299.725 289.36L300.068 289.456L300.165 289.114L299.822 289.017Z" fill="#001A70"/>
<path d="M303.245 289.976L303.148 290.319L303.492 290.415L303.589 290.073L303.245 289.976Z" fill="#001A70"/>
<path d="M303.907 290.128L303.81 290.471L304.154 290.567L304.251 290.224L303.907 290.128Z" fill="#001A70"/>
<path d="M296.402 288.055L296.305 288.398L296.649 288.495L296.745 288.152L296.402 288.055Z" fill="#001A70"/>
<path d="M295.692 287.817L295.595 288.16L295.939 288.257L296.036 287.914L295.692 287.817Z" fill="#001A70"/>
<path d="M299.114 288.783L299.017 289.125L299.361 289.222L299.458 288.879L299.114 288.783Z" fill="#001A70"/>
<path d="M295.032 287.672L294.935 288.015L295.279 288.111L295.375 287.769L295.032 287.672Z" fill="#001A70"/>
<path d="M297.748 288.396L297.651 288.739L297.995 288.835L298.091 288.492L297.748 288.396Z" fill="#001A70"/>
<path d="M297.062 288.204L296.965 288.547L297.309 288.644L297.406 288.301L297.062 288.204Z" fill="#001A70"/>
<path d="M316.932 293.825L316.835 294.168L317.179 294.265L317.275 293.922L316.932 293.825Z" fill="#001A70"/>
<path d="M308.721 291.519L308.624 291.862L308.968 291.958L309.065 291.616L308.721 291.519Z" fill="#001A70"/>
<path d="M309.382 291.665L309.285 292.007L309.628 292.104L309.725 291.761L309.382 291.665Z" fill="#001A70"/>
<path d="M310.064 291.856L309.967 292.199L310.31 292.295L310.407 291.953L310.064 291.856Z" fill="#001A70"/>
<path d="M316.246 293.634L316.149 293.976L316.493 294.073L316.59 293.73L316.246 293.634Z" fill="#001A70"/>
<path d="M310.749 292.048L310.652 292.391L310.996 292.487L311.093 292.144L310.749 292.048Z" fill="#001A70"/>
<path d="M294.325 287.434L294.228 287.777L294.572 287.873L294.668 287.531L294.325 287.434Z" fill="#001A70"/>
<path d="M307.351 291.132L307.254 291.475L307.598 291.572L307.695 291.229L307.351 291.132Z" fill="#001A70"/>
<path d="M305.274 290.511L305.178 290.854L305.521 290.95L305.618 290.608L305.274 290.511Z" fill="#001A70"/>
<path d="M311.434 292.243L311.337 292.586L311.68 292.682L311.777 292.339L311.434 292.243Z" fill="#001A70"/>
<path d="M305.959 290.706L305.862 291.049L306.206 291.146L306.302 290.803L305.959 290.706Z" fill="#001A70"/>
<path d="M306.665 290.942L306.568 291.284L306.911 291.381L307.008 291.038L306.665 290.942Z" fill="#001A70"/>
<path d="M308.012 291.278L307.915 291.62L308.258 291.717L308.355 291.374L308.012 291.278Z" fill="#001A70"/>
<path d="M312.119 292.435L312.022 292.777L312.366 292.874L312.463 292.531L312.119 292.435Z" fill="#001A70"/>
<path d="M298.433 288.588L298.336 288.93L298.68 289.027L298.777 288.684L298.433 288.588Z" fill="#001A70"/>
<path d="M282.712 284.208L282.616 284.551L282.959 284.648L283.056 284.305L282.712 284.208Z" fill="#001A70"/>
<path d="M283.376 284.357L283.28 284.7L283.623 284.797L283.72 284.454L283.376 284.357Z" fill="#001A70"/>
<path d="M281.325 283.779L281.228 284.121L281.571 284.218L281.668 283.875L281.325 283.779Z" fill="#001A70"/>
<path d="M293.64 287.239L293.544 287.582L293.887 287.678L293.984 287.336L293.64 287.239Z" fill="#001A70"/>
<path d="M285.428 284.936L285.332 285.278L285.675 285.375L285.772 285.032L285.428 284.936Z" fill="#001A70"/>
<path d="M284.743 284.744L284.646 285.087L284.99 285.183L285.086 284.841L284.743 284.744Z" fill="#001A70"/>
<path d="M286.114 285.124L286.017 285.467L286.361 285.563L286.457 285.22L286.114 285.124Z" fill="#001A70"/>
<path d="M284.082 284.595L283.986 284.938L284.329 285.034L284.426 284.692L284.082 284.595Z" fill="#001A70"/>
<path d="M277.216 282.629L277.119 282.972L277.463 283.068L277.56 282.725L277.216 282.629Z" fill="#001A70"/>
<path d="M277.923 282.863L277.826 283.206L278.17 283.302L278.267 282.96L277.923 282.863Z" fill="#001A70"/>
<path d="M276.552 282.48L276.455 282.823L276.799 282.919L276.896 282.576L276.552 282.48Z" fill="#001A70"/>
<path d="M279.954 283.395L279.857 283.738L280.2 283.835L280.297 283.492L279.954 283.395Z" fill="#001A70"/>
<path d="M280.639 283.587L280.542 283.93L280.886 284.026L280.983 283.684L280.639 283.587Z" fill="#001A70"/>
<path d="M279.268 283.204L279.171 283.546L279.515 283.643L279.612 283.3L279.268 283.204Z" fill="#001A70"/>
<path d="M278.587 283.012L278.49 283.355L278.834 283.451L278.931 283.109L278.587 283.012Z" fill="#001A70"/>
<path d="M282.005 283.974L281.909 284.317L282.252 284.413L282.349 284.07L282.005 283.974Z" fill="#001A70"/>
<path d="M289.536 286.089L289.439 286.432L289.782 286.528L289.879 286.186L289.536 286.089Z" fill="#001A70"/>
<path d="M286.798 285.319L286.702 285.662L287.045 285.758L287.142 285.415L286.798 285.319Z" fill="#001A70"/>
<path d="M290.903 286.472L290.806 286.815L291.15 286.912L291.247 286.569L290.903 286.472Z" fill="#001A70"/>
<path d="M292.273 286.859L292.176 287.202L292.52 287.298L292.617 286.956L292.273 286.859Z" fill="#001A70"/>
<path d="M291.588 286.668L291.491 287.01L291.834 287.107L291.931 286.764L291.588 286.668Z" fill="#001A70"/>
<path d="M290.222 286.282L290.125 286.625L290.469 286.722L290.566 286.379L290.222 286.282Z" fill="#001A70"/>
<path d="M287.484 285.511L287.387 285.853L287.731 285.95L287.827 285.607L287.484 285.511Z" fill="#001A70"/>
<path d="M288.166 285.702L288.069 286.045L288.412 286.142L288.509 285.799L288.166 285.702Z" fill="#001A70"/>
<path d="M288.872 285.94L288.775 286.283L289.118 286.379L289.215 286.037L288.872 285.94Z" fill="#001A70"/>
<path d="M167.332 185.989H165.897L164.519 184.134L163.123 185.989H161.717L162.113 185.476L162.977 184.348L163.823 183.24L163.127 182.336L162.299 181.257L162.209 181.139L161.799 180.602H163.213L164.216 181.93L164.537 182.353L164.858 181.93L165.865 180.602H167.232L166.829 181.125L166.739 181.242L165.9 182.336L165.208 183.233L166.068 184.348L167 185.558L167.332 185.989Z" fill="#001A70"/>
<path d="M321.322 301.05L318.056 296.806L321.165 292.754H319.062L317.884 294.31L317.952 294.089L317.602 293.989L317.506 294.331V294.335L317.677 294.381L317.802 294.42L317.574 294.723L317.402 294.669L317.299 295.011L317.342 295.025L317.017 295.453L315.8 293.836L315.892 293.509L315.55 293.412L315.532 293.48L314.982 292.754H313.151L313.154 292.739L312.812 292.643L312.715 292.989L313.058 293.085L315.921 296.817L314.24 299.014L314.261 298.939L313.918 298.839L313.818 299.181L314.058 299.252L312.68 301.05H314.843L315.907 299.633L315.864 299.783L316.206 299.882L316.306 299.544L316.035 299.462L316.264 299.16L316.41 299.202L316.513 298.861L316.492 298.853L316.992 298.191L319.112 301.05H321.322Z" fill="#001A70"/>
<path d="M191.819 253.478L189.628 250.679L189.099 251.986C186.897 251.028 177.662 246.751 174.75 241.278C171.758 235.656 172.115 231.034 172.229 228.477C172.229 228.431 172.233 228.388 172.237 228.345H173.679L171.897 225.272L170.116 228.345H171.519C171.519 228.377 171.519 228.409 171.515 228.445C171.398 231.051 171.034 235.819 174.118 241.613C177.184 247.378 186.576 251.679 188.832 252.648L188.296 253.969L191.819 253.478Z" fill="#001A70"/>
<path d="M108.815 222.879L110.593 225.952L112.374 222.879H110.95V190.686H112.374L110.593 187.613L108.815 190.686H110.236V222.879H108.815Z" fill="#001A70"/>
<path d="M101.601 190.686L99.8197 187.613L98.042 190.686H99.4627V299.049H98.042L99.8197 302.122L101.601 299.049H100.177V190.686H101.601Z" fill="#001A70"/>
<path d="M301.799 284.4C303.684 284.4 305.08 283.093 305.08 281.306C305.08 279.518 303.684 278.211 301.799 278.211C299.915 278.211 298.519 279.529 298.519 281.306C298.519 283.082 299.908 284.4 301.799 284.4ZM301.799 279.39C302.87 279.39 303.677 280.166 303.677 281.306C303.677 282.445 302.87 283.221 301.799 283.221C300.729 283.221 299.922 282.445 299.922 281.306C299.922 280.166 300.729 279.39 301.799 279.39Z" fill="#001A70"/>
<path d="M307.307 283.766C307.643 284.168 308.139 284.364 308.757 284.364C310.049 284.364 311.052 283.442 311.052 281.996C311.052 280.551 310.049 279.628 308.757 279.628C308.182 279.628 307.711 279.806 307.368 280.184V277.955H306.033V284.297H307.311V283.766H307.307ZM308.525 280.725C309.192 280.725 309.699 281.202 309.699 282C309.699 282.798 309.192 283.275 308.525 283.275C307.857 283.275 307.35 282.798 307.35 282C307.35 281.202 307.857 280.725 308.525 280.725Z" fill="#001A70"/>
<path d="M310.527 285.767C310.784 285.945 311.188 286.024 311.598 286.024C312.712 286.024 313.336 285.347 313.336 284.29V279.7H312.001V284.297C312.001 284.749 311.787 284.963 311.452 284.963C311.23 284.963 311.031 284.902 310.888 284.799L310.527 285.764V285.767Z" fill="#001A70"/>
<path d="M312.669 279.059C313.165 279.059 313.501 278.735 313.501 278.29C313.501 277.88 313.165 277.57 312.669 277.57C312.173 277.57 311.837 277.894 311.837 278.314C311.837 278.735 312.173 279.059 312.669 279.059Z" fill="#001A70"/>
<path d="M316.86 284.364C317.691 284.364 318.334 284.108 318.762 283.62L318.052 282.851C317.734 283.15 317.384 283.296 316.895 283.296C316.192 283.296 315.703 282.947 315.575 282.374H319.062C319.069 282.263 319.087 282.117 319.087 282.014C319.087 280.536 318.041 279.628 316.688 279.628C315.335 279.628 314.229 280.618 314.229 281.996C314.229 283.374 315.264 284.364 316.86 284.364ZM316.695 280.64C317.295 280.64 317.731 281.017 317.827 281.598H315.557C315.65 281.006 316.089 280.64 316.695 280.64Z" fill="#001A70"/>
<path d="M320.14 282.716C320.14 283.809 320.776 284.364 321.861 284.364C322.271 284.364 322.675 284.272 322.949 284.072L322.589 283.132C322.443 283.243 322.246 283.303 322.05 283.303C321.689 283.303 321.475 283.09 321.475 282.698V280.825H322.625V279.799H321.475V278.681H320.14V279.799H319.43V280.825H320.14V282.716Z" fill="#001A70"/>
<path d="M325.041 279.7H323.706V284.297H325.041V279.7Z" fill="#001A70"/>
<path d="M324.374 279.059C324.87 279.059 325.205 278.735 325.205 278.29C325.205 277.88 324.87 277.57 324.374 277.57C323.878 277.57 323.542 277.894 323.542 278.314C323.542 278.735 323.878 279.059 324.374 279.059Z" fill="#001A70"/>
<path d="M328.914 284.297L330.86 279.7H329.575L328.254 282.826L326.976 279.7H325.598L327.533 284.297H328.914Z" fill="#001A70"/>
<path d="M333.473 279.632C332.009 279.632 330.938 280.615 330.938 282C330.938 283.385 332.009 284.368 333.473 284.368C334.936 284.368 336 283.385 336 282C336 280.615 334.936 279.632 333.473 279.632ZM333.473 283.271C332.805 283.271 332.291 282.794 332.291 281.996C332.291 281.199 332.805 280.722 333.473 280.722C334.14 280.722 334.647 281.199 334.647 281.996C334.647 282.794 334.14 283.271 333.473 283.271Z" fill="#001A70"/>
<path d="M190.706 81.0227C190.028 79.8512 189.728 78.5443 189.728 77.0239C189.728 75.5034 190.028 74.1966 190.706 73.025H190.124C189.489 74.0434 189.132 75.4535 189.132 77.0239C189.132 78.5942 189.492 79.99 190.124 81.0227H190.706Z" fill="#001A70"/>
<path d="M193.815 79.4061C194.525 79.4061 195.15 79.1497 195.553 78.6725L195.211 78.2808C194.868 78.6725 194.379 78.8719 193.833 78.8719C192.848 78.8719 192.126 78.2488 192.059 77.3087H195.828C195.828 77.2411 195.835 77.1734 195.835 77.12C195.835 75.7705 194.918 74.8375 193.651 74.8375C192.383 74.8375 191.448 75.7883 191.448 77.12C191.448 78.4518 192.408 79.4096 193.811 79.4096L193.815 79.4061ZM193.654 75.3574C194.536 75.3574 195.178 75.9734 195.257 76.8529H192.062C192.141 75.9734 192.783 75.3574 193.654 75.3574Z" fill="#001A70"/>
<path d="M199.401 72.1669H198.844L196.017 80.2179H196.574L199.401 72.1669Z" fill="#001A70"/>
<path d="M200.608 79.3633H201.183L202.607 75.6814L204.028 79.3633H204.602L206.309 74.8696H205.752L204.32 78.6903L202.878 74.8696H202.357L200.908 78.6903L199.494 74.8696H198.912L200.608 79.3633Z" fill="#001A70"/>
<path d="M206.855 79.374L206.562 80.6132H206.973L207.333 79.4346C207.419 79.196 207.454 79.0856 207.454 78.9396C207.454 78.6832 207.265 78.4767 207.001 78.4767C206.737 78.4767 206.548 78.6725 206.548 78.9396C206.548 79.1604 206.676 79.3242 206.855 79.374Z" fill="#001A70"/>
<path d="M211.602 77.0061C211.602 75.9805 212.209 75.3823 213.18 75.3823C214.037 75.3823 214.533 75.8702 214.533 76.8173V79.3633H215.14V76.7568C215.14 75.4678 214.387 74.8339 213.291 74.8339C212.513 74.8339 211.902 75.1509 211.577 75.6957V74.866H210.995V79.3598H211.602V77.0025V77.0061Z" fill="#001A70"/>
<path d="M219.113 72.1669H218.556L215.729 80.2179H216.286L219.113 72.1669Z" fill="#001A70"/>
<path d="M218.617 76.1158C218.617 77.8927 221.537 76.9705 221.537 78.142C221.537 78.5871 221.187 78.8755 220.33 78.8755C219.695 78.8755 219.088 78.6547 218.727 78.3699L218.452 78.847C218.82 79.1639 219.541 79.4025 220.287 79.4025C221.462 79.4025 222.147 78.8969 222.147 78.1206C222.147 76.3936 219.227 77.3087 219.227 76.0945C219.227 75.6672 219.588 75.3503 220.401 75.3503C220.865 75.3503 221.337 75.4607 221.729 75.7348L221.993 75.247C221.615 74.9906 220.983 74.8268 220.401 74.8268C219.252 74.8268 218.62 75.3752 218.62 76.1087L218.617 76.1158Z" fill="#001A70"/>
<path d="M223.346 81.0227C223.989 79.99 224.349 78.5942 224.349 77.0239C224.349 75.4535 223.989 74.0399 223.346 73.025H222.765C223.45 74.1966 223.75 75.5034 223.75 77.0239C223.75 78.5443 223.45 79.8547 222.765 81.0227H223.346Z" fill="#001A70"/>
<path d="M119.081 204.844V210.826H119.713V209.252L120.938 208.013L123.39 210.826H124.143L121.366 207.553L123.965 204.844H123.236L119.713 208.458V204.844H119.081Z" fill="#001A70"/>
<path d="M127.581 204.79C125.764 204.79 124.429 206.09 124.429 207.831C124.429 209.573 125.764 210.872 127.581 210.872C129.398 210.872 130.725 209.583 130.725 207.831C130.725 206.079 129.38 204.79 127.581 204.79ZM127.581 210.313C126.131 210.313 125.053 209.263 125.053 207.835C125.053 206.407 126.131 205.356 127.581 205.356C129.03 205.356 130.09 206.407 130.09 207.835C130.09 209.263 129.019 210.313 127.581 210.313Z" fill="#001A70"/>
<path d="M134.388 204.844H132.143V210.826H132.778V208.939H134.388C135.912 208.939 136.837 208.17 136.837 206.895C136.837 205.62 135.912 204.844 134.388 204.844ZM134.374 208.38H132.782V205.389H134.374C135.573 205.389 136.208 205.937 136.208 206.891C136.208 207.845 135.573 208.38 134.374 208.38Z" fill="#001A70"/>
<path d="M185.933 234.762C185.933 233.786 185.162 233.224 183.827 233.224H181.239V239.206H183.998C185.498 239.206 186.251 238.625 186.251 237.607C186.251 236.795 185.787 236.289 185.016 236.119C185.566 235.898 185.933 235.442 185.933 234.758V234.762ZM185.619 237.557C185.619 238.344 185.044 238.686 183.991 238.686H181.875V236.439H183.991C185.044 236.439 185.619 236.781 185.619 237.557ZM183.784 235.916H181.875V233.743H183.784C184.744 233.743 185.301 234.11 185.301 234.829C185.301 235.549 184.744 235.916 183.784 235.916Z" fill="#001A70"/>
<path d="M192.573 236.649V233.224H191.955V236.624C191.955 238.041 191.288 238.693 190.113 238.693C188.939 238.693 188.278 238.045 188.278 236.624V233.224H187.643V236.649C187.643 238.365 188.578 239.256 190.11 239.256C191.641 239.256 192.569 238.365 192.569 236.649H192.573Z" fill="#001A70"/>
<path d="M199.18 235.275C199.18 233.993 198.256 233.224 196.731 233.224H194.486V239.206H195.121V237.308H196.731C196.903 237.308 197.056 237.301 197.21 237.283L198.58 239.206H199.273L197.809 237.155C198.684 236.873 199.18 236.215 199.18 235.275ZM196.71 236.77H195.118V233.772H196.71C197.909 233.772 198.545 234.32 198.545 235.275C198.545 236.229 197.909 236.77 196.71 236.77Z" fill="#001A70"/>
<path d="M299.451 304.002C298.815 305.021 298.458 306.431 298.458 308.001C298.458 309.572 298.819 310.967 299.451 312H300.033C299.354 310.828 299.054 309.522 299.054 308.001C299.054 306.481 299.354 305.174 300.033 304.002H299.451Z" fill="#001A70"/>
<path d="M302.981 305.815C301.714 305.815 300.779 306.762 300.779 308.097C300.779 309.433 301.739 310.387 303.142 310.387C303.852 310.387 304.477 310.131 304.88 309.653L304.537 309.262C304.195 309.653 303.706 309.853 303.159 309.853C302.174 309.853 301.453 309.23 301.385 308.29H305.155C305.155 308.222 305.162 308.154 305.162 308.101C305.162 306.751 304.245 305.818 302.977 305.818L302.981 305.815ZM301.389 307.83C301.467 306.951 302.11 306.335 302.981 306.335C303.852 306.335 304.505 306.951 304.584 307.83H301.389Z" fill="#001A70"/>
<path d="M308.175 303.148L305.348 311.199H305.905L308.732 303.148H308.175Z" fill="#001A70"/>
<path d="M313.647 309.668L312.208 305.847H311.687L310.238 309.668L308.824 305.847H308.243L309.938 310.344H310.513L311.934 306.659L313.358 310.344H313.929L315.635 305.847H315.078L313.647 309.668Z" fill="#001A70"/>
<path d="M316.328 309.454C316.071 309.454 315.874 309.65 315.874 309.917C315.874 310.138 316.003 310.301 316.181 310.351L315.889 311.59H316.299L316.66 310.412C316.745 310.173 316.781 310.063 316.781 309.917C316.781 309.661 316.592 309.454 316.328 309.454Z" fill="#001A70"/>
<path d="M322.617 305.815C321.839 305.815 321.229 306.132 320.904 306.677V305.847H320.322V310.341H320.933V307.983C320.933 306.958 321.539 306.36 322.51 306.36C323.367 306.36 323.863 306.847 323.863 307.795V310.341H324.47V307.734C324.47 306.445 323.717 305.811 322.621 305.811L322.617 305.815Z" fill="#001A70"/>
<path d="M327.886 303.148L325.059 311.199H325.616L328.443 303.148H327.886Z" fill="#001A70"/>
<path d="M328.554 307.079C328.554 306.652 328.914 306.335 329.728 306.335C330.192 306.335 330.663 306.445 331.056 306.719L331.32 306.231C330.942 305.975 330.31 305.811 329.728 305.811C328.579 305.811 327.947 306.36 327.947 307.093C327.947 308.87 330.867 307.948 330.867 309.119C330.867 309.564 330.517 309.853 329.66 309.853C329.025 309.853 328.418 309.632 328.058 309.347L327.783 309.824C328.15 310.141 328.871 310.38 329.618 310.38C330.792 310.38 331.477 309.874 331.477 309.098C331.477 307.371 328.557 308.286 328.557 307.072L328.554 307.079Z" fill="#001A70"/>
<path d="M332.091 304.002C332.777 305.174 333.077 306.481 333.077 308.001C333.077 309.522 332.777 310.828 332.091 312H332.673C333.316 310.967 333.676 309.572 333.676 308.001C333.676 306.431 333.316 305.017 332.673 304.002H332.091Z" fill="#001A70"/>
<path d="M143.805 19.4451C144.85 19.4451 145.714 19.0677 146.282 18.3769L145.389 17.5579C144.986 18.0279 144.483 18.2665 143.883 18.2665C142.762 18.2665 141.963 17.4795 141.963 16.3507C141.963 15.222 142.759 14.435 143.883 14.435C144.483 14.435 144.99 14.6736 145.389 15.1365L146.282 14.3175C145.718 13.6338 144.85 13.2564 143.815 13.2564C141.948 13.2564 140.56 14.5454 140.56 16.3507C140.56 18.1561 141.948 19.4451 143.808 19.4451H143.805Z" fill="#001A70"/>
<path d="M149.152 19.4095C150.615 19.4095 151.679 18.4267 151.679 17.0416C151.679 15.6564 150.615 14.6736 149.152 14.6736C147.688 14.6736 146.617 15.6564 146.617 17.0416C146.617 18.4267 147.688 19.4095 149.152 19.4095ZM149.152 15.7703C149.819 15.7703 150.326 16.2475 150.326 17.0451C150.326 17.8427 149.819 18.3199 149.152 18.3199C148.484 18.3199 147.97 17.8427 147.97 17.0451C147.97 16.2475 148.484 15.7703 149.152 15.7703Z" fill="#001A70"/>
<path d="M153.907 17.0665C153.907 16.219 154.371 15.8273 155.013 15.8273C155.606 15.8273 155.948 16.1691 155.948 16.9134V19.3419H157.283V16.7104C157.283 15.3074 156.462 14.6772 155.374 14.6772C154.749 14.6772 154.21 14.8908 153.849 15.2825V14.7448H152.572V19.3419H153.907V17.0665Z" fill="#001A70"/>
<path d="M160.521 19.4095C161.139 19.4095 161.628 19.2137 161.96 18.8113V19.3419H163.238V13H161.903V15.2291C161.567 14.8516 161.089 14.6736 160.525 14.6736C159.222 14.6736 158.219 15.5959 158.219 17.0416C158.219 18.4873 159.222 19.4095 160.525 19.4095H160.521ZM160.753 15.7703C161.413 15.7703 161.927 16.2475 161.927 17.0451C161.927 17.8427 161.413 18.3199 160.753 18.3199C160.093 18.3199 159.572 17.8427 159.572 17.0451C159.572 16.2475 160.086 15.7703 160.753 15.7703Z" fill="#001A70"/>
<path d="M166.415 19.4095C166.979 19.4095 167.493 19.1959 167.846 18.7935V19.3419H169.113V14.7448H167.778V17.0166C167.778 17.8641 167.332 18.2558 166.714 18.2558C166.097 18.2558 165.779 17.914 165.779 17.1448V14.7448H164.444V17.3442C164.444 18.7614 165.258 19.4131 166.415 19.4131V19.4095Z" fill="#001A70"/>
<path d="M172.583 19.4095C173.55 19.4095 174.314 18.9822 174.646 18.2487L173.611 17.6861C173.361 18.1312 172.993 18.3199 172.576 18.3199C171.897 18.3199 171.369 17.8499 171.369 17.0451C171.369 16.2404 171.901 15.7703 172.576 15.7703C172.997 15.7703 173.365 15.9662 173.611 16.4042L174.646 15.8487C174.311 15.0973 173.55 14.6772 172.583 14.6772C171.084 14.6772 170.013 15.6599 170.013 17.0451C170.013 18.4303 171.084 19.4131 172.583 19.4131V19.4095Z" fill="#001A70"/>
<path d="M175.649 17.7608C175.649 18.854 176.285 19.4095 177.37 19.4095C177.78 19.4095 178.184 19.3169 178.458 19.1175L178.098 18.1775C177.952 18.2878 177.755 18.3484 177.559 18.3484C177.198 18.3484 176.984 18.1347 176.984 17.743V15.87H178.134V14.8445H176.984V13.7264H175.649V14.8445H174.939V15.87H175.649V17.7608Z" fill="#001A70"/>
<path d="M181.261 19.4095C182.724 19.4095 183.788 18.4267 183.788 17.0416C183.788 15.6564 182.724 14.6736 181.261 14.6736C179.797 14.6736 178.726 15.6564 178.726 17.0416C178.726 18.4267 179.797 19.4095 181.261 19.4095ZM181.261 15.7703C181.928 15.7703 182.435 16.2475 182.435 17.0451C182.435 17.8427 181.928 18.3199 181.261 18.3199C180.593 18.3199 180.079 17.8427 180.079 17.0451C180.079 16.2475 180.593 15.7703 181.261 15.7703Z" fill="#001A70"/>
<path d="M186.015 17.1697C186.015 16.2902 186.504 15.8878 187.24 15.8878C187.343 15.8878 187.429 15.895 187.54 15.9056V14.6736C186.829 14.6736 186.279 14.905 185.955 15.3502V14.7448H184.677V19.3419H186.012V17.1697H186.015Z" fill="#001A70"/>
<path d="M107.694 277.72H109.8V283.157H110.436V277.72H112.542V277.171H107.694V277.72Z" fill="#001A70"/>
<path d="M115.215 283.157H115.84L118.496 277.171H117.853L115.54 282.37L113.245 277.171H112.56L115.215 283.157Z" fill="#001A70"/>
<path d="M119.36 283.157H121.801C123.722 283.157 125.014 281.925 125.014 280.166C125.014 278.407 123.722 277.175 121.801 277.175H119.36V283.157ZM119.995 277.72H121.769C123.361 277.72 124.389 278.728 124.389 280.163C124.389 281.598 123.361 282.605 121.769 282.605H119.995V277.716V277.72Z" fill="#001A70"/>
<path d="M110.418 287.427L107.676 293.409H108.337L109.058 291.81H112.399L113.12 293.409H113.788L111.046 287.427H110.418ZM109.286 291.301L110.725 288.089L112.163 291.301H109.286Z" fill="#001A70"/>
<path d="M118.771 292.864H115.412V287.427H114.776V293.412H118.771V292.864Z" fill="#001A70"/>
<path d="M127.834 290.418C127.834 288.666 126.488 287.377 124.689 287.377C122.89 287.377 121.537 288.677 121.537 290.418C121.537 292.159 122.872 293.459 124.689 293.459C126.506 293.459 127.834 292.17 127.834 290.418ZM122.162 290.418C122.162 288.99 123.24 287.939 124.689 287.939C126.138 287.939 127.199 288.99 127.199 290.418C127.199 291.846 126.128 292.896 124.689 292.896C123.251 292.896 122.162 291.846 122.162 290.418Z" fill="#001A70"/>
<path d="M129.255 293.409H132.014C133.513 293.409 134.267 292.828 134.267 291.81C134.267 290.998 133.802 290.493 133.031 290.322C133.581 290.101 133.949 289.645 133.949 288.961C133.949 287.986 133.178 287.423 131.843 287.423H129.255V293.409ZM133.635 291.76C133.635 292.547 133.06 292.889 132.007 292.889H129.89V290.642H132.007C133.06 290.642 133.635 290.984 133.635 291.76ZM133.317 289.036C133.317 289.755 132.76 290.122 131.8 290.122H129.89V287.95H131.8C132.76 287.95 133.317 288.317 133.317 289.036Z" fill="#001A70"/>
<path d="M135.287 287.975H137.479V291.6C137.479 292.479 137.101 292.917 136.365 292.917C135.834 292.917 135.398 292.661 135.073 292.184L134.695 292.611C135.063 293.16 135.68 293.466 136.358 293.466C137.508 293.466 138.107 292.843 138.107 291.579V287.434H135.287V287.982V287.975Z" fill="#001A70"/>
<path d="M144.122 287.975V287.427H140.006V293.412H144.251V292.864H140.642V290.642H143.744V290.104H140.642V287.975H144.122Z" fill="#001A70"/>
<path d="M144.797 287.975H146.903V293.412H147.538V287.975H149.644V287.427H144.797V287.975Z" fill="#001A70"/>
<path d="M151.294 287.427H150.658V293.409H151.294V287.427Z" fill="#001A70"/>
<path d="M157.519 287.427L155.206 292.625L152.911 287.427H152.225L154.881 293.412H155.506L158.162 287.427H157.519Z" fill="#001A70"/>
<path d="M161.596 287.377C159.779 287.377 158.444 288.677 158.444 290.418C158.444 292.159 159.782 293.459 161.596 293.459C163.409 293.459 164.74 292.17 164.74 290.418C164.74 288.666 163.395 287.377 161.596 287.377ZM161.596 292.9C160.146 292.9 159.068 291.849 159.068 290.421C159.068 288.993 160.146 287.943 161.596 287.943C163.045 287.943 164.105 288.993 164.105 290.421C164.105 291.849 163.034 292.9 161.596 292.9Z" fill="#001A70"/>
</g>
</g>
<defs>
<filter id="filter0_d_2_2" x="8" y="12" width="360" height="309" filterUnits="userSpaceOnUse" color-interpolation-filters="sRGB">
<feFlood flood-opacity="0" result="BackgroundImageFix"/>
<feColorMatrix in="SourceAlpha" type="matrix" values="0 0 0 0 0 0 0 0 0 0 0 0 0 0 0 0 0 0 127 0" result="hardAlpha"/>
<feOffset dy="4"/>
<feGaussianBlur stdDeviation="2"/>
<feComposite in2="hardAlpha" operator="out"/>
<feColorMatrix type="matrix" values="0 0 0 0 0 0 0 0 0 0 0 0 0 0 0 0 0 0 0.25 0"/>
<feBlend mode="normal" in2="BackgroundImageFix" result="effect1_dropShadow_2_2"/>
<feBlend mode="normal" in="SourceGraphic" in2="effect1_dropShadow_2_2" result="shape"/>
</filter>
<clipPath id="clip0_2_2">
<rect width="352" height="301" fill="white" transform="translate(12 12)"/>
</clipPath>
</defs>
</svg>
