<svg width="352" height="301" viewBox="0 0 352 301" fill="none" xmlns="http://www.w3.org/2000/svg">
<path d="M59.0171 220.082H61.0362V225.299H61.6454V220.082H63.6645V219.556H59.0171V220.082Z" fill="#001A70"/>
<path d="M181.073 165.651L180.895 165.887H181.251L181.073 165.651Z" fill="#001A70"/>
<path d="M204.512 237.336C204.676 237.336 204.837 237.336 204.998 237.336L206.182 238.936H208.3L207.068 237.332C207.722 237.332 208.365 237.342 208.999 237.363H247.687L248.689 238.973V237.025H209.005C208.287 237.001 207.554 236.994 206.805 236.99L205.587 235.404C206.767 235.401 207.907 235.404 209.036 235.435H248.686V236.266C248.686 236.286 248.696 236.303 248.713 236.317L249.528 236.888C249.528 236.888 249.552 236.898 249.562 236.898H252.245C252.279 236.898 252.307 236.871 252.307 236.836V236.556L252.563 236.467C252.615 236.45 252.615 236.378 252.563 236.361L252.245 236.252L252.512 236.047C252.553 236.013 252.532 235.948 252.478 235.948H252.142L252.327 235.667C252.358 235.623 252.313 235.565 252.262 235.585L251.944 235.695L252.026 235.37C252.04 235.319 251.978 235.278 251.937 235.312L251.673 235.517L251.646 235.182C251.643 235.127 251.574 235.11 251.543 235.155L251.359 235.435L251.225 235.127C251.205 235.079 251.133 235.083 251.119 235.137L251.04 235.452C251.04 235.452 251.016 235.435 251.003 235.428L250.808 235.216C250.777 235.182 250.729 235.199 250.715 235.237L250.578 235.144C250.541 235.12 250.541 235.066 250.578 235.042C250.623 235.011 250.671 234.98 250.715 234.949C250.729 234.987 250.777 235.004 250.808 234.97L251.003 234.758C251.003 234.758 251.027 234.744 251.037 234.734L251.116 235.049C251.129 235.1 251.201 235.107 251.222 235.059L251.355 234.751L251.54 235.031C251.571 235.076 251.639 235.059 251.643 235.004L251.67 234.669L251.934 234.874C251.975 234.908 252.036 234.867 252.023 234.816L251.94 234.491L252.259 234.601C252.31 234.618 252.354 234.563 252.324 234.515L252.139 234.235H252.474C252.529 234.235 252.55 234.167 252.508 234.136L252.242 233.931L252.56 233.821C252.611 233.804 252.611 233.732 252.56 233.715L252.303 233.626V233.346C252.303 233.312 252.276 233.285 252.242 233.285H249.559C249.559 233.285 249.535 233.288 249.524 233.295L248.71 233.869C248.71 233.869 248.682 233.9 248.682 233.92V234.751H209.043C207.821 234.714 206.538 234.714 205.272 234.72L206.678 232.888C207.489 232.888 208.3 232.898 209.094 232.922H248.682V231.1L247.762 232.58H209.101C208.393 232.56 207.667 232.55 206.942 232.55L208.15 230.977H206.134L204.94 232.556C204.789 232.556 204.639 232.556 204.488 232.556V232.727L204.45 232.556C204.105 232.556 203.759 232.56 203.417 232.563L202.223 230.977H200.412L200.217 231.09L201.343 232.56C195.347 232.502 189.584 231.893 186.419 227.541C183.715 223.292 183.746 209.276 183.756 203.967C183.756 202.839 183.76 201.673 183.739 200.538V167.439H183.397V200.541C183.421 201.673 183.418 202.839 183.414 203.997C183.404 209.3 183.373 223.388 186.135 227.729C189.448 232.286 195.43 232.857 201.607 232.902L203.013 234.734C195.885 234.758 188.739 234.447 184.691 228.813C181.642 224.068 181.662 212.274 181.672 204.466C181.672 202.897 181.676 201.54 181.655 200.428V166.444L181.286 165.945H180.971V200.432C180.995 201.543 180.991 202.897 180.988 204.462C180.974 212.349 180.957 224.266 184.123 229.193C188.318 235.031 195.505 235.425 202.702 235.411L201.49 236.994C194.499 236.939 187.175 236.207 182.764 230.068L182.702 229.975C179.26 224.618 179.294 209.621 179.304 203.96C179.304 202.791 179.308 201.69 179.287 200.593V167.425H178.945V200.596C178.969 201.69 178.965 202.791 178.962 203.974C178.948 209.645 178.917 224.718 182.415 230.16L182.483 230.259C186.936 236.454 194.225 237.254 201.23 237.325L200.008 238.922H202.082L203.277 237.329C203.687 237.329 204.095 237.325 204.498 237.322L204.512 237.336ZM204.492 236.994C204.18 236.994 203.865 236.997 203.547 237.001L204.153 236.194L204.748 236.997C204.663 236.997 204.577 236.997 204.492 236.997V236.994ZM204.457 232.891H204.495C204.557 232.891 204.622 232.891 204.687 232.891L204.177 233.561L203.677 232.895C203.937 232.895 204.197 232.895 204.457 232.891Z" fill="#001A70"/>
<path d="M255.075 237.203L255.071 237.545L255.414 237.548L255.417 237.207L255.075 237.203Z" fill="#001A70"/>
<path d="M281.645 237.484L281.641 237.826L281.984 237.83L281.987 237.488L281.645 237.484Z" fill="#001A70"/>
<path d="M266.658 237.324L266.654 237.666L266.996 237.67L267 237.328L266.658 237.324Z" fill="#001A70"/>
<path d="M287.779 237.547L287.775 237.889L288.117 237.892L288.121 237.551L287.779 237.547Z" fill="#001A70"/>
<path d="M282.327 237.495L282.323 237.837L282.665 237.84L282.669 237.498L282.327 237.495Z" fill="#001A70"/>
<path d="M288.461 237.557L288.457 237.899L288.799 237.903L288.803 237.561L288.461 237.557Z" fill="#001A70"/>
<path d="M257.794 237.225L257.791 237.567L258.133 237.57L258.136 237.229L257.794 237.225Z" fill="#001A70"/>
<path d="M258.475 237.232L258.472 237.574L258.814 237.577L258.818 237.235L258.475 237.232Z" fill="#001A70"/>
<path d="M285.049 237.513L285.045 237.855L285.387 237.859L285.391 237.517L285.049 237.513Z" fill="#001A70"/>
<path d="M280.967 237.477L280.963 237.819L281.305 237.823L281.309 237.481L280.967 237.477Z" fill="#001A70"/>
<path d="M259.842 237.255L259.839 237.597L260.181 237.6L260.185 237.259L259.842 237.255Z" fill="#001A70"/>
<path d="M267.339 237.335L267.336 237.677L267.678 237.68L267.682 237.339L267.339 237.335Z" fill="#001A70"/>
<path d="M259.156 237.239L259.153 237.581L259.495 237.584L259.499 237.242L259.156 237.239Z" fill="#001A70"/>
<path d="M283.693 237.509L283.689 237.85L284.032 237.854L284.035 237.512L283.693 237.509Z" fill="#001A70"/>
<path d="M285.73 237.52L285.726 237.862L286.068 237.865L286.072 237.524L285.73 237.52Z" fill="#001A70"/>
<path d="M284.367 237.506L284.364 237.848L284.706 237.852L284.71 237.51L284.367 237.506Z" fill="#001A70"/>
<path d="M283.012 237.502L283.008 237.844L283.35 237.847L283.354 237.505L283.012 237.502Z" fill="#001A70"/>
<path d="M289.136 237.558L289.132 237.9L289.474 237.904L289.478 237.562L289.136 237.558Z" fill="#001A70"/>
<path d="M264.606 237.294L264.602 237.636L264.945 237.64L264.948 237.298L264.606 237.294Z" fill="#001A70"/>
<path d="M277.559 237.439L277.556 237.781L277.898 237.785L277.901 237.443L277.559 237.439Z" fill="#001A70"/>
<path d="M273.465 237.392L273.461 237.733L273.804 237.737L273.807 237.395L273.465 237.392Z" fill="#001A70"/>
<path d="M280.277 237.461L280.273 237.803L280.615 237.806L280.619 237.465L280.277 237.461Z" fill="#001A70"/>
<path d="M265.298 237.314L265.295 237.656L265.637 237.66L265.64 237.318L265.298 237.314Z" fill="#001A70"/>
<path d="M276.878 237.436L276.874 237.778L277.216 237.781L277.22 237.439L276.878 237.436Z" fill="#001A70"/>
<path d="M286.416 237.536L286.412 237.878L286.754 237.882L286.758 237.54L286.416 237.536Z" fill="#001A70"/>
<path d="M265.976 237.321L265.973 237.663L266.315 237.666L266.319 237.325L265.976 237.321Z" fill="#001A70"/>
<path d="M279.596 237.454L279.592 237.796L279.934 237.8L279.938 237.458L279.596 237.454Z" fill="#001A70"/>
<path d="M278.918 237.451L278.914 237.792L279.257 237.796L279.26 237.454L278.918 237.451Z" fill="#001A70"/>
<path d="M287.097 237.543L287.094 237.885L287.436 237.889L287.44 237.547L287.097 237.543Z" fill="#001A70"/>
<path d="M263.928 237.291L263.925 237.633L264.267 237.636L264.27 237.294L263.928 237.291Z" fill="#001A70"/>
<path d="M278.241 237.45L278.237 237.791L278.579 237.795L278.583 237.453L278.241 237.45Z" fill="#001A70"/>
<path d="M276.196 237.432L276.192 237.774L276.535 237.778L276.538 237.436L276.196 237.432Z" fill="#001A70"/>
<path d="M260.527 237.262L260.524 237.604L260.866 237.607L260.87 237.266L260.527 237.262Z" fill="#001A70"/>
<path d="M275.515 237.422L275.511 237.764L275.853 237.767L275.857 237.425L275.515 237.422Z" fill="#001A70"/>
<path d="M272.788 237.391L272.785 237.732L273.127 237.736L273.131 237.394L272.788 237.391Z" fill="#001A70"/>
<path d="M271.429 237.377L271.425 237.718L271.767 237.722L271.771 237.38L271.429 237.377Z" fill="#001A70"/>
<path d="M255.753 237.21L255.749 237.552L256.092 237.555L256.095 237.213L255.753 237.21Z" fill="#001A70"/>
<path d="M257.116 237.218L257.113 237.56L257.455 237.563L257.459 237.222L257.116 237.218Z" fill="#001A70"/>
<path d="M274.824 237.406L274.82 237.747L275.163 237.751L275.166 237.409L274.824 237.406Z" fill="#001A70"/>
<path d="M256.438 237.217L256.434 237.559L256.777 237.562L256.78 237.22L256.438 237.217Z" fill="#001A70"/>
<path d="M252.347 237.171L252.344 237.513L252.686 237.516L252.689 237.174L252.347 237.171Z" fill="#001A70"/>
<path d="M250.999 237.171L250.996 237.513L251.338 237.517L251.342 237.175L250.999 237.171Z" fill="#001A70"/>
<path d="M272.11 237.384L272.107 237.725L272.449 237.729L272.452 237.387L272.11 237.384Z" fill="#001A70"/>
<path d="M253.026 237.176L253.022 237.518L253.364 237.522L253.368 237.18L253.026 237.176Z" fill="#001A70"/>
<path d="M254.394 237.196L254.39 237.538L254.732 237.541L254.736 237.2L254.394 237.196Z" fill="#001A70"/>
<path d="M289.817 237.565L289.813 237.907L290.156 237.911L290.159 237.569L289.817 237.565Z" fill="#001A70"/>
<path d="M253.707 237.183L253.703 237.525L254.046 237.529L254.049 237.187L253.707 237.183Z" fill="#001A70"/>
<path d="M263.244 237.281L263.24 237.622L263.582 237.626L263.586 237.284L263.244 237.281Z" fill="#001A70"/>
<path d="M270.747 237.366L270.743 237.708L271.086 237.712L271.089 237.37L270.747 237.366Z" fill="#001A70"/>
<path d="M270.066 237.363L270.062 237.705L270.404 237.708L270.408 237.366L270.066 237.363Z" fill="#001A70"/>
<path d="M248.951 237.15L248.948 237.492L249.29 237.496L249.294 237.154L248.951 237.15Z" fill="#001A70"/>
<path d="M269.374 237.35L269.371 237.692L269.713 237.695L269.717 237.353L269.374 237.35Z" fill="#001A70"/>
<path d="M262.562 237.274L262.559 237.615L262.901 237.619L262.905 237.277L262.562 237.274Z" fill="#001A70"/>
<path d="M268.012 237.336L268.008 237.678L268.351 237.681L268.354 237.34L268.012 237.336Z" fill="#001A70"/>
<path d="M261.887 237.276L261.883 237.618L262.226 237.621L262.229 237.279L261.887 237.276Z" fill="#001A70"/>
<path d="M261.209 237.272L261.205 237.614L261.547 237.618L261.551 237.276L261.209 237.272Z" fill="#001A70"/>
<path d="M268.693 237.343L268.69 237.685L269.032 237.688L269.035 237.347L268.693 237.343Z" fill="#001A70"/>
<path d="M249.633 237.157L249.629 237.499L249.971 237.503L249.975 237.161L249.633 237.157Z" fill="#001A70"/>
<path d="M251.663 237.163L251.66 237.504L252.002 237.508L252.006 237.166L251.663 237.163Z" fill="#001A70"/>
<path d="M250.314 237.164L250.311 237.506L250.653 237.51L250.657 237.168L250.314 237.164Z" fill="#001A70"/>
<path d="M274.146 237.399L274.143 237.74L274.485 237.744L274.488 237.402L274.146 237.399Z" fill="#001A70"/>
<path d="M290.495 237.575L290.498 237.742L290.495 237.913L290.841 237.917L290.837 237.571L290.495 237.575Z" fill="#001A70"/>
<path d="M290.799 233.553L290.457 233.557L290.461 233.892L290.804 233.888L290.799 233.553Z" fill="#001A70"/>
<path d="M290.833 236.226L290.491 236.23L290.496 236.565L290.838 236.561L290.833 236.226Z" fill="#001A70"/>
<path d="M290.822 235.556L290.479 235.56L290.484 235.895L290.826 235.891L290.822 235.556Z" fill="#001A70"/>
<path d="M290.839 236.892L290.496 236.897L290.501 237.232L290.843 237.227L290.839 236.892Z" fill="#001A70"/>
<path d="M290.816 234.889L290.474 234.894L290.479 235.229L290.821 235.224L290.816 234.889Z" fill="#001A70"/>
<path d="M290.804 234.219L290.462 234.224L290.467 234.559L290.809 234.554L290.804 234.219Z" fill="#001A70"/>
<path d="M290.782 233.226L290.779 232.888L290.44 232.885V233.23L290.782 233.226Z" fill="#001A70"/>
<path d="M284.979 232.826L284.975 233.168L285.318 233.171L285.321 232.829L284.979 232.826Z" fill="#001A70"/>
<path d="M286.34 232.84L286.337 233.182L286.679 233.185L286.683 232.843L286.34 232.84Z" fill="#001A70"/>
<path d="M267.921 232.656L267.918 232.998L268.26 233.001L268.263 232.659L267.921 232.656Z" fill="#001A70"/>
<path d="M280.878 232.781L280.875 233.123L281.217 233.126L281.22 232.784L280.878 232.781Z" fill="#001A70"/>
<path d="M280.194 232.771L280.191 233.112L280.533 233.116L280.536 232.774L280.194 232.771Z" fill="#001A70"/>
<path d="M287.021 232.843L287.018 233.185L287.36 233.188L287.363 232.847L287.021 232.843Z" fill="#001A70"/>
<path d="M259.743 232.583L259.74 232.925L260.082 232.928L260.085 232.586L259.743 232.583Z" fill="#001A70"/>
<path d="M260.419 232.583L260.416 232.925L260.758 232.928L260.761 232.587L260.419 232.583Z" fill="#001A70"/>
<path d="M269.292 232.677L269.289 233.019L269.631 233.022L269.634 232.68L269.292 232.677Z" fill="#001A70"/>
<path d="M278.837 232.77L278.834 233.112L279.176 233.116L279.18 232.774L278.837 232.77Z" fill="#001A70"/>
<path d="M285.651 232.826L285.648 233.168L285.99 233.171L285.994 232.829L285.651 232.826Z" fill="#001A70"/>
<path d="M261.786 232.604L261.782 232.946L262.125 232.949L262.128 232.607L261.786 232.604Z" fill="#001A70"/>
<path d="M281.568 232.795L281.564 233.136L281.907 233.14L281.91 232.798L281.568 232.795Z" fill="#001A70"/>
<path d="M279.522 232.777L279.518 233.119L279.861 233.122L279.864 232.781L279.522 232.777Z" fill="#001A70"/>
<path d="M261.099 232.59L261.096 232.932L261.438 232.935L261.441 232.593L261.099 232.59Z" fill="#001A70"/>
<path d="M269.973 232.684L269.97 233.025L270.312 233.029L270.315 232.687L269.973 232.684Z" fill="#001A70"/>
<path d="M264.516 232.628L264.513 232.97L264.855 232.973L264.858 232.631L264.516 232.628Z" fill="#001A70"/>
<path d="M282.252 232.805L282.249 233.147L282.591 233.15L282.594 232.808L282.252 232.805Z" fill="#001A70"/>
<path d="M282.923 232.798L282.919 233.14L283.262 233.143L283.265 232.801L282.923 232.798Z" fill="#001A70"/>
<path d="M259.062 232.58L259.059 232.921L259.401 232.925L259.405 232.583L259.062 232.58Z" fill="#001A70"/>
<path d="M266.562 232.649L266.559 232.991L266.901 232.994L266.904 232.652L266.562 232.649Z" fill="#001A70"/>
<path d="M265.2 232.639L265.197 232.98L265.539 232.984L265.542 232.642L265.2 232.639Z" fill="#001A70"/>
<path d="M267.246 232.656L267.243 232.998L267.585 233.001L267.588 232.659L267.246 232.656Z" fill="#001A70"/>
<path d="M284.294 232.822L284.291 233.164L284.633 233.168L284.637 232.826L284.294 232.822Z" fill="#001A70"/>
<path d="M265.873 232.639L265.87 232.981L266.212 232.984L266.215 232.642L265.873 232.639Z" fill="#001A70"/>
<path d="M276.792 232.746L276.788 233.088L277.13 233.091L277.134 232.749L276.792 232.746Z" fill="#001A70"/>
<path d="M278.146 232.753L278.142 233.095L278.485 233.098L278.488 232.756L278.146 232.753Z" fill="#001A70"/>
<path d="M277.476 232.757L277.472 233.098L277.815 233.102L277.818 232.76L277.476 232.757Z" fill="#001A70"/>
<path d="M283.614 232.812L283.61 233.154L283.952 233.157L283.956 232.815L283.614 232.812Z" fill="#001A70"/>
<path d="M268.602 232.66L268.599 233.002L268.941 233.005L268.944 232.663L268.602 232.66Z" fill="#001A70"/>
<path d="M263.832 232.625L263.828 232.966L264.17 232.97L264.174 232.628L263.832 232.625Z" fill="#001A70"/>
<path d="M256.326 232.545L256.322 232.887L256.665 232.89L256.668 232.548L256.326 232.545Z" fill="#001A70"/>
<path d="M255.642 232.538L255.639 232.88L255.981 232.883L255.984 232.541L255.642 232.538Z" fill="#001A70"/>
<path d="M254.967 232.538L254.964 232.88L255.306 232.883L255.309 232.541L254.967 232.538Z" fill="#001A70"/>
<path d="M252.247 232.52L252.244 232.862L252.586 232.866L252.589 232.524L252.247 232.52Z" fill="#001A70"/>
<path d="M251.566 232.514L251.563 232.855L251.905 232.859L251.908 232.517L251.566 232.514Z" fill="#001A70"/>
<path d="M257.013 232.559L257.01 232.901L257.352 232.904L257.355 232.562L257.013 232.559Z" fill="#001A70"/>
<path d="M289.751 232.871L289.748 233.213L290.09 233.216L290.094 232.874L289.751 232.871Z" fill="#001A70"/>
<path d="M254.283 232.531L254.279 232.873L254.622 232.876L254.625 232.534L254.283 232.531Z" fill="#001A70"/>
<path d="M258.371 232.563L258.367 232.904L258.71 232.908L258.713 232.566L258.371 232.563Z" fill="#001A70"/>
<path d="M273.375 232.708L273.372 233.05L273.714 233.053L273.718 232.711L273.375 232.708Z" fill="#001A70"/>
<path d="M253.597 232.518L253.594 232.859L253.936 232.863L253.939 232.521L253.597 232.518Z" fill="#001A70"/>
<path d="M274.065 232.722L274.061 233.064L274.404 233.067L274.407 232.725L274.065 232.722Z" fill="#001A70"/>
<path d="M274.749 232.729L274.746 233.071L275.088 233.074L275.091 232.732L274.749 232.729Z" fill="#001A70"/>
<path d="M272.7 232.711L272.696 233.053L273.039 233.057L273.042 232.715L272.7 232.711Z" fill="#001A70"/>
<path d="M250.882 232.507L250.879 232.848L251.221 232.852L251.224 232.51L250.882 232.507Z" fill="#001A70"/>
<path d="M252.921 232.517L252.918 232.859L253.26 232.862L253.263 232.52L252.921 232.517Z" fill="#001A70"/>
<path d="M276.104 232.732L276.101 233.074L276.443 233.077L276.446 232.736L276.104 232.732Z" fill="#001A70"/>
<path d="M275.42 232.729L275.417 233.071L275.759 233.074L275.762 232.732L275.42 232.729Z" fill="#001A70"/>
<path d="M250.201 232.5L250.198 232.841L250.54 232.845L250.543 232.503L250.201 232.5Z" fill="#001A70"/>
<path d="M263.144 232.611L263.141 232.953L263.483 232.956L263.486 232.614L263.144 232.611Z" fill="#001A70"/>
<path d="M287.696 232.847L287.693 233.189L288.035 233.192L288.038 232.85L287.696 232.847Z" fill="#001A70"/>
<path d="M262.47 232.611L262.467 232.953L262.809 232.956L262.812 232.614L262.47 232.611Z" fill="#001A70"/>
<path d="M271.335 232.694L271.331 233.036L271.673 233.039L271.677 232.697L271.335 232.694Z" fill="#001A70"/>
<path d="M288.38 232.854L288.377 233.196L288.719 233.199L288.722 232.857L288.38 232.854Z" fill="#001A70"/>
<path d="M257.697 232.562L257.694 232.904L258.036 232.907L258.039 232.566L257.697 232.562Z" fill="#001A70"/>
<path d="M270.647 232.684L270.643 233.026L270.986 233.029L270.989 232.687L270.647 232.684Z" fill="#001A70"/>
<path d="M248.83 232.479L248.827 232.821L249.169 232.824L249.172 232.482L248.83 232.479Z" fill="#001A70"/>
<path d="M249.52 232.496L249.517 232.838L249.859 232.841L249.863 232.499L249.52 232.496Z" fill="#001A70"/>
<path d="M289.071 232.871L289.067 233.213L289.409 233.216L289.413 232.874L289.071 232.871Z" fill="#001A70"/>
<path d="M272.019 232.704L272.015 233.046L272.358 233.05L272.361 232.708L272.019 232.704Z" fill="#001A70"/>
<path d="M183.77 167.432H182.394L181.662 166.444L181.292 165.949L181.248 165.89L181.073 165.651L180.895 165.89L179.735 167.432H178.387L178.955 166.694L179.297 166.246L179.568 165.89L180.406 164.793L179.766 163.956L179.195 163.214L179.109 163.101L178.466 162.26H179.821L181.091 163.942L182.364 162.26H183.674L183.537 162.434L183.452 162.547L182.37 163.956L181.734 164.786L182.583 165.89L183.404 166.954L183.746 167.398L183.77 167.432Z" fill="#001A70"/>
<path d="M201.521 230.334L198.568 228.628V229.986C188.133 229.893 186.932 226.799 186.901 214.322H188.263L186.556 211.371L184.848 214.322H186.214C186.251 227.165 187.825 230.567 198.564 230.669V232.037L200.224 231.08L200.419 230.967L201.521 230.331V230.334Z" fill="#001A70"/>
<path d="M127.67 208.89L129.378 211.84L131.082 208.89H129.72V171.941H131.082L129.378 168.988L127.67 171.941H129.035V208.89H127.67Z" fill="#001A70"/>
<path d="M120.754 171.941L119.046 168.988L117.342 171.941H118.707V234.878H117.342L119.046 237.831L120.754 234.878H119.392V171.941H120.754Z" fill="#001A70"/>
<path d="M162.874 6.18765C163.877 6.18765 164.705 5.82528 165.249 5.16207L164.394 4.37579C164.007 4.82705 163.524 5.05609 162.949 5.05609C161.875 5.05609 161.108 4.30059 161.108 3.21689C161.108 2.1332 161.871 1.37769 162.949 1.37769C163.524 1.37769 164.01 1.60674 164.394 2.05115L165.249 1.26488C164.708 0.608509 163.877 0.246138 162.884 0.246138C161.095 0.246138 159.763 1.48367 159.763 3.21689C159.763 4.95012 161.095 6.18765 162.878 6.18765H162.874Z" fill="#001A70"/>
<path d="M168.001 6.15346C169.404 6.15346 170.424 5.20993 170.424 3.8801C170.424 2.55027 169.404 1.60674 168.001 1.60674C166.597 1.60674 165.571 2.55027 165.571 3.8801C165.571 5.20993 166.597 6.15346 168.001 6.15346ZM168.001 2.65966C168.641 2.65966 169.127 3.11775 169.127 3.88352C169.127 4.64928 168.641 5.10737 168.001 5.10737C167.361 5.10737 166.868 4.64928 166.868 3.88352C166.868 3.11775 167.361 2.65966 168.001 2.65966Z" fill="#001A70"/>
<path d="M172.559 3.90403C172.559 3.09041 173.004 2.71436 173.62 2.71436C174.188 2.71436 174.516 3.04254 174.516 3.75703V6.08851H175.796V3.56217C175.796 2.21525 175.009 1.61016 173.965 1.61016C173.367 1.61016 172.85 1.81527 172.504 2.19132V1.67511H171.279V6.08851H172.559V3.90403Z" fill="#001A70"/>
<path d="M178.9 6.15346C179.492 6.15346 179.961 5.96544 180.279 5.57914V6.08851H181.505V0H180.225V2.14004C179.903 1.77767 179.444 1.60674 178.904 1.60674C177.655 1.60674 176.693 2.49215 176.693 3.8801C176.693 5.26805 177.655 6.15346 178.904 6.15346H178.9ZM179.123 2.65966C179.756 2.65966 180.249 3.11775 180.249 3.88352C180.249 4.64928 179.756 5.10737 179.123 5.10737C178.49 5.10737 177.99 4.64928 177.99 3.88352C177.99 3.11775 178.483 2.65966 179.123 2.65966Z" fill="#001A70"/>
<path d="M184.55 6.15346C185.091 6.15346 185.584 5.94835 185.923 5.56205V6.08851H187.138V1.67511H185.858V3.85617C185.858 4.66979 185.43 5.04584 184.838 5.04584C184.246 5.04584 183.941 4.71765 183.941 3.97924V1.67511H182.661V4.17068C182.661 5.53128 183.442 6.15688 184.55 6.15688V6.15346Z" fill="#001A70"/>
<path d="M190.464 6.15346C191.391 6.15346 192.124 5.74323 192.442 5.039L191.45 4.49886C191.21 4.92619 190.857 5.10737 190.457 5.10737C189.807 5.10737 189.3 4.65612 189.3 3.88352C189.3 3.11092 189.81 2.65966 190.457 2.65966C190.861 2.65966 191.213 2.84769 191.45 3.26817L192.442 2.73487C192.12 2.01355 191.391 1.61016 190.464 1.61016C189.027 1.61016 188 2.55369 188 3.88352C188 5.21335 189.027 6.15688 190.464 6.15688V6.15346Z" fill="#001A70"/>
<path d="M193.404 4.57065C193.404 5.62016 194.013 6.15346 195.053 6.15346C195.447 6.15346 195.833 6.06458 196.097 5.87314L195.751 4.97063C195.611 5.07661 195.423 5.13472 195.234 5.13472C194.889 5.13472 194.684 4.92961 194.684 4.55356V2.75538H195.785V1.77083H194.684V0.697392H193.404V1.77083H192.723V2.75538H193.404V4.57065Z" fill="#001A70"/>
<path d="M198.783 6.15346C200.186 6.15346 201.206 5.20993 201.206 3.8801C201.206 2.55027 200.186 1.60674 198.783 1.60674C197.38 1.60674 196.354 2.55027 196.354 3.8801C196.354 5.20993 197.38 6.15346 198.783 6.15346ZM198.783 2.65966C199.423 2.65966 199.909 3.11775 199.909 3.88352C199.909 4.64928 199.423 5.10737 198.783 5.10737C198.143 5.10737 197.651 4.64928 197.651 3.88352C197.651 3.11775 198.143 2.65966 198.783 2.65966Z" fill="#001A70"/>
<path d="M203.342 4.00317C203.342 3.15878 203.811 2.77248 204.516 2.77248C204.615 2.77248 204.697 2.77931 204.803 2.78957V1.60674C204.122 1.60674 203.595 1.82895 203.284 2.25627V1.67511H202.058V6.08851H203.338V4.00317H203.342Z" fill="#001A70"/>
<path d="M205.019 248.443C205.019 246.726 203.68 245.472 201.874 245.472C200.067 245.472 198.729 246.737 198.729 248.443C198.729 250.148 200.06 251.413 201.874 251.413C203.687 251.413 205.019 250.159 205.019 248.443ZM200.073 248.443C200.073 247.352 200.847 246.603 201.874 246.603C202.9 246.603 203.674 247.349 203.674 248.443C203.674 249.537 202.9 250.282 201.874 250.282C200.847 250.282 200.073 249.537 200.073 248.443Z" fill="#001A70"/>
<path d="M205.929 251.314H207.154V250.805C207.476 251.191 207.951 251.379 208.543 251.379C209.782 251.379 210.744 250.494 210.744 249.106C210.744 247.718 209.782 246.832 208.543 246.832C207.992 246.832 207.541 247.003 207.212 247.366V245.226H205.929V251.314ZM208.321 247.882C208.961 247.882 209.447 248.34 209.447 249.106C209.447 249.872 208.961 250.33 208.321 250.33C207.681 250.33 207.195 249.872 207.195 249.106C207.195 248.34 207.681 247.882 208.321 247.882Z" fill="#001A70"/>
<path d="M212.294 246.282C212.77 246.282 213.092 245.971 213.092 245.544C213.092 245.15 212.77 244.853 212.294 244.853C211.818 244.853 211.497 245.164 211.497 245.568C211.497 245.971 211.818 246.282 212.294 246.282Z" fill="#001A70"/>
<path d="M210.241 252.726C210.487 252.897 210.874 252.972 211.268 252.972C212.335 252.972 212.934 252.323 212.934 251.307V246.901H211.651V251.314C211.651 251.748 211.445 251.953 211.124 251.953C210.912 251.953 210.72 251.895 210.583 251.796L210.237 252.723L210.241 252.726Z" fill="#001A70"/>
<path d="M218.447 249.123C218.447 247.704 217.445 246.832 216.148 246.832C214.851 246.832 213.79 247.783 213.79 249.106C213.79 250.429 214.782 251.379 216.312 251.379C217.109 251.379 217.725 251.133 218.136 250.665L217.455 249.926C217.15 250.213 216.815 250.354 216.346 250.354C215.672 250.354 215.203 250.019 215.08 249.468H218.423C218.43 249.362 218.447 249.222 218.447 249.123ZM215.063 248.719C215.152 248.152 215.573 247.8 216.154 247.8C216.736 247.8 217.147 248.162 217.239 248.719H215.063Z" fill="#001A70"/>
<path d="M219.457 249.796C219.457 250.846 220.066 251.379 221.11 251.379C221.503 251.379 221.89 251.29 222.154 251.099L221.808 250.196C221.668 250.302 221.479 250.36 221.291 250.36C220.946 250.36 220.74 250.155 220.74 249.779V247.981H221.842V246.997H220.74V245.923H219.457V246.997H218.776V247.981H219.457V249.796Z" fill="#001A70"/>
<path d="M224.152 246.897H222.872V251.311H224.152V246.897Z" fill="#001A70"/>
<path d="M223.516 246.282C223.991 246.282 224.313 245.971 224.313 245.544C224.313 245.15 223.991 244.853 223.516 244.853C223.04 244.853 222.718 245.164 222.718 245.568C222.718 245.971 223.04 246.282 223.516 246.282Z" fill="#001A70"/>
<path d="M227.869 251.314L229.734 246.897H228.502L227.236 249.902L226.01 246.897H224.689L226.544 251.314H227.869Z" fill="#001A70"/>
<path d="M229.806 249.106C229.806 250.436 230.832 251.379 232.235 251.379C233.638 251.379 234.658 250.436 234.658 249.106C234.658 247.776 233.638 246.832 232.235 246.832C230.832 246.832 229.806 247.776 229.806 249.106ZM233.361 249.106C233.361 249.868 232.875 250.33 232.235 250.33C231.595 250.33 231.103 249.872 231.103 249.106C231.103 248.34 231.595 247.882 232.235 247.882C232.875 247.882 233.361 248.34 233.361 249.106Z" fill="#001A70"/>
<path d="M137.512 185.889V191.632H138.121V190.121L139.295 188.932L141.643 191.632H142.368L139.706 188.491L142.194 185.889H141.496L138.121 189.359V185.889H137.512Z" fill="#001A70"/>
<path d="M145.66 185.838C143.919 185.838 142.639 187.086 142.639 188.757C142.639 190.429 143.919 191.677 145.66 191.677C147.402 191.677 148.675 190.439 148.675 188.757C148.675 187.076 147.385 185.838 145.66 185.838ZM145.66 191.14C144.271 191.14 143.238 190.132 143.238 188.761C143.238 187.39 144.271 186.382 145.66 186.382C147.05 186.382 148.066 187.39 148.066 188.761C148.066 190.132 147.04 191.14 145.66 191.14Z" fill="#001A70"/>
<path d="M152.19 185.889H150.037V191.632H150.647V189.821H152.19C153.651 189.821 154.538 189.082 154.538 187.858C154.538 186.635 153.651 185.889 152.19 185.889ZM152.173 189.284H150.647V186.412H152.173C153.323 186.412 153.932 186.939 153.932 187.855C153.932 188.771 153.323 189.284 152.173 189.284Z" fill="#001A70"/>
<path d="M290.047 279.641H206.103V278.28L203.15 279.983L206.103 281.688V280.324H290.047V281.688L293 279.983L290.047 278.28V279.641Z" fill="#001A70"/>
<path d="M217.777 285.411H215.436V291.154H217.777C219.618 291.154 220.857 289.972 220.857 288.283C220.857 286.594 219.618 285.411 217.777 285.411ZM217.746 290.628H216.045V285.934H217.746C219.272 285.934 220.258 286.902 220.258 288.279C220.258 289.657 219.272 290.625 217.746 290.625V290.628Z" fill="#001A70"/>
<path d="M222.831 285.411H222.222V291.154H222.831V285.411Z" fill="#001A70"/>
<path d="M226.288 290.686C225.531 290.686 224.802 290.392 224.392 289.989L224.152 290.457C224.58 290.901 225.425 291.202 226.288 291.202C227.759 291.202 228.43 290.481 228.43 289.637C228.43 287.544 224.888 288.495 224.888 286.922C224.888 286.348 225.357 285.88 226.407 285.88C226.917 285.88 227.492 286.037 227.985 286.355L228.19 285.869C227.732 285.548 227.058 285.36 226.407 285.36C224.946 285.36 224.289 286.092 224.289 286.936C224.289 289.062 227.828 288.091 227.828 289.667C227.828 290.235 227.359 290.686 226.284 290.686H226.288Z" fill="#001A70"/>
<path d="M228.765 285.938H230.788V291.154H231.393V285.938H233.416V285.411H228.765V285.938Z" fill="#001A70"/>
<path d="M233.81 291.154L234.501 289.62H237.704L238.395 291.154H239.035L236.407 285.411H235.808L233.18 291.154H233.813H233.81ZM236.102 286.044L237.482 289.127H234.723L236.102 286.044Z" fill="#001A70"/>
<path d="M244.193 290.071L240.486 285.411H239.987V291.154H240.592V286.495L244.288 291.154H244.791V285.411H244.193V290.071Z" fill="#001A70"/>
<path d="M249.186 285.904C249.843 285.904 250.418 286.109 250.886 286.584L251.273 286.198C250.763 285.64 250.007 285.36 249.172 285.36C247.44 285.36 246.157 286.597 246.157 288.279C246.157 289.961 247.44 291.199 249.165 291.199C250.01 291.199 250.767 290.912 251.276 290.355L250.89 289.968C250.421 290.454 249.846 290.659 249.189 290.659C247.8 290.659 246.759 289.64 246.759 288.279C246.759 286.919 247.803 285.9 249.189 285.9L249.186 285.904Z" fill="#001A70"/>
<path d="M253.176 285.411H252.567V291.154H253.176V285.411Z" fill="#001A70"/>
<path d="M256.755 285.411L254.127 291.154H254.76L255.452 289.62H258.655L259.346 291.154H259.986L257.358 285.411H256.755ZM255.674 289.127L257.053 286.044L258.432 289.127H255.674Z" fill="#001A70"/>
<path d="M216.045 298.34H219.019V297.824H216.045V295.78H219.378V295.257H215.436V301H219.501V300.474H216.045V298.34Z" fill="#001A70"/>
<path d="M225.014 295.257H224.357L222.633 297.602L220.898 295.257H220.199L222.246 298.046L220.059 301H220.757L222.605 298.474L224.464 301H225.169L222.978 298.029L225.014 295.257Z" fill="#001A70"/>
<path d="M225.097 295.78H227.116V301H227.725V295.78H229.744V295.257H225.097V295.78Z" fill="#001A70"/>
<path d="M235.213 297.226C235.213 295.995 234.326 295.257 232.865 295.257H230.712V301H231.322V299.178H232.865C233.029 299.178 233.176 299.171 233.324 299.154L234.638 301H235.302L233.899 299.031C234.737 298.761 235.213 298.128 235.213 297.226ZM232.848 298.662H231.322V295.783H232.848C233.998 295.783 234.607 296.31 234.607 297.226C234.607 298.142 233.998 298.662 232.848 298.662Z" fill="#001A70"/>
<path d="M238.361 295.257L235.733 301H236.366L237.057 299.465H240.26L240.952 301H241.592L238.963 295.257H238.361ZM237.276 298.973L238.655 295.889L240.035 298.973H237.276Z" fill="#001A70"/>
<path d="M197.428 213.351C197.428 212.414 196.689 211.874 195.409 211.874H192.928V217.617H195.573C197.011 217.617 197.733 217.06 197.733 216.082C197.733 215.303 197.288 214.817 196.549 214.653C197.076 214.441 197.428 214.004 197.428 213.347V213.351ZM197.124 216.034C197.124 216.79 196.573 217.118 195.563 217.118H193.534V214.961H195.563C196.573 214.961 197.124 215.289 197.124 216.034ZM195.368 214.458H193.537V212.373H195.368C196.289 212.373 196.822 212.725 196.822 213.416C196.822 214.106 196.289 214.458 195.368 214.458Z" fill="#001A70"/>
<path d="M199.071 211.874V215.163C199.071 216.814 199.967 217.665 201.436 217.665C202.904 217.665 203.793 216.81 203.793 215.163V211.874H203.201V215.139C203.201 216.499 202.561 217.125 201.436 217.125C200.31 217.125 199.677 216.503 199.677 215.139V211.874H199.067H199.071Z" fill="#001A70"/>
<path d="M210.124 213.843C210.124 212.612 209.238 211.874 207.777 211.874H205.624V217.617H206.233V215.795H207.777C207.941 215.795 208.088 215.788 208.235 215.771L209.55 217.617H210.213L208.81 215.648C209.649 215.378 210.124 214.746 210.124 213.843ZM207.76 215.279H206.233V212.4H207.76C208.91 212.4 209.519 212.927 209.519 213.843C209.519 214.759 208.91 215.279 207.76 215.279Z" fill="#001A70"/>
<path d="M205.439 66.7446H205.997C205.347 65.6198 205.06 64.3652 205.06 62.9055C205.06 61.4457 205.347 60.1911 205.997 59.0664H205.439C204.83 60.0441 204.488 61.3979 204.488 62.9055C204.488 64.4131 204.834 65.7532 205.439 66.7446Z" fill="#001A70"/>
<path d="M208.978 65.1959C209.659 65.1959 210.258 64.9498 210.645 64.4917L210.316 64.1157C209.988 64.4917 209.519 64.6831 208.995 64.6831C208.051 64.6831 207.359 64.0849 207.294 63.1824H210.908C210.908 63.1174 210.915 63.0525 210.915 63.0012C210.915 61.7055 210.036 60.8099 208.821 60.8099C207.606 60.8099 206.709 61.7192 206.709 63.0012C206.709 64.2832 207.63 65.1993 208.975 65.1993L208.978 65.1959ZM208.821 61.3056C209.666 61.3056 210.282 61.897 210.357 62.7414H207.294C207.37 61.897 207.986 61.3056 208.821 61.3056Z" fill="#001A70"/>
<path d="M214.334 58.2459H213.8L211.09 65.9754H211.623L214.334 58.2459Z" fill="#001A70"/>
<path d="M215.491 65.1549H216.041L217.404 61.6167L218.769 65.1549H219.32L220.952 60.8372H220.418L219.046 64.5054L217.667 60.8372H217.167L215.778 64.5054L214.423 60.8372H213.865L215.491 65.1549Z" fill="#001A70"/>
<path d="M222.191 67.6129C221.835 67.6129 221.496 67.4898 221.295 67.3291L221.141 67.5958C221.346 67.7735 221.75 67.9069 222.164 67.9069C222.821 67.9069 223.204 67.6231 223.204 67.189C223.204 66.2215 221.572 66.7343 221.572 66.054C221.572 65.8147 221.774 65.6369 222.229 65.6369C222.489 65.6369 222.752 65.6985 222.971 65.8523L223.119 65.5788C222.906 65.4352 222.554 65.3429 222.229 65.3429C221.585 65.3429 221.233 65.6506 221.233 66.0608C221.233 67.0556 222.865 66.5394 222.865 67.1958C222.865 67.4454 222.67 67.606 222.191 67.606V67.6129Z" fill="#001A70"/>
<path d="M224.874 67.9103C225.278 67.9103 225.603 67.7325 225.778 67.4283V67.8864H226.103V65.3703H225.764V66.6898C225.764 67.2642 225.432 67.6026 224.908 67.6026C224.429 67.6026 224.152 67.3291 224.152 66.7958V65.3703H223.813V66.83C223.813 67.5513 224.234 67.9103 224.878 67.9103H224.874Z" fill="#001A70"/>
<path d="M227.396 67.4146C227.609 67.7394 227.951 67.9137 228.355 67.9137C229.073 67.9137 229.611 67.3975 229.611 66.6317C229.611 65.866 229.073 65.3532 228.355 65.3532C227.937 65.3532 227.588 65.5344 227.383 65.8694V65.3703H227.058V68.8128H227.396V67.4112V67.4146ZM228.331 65.6472C228.861 65.6472 229.268 66.0437 229.268 66.6283C229.268 67.2129 228.861 67.6095 228.331 67.6095C227.8 67.6095 227.393 67.2163 227.393 66.6283C227.393 66.0403 227.797 65.6472 228.331 65.6472Z" fill="#001A70"/>
<path d="M230.569 65.1617L230.288 66.3514H230.682L231.027 65.2199C231.109 64.9908 231.144 64.8848 231.144 64.7447C231.144 64.4985 230.962 64.3003 230.709 64.3003C230.456 64.3003 230.274 64.4883 230.274 64.7447C230.274 64.9566 230.398 65.1139 230.569 65.1617Z" fill="#001A70"/>
<path d="M235.117 62.8884C235.117 61.9038 235.699 61.3295 236.629 61.3295C237.451 61.3295 237.926 61.7978 237.926 62.7072V65.1515H238.508V62.6491C238.508 61.4115 237.786 60.803 236.736 60.803C235.99 60.803 235.404 61.1073 235.093 61.6303V60.8338H234.535V65.1481H235.117V62.885V62.8884Z" fill="#001A70"/>
<path d="M242.321 58.2459H241.787L239.076 65.9754H239.61L242.321 58.2459Z" fill="#001A70"/>
<path d="M241.845 62.0372C241.845 63.743 244.644 62.8576 244.644 63.9823C244.644 64.4097 244.309 64.6866 243.488 64.6866C242.878 64.6866 242.297 64.4746 241.951 64.2011L241.687 64.6592C242.04 64.9635 242.731 65.1925 243.446 65.1925C244.572 65.1925 245.229 64.7071 245.229 63.9618C245.229 62.3038 242.43 63.1824 242.43 62.0166C242.43 61.6064 242.776 61.3022 243.556 61.3022C244.001 61.3022 244.453 61.4081 244.829 61.6714L245.082 61.203C244.72 60.9569 244.114 60.7996 243.556 60.7996C242.454 60.7996 241.848 61.3261 241.848 62.0303L241.845 62.0372Z" fill="#001A70"/>
<path d="M246.663 67.6129C246.307 67.6129 245.969 67.4898 245.767 67.3291L245.613 67.5958C245.818 67.7735 246.222 67.9069 246.636 67.9069C247.293 67.9069 247.676 67.6231 247.676 67.189C247.676 66.2215 246.044 66.7343 246.044 66.054C246.044 65.8147 246.246 65.6369 246.701 65.6369C246.961 65.6369 247.225 65.6985 247.444 65.8523L247.591 65.5788C247.379 65.4352 247.026 65.3429 246.701 65.3429C246.058 65.3429 245.705 65.6506 245.705 66.0608C245.705 67.0556 247.338 66.5394 247.338 67.1958C247.338 67.4454 247.142 67.606 246.663 67.606V67.6129Z" fill="#001A70"/>
<path d="M249.346 67.9103C249.75 67.9103 250.075 67.7325 250.25 67.4283V67.8864H250.575V65.3703H250.236V66.6898C250.236 67.2642 249.904 67.6026 249.381 67.6026C248.901 67.6026 248.624 67.3291 248.624 66.7958V65.3703H248.285V66.83C248.285 67.5513 248.706 67.9103 249.35 67.9103H249.346Z" fill="#001A70"/>
<path d="M251.869 67.4146C252.081 67.7394 252.423 67.9137 252.827 67.9137C253.545 67.9137 254.083 67.3975 254.083 66.6317C254.083 65.866 253.545 65.3532 252.827 65.3532C252.409 65.3532 252.06 65.5344 251.855 65.8694V65.3703H251.53V68.8128H251.869V67.4112V67.4146ZM252.803 65.6472C253.333 65.6472 253.74 66.0437 253.74 66.6283C253.74 67.2129 253.333 67.6095 252.803 67.6095C252.272 67.6095 251.865 67.2163 251.865 66.6283C251.865 66.0403 252.269 65.6472 252.803 65.6472Z" fill="#001A70"/>
<path d="M255.188 66.7446C255.804 65.7532 256.15 64.4131 256.15 62.9055C256.15 61.3979 255.804 60.0407 255.188 59.0664H254.63C255.287 60.1911 255.575 61.4457 255.575 62.9055C255.575 64.3652 255.287 65.6198 254.63 66.7446H255.188Z" fill="#001A70"/>
<path d="M199.899 256.422C199.29 257.399 198.948 258.753 198.948 260.261C198.948 261.768 199.293 263.108 199.899 264.1H200.457C199.807 262.975 199.519 261.72 199.519 260.261C199.519 258.801 199.807 257.546 200.457 256.422H199.899Z" fill="#001A70"/>
<path d="M205.378 260.35C205.378 259.054 204.498 258.158 203.284 258.158C202.069 258.158 201.172 259.068 201.172 260.35C201.172 261.632 202.093 262.548 203.438 262.548C204.119 262.548 204.721 262.302 205.104 261.843L204.776 261.467C204.447 261.843 203.978 262.035 203.455 262.035C202.51 262.035 201.819 261.437 201.754 260.534H205.368C205.368 260.469 205.374 260.404 205.374 260.353L205.378 260.35ZM201.754 260.097C201.829 259.252 202.445 258.661 203.28 258.661C204.115 258.661 204.741 259.252 204.817 260.097H201.754Z" fill="#001A70"/>
<path d="M208.793 255.601H208.259L205.549 263.331H206.083L208.793 255.601Z" fill="#001A70"/>
<path d="M210.501 262.51L211.866 258.972L213.228 262.51H213.779L215.415 258.192H214.881L213.509 261.861L212.13 258.192H211.627L210.241 261.861L208.882 258.192H208.324L209.953 262.51H210.501Z" fill="#001A70"/>
<path d="M216.983 262.705C216.247 262.705 215.699 263.235 215.699 263.984C215.699 264.732 216.247 265.265 216.983 265.265C217.718 265.265 218.262 264.729 218.262 263.984C218.262 263.238 217.722 262.705 216.983 262.705ZM216.983 264.965C216.445 264.965 216.045 264.572 216.045 263.984C216.045 263.396 216.449 263.002 216.983 263.002C217.516 263.002 217.917 263.396 217.917 263.984C217.917 264.572 217.52 264.965 216.983 264.965Z" fill="#001A70"/>
<path d="M219.282 264.742C219.488 265.081 219.837 265.262 220.254 265.262C220.973 265.262 221.51 264.742 221.51 263.98C221.51 263.218 220.973 262.702 220.254 262.702C219.85 262.702 219.508 262.872 219.296 263.201V261.69H218.957V265.238H219.282V264.739V264.742ZM220.23 263.002C220.761 263.002 221.168 263.396 221.168 263.984C221.168 264.572 220.761 264.965 220.23 264.965C219.7 264.965 219.293 264.572 219.293 263.984C219.293 263.396 219.693 263.002 220.23 263.002Z" fill="#001A70"/>
<path d="M222.568 262.722H222.229V265.426C222.229 265.737 222.082 265.901 221.811 265.901C221.654 265.901 221.52 265.857 221.418 265.771L221.298 266.031C221.421 266.141 221.627 266.195 221.828 266.195C222.308 266.195 222.568 265.895 222.568 265.43V262.722Z" fill="#001A70"/>
<path d="M222.646 261.926C222.646 261.796 222.537 261.69 222.397 261.69C222.256 261.69 222.147 261.799 222.147 261.929C222.147 262.059 222.256 262.172 222.397 262.172C222.537 262.172 222.646 262.062 222.646 261.922V261.926Z" fill="#001A70"/>
<path d="M223.895 263.707L224.241 262.575C224.323 262.346 224.357 262.24 224.357 262.1C224.357 261.854 224.176 261.655 223.923 261.655C223.67 261.655 223.488 261.843 223.488 262.1C223.488 262.312 223.611 262.469 223.783 262.517L223.502 263.707H223.895Z" fill="#001A70"/>
<path d="M231.722 262.51V260.008C231.722 258.77 231 258.162 229.949 258.162C229.203 258.162 228.618 258.466 228.307 258.989V258.192H227.749V262.507H228.334V260.244C228.334 259.259 228.916 258.685 229.847 258.685C230.668 258.685 231.144 259.153 231.144 260.062V262.507H231.725L231.722 262.51Z" fill="#001A70"/>
<path d="M232.287 263.331H232.821L235.531 255.601H234.997L232.287 263.331Z" fill="#001A70"/>
<path d="M235.64 259.375C235.64 258.965 235.986 258.661 236.766 258.661C237.211 258.661 237.663 258.767 238.039 259.03L238.293 258.562C237.93 258.315 237.324 258.158 236.766 258.158C235.664 258.158 235.059 258.685 235.059 259.389C235.059 261.095 237.858 260.209 237.858 261.334C237.858 261.761 237.523 262.038 236.701 262.038C236.092 262.038 235.51 261.826 235.165 261.553L234.901 262.011C235.254 262.315 235.945 262.544 236.66 262.544C237.786 262.544 238.443 262.059 238.443 261.314C238.443 259.656 235.644 260.534 235.644 259.368L235.64 259.375Z" fill="#001A70"/>
<path d="M240.206 262.705C239.47 262.705 238.922 263.235 238.922 263.984C238.922 264.732 239.47 265.265 240.206 265.265C240.941 265.265 241.486 264.729 241.486 263.984C241.486 263.238 240.945 262.705 240.206 262.705ZM240.206 264.965C239.668 264.965 239.268 264.572 239.268 263.984C239.268 263.396 239.672 263.002 240.206 263.002C240.74 263.002 241.14 263.396 241.14 263.984C241.14 264.572 240.743 264.965 240.206 264.965Z" fill="#001A70"/>
<path d="M243.477 262.705C243.077 262.705 242.731 262.876 242.519 263.204V261.693H242.18V265.242H242.505V264.742C242.711 265.081 243.06 265.262 243.477 265.262C244.196 265.262 244.733 264.742 244.733 263.98C244.733 263.218 244.196 262.702 243.477 262.702V262.705ZM243.453 264.965C242.916 264.965 242.516 264.572 242.516 263.984C242.516 263.396 242.919 263.002 243.453 263.002C243.987 263.002 244.391 263.396 244.391 263.984C244.391 264.572 243.984 264.965 243.453 264.965Z" fill="#001A70"/>
<path d="M245.623 261.693C245.483 261.693 245.373 261.802 245.373 261.932C245.373 262.062 245.483 262.175 245.623 262.175C245.763 262.175 245.873 262.066 245.873 261.926C245.873 261.796 245.763 261.69 245.623 261.69V261.693Z" fill="#001A70"/>
<path d="M245.448 265.426C245.448 265.737 245.301 265.901 245.031 265.901C244.874 265.901 244.74 265.857 244.637 265.771L244.518 266.031C244.641 266.141 244.846 266.195 245.048 266.195C245.527 266.195 245.787 265.895 245.787 265.43V262.725H245.448V265.43V265.426Z" fill="#001A70"/>
<path d="M247.149 256.422H246.591C247.249 257.546 247.536 258.801 247.536 260.261C247.536 261.72 247.249 262.975 246.591 264.1H247.149C247.765 263.108 248.111 261.768 248.111 260.261C248.111 258.753 247.765 257.396 247.149 256.422Z" fill="#001A70"/>
<path d="M66.2277 225.299H66.8266L69.3727 219.556H68.7567L66.5391 224.547L64.3386 219.556H63.6816L66.2277 225.299Z" fill="#001A70"/>
<path d="M70.2043 225.299H72.5451C74.3862 225.299 75.6251 224.116 75.6251 222.427C75.6251 220.738 74.3862 219.556 72.5451 219.556H70.2043V225.299ZM70.81 220.082H72.5109C74.0372 220.082 75.0228 221.049 75.0228 222.427C75.0228 223.805 74.0372 224.772 72.5109 224.772H70.81V220.079V220.082Z" fill="#001A70"/>
<path d="M61.6283 229.401L59 235.144H59.6331L60.3244 233.609H63.5276L64.2189 235.144H64.8588L62.2306 229.401H61.6283ZM60.5434 233.117L61.9226 230.033L63.3017 233.117H60.5434Z" fill="#001A70"/>
<path d="M69.6362 234.621H66.4159V229.401H65.8102V235.144H69.6362V234.621Z" fill="#001A70"/>
<path d="M78.3252 232.273C78.3252 230.591 77.035 229.353 75.3102 229.353C73.5854 229.353 72.2884 230.601 72.2884 232.273C72.2884 233.944 73.5683 235.192 75.3102 235.192C77.0521 235.192 78.3252 233.955 78.3252 232.273ZM72.8873 232.273C72.8873 230.902 73.9208 229.893 75.3102 229.893C76.6996 229.893 77.716 230.902 77.716 232.273C77.716 233.644 76.6894 234.652 75.3102 234.652C73.9311 234.652 72.8873 233.644 72.8873 232.273Z" fill="#001A70"/>
<path d="M79.6906 235.144H82.336C83.7733 235.144 84.4954 234.587 84.4954 233.609C84.4954 232.83 84.0505 232.344 83.3113 232.18C83.8384 231.968 84.1908 231.531 84.1908 230.874C84.1908 229.938 83.4516 229.398 82.1717 229.398H79.6906V235.144ZM83.8863 233.561C83.8863 234.317 83.3353 234.645 82.3257 234.645H80.2964V232.488H82.3257C83.3353 232.488 83.8863 232.816 83.8863 233.561ZM83.5817 230.943C83.5817 231.633 83.0478 231.986 82.1273 231.986H80.2964V229.9H82.1273C83.0478 229.9 83.5817 230.252 83.5817 230.943Z" fill="#001A70"/>
<path d="M85.4707 229.928H87.572V233.408C87.572 234.252 87.2092 234.673 86.5042 234.673C85.9943 234.673 85.5768 234.426 85.2654 233.968L84.9027 234.379C85.2551 234.905 85.8472 235.199 86.4974 235.199C87.5994 235.199 88.1743 234.601 88.1743 233.387V229.408H85.4707V229.934V229.928Z" fill="#001A70"/>
<path d="M93.9407 229.928V229.401H89.9983V235.144H94.0639V234.621H90.604V232.488H93.5779V231.968H90.604V229.928H93.9407Z" fill="#001A70"/>
<path d="M94.5875 229.928H96.61V235.144H97.2157V229.928H99.2383V229.401H94.5875V229.928Z" fill="#001A70"/>
<path d="M100.816 229.401H100.207V235.144H100.816V229.401Z" fill="#001A70"/>
<path d="M106.784 229.401L104.567 234.389L102.366 229.401H101.709L104.255 235.144H104.854L107.4 229.401H106.784Z" fill="#001A70"/>
<path d="M110.696 229.353C108.954 229.353 107.674 230.601 107.674 232.273C107.674 233.944 108.957 235.192 110.696 235.192C112.434 235.192 113.711 233.955 113.711 232.273C113.711 230.591 112.421 229.353 110.696 229.353ZM110.696 234.652C109.306 234.652 108.273 233.644 108.273 232.273C108.273 230.902 109.306 229.893 110.696 229.893C112.085 229.893 113.102 230.902 113.102 232.273C113.102 233.644 112.075 234.652 110.696 234.652Z" fill="#001A70"/>
<path d="M197.377 163.956V159.723H196.011V157.891H196.508V155.888H194.393V153.108H196.508V151.102H199.05V135.964H194.18L191.046 72.416H192.798V68.8128H190.868C190.125 53.877 189.379 38.9377 188.636 24.0019C186.939 24.0053 185.238 24.0122 183.537 24.0156V23.2259H188.291V21.6704H186.621V18.2997H184.824V10.96H177.675V18.2997H175.793V21.6704H174.345V23.2259H179.109V24.0156H174.236C174.034 24.0224 173.829 24.0293 173.627 24.0361C173.172 32.921 172.713 41.8025 172.258 50.6874H162.693V46.0587H162.351V50.6874H161.567V46.0587H161.225V50.6874H160.444V46.0587H160.102V50.6874H159.322V46.0587H158.98V50.6874H158.199V46.0587H157.857V50.6874H154.993V65.5207H148.74V66.1292H157.857V82.9316H157.669V85.9673H157.857V112.865H157.669V115.9H157.857V135.964H155.051V142.904C147.255 144.788 139.463 146.671 131.667 148.551V163.956H61.9465V165.89H178.955V166.694L179.297 166.246V165.89H179.568L180.406 164.793L179.766 163.956H179.195V163.214L179.109 163.101V163.956H173.729V160.472H172.713V157.891H179.109V162.26H179.195V157.891H183.452V162.26H183.537V157.891H190.046V159.723H189.383V163.956H183.537V162.434L183.452 162.547V163.956H182.37L181.734 164.786L182.583 165.89H183.404V166.954L183.746 167.398V165.89H284.978V163.956H197.377ZM157.857 64.837H155.677V51.3712H157.857V64.837ZM158.98 82.9316H158.795V85.9673H158.98V112.865H158.795V115.9H158.98V135.964H158.199V115.9H158.384V112.865H158.199V85.9673H158.384V82.9316H158.199V66.1292H158.98V82.9316ZM158.98 64.837H158.199V51.3712H158.98V64.837ZM160.102 82.9316H159.917V85.9673H160.102V112.865H159.917V115.9H160.102V135.964H159.322V115.9H159.507V112.865H159.322V85.9673H159.507V82.9316H159.322V66.1292H160.102V82.9316ZM160.102 64.837H159.322V51.3712H160.102V64.837ZM161.225 82.9316H161.04V85.9673H161.225V112.865H161.04V115.9H161.225V135.964H160.444V115.9H160.633V112.865H160.444V85.9673H160.633V82.9316H160.444V66.1292H161.225V82.9316ZM161.225 64.837H160.444V51.3712H161.225V64.837ZM162.351 82.9316H162.162V85.9673H162.351V112.865H162.162V115.9H162.351V135.964H161.567V115.9H161.755V112.865H161.567V85.9673H161.755V82.9316H161.567V66.1292H162.351V82.9316ZM162.351 64.837H161.567V51.3712H162.351V64.837ZM193.455 135.964H183.537V125.172H192.924L193.455 135.964ZM183.537 123.168V115.21L190.803 123.168H183.537ZM192.825 123.168H192.678L183.537 113.155V109.945L191.73 101.019L192.825 123.168ZM191.443 99.187V99.0195L191.528 99.1357L183.537 107.839V99.187H191.443ZM183.537 97.1803V88.2953L190.087 97.1803H183.537ZM191.624 98.8485L191.634 99.016L191.586 99.0707L191.624 98.8485ZM190.32 72.416L191.528 96.8999L183.537 86.0596V81.6872L190.159 72.416H190.32ZM188.537 72.416L183.537 79.4173V72.416H188.537ZM183.537 68.8128V62.5534L187.894 68.8128H183.537ZM188.975 45.1732H188.565L183.537 37.9498V32.8321L188.048 26.3539L188.975 45.1732ZM188.24 46.9475L183.537 53.7026V46.9475H188.24ZM183.537 45.1732V39.683L187.36 45.1732H183.537ZM187.387 25.5745L183.537 31.1023V25.5745H187.387ZM178.017 18.2997V11.3019H184.482V18.2997H183.537V15.0486C183.578 14.8845 183.599 14.7102 183.599 14.5358C183.599 13.2744 182.579 12.2556 181.32 12.2556C180.06 12.2556 179.037 13.2744 179.037 14.5358C179.037 14.7273 179.065 14.9153 179.109 15.0965V18.2997H178.017ZM179.195 54.3419V46.9475H183.452V53.7642H183.496L181.145 57.1417L179.195 54.3419ZM180.461 58.1297L179.195 59.945V56.3144L180.461 58.1297ZM181.32 16.8126C182.299 16.8126 183.13 16.1939 183.452 15.329V18.2997H179.195V15.3631C179.527 16.211 180.351 16.8126 181.32 16.8126ZM180.064 14.5358C180.064 13.8419 180.629 13.2812 181.32 13.2812C182.011 13.2812 182.572 13.8419 182.572 14.5358C182.572 15.2298 182.011 15.787 181.32 15.787C180.629 15.787 180.064 15.2264 180.064 14.5358ZM183.452 23.2259V24.0156H179.195V23.2259H183.452ZM183.452 25.5745V31.2254L181.156 34.5278L179.195 31.7108V25.5745H183.452ZM183.452 32.9552V37.8267L181.758 35.3927L183.452 32.9552ZM180.553 35.3927L179.195 37.3447V33.4406L180.553 35.3927ZM181.156 36.2576L183.452 39.5599V45.1732H179.195V39.0745L181.156 36.2576ZM179.109 25.5745V31.5878L174.927 25.5745H179.109ZM174.15 26.1898L179.109 33.3176V37.4677C177.353 40.0351 175.594 42.6059 173.839 45.1732H173.243L174.15 26.1898ZM174.951 45.1732L179.109 39.1976V45.1732H174.951ZM179.109 46.9475V54.2188L174.051 46.9475H179.109ZM172.244 66.1292H172.258V65.8455L173.127 47.5936L179.109 56.1914V60.0065H179.154L173.024 68.8128H172.118L172.244 66.1292ZM162.693 51.3712H171.888L171.087 64.837H162.693V51.3712ZM162.693 115.9H162.878V112.865H162.693V85.9673H162.878V82.9316H162.693V66.1292H171.519L171.392 68.8128H169.284V72.416H171.221L168.189 135.964H162.693V115.9ZM169.541 155.888H166.762V160.472H165.735V163.956H162.693V151.102H166.762V153.108H169.541V155.888ZM172.918 155.888H170.554V153.108H172.918V155.888ZM177.035 155.888H173.592V153.108H177.035V155.888ZM179.109 155.888H177.713V153.108H179.109V155.888ZM179.109 135.964H168.914L169.428 125.172H179.109V135.964ZM179.109 123.168H171.409L179.109 114.772V123.168ZM179.109 112.666L169.527 123.114L170.581 101.016L179.109 110.359V112.666ZM179.109 108.308L170.783 99.187H179.109V108.308ZM179.109 97.1803H172.477L179.109 87.8919V97.1803ZM179.109 85.622L170.858 97.1803H170.762L171.94 72.5562L179.109 82.2855V85.622ZM179.109 80.0497L173.486 72.416H179.109V80.0497ZM179.109 68.8128H174.397L179.109 62.0372V68.8128ZM180.991 155.888H179.195V153.108H180.991V155.888ZM183.452 155.888H181.669V153.108H183.452V155.888ZM183.452 135.964H179.195V125.172H183.452V135.964ZM183.452 123.168H179.195V114.68L181.132 112.571L183.452 115.118V123.168ZM179.195 112.574V110.455L180.167 111.518L179.195 112.574ZM183.452 113.063L182.069 111.549L183.452 110.041V113.063ZM183.452 107.935L181.108 110.492L179.195 108.4V99.187H183.452V107.935ZM183.452 97.1803H179.195V87.7723L181.142 85.0443L183.452 88.1791V97.1803ZM179.195 85.5023V82.4017L180.321 83.9264L179.195 85.5023ZM183.452 85.9433L181.953 83.9059L183.452 81.8069V85.9433ZM183.452 79.5369L181.132 82.7914L179.195 80.1659V72.416H183.452V79.5369ZM183.452 68.8128H179.195V61.9756H179.154L181.145 59.1143L183.452 62.4303V68.8128ZM183.452 60.4612L181.83 58.1297L183.452 55.7982V60.4612ZM183.496 55.7367L189.098 47.6825L190.142 68.8128H189.266L183.537 60.5842V55.7367H183.496ZM185.221 155.888H183.537V153.108H185.221V155.888ZM189.229 155.888H185.895V153.108H189.229V155.888ZM193.715 155.888H189.906V153.108H193.715V155.888Z" fill="#001A70"/>
</svg>
