<svg width="352" height="301" viewBox="0 0 352 301" fill="none" xmlns="http://www.w3.org/2000/svg">
<g clip-path="url(#clip0_2_185)">
<path d="M263.573 269.875C259.34 268.654 257.087 268.006 255.52 267.55C252.276 266.614 251.937 266.517 242.788 263.911C221.641 257.89 199.777 251.665 178.335 245.402C175.565 244.508 173.248 243.628 171.249 242.713C167.736 241.107 164.977 239.281 162.814 237.123C160.119 234.47 158.123 230.866 157.052 226.7C155.496 220.7 155.525 214.006 155.557 206.905C155.567 205.104 155.575 203.241 155.553 201.44L155.721 172.348H261.064V170.336H169.264V165.924H167.836V164.019H168.357V161.928H166.148V159.034H168.357V156.947H171.006V141.176H165.93L162.657 74.9835H164.488V71.234H162.471C161.704 55.6731 160.936 40.1122 160.165 24.5514C160.001 24.5585 159.837 24.5656 159.669 24.5727H154.829V23.7502H159.787V22.1265H158.045V18.619H156.167V10.9703H148.714V18.619H146.747V22.1265H145.241V23.7502H150.209V24.5727H145.123C144.866 24.5692 144.609 24.5656 144.352 24.5621C143.923 33.8238 143.491 43.0891 143.06 52.3508H133.082V47.533H132.726V52.3508H131.912V47.533H131.555V52.3508H130.741V47.533H130.384V52.3508H129.57V47.533H129.213V52.3508H128.396V47.533H128.039V52.3508H125.051V67.8013H118.533V68.4387H128.039V85.9402H127.846V89.0987H128.039V117.115H127.846V120.277H128.039V141.176H125.111V148.404C116.983 150.366 108.852 152.328 100.72 154.29V170.336H28V172.348H149.399V201.472C149.417 203.248 149.41 205.079 149.403 206.845V206.891C149.367 214.059 149.335 221.469 151.091 228.235C152.441 233.476 154.993 238.059 158.477 241.481C161.154 244.152 164.492 246.381 168.682 248.297C170.91 249.315 173.458 250.284 176.482 251.259L176.56 251.281C198.092 257.573 219.956 263.801 241.103 269.818C250.223 272.414 250.562 272.514 253.796 273.45C255.335 273.892 257.534 274.529 261.632 275.708L262.138 277.35L262.506 275.961C262.538 275.968 262.567 275.979 262.599 275.986L262.799 275.302C258.066 273.942 255.652 273.244 253.996 272.763C250.759 271.83 250.419 271.73 241.299 269.135C220.153 263.113 198.289 256.889 176.764 250.6L176.7 250.579C173.705 249.618 171.181 248.656 168.979 247.649C164.87 245.772 161.6 243.589 158.98 240.976C155.589 237.643 153.097 233.174 151.78 228.057C150.049 221.38 150.081 214.016 150.113 206.895V206.848C150.124 205.079 150.131 203.248 150.113 201.468V173.989H149.717L150.113 173.476V172.348H150.977L151.823 171.24L151.127 170.336H150.299V169.257L150.209 169.139V170.336H144.598V166.707H143.538V164.019H150.209V168.602H150.299V164.019H154.739V168.602H154.829V164.019H161.618V165.924H160.925V170.336H154.829V169.125L154.739 169.242V170.336H153.9L153.208 171.233L154.068 172.348H155.007L155 173.558L155.332 173.989H155L154.839 201.44C154.861 203.245 154.854 205.104 154.843 206.916C154.811 214.052 154.782 220.789 156.36 226.878C157.467 231.169 159.523 234.887 162.314 237.628C164.534 239.843 167.358 241.72 170.953 243.361C172.973 244.287 175.318 245.177 178.124 246.082C199.577 252.349 221.445 258.577 242.595 264.598C251.74 267.201 252.079 267.297 255.321 268.237C256.98 268.714 259.397 269.412 264.109 270.769L264.145 270.648L264.17 270.655L264.705 268.882L263.573 269.875ZM128.039 67.0891H125.765V53.063H128.039V67.0891ZM129.213 85.9402H129.017V89.0987H129.213V117.115H129.017V120.277H129.213V141.176H128.396V120.277H128.592V117.115H128.396V89.0987H128.592V85.9402H128.396V68.4387H129.213V85.9402ZM129.213 67.0891H128.396V53.063H129.213V67.0891ZM130.384 85.9402H130.188V89.0987H130.384V117.115H130.188V120.277H130.384V141.176H129.57V120.277H129.763V117.115H129.57V89.0987H129.763V85.9402H129.57V68.4387H130.384V85.9402ZM130.384 67.0891H129.57V53.063H130.384V67.0891ZM131.555 85.9402H131.362V89.0987H131.555V117.115H131.362V120.277H131.555V141.176H130.741V120.277H130.934V117.115H130.741V89.0987H130.934V85.9402H130.741V68.4387H131.555V85.9402ZM131.555 67.0891H130.741V53.063H131.555V67.0891ZM132.726 85.9402H132.533V89.0987H132.726V117.115H132.533V120.277H132.726V141.176H131.912V120.277H132.104V117.115H131.912V89.0987H132.104V85.9402H131.912V68.4387H132.726V85.9402ZM132.726 67.0891H131.912V53.063H132.726V67.0891ZM133.082 53.063H142.678L141.842 67.0891H133.082V53.063ZM133.082 120.277H133.279V117.115H133.082V89.0987H133.279V85.9402H133.082V68.4387H142.292L142.156 71.234H139.958V74.9835H141.978L138.819 141.176H133.082V120.277ZM140.225 161.928H137.33V166.707H136.259V170.336H133.082V156.947H137.33V159.034H140.225V161.928ZM143.748 161.928H141.285V159.034H143.748V161.928ZM148.046 161.928H144.455V159.034H148.046V161.928ZM150.209 161.928H148.75V159.034H150.209V161.928ZM150.209 141.176H139.572L140.111 129.938H150.209V141.176ZM150.209 127.848H142.178L150.209 119.102V127.848ZM150.209 116.909L140.211 127.791L141.31 104.777L150.209 114.509V116.909ZM150.209 112.369L141.525 102.868H150.209V112.369ZM150.209 100.782H143.288L150.209 91.0999V100.782ZM150.209 88.7355L141.6 100.782H141.503L142.728 75.126L150.209 85.2672V88.7355ZM150.209 82.9384L144.341 74.9835H150.209V82.9384ZM150.209 71.234H145.291L150.209 64.1728V71.234ZM150.209 62.1218L143.859 71.234H142.913L143.049 68.4387H143.06V68.1716L143.97 49.1318L150.209 58.0874V62.1218ZM150.209 56.0327L144.93 48.4553H150.209V56.0327ZM150.209 46.6072H145.872L150.209 40.3829V46.6072ZM150.209 38.5811C148.378 41.2553 146.543 43.933 144.712 46.6072H144.091L145.034 26.8339L150.209 34.2618V38.5811ZM150.209 32.46L145.844 26.1965H150.209V32.46ZM165.173 141.176H154.829V129.938H164.616L165.173 141.176ZM154.829 127.848V119.558L162.407 127.848H154.829ZM164.513 127.848H164.363L154.829 117.418V114.078L163.374 104.777L164.513 127.848ZM163.071 102.868C160.322 105.874 157.577 108.879 154.829 111.884V102.868H163.071ZM154.829 100.782V91.5236L161.657 100.782H154.829ZM161.9 74.9835L163.16 100.49L154.829 89.1948V84.6405L161.732 74.9835H161.9ZM160.04 74.9835L154.829 82.2761V74.9835H160.04ZM154.829 71.234V64.7105L159.373 71.234H154.829ZM161.714 71.234H160.804L154.829 62.6595V57.5497L160.626 49.2244L161.714 71.234ZM159.733 48.4553L154.829 55.4951V48.4553H159.733ZM154.829 46.6072V40.8885L158.812 46.6072H154.829ZM160.497 46.6072H160.069L154.829 39.0867V33.7561L159.53 27.0119L160.497 46.6072ZM158.841 26.1965L154.829 31.9544V26.1965H158.841ZM152.173 161.928H150.299V159.034H152.173V161.928ZM154.739 161.928H152.876V159.034H154.739V161.928ZM154.739 141.176H150.299V129.938H154.739V141.176ZM154.739 127.848H150.299V119.006L152.316 116.813L154.739 119.462V127.848ZM150.299 116.813V114.605L151.313 115.712L150.299 116.813ZM154.739 117.322L153.297 115.744L154.739 114.174V117.322ZM154.739 111.981L152.291 114.644L150.299 112.468V102.868H154.739V111.981ZM154.739 100.782H150.299V90.9753L152.33 88.1373L154.739 91.4025V100.782ZM150.299 88.6108V85.3883L151.47 86.9729L150.299 88.6108ZM154.739 89.0738L153.176 86.9551L154.739 84.7652V89.0738ZM154.739 82.4008L152.316 85.7907L150.299 83.0595V74.9835H154.739V82.4008ZM154.739 71.234H150.299V64.0446L152.333 61.1319L154.739 64.5823V71.234ZM150.299 61.9936V58.2155L151.616 60.1028L150.299 61.9936ZM154.739 62.5313L153.047 60.1028L154.739 57.6779V62.5313ZM154.739 55.6232L152.333 59.0773L150.299 56.1609V48.4553H154.739V55.6232ZM154.739 46.6072H150.299V40.2547L152.344 37.3241L154.739 40.7603V46.6072ZM150.299 38.4529V34.39L151.716 36.4197L150.299 38.4529ZM154.739 38.9585L152.972 36.4197L154.739 33.8843V38.9585ZM154.739 32.0826L152.344 35.5188L150.299 32.5882V26.1965H154.739V32.0826ZM154.739 24.5727H150.299V23.7502H154.739V24.5727ZM154.739 18.619H150.299V15.5603C150.649 16.4434 151.505 17.0665 152.512 17.0665C153.519 17.0665 154.4 16.4255 154.739 15.5282V18.619ZM151.205 14.695C151.205 13.9757 151.791 13.3882 152.512 13.3882C153.233 13.3882 153.822 13.9757 153.822 14.695C153.822 15.4143 153.233 15.9982 152.512 15.9982C151.791 15.9982 151.205 15.4143 151.205 14.695ZM152.512 12.3199C151.198 12.3199 150.135 13.3846 150.135 14.695C150.135 14.8979 150.163 15.0938 150.209 15.2825V18.619H149.071V11.3264H155.81V18.619H154.829V15.2362C154.868 15.0617 154.893 14.8801 154.893 14.695C154.893 13.3846 153.826 12.3199 152.512 12.3199ZM156.581 161.928H154.829V159.034H156.581V161.928ZM160.765 161.928H157.288V159.034H160.765V161.928ZM161.468 161.928V159.034H165.445V161.928H161.468Z" fill="#001A70"/>
<path d="M289.435 281.968C289.428 281.989 289.435 282.018 289.446 282.036L290.174 282.972C290.174 282.972 290.196 282.993 290.21 282.997L293.266 283.93C293.305 283.941 293.348 283.919 293.358 283.88L293.458 283.56L293.78 283.549C293.844 283.549 293.869 283.467 293.815 283.428L293.49 283.193L293.865 283.05C293.926 283.029 293.922 282.944 293.862 282.926L293.48 282.808L293.787 282.552C293.837 282.513 293.805 282.431 293.74 282.434L293.341 282.449L293.548 282.107C293.58 282.053 293.526 281.986 293.465 282.011L293.091 282.153L293.176 281.761C293.191 281.701 293.116 281.655 293.069 281.697L292.762 281.954L292.716 281.555C292.709 281.491 292.627 281.473 292.591 281.526L292.391 281.854C292.391 281.854 292.37 281.825 292.359 281.815L292.213 281.509C292.191 281.459 292.127 281.462 292.102 281.501C292.059 281.452 292.02 281.402 291.977 281.348C291.945 281.309 291.963 281.245 292.013 281.231C292.077 281.213 292.138 281.195 292.202 281.174C292.202 281.22 292.252 281.256 292.298 281.231L292.594 281.056C292.594 281.056 292.627 281.046 292.641 281.042L292.623 281.427C292.623 281.491 292.698 281.523 292.741 281.473L293.001 281.17L293.112 281.555C293.13 281.615 293.216 281.619 293.237 281.562L293.387 281.192L293.615 281.519C293.651 281.573 293.733 281.548 293.737 281.484L293.755 281.085L294.079 281.32C294.129 281.359 294.201 281.309 294.183 281.249L294.072 280.864L294.454 280.982C294.515 280.999 294.565 280.932 294.529 280.878L294.297 280.551L294.697 280.536C294.761 280.536 294.786 280.455 294.733 280.415L294.472 280.227L294.572 279.906C294.583 279.867 294.561 279.824 294.522 279.814L291.466 278.881C291.466 278.881 291.438 278.877 291.42 278.881L290.292 279.247C290.271 279.255 290.253 279.272 290.246 279.297L289.846 280.601L289.999 280.098L284.231 278.364C270.224 274.333 255.967 270.278 242.177 266.354C221.02 260.332 199.142 254.108 177.692 247.844C174.811 246.919 172.391 246 170.292 245.038C166.498 243.308 163.503 241.317 161.133 238.953C158.105 235.98 155.878 231.974 154.693 227.366C153.054 221.053 153.087 213.885 153.119 206.952C153.126 205.157 153.137 203.298 153.119 201.482V172.939L152.519 172.13L152.048 172.757V201.489C152.069 203.302 152.059 205.157 152.048 206.948C152.016 213.949 151.984 221.188 153.658 227.633C154.893 232.426 157.217 236.603 160.379 239.711C162.839 242.165 165.937 244.223 169.85 246.011C171.984 246.99 174.444 247.923 177.378 248.866C198.846 255.137 220.727 261.361 241.884 267.383C255.67 271.307 269.927 275.363 283.931 279.39L289.692 281.12L289.432 281.964L289.435 281.968Z" fill="#001A70"/>
<path d="M152.537 170.357L152.858 169.93H152.216L152.537 170.357Z" fill="#001A70"/>
<path d="M299.886 286.261L299.785 286.602L300.128 286.703L300.229 286.362L299.886 286.261Z" fill="#001A70"/>
<path d="M300.57 286.46L300.469 286.801L300.812 286.902L300.913 286.561L300.57 286.46Z" fill="#001A70"/>
<path d="M292.382 284.04L292.281 284.382L292.623 284.483L292.724 284.141L292.382 284.04Z" fill="#001A70"/>
<path d="M299.205 286.059L299.105 286.401L299.447 286.501L299.548 286.16L299.205 286.059Z" fill="#001A70"/>
<path d="M285.552 282.005L285.451 282.347L285.793 282.448L285.894 282.106L285.552 282.005Z" fill="#001A70"/>
<path d="M291.691 283.817L291.59 284.158L291.933 284.259L292.034 283.918L291.691 283.817Z" fill="#001A70"/>
<path d="M298.501 285.816L298.4 286.157L298.743 286.258L298.844 285.917L298.501 285.816Z" fill="#001A70"/>
<path d="M288.965 283.012L288.864 283.354L289.206 283.455L289.307 283.113L288.965 283.012Z" fill="#001A70"/>
<path d="M290.326 283.416L290.225 283.757L290.567 283.858L290.668 283.516L290.326 283.416Z" fill="#001A70"/>
<path d="M289.645 283.217L289.544 283.559L289.886 283.66L289.987 283.318L289.645 283.217Z" fill="#001A70"/>
<path d="M288.298 282.85L288.197 283.192L288.54 283.292L288.641 282.951L288.298 282.85Z" fill="#001A70"/>
<path d="M294.434 284.653L294.333 284.995L294.676 285.095L294.777 284.754L294.434 284.653Z" fill="#001A70"/>
<path d="M286.253 282.248L286.152 282.589L286.494 282.69L286.595 282.348L286.253 282.248Z" fill="#001A70"/>
<path d="M291.007 283.614L290.906 283.955L291.248 284.056L291.349 283.715L291.007 283.614Z" fill="#001A70"/>
<path d="M293.062 284.238L292.961 284.58L293.304 284.681L293.405 284.339L293.062 284.238Z" fill="#001A70"/>
<path d="M296.456 285.213L296.355 285.555L296.698 285.656L296.799 285.314L296.456 285.213Z" fill="#001A70"/>
<path d="M293.754 284.455L293.653 284.797L293.995 284.897L294.096 284.556L293.754 284.455Z" fill="#001A70"/>
<path d="M301.241 286.646L301.141 286.987L301.483 287.088L301.584 286.746L301.241 286.646Z" fill="#001A70"/>
<path d="M297.137 285.411L297.036 285.753L297.379 285.854L297.48 285.512L297.137 285.411Z" fill="#001A70"/>
<path d="M274.667 278.84L274.566 279.182L274.909 279.283L275.01 278.941L274.667 278.84Z" fill="#001A70"/>
<path d="M273.987 278.642L273.886 278.984L274.228 279.085L274.329 278.743L273.987 278.642Z" fill="#001A70"/>
<path d="M267.854 276.836L267.753 277.177L268.096 277.278L268.196 276.936L267.854 276.836Z" fill="#001A70"/>
<path d="M265.109 275.994L265.008 276.336L265.35 276.436L265.451 276.095L265.109 275.994Z" fill="#001A70"/>
<path d="M284.19 281.604L284.089 281.946L284.431 282.047L284.532 281.705L284.19 281.604Z" fill="#001A70"/>
<path d="M297.818 285.613L297.717 285.955L298.059 286.056L298.16 285.714L297.818 285.613Z" fill="#001A70"/>
<path d="M263.743 275.593L263.642 275.935L263.985 276.035L264.086 275.694L263.743 275.593Z" fill="#001A70"/>
<path d="M286.931 282.434L286.831 282.775L287.173 282.876L287.274 282.534L286.931 282.434Z" fill="#001A70"/>
<path d="M264.428 275.792L264.327 276.134L264.669 276.235L264.77 275.893L264.428 275.792Z" fill="#001A70"/>
<path d="M276.013 279.202L275.912 279.543L276.254 279.644L276.355 279.303L276.013 279.202Z" fill="#001A70"/>
<path d="M275.348 279.042L275.247 279.384L275.59 279.484L275.69 279.143L275.348 279.042Z" fill="#001A70"/>
<path d="M269.219 277.236L269.118 277.578L269.461 277.678L269.561 277.337L269.219 277.236Z" fill="#001A70"/>
<path d="M265.79 276.192L265.688 276.534L266.031 276.635L266.132 276.293L265.79 276.192Z" fill="#001A70"/>
<path d="M269.879 277.394L269.778 277.736L270.12 277.836L270.221 277.495L269.879 277.394Z" fill="#001A70"/>
<path d="M266.493 276.436L266.392 276.777L266.734 276.878L266.835 276.537L266.493 276.436Z" fill="#001A70"/>
<path d="M270.56 277.596L270.458 277.937L270.801 278.038L270.902 277.697L270.56 277.596Z" fill="#001A70"/>
<path d="M273.306 278.441L273.205 278.782L273.547 278.883L273.648 278.541L273.306 278.441Z" fill="#001A70"/>
<path d="M271.924 278L271.823 278.342L272.165 278.442L272.266 278.101L271.924 278Z" fill="#001A70"/>
<path d="M272.605 278.198L272.504 278.54L272.846 278.641L272.947 278.299L272.605 278.198Z" fill="#001A70"/>
<path d="M271.244 277.795L271.143 278.137L271.485 278.237L271.586 277.896L271.244 277.795Z" fill="#001A70"/>
<path d="M280.124 280.442L280.023 280.784L280.365 280.884L280.466 280.543L280.124 280.442Z" fill="#001A70"/>
<path d="M280.803 280.647L280.702 280.989L281.045 281.089L281.146 280.748L280.803 280.647Z" fill="#001A70"/>
<path d="M268.535 277.034L268.434 277.375L268.776 277.476L268.877 277.134L268.535 277.034Z" fill="#001A70"/>
<path d="M281.484 280.845L281.383 281.187L281.726 281.287L281.826 280.946L281.484 280.845Z" fill="#001A70"/>
<path d="M278.74 280.003L278.639 280.344L278.981 280.445L279.083 280.104L278.74 280.003Z" fill="#001A70"/>
<path d="M276.694 279.4L276.593 279.742L276.935 279.842L277.036 279.501L276.694 279.4Z" fill="#001A70"/>
<path d="M282.165 281.047L282.064 281.388L282.406 281.489L282.507 281.147L282.165 281.047Z" fill="#001A70"/>
<path d="M283.509 281.406L283.408 281.748L283.75 281.849L283.852 281.507L283.509 281.406Z" fill="#001A70"/>
<path d="M295.115 284.855L295.014 285.196L295.357 285.297L295.457 284.955L295.115 284.855Z" fill="#001A70"/>
<path d="M282.828 281.205L282.727 281.546L283.07 281.647L283.171 281.305L282.828 281.205Z" fill="#001A70"/>
<path d="M278.059 279.801L277.958 280.143L278.301 280.243L278.402 279.902L278.059 279.801Z" fill="#001A70"/>
<path d="M279.439 280.243L279.339 280.585L279.681 280.685L279.782 280.344L279.439 280.243Z" fill="#001A70"/>
<path d="M263.067 275.388L262.966 275.729L263.308 275.83L263.409 275.489L263.067 275.388Z" fill="#001A70"/>
<path d="M277.375 279.602L277.274 279.943L277.616 280.044L277.717 279.703L277.375 279.602Z" fill="#001A70"/>
<path d="M284.896 281.854L284.795 282.195L285.137 282.296L285.238 281.954L284.896 281.854Z" fill="#001A70"/>
<path d="M295.779 285.012L295.678 285.353L296.02 285.454L296.121 285.112L295.779 285.012Z" fill="#001A70"/>
<path d="M267.173 276.634L267.072 276.976L267.415 277.076L267.516 276.735L267.173 276.634Z" fill="#001A70"/>
<path d="M287.612 282.635L287.511 282.977L287.854 283.078L287.954 282.736L287.612 282.635Z" fill="#001A70"/>
<path d="M280.955 275.047L280.858 275.39L281.202 275.487L281.298 275.144L280.955 275.047Z" fill="#001A70"/>
<path d="M289.192 277.404L289.095 277.747L289.439 277.843L289.535 277.501L289.192 277.404Z" fill="#001A70"/>
<path d="M288.507 277.209L288.41 277.551L288.754 277.648L288.851 277.305L288.507 277.209Z" fill="#001A70"/>
<path d="M289.874 277.592L289.777 277.935L290.121 278.032L290.218 277.689L289.874 277.592Z" fill="#001A70"/>
<path d="M292.612 278.363L292.515 278.706L292.859 278.802L292.956 278.46L292.612 278.363Z" fill="#001A70"/>
<path d="M290.56 277.784L290.463 278.127L290.806 278.223L290.903 277.881L290.56 277.784Z" fill="#001A70"/>
<path d="M287.822 277.017L287.725 277.36L288.068 277.456L288.165 277.114L287.822 277.017Z" fill="#001A70"/>
<path d="M291.245 277.976L291.148 278.319L291.492 278.415L291.589 278.073L291.245 277.976Z" fill="#001A70"/>
<path d="M291.907 278.128L291.81 278.471L292.154 278.567L292.251 278.224L291.907 278.128Z" fill="#001A70"/>
<path d="M284.402 276.055L284.305 276.398L284.649 276.495L284.745 276.152L284.402 276.055Z" fill="#001A70"/>
<path d="M283.692 275.817L283.595 276.16L283.939 276.257L284.036 275.914L283.692 275.817Z" fill="#001A70"/>
<path d="M287.114 276.783L287.017 277.125L287.361 277.222L287.458 276.879L287.114 276.783Z" fill="#001A70"/>
<path d="M283.032 275.672L282.935 276.015L283.279 276.111L283.375 275.769L283.032 275.672Z" fill="#001A70"/>
<path d="M285.748 276.396L285.651 276.739L285.995 276.835L286.091 276.492L285.748 276.396Z" fill="#001A70"/>
<path d="M285.062 276.204L284.965 276.547L285.309 276.644L285.406 276.301L285.062 276.204Z" fill="#001A70"/>
<path d="M304.932 281.825L304.835 282.168L305.179 282.265L305.275 281.922L304.932 281.825Z" fill="#001A70"/>
<path d="M296.721 279.519L296.624 279.862L296.968 279.958L297.065 279.616L296.721 279.519Z" fill="#001A70"/>
<path d="M297.382 279.665L297.285 280.007L297.628 280.104L297.725 279.761L297.382 279.665Z" fill="#001A70"/>
<path d="M298.064 279.856L297.967 280.199L298.31 280.295L298.407 279.953L298.064 279.856Z" fill="#001A70"/>
<path d="M304.246 281.634L304.149 281.976L304.493 282.073L304.59 281.73L304.246 281.634Z" fill="#001A70"/>
<path d="M298.749 280.048L298.652 280.391L298.996 280.487L299.093 280.144L298.749 280.048Z" fill="#001A70"/>
<path d="M282.325 275.434L282.228 275.777L282.572 275.873L282.668 275.531L282.325 275.434Z" fill="#001A70"/>
<path d="M295.351 279.132L295.254 279.475L295.598 279.572L295.695 279.229L295.351 279.132Z" fill="#001A70"/>
<path d="M293.274 278.511L293.178 278.854L293.521 278.95L293.618 278.608L293.274 278.511Z" fill="#001A70"/>
<path d="M299.434 280.243L299.337 280.586L299.68 280.682L299.777 280.339L299.434 280.243Z" fill="#001A70"/>
<path d="M293.959 278.706L293.862 279.049L294.206 279.146L294.302 278.803L293.959 278.706Z" fill="#001A70"/>
<path d="M294.665 278.942L294.568 279.284L294.911 279.381L295.008 279.038L294.665 278.942Z" fill="#001A70"/>
<path d="M296.012 279.278L295.915 279.62L296.258 279.717L296.355 279.374L296.012 279.278Z" fill="#001A70"/>
<path d="M300.119 280.435L300.022 280.777L300.366 280.874L300.463 280.531L300.119 280.435Z" fill="#001A70"/>
<path d="M286.433 276.588L286.336 276.93L286.68 277.027L286.777 276.684L286.433 276.588Z" fill="#001A70"/>
<path d="M270.712 272.208L270.616 272.551L270.959 272.648L271.056 272.305L270.712 272.208Z" fill="#001A70"/>
<path d="M271.376 272.357L271.28 272.7L271.623 272.797L271.72 272.454L271.376 272.357Z" fill="#001A70"/>
<path d="M269.325 271.779L269.228 272.121L269.571 272.218L269.668 271.875L269.325 271.779Z" fill="#001A70"/>
<path d="M281.64 275.239L281.544 275.582L281.887 275.678L281.984 275.336L281.64 275.239Z" fill="#001A70"/>
<path d="M273.428 272.936L273.332 273.278L273.675 273.375L273.772 273.032L273.428 272.936Z" fill="#001A70"/>
<path d="M272.743 272.744L272.646 273.087L272.99 273.183L273.086 272.841L272.743 272.744Z" fill="#001A70"/>
<path d="M274.114 273.124L274.017 273.467L274.361 273.563L274.457 273.22L274.114 273.124Z" fill="#001A70"/>
<path d="M272.082 272.595L271.986 272.938L272.329 273.034L272.426 272.692L272.082 272.595Z" fill="#001A70"/>
<path d="M265.216 270.629L265.119 270.972L265.463 271.068L265.56 270.725L265.216 270.629Z" fill="#001A70"/>
<path d="M265.923 270.863L265.826 271.206L266.17 271.302L266.267 270.96L265.923 270.863Z" fill="#001A70"/>
<path d="M264.552 270.48L264.455 270.823L264.799 270.919L264.896 270.576L264.552 270.48Z" fill="#001A70"/>
<path d="M267.954 271.395L267.857 271.738L268.2 271.835L268.297 271.492L267.954 271.395Z" fill="#001A70"/>
<path d="M268.639 271.587L268.542 271.93L268.886 272.026L268.983 271.684L268.639 271.587Z" fill="#001A70"/>
<path d="M267.268 271.204L267.171 271.546L267.515 271.643L267.612 271.3L267.268 271.204Z" fill="#001A70"/>
<path d="M266.587 271.012L266.49 271.355L266.834 271.451L266.931 271.109L266.587 271.012Z" fill="#001A70"/>
<path d="M270.005 271.974L269.909 272.317L270.252 272.413L270.349 272.07L270.005 271.974Z" fill="#001A70"/>
<path d="M277.536 274.089L277.439 274.432L277.782 274.528L277.879 274.186L277.536 274.089Z" fill="#001A70"/>
<path d="M274.798 273.319L274.702 273.662L275.045 273.758L275.142 273.415L274.798 273.319Z" fill="#001A70"/>
<path d="M278.903 274.472L278.806 274.815L279.15 274.912L279.247 274.569L278.903 274.472Z" fill="#001A70"/>
<path d="M280.273 274.859L280.176 275.202L280.52 275.298L280.617 274.956L280.273 274.859Z" fill="#001A70"/>
<path d="M279.588 274.668L279.491 275.01L279.834 275.107L279.931 274.764L279.588 274.668Z" fill="#001A70"/>
<path d="M278.222 274.282L278.125 274.625L278.469 274.722L278.566 274.379L278.222 274.282Z" fill="#001A70"/>
<path d="M275.484 273.511L275.387 273.853L275.731 273.95L275.827 273.607L275.484 273.511Z" fill="#001A70"/>
<path d="M276.166 273.702L276.069 274.045L276.412 274.142L276.509 273.799L276.166 273.702Z" fill="#001A70"/>
<path d="M276.872 273.94L276.775 274.283L277.118 274.379L277.215 274.037L276.872 273.94Z" fill="#001A70"/>
<path d="M155.332 173.989H153.897L152.519 172.134L151.123 173.989H149.717L150.113 173.476L150.977 172.348L151.823 171.24L151.127 170.336L150.299 169.257L150.209 169.139L149.799 168.602H151.213L152.216 169.93L152.537 170.353L152.858 169.93L153.865 168.602H155.232L154.829 169.125L154.739 169.242L153.9 170.336L153.208 171.233L154.068 172.348L155 173.558L155.332 173.989Z" fill="#001A70"/>
<path d="M309.322 289.05L306.056 284.806L309.165 280.754H307.062L305.884 282.31L305.952 282.089L305.602 281.989L305.506 282.331V282.335L305.677 282.381L305.802 282.42L305.574 282.723L305.402 282.669L305.299 283.011L305.342 283.025L305.017 283.453L303.8 281.836L303.892 281.509L303.55 281.412L303.532 281.48L302.982 280.754H301.151L301.154 280.739L300.812 280.643L300.715 280.989L301.058 281.085L303.921 284.817L302.24 287.014L302.261 286.939L301.918 286.839L301.818 287.181L302.058 287.252L300.68 289.05H302.843L303.907 287.633L303.864 287.783L304.206 287.882L304.306 287.544L304.035 287.462L304.264 287.16L304.41 287.202L304.513 286.861L304.492 286.853L304.992 286.191L307.112 289.05H309.322Z" fill="#001A70"/>
<path d="M179.819 241.478L177.628 238.679L177.099 239.986C174.897 239.028 165.662 234.751 162.75 229.278C159.758 223.656 160.115 219.034 160.229 216.477C160.229 216.431 160.233 216.388 160.237 216.345H161.679L159.897 213.272L158.116 216.345H159.519C159.519 216.377 159.519 216.409 159.515 216.445C159.398 219.051 159.034 223.819 162.118 229.613C165.184 235.378 174.576 239.679 176.832 240.648L176.296 241.969L179.819 241.478Z" fill="#001A70"/>
<path d="M96.8151 210.879L98.5928 213.952L100.374 210.879H98.9498V178.686H100.374L98.5928 175.613L96.8151 178.686H98.2358V210.879H96.8151Z" fill="#001A70"/>
<path d="M89.6009 178.686L87.8197 175.613L86.042 178.686H87.4627V287.049H86.042L87.8197 290.122L89.6009 287.049H88.1766V178.686H89.6009Z" fill="#001A70"/>
<path d="M289.799 272.4C291.684 272.4 293.08 271.093 293.08 269.306C293.08 267.518 291.684 266.211 289.799 266.211C287.915 266.211 286.519 267.529 286.519 269.306C286.519 271.082 287.908 272.4 289.799 272.4ZM289.799 267.39C290.87 267.39 291.677 268.166 291.677 269.306C291.677 270.445 290.87 271.221 289.799 271.221C288.729 271.221 287.922 270.445 287.922 269.306C287.922 268.166 288.729 267.39 289.799 267.39Z" fill="#001A70"/>
<path d="M295.307 271.766C295.643 272.168 296.139 272.364 296.757 272.364C298.049 272.364 299.052 271.442 299.052 269.996C299.052 268.551 298.049 267.628 296.757 267.628C296.182 267.628 295.711 267.806 295.368 268.184V265.955H294.033V272.297H295.311V271.766H295.307ZM296.525 268.725C297.192 268.725 297.699 269.202 297.699 270C297.699 270.798 297.192 271.275 296.525 271.275C295.857 271.275 295.35 270.798 295.35 270C295.35 269.202 295.857 268.725 296.525 268.725Z" fill="#001A70"/>
<path d="M298.527 273.767C298.784 273.945 299.188 274.024 299.598 274.024C300.712 274.024 301.336 273.347 301.336 272.29V267.7H300.001V272.297C300.001 272.749 299.787 272.963 299.452 272.963C299.23 272.963 299.031 272.902 298.888 272.799L298.527 273.764V273.767Z" fill="#001A70"/>
<path d="M300.669 267.059C301.165 267.059 301.501 266.735 301.501 266.29C301.501 265.88 301.165 265.57 300.669 265.57C300.173 265.57 299.837 265.894 299.837 266.314C299.837 266.735 300.173 267.059 300.669 267.059Z" fill="#001A70"/>
<path d="M304.86 272.364C305.691 272.364 306.334 272.108 306.762 271.62L306.052 270.851C305.734 271.15 305.384 271.296 304.895 271.296C304.192 271.296 303.703 270.947 303.575 270.374H307.062C307.069 270.263 307.087 270.117 307.087 270.014C307.087 268.536 306.041 267.628 304.688 267.628C303.335 267.628 302.229 268.618 302.229 269.996C302.229 271.374 303.264 272.364 304.86 272.364ZM304.695 268.64C305.295 268.64 305.731 269.017 305.827 269.598H303.557C303.65 269.006 304.089 268.64 304.695 268.64Z" fill="#001A70"/>
<path d="M308.14 270.716C308.14 271.809 308.776 272.364 309.861 272.364C310.271 272.364 310.675 272.272 310.949 272.072L310.589 271.132C310.443 271.243 310.246 271.303 310.05 271.303C309.689 271.303 309.475 271.09 309.475 270.698V268.825H310.625V267.799H309.475V266.681H308.14V267.799H307.43V268.825H308.14V270.716Z" fill="#001A70"/>
<path d="M313.041 267.7H311.706V272.297H313.041V267.7Z" fill="#001A70"/>
<path d="M312.374 267.059C312.87 267.059 313.205 266.735 313.205 266.29C313.205 265.88 312.87 265.57 312.374 265.57C311.878 265.57 311.542 265.894 311.542 266.314C311.542 266.735 311.878 267.059 312.374 267.059Z" fill="#001A70"/>
<path d="M316.914 272.297L318.86 267.7H317.575L316.254 270.826L314.976 267.7H313.598L315.533 272.297H316.914Z" fill="#001A70"/>
<path d="M321.473 267.632C320.009 267.632 318.938 268.615 318.938 270C318.938 271.385 320.009 272.368 321.473 272.368C322.936 272.368 324 271.385 324 270C324 268.615 322.936 267.632 321.473 267.632ZM321.473 271.271C320.805 271.271 320.291 270.794 320.291 269.996C320.291 269.199 320.805 268.722 321.473 268.722C322.14 268.722 322.647 269.199 322.647 269.996C322.647 270.794 322.14 271.271 321.473 271.271Z" fill="#001A70"/>
<path d="M178.706 69.0227C178.028 67.8512 177.728 66.5443 177.728 65.0239C177.728 63.5034 178.028 62.1966 178.706 61.025H178.124C177.489 62.0434 177.132 63.4535 177.132 65.0239C177.132 66.5942 177.492 67.99 178.124 69.0227H178.706Z" fill="#001A70"/>
<path d="M181.815 67.4061C182.525 67.4061 183.15 67.1497 183.553 66.6725L183.211 66.2808C182.868 66.6725 182.379 66.8719 181.833 66.8719C180.848 66.8719 180.126 66.2488 180.059 65.3087H183.828C183.828 65.2411 183.835 65.1734 183.835 65.12C183.835 63.7705 182.918 62.8375 181.651 62.8375C180.383 62.8375 179.448 63.7883 179.448 65.12C179.448 66.4518 180.408 67.4096 181.811 67.4096L181.815 67.4061ZM181.654 63.3574C182.536 63.3574 183.178 63.9734 183.257 64.8529H180.062C180.141 63.9734 180.783 63.3574 181.654 63.3574Z" fill="#001A70"/>
<path d="M187.401 60.1669H186.844L184.017 68.2179H184.574L187.401 60.1669Z" fill="#001A70"/>
<path d="M188.608 67.3633H189.183L190.607 63.6814L192.028 67.3633H192.602L194.309 62.8696H193.752L192.32 66.6903L190.878 62.8696H190.357L188.908 66.6903L187.494 62.8696H186.912L188.608 67.3633Z" fill="#001A70"/>
<path d="M194.855 67.374L194.562 68.6132H194.973L195.333 67.4346C195.419 67.196 195.454 67.0856 195.454 66.9396C195.454 66.6832 195.265 66.4767 195.001 66.4767C194.737 66.4767 194.548 66.6725 194.548 66.9396C194.548 67.1604 194.676 67.3242 194.855 67.374Z" fill="#001A70"/>
<path d="M199.602 65.0061C199.602 63.9805 200.209 63.3823 201.18 63.3823C202.037 63.3823 202.533 63.8702 202.533 64.8173V67.3633H203.14V64.7568C203.14 63.4678 202.387 62.8339 201.291 62.8339C200.513 62.8339 199.902 63.1509 199.577 63.6957V62.866H198.995V67.3598H199.602V65.0025V65.0061Z" fill="#001A70"/>
<path d="M207.113 60.1669H206.556L203.729 68.2179H204.286L207.113 60.1669Z" fill="#001A70"/>
<path d="M206.617 64.1158C206.617 65.8927 209.537 64.9705 209.537 66.142C209.537 66.5871 209.187 66.8755 208.33 66.8755C207.695 66.8755 207.088 66.6547 206.727 66.3699L206.452 66.847C206.82 67.1639 207.541 67.4025 208.287 67.4025C209.462 67.4025 210.147 66.8969 210.147 66.1206C210.147 64.3936 207.227 65.3087 207.227 64.0945C207.227 63.6672 207.588 63.3503 208.401 63.3503C208.865 63.3503 209.337 63.4607 209.729 63.7348L209.993 63.247C209.615 62.9906 208.983 62.8268 208.401 62.8268C207.252 62.8268 206.62 63.3752 206.62 64.1087L206.617 64.1158Z" fill="#001A70"/>
<path d="M211.346 69.0227C211.989 67.99 212.349 66.5942 212.349 65.0239C212.349 63.4535 211.989 62.0399 211.346 61.025H210.765C211.45 62.1966 211.75 63.5034 211.75 65.0239C211.75 66.5443 211.45 67.8547 210.765 69.0227H211.346Z" fill="#001A70"/>
<path d="M107.081 192.844V198.826H107.713V197.252L108.938 196.013L111.39 198.826H112.143L109.366 195.553L111.965 192.844H111.236L107.713 196.458V192.844H107.081Z" fill="#001A70"/>
<path d="M115.581 192.79C113.764 192.79 112.429 194.09 112.429 195.831C112.429 197.573 113.764 198.872 115.581 198.872C117.398 198.872 118.725 197.583 118.725 195.831C118.725 194.079 117.38 192.79 115.581 192.79ZM115.581 198.313C114.131 198.313 113.053 197.263 113.053 195.835C113.053 194.407 114.131 193.356 115.581 193.356C117.03 193.356 118.09 194.407 118.09 195.835C118.09 197.263 117.019 198.313 115.581 198.313Z" fill="#001A70"/>
<path d="M122.388 192.844H120.143V198.826H120.778V196.939H122.388C123.912 196.939 124.837 196.17 124.837 194.895C124.837 193.62 123.912 192.844 122.388 192.844ZM122.374 196.38H120.782V193.389H122.374C123.573 193.389 124.208 193.937 124.208 194.891C124.208 195.845 123.573 196.38 122.374 196.38Z" fill="#001A70"/>
<path d="M173.933 222.762C173.933 221.786 173.162 221.224 171.827 221.224H169.239V227.206H171.998C173.498 227.206 174.251 226.625 174.251 225.607C174.251 224.795 173.787 224.289 173.016 224.119C173.566 223.898 173.933 223.442 173.933 222.758V222.762ZM173.619 225.557C173.619 226.344 173.044 226.686 171.991 226.686H169.875V224.439H171.991C173.044 224.439 173.619 224.781 173.619 225.557ZM171.784 223.916H169.875V221.743H171.784C172.744 221.743 173.301 222.11 173.301 222.829C173.301 223.549 172.744 223.916 171.784 223.916Z" fill="#001A70"/>
<path d="M180.573 224.649V221.224H179.955V224.624C179.955 226.041 179.288 226.693 178.113 226.693C176.939 226.693 176.278 226.045 176.278 224.624V221.224H175.643V224.649C175.643 226.365 176.578 227.256 178.11 227.256C179.641 227.256 180.569 226.365 180.569 224.649H180.573Z" fill="#001A70"/>
<path d="M187.18 223.275C187.18 221.993 186.256 221.224 184.731 221.224H182.486V227.206H183.121V225.308H184.731C184.903 225.308 185.056 225.301 185.21 225.283L186.58 227.206H187.273L185.809 225.155C186.684 224.873 187.18 224.215 187.18 223.275ZM184.71 224.77H183.118V221.772H184.71C185.909 221.772 186.545 222.32 186.545 223.275C186.545 224.229 185.909 224.77 184.71 224.77Z" fill="#001A70"/>
<path d="M287.451 292.002C286.815 293.021 286.458 294.431 286.458 296.001C286.458 297.572 286.819 298.967 287.451 300H288.033C287.354 298.828 287.054 297.522 287.054 296.001C287.054 294.481 287.354 293.174 288.033 292.002H287.451Z" fill="#001A70"/>
<path d="M290.981 293.815C289.714 293.815 288.779 294.762 288.779 296.097C288.779 297.433 289.739 298.387 291.142 298.387C291.852 298.387 292.477 298.131 292.88 297.653L292.537 297.262C292.195 297.653 291.706 297.853 291.159 297.853C290.174 297.853 289.453 297.23 289.385 296.29H293.155C293.155 296.222 293.162 296.154 293.162 296.101C293.162 294.751 292.245 293.818 290.977 293.818L290.981 293.815ZM289.389 295.83C289.467 294.951 290.11 294.335 290.981 294.335C291.852 294.335 292.505 294.951 292.584 295.83H289.389Z" fill="#001A70"/>
<path d="M296.175 291.148L293.348 299.199H293.905L296.732 291.148H296.175Z" fill="#001A70"/>
<path d="M301.647 297.668L300.208 293.847H299.687L298.238 297.668L296.824 293.847H296.243L297.938 298.344H298.513L299.934 294.659L301.358 298.344H301.929L303.635 293.847H303.078L301.647 297.668Z" fill="#001A70"/>
<path d="M304.328 297.454C304.071 297.454 303.874 297.65 303.874 297.917C303.874 298.138 304.003 298.301 304.181 298.351L303.889 299.59H304.299L304.66 298.412C304.745 298.173 304.781 298.063 304.781 297.917C304.781 297.661 304.592 297.454 304.328 297.454Z" fill="#001A70"/>
<path d="M310.617 293.815C309.839 293.815 309.229 294.132 308.904 294.677V293.847H308.322V298.341H308.933V295.983C308.933 294.958 309.539 294.36 310.51 294.36C311.367 294.36 311.863 294.847 311.863 295.795V298.341H312.47V295.734C312.47 294.445 311.717 293.811 310.621 293.811L310.617 293.815Z" fill="#001A70"/>
<path d="M315.886 291.148L313.059 299.199H313.616L316.443 291.148H315.886Z" fill="#001A70"/>
<path d="M316.554 295.079C316.554 294.652 316.914 294.335 317.728 294.335C318.192 294.335 318.663 294.445 319.056 294.719L319.32 294.231C318.942 293.975 318.31 293.811 317.728 293.811C316.579 293.811 315.947 294.36 315.947 295.093C315.947 296.87 318.867 295.948 318.867 297.119C318.867 297.564 318.517 297.853 317.66 297.853C317.025 297.853 316.418 297.632 316.058 297.347L315.783 297.824C316.15 298.141 316.871 298.38 317.618 298.38C318.792 298.38 319.477 297.874 319.477 297.098C319.477 295.371 316.557 296.286 316.557 295.072L316.554 295.079Z" fill="#001A70"/>
<path d="M320.091 292.002C320.777 293.174 321.077 294.481 321.077 296.001C321.077 297.522 320.777 298.828 320.091 300H320.673C321.316 298.967 321.676 297.572 321.676 296.001C321.676 294.431 321.316 293.017 320.673 292.002H320.091Z" fill="#001A70"/>
<path d="M131.805 7.44512C132.85 7.44512 133.714 7.06767 134.282 6.37687L133.389 5.55787C132.986 6.0279 132.483 6.26648 131.883 6.26648C130.762 6.26648 129.963 5.47953 129.963 4.35075C129.963 3.22196 130.759 2.43502 131.883 2.43502C132.483 2.43502 132.99 2.67359 133.389 3.1365L134.282 2.31751C133.718 1.63383 132.85 1.25638 131.815 1.25638C129.948 1.25638 128.56 2.5454 128.56 4.35075C128.56 6.15609 129.948 7.44512 131.808 7.44512H131.805Z" fill="#001A70"/>
<path d="M137.152 7.40951C138.615 7.40951 139.679 6.42672 139.679 5.04155C139.679 3.65639 138.615 2.67359 137.152 2.67359C135.688 2.67359 134.617 3.65639 134.617 5.04155C134.617 6.42672 135.688 7.40951 137.152 7.40951ZM137.152 3.77033C137.819 3.77033 138.326 4.24748 138.326 5.04511C138.326 5.84274 137.819 6.31989 137.152 6.31989C136.484 6.31989 135.97 5.84274 135.97 5.04511C135.97 4.24748 136.484 3.77033 137.152 3.77033Z" fill="#001A70"/>
<path d="M141.907 5.06648C141.907 4.219 142.371 3.82731 143.013 3.82731C143.606 3.82731 143.948 4.16915 143.948 4.91336V7.34185H145.283V4.71039C145.283 3.30742 144.462 2.67715 143.374 2.67715C142.749 2.67715 142.21 2.8908 141.849 3.2825V2.74481H140.572V7.34185H141.907V5.06648Z" fill="#001A70"/>
<path d="M148.521 7.40951C149.139 7.40951 149.628 7.21366 149.96 6.81129V7.34185H151.238V1H149.903V3.22908C149.567 2.85164 149.089 2.67359 148.525 2.67359C147.222 2.67359 146.219 3.59585 146.219 5.04155C146.219 6.48725 147.222 7.40951 148.525 7.40951H148.521ZM148.753 3.77033C149.413 3.77033 149.927 4.24748 149.927 5.04511C149.927 5.84274 149.413 6.31989 148.753 6.31989C148.093 6.31989 147.572 5.84274 147.572 5.04511C147.572 4.24748 148.086 3.77033 148.753 3.77033Z" fill="#001A70"/>
<path d="M154.415 7.40951C154.979 7.40951 155.493 7.19586 155.846 6.79348V7.34185H157.113V2.74481H155.778V5.01662C155.778 5.8641 155.332 6.2558 154.714 6.2558C154.097 6.2558 153.779 5.91396 153.779 5.14482V2.74481H152.444V5.34422C152.444 6.76144 153.258 7.41307 154.415 7.41307V7.40951Z" fill="#001A70"/>
<path d="M160.583 7.40951C161.55 7.40951 162.314 6.98221 162.646 6.24867L161.611 5.68606C161.361 6.13117 160.993 6.31989 160.576 6.31989C159.897 6.31989 159.369 5.84986 159.369 5.04511C159.369 4.24036 159.901 3.77033 160.576 3.77033C160.997 3.77033 161.365 3.96618 161.611 4.40416L162.646 3.84867C162.311 3.09733 161.55 2.67715 160.583 2.67715C159.084 2.67715 158.013 3.65995 158.013 5.04511C158.013 6.43028 159.084 7.41307 160.583 7.41307V7.40951Z" fill="#001A70"/>
<path d="M163.649 5.76084C163.649 6.85402 164.285 7.40951 165.37 7.40951C165.78 7.40951 166.184 7.31693 166.458 7.11752L166.098 6.17746C165.952 6.28784 165.755 6.34838 165.559 6.34838C165.198 6.34838 164.984 6.13473 164.984 5.74304V3.87004H166.134V2.84451H164.984V1.72641H163.649V2.84451H162.939V3.87004H163.649V5.76084Z" fill="#001A70"/>
<path d="M169.261 7.40951C170.724 7.40951 171.788 6.42672 171.788 5.04155C171.788 3.65639 170.724 2.67359 169.261 2.67359C167.797 2.67359 166.726 3.65639 166.726 5.04155C166.726 6.42672 167.797 7.40951 169.261 7.40951ZM169.261 3.77033C169.928 3.77033 170.435 4.24748 170.435 5.04511C170.435 5.84274 169.928 6.31989 169.261 6.31989C168.593 6.31989 168.079 5.84274 168.079 5.04511C168.079 4.24748 168.593 3.77033 169.261 3.77033Z" fill="#001A70"/>
<path d="M174.015 5.16974C174.015 4.29021 174.504 3.88784 175.24 3.88784C175.343 3.88784 175.429 3.89496 175.54 3.90564V2.67359C174.829 2.67359 174.279 2.90505 173.955 3.35015V2.74481H172.677V7.34185H174.012V5.16974H174.015Z" fill="#001A70"/>
<path d="M95.6943 265.72H97.8003V271.157H98.4357V265.72H100.542V265.171H95.6943V265.72Z" fill="#001A70"/>
<path d="M103.215 271.157H103.84L106.496 265.171H105.853L103.54 270.37L101.245 265.171H100.56L103.215 271.157Z" fill="#001A70"/>
<path d="M107.36 271.157H109.801C111.722 271.157 113.014 269.925 113.014 268.166C113.014 266.407 111.722 265.175 109.801 265.175H107.36V271.157ZM107.995 265.72H109.769C111.361 265.72 112.389 266.728 112.389 268.163C112.389 269.598 111.361 270.605 109.769 270.605H107.995V265.716V265.72Z" fill="#001A70"/>
<path d="M98.4179 275.427L95.6764 281.409H96.3368L97.0579 279.81H100.399L101.12 281.409H101.788L99.0461 275.427H98.4179ZM97.2863 279.301L98.7249 276.089L100.163 279.301H97.2863Z" fill="#001A70"/>
<path d="M106.771 280.864H103.412V275.427H102.776V281.412H106.771V280.864Z" fill="#001A70"/>
<path d="M115.834 278.418C115.834 276.666 114.488 275.377 112.689 275.377C110.89 275.377 109.537 276.677 109.537 278.418C109.537 280.159 110.872 281.459 112.689 281.459C114.506 281.459 115.834 280.17 115.834 278.418ZM110.162 278.418C110.162 276.99 111.24 275.939 112.689 275.939C114.138 275.939 115.199 276.99 115.199 278.418C115.199 279.846 114.128 280.896 112.689 280.896C111.251 280.896 110.162 279.846 110.162 278.418Z" fill="#001A70"/>
<path d="M117.255 281.409H120.014C121.513 281.409 122.267 280.828 122.267 279.81C122.267 278.998 121.802 278.493 121.031 278.322C121.581 278.101 121.949 277.645 121.949 276.961C121.949 275.986 121.178 275.423 119.843 275.423H117.255V281.409ZM121.635 279.76C121.635 280.547 121.06 280.889 120.007 280.889H117.89V278.642H120.007C121.06 278.642 121.635 278.984 121.635 279.76ZM121.317 277.036C121.317 277.755 120.76 278.122 119.8 278.122H117.89V275.95H119.8C120.76 275.95 121.317 276.317 121.317 277.036Z" fill="#001A70"/>
<path d="M123.287 275.975H125.479V279.6C125.479 280.479 125.101 280.917 124.365 280.917C123.834 280.917 123.398 280.661 123.073 280.184L122.695 280.611C123.063 281.16 123.68 281.466 124.358 281.466C125.508 281.466 126.107 280.843 126.107 279.579V275.434H123.287V275.982V275.975Z" fill="#001A70"/>
<path d="M132.122 275.975V275.427H128.006V281.412H132.251V280.864H128.642V278.642H131.744V278.104H128.642V275.975H132.122Z" fill="#001A70"/>
<path d="M132.797 275.975H134.903V281.412H135.538V275.975H137.644V275.427H132.797V275.975Z" fill="#001A70"/>
<path d="M139.294 275.427H138.658V281.409H139.294V275.427Z" fill="#001A70"/>
<path d="M145.519 275.427L143.206 280.625L140.911 275.427H140.225L142.881 281.412H143.506L146.162 275.427H145.519Z" fill="#001A70"/>
<path d="M149.596 275.377C147.779 275.377 146.444 276.677 146.444 278.418C146.444 280.159 147.782 281.459 149.596 281.459C151.409 281.459 152.74 280.17 152.74 278.418C152.74 276.666 151.395 275.377 149.596 275.377ZM149.596 280.9C148.146 280.9 147.068 279.849 147.068 278.421C147.068 276.993 148.146 275.943 149.596 275.943C151.045 275.943 152.105 276.993 152.105 278.421C152.105 279.849 151.034 280.9 149.596 280.9Z" fill="#001A70"/>
</g>
<defs>
<clipPath id="clip0_2_185">
<rect width="352" height="301" fill="white"/>
</clipPath>
</defs>
</svg>
