<svg width="376" height="325" viewBox="0 0 376 325" fill="none" xmlns="http://www.w3.org/2000/svg">
<rect x="0.5" y="0.5" width="375" height="324" rx="11.5" fill="white"/>
<rect x="0.5" y="0.5" width="375" height="324" rx="11.5" stroke="#001A70"/>
<path d="M244.616 289.808L244.613 290.149L244.957 290.152L244.96 289.811L244.616 289.808Z" fill="#001A70"/>
<path d="M244.626 288.441L244.623 288.782L244.967 288.785L244.97 288.444L244.626 288.441Z" fill="#001A70"/>
<path d="M244.609 290.489L244.606 290.831L244.95 290.834L244.953 290.492L244.609 290.489Z" fill="#001A70"/>
<path d="M244.633 287.755L244.63 288.097L244.974 288.1L244.977 287.758L244.633 287.755Z" fill="#001A70"/>
<path d="M244.448 308.258L244.445 308.599L244.789 308.602L244.792 308.261L244.448 308.258Z" fill="#001A70"/>
<path d="M244.602 291.171L244.599 291.513L244.943 291.516L244.946 291.174L244.602 291.171Z" fill="#001A70"/>
<path d="M244.595 291.857L244.592 292.198L244.936 292.201L244.939 291.86L244.595 291.857Z" fill="#001A70"/>
<path d="M244.577 293.905L244.574 294.247L244.918 294.25L244.921 293.908L244.577 293.905Z" fill="#001A70"/>
<path d="M244.584 293.224L244.581 293.565L244.925 293.568L244.928 293.227L244.584 293.224Z" fill="#001A70"/>
<path d="M244.588 292.542L244.585 292.883L244.929 292.886L244.932 292.545L244.588 292.542Z" fill="#001A70"/>
<path d="M244.57 294.591L244.567 294.932L244.911 294.935L244.914 294.594L244.57 294.591Z" fill="#001A70"/>
<path d="M244.668 283.654L244.665 283.995L245.009 283.998L245.012 283.657L244.668 283.654Z" fill="#001A70"/>
<path d="M244.675 282.969L244.672 283.31L245.016 283.313L245.019 282.972L244.675 282.969Z" fill="#001A70"/>
<path d="M244.682 282.29L244.679 282.632L245.023 282.635L245.026 282.293L244.682 282.29Z" fill="#001A70"/>
<path d="M244.64 287.07L244.637 287.411L244.981 287.414L244.984 287.073L244.64 287.07Z" fill="#001A70"/>
<path d="M244.689 281.605L244.686 281.947L245.03 281.95L245.033 281.608L244.689 281.605Z" fill="#001A70"/>
<path d="M244.643 286.392L244.641 286.733L244.985 286.736L244.988 286.395L244.643 286.392Z" fill="#001A70"/>
<path d="M244.65 285.706L244.647 286.048L244.992 286.051L244.995 285.709L244.65 285.706Z" fill="#001A70"/>
<path d="M244.657 285.021L244.654 285.363L244.999 285.366L245.002 285.024L244.657 285.021Z" fill="#001A70"/>
<path d="M244.664 284.339L244.661 284.681L245.006 284.684L245.009 284.342L244.664 284.339Z" fill="#001A70"/>
<path d="M244.619 289.122L244.616 289.464L244.96 289.467L244.963 289.125L244.619 289.122Z" fill="#001A70"/>
<path d="M244.455 307.58L244.452 307.921L244.796 307.924L244.799 307.583L244.455 307.58Z" fill="#001A70"/>
<path d="M244.49 303.478L244.487 303.82L244.831 303.823L244.834 303.481L244.49 303.478Z" fill="#001A70"/>
<path d="M244.459 306.894L244.456 307.236L244.8 307.239L244.803 306.897L244.459 306.894Z" fill="#001A70"/>
<path d="M244.563 295.276L244.56 295.617L244.905 295.62L244.908 295.279L244.563 295.276Z" fill="#001A70"/>
<path d="M244.483 304.16L244.48 304.501L244.824 304.505L244.827 304.163L244.483 304.16Z" fill="#001A70"/>
<path d="M244.497 302.793L244.494 303.134L244.838 303.137L244.841 302.796L244.497 302.793Z" fill="#001A70"/>
<path d="M244.466 306.209L244.463 306.55L244.807 306.553L244.81 306.212L244.466 306.209Z" fill="#001A70"/>
<path d="M244.48 304.842L244.477 305.183L244.821 305.186L244.824 304.845L244.48 304.842Z" fill="#001A70"/>
<path d="M244.473 305.527L244.47 305.869L244.814 305.872L244.817 305.53L244.473 305.527Z" fill="#001A70"/>
<path d="M244.441 308.943L244.438 309.285L244.782 309.288L244.785 308.946L244.441 308.943Z" fill="#001A70"/>
<path d="M244.546 297.325L244.543 297.666L244.887 297.669L244.89 297.328L244.546 297.325Z" fill="#001A70"/>
<path d="M244.535 298.692L244.532 299.033L244.877 299.036L244.88 298.695L244.535 298.692Z" fill="#001A70"/>
<path d="M244.539 298.007L244.536 298.348L244.88 298.351L244.883 298.01L244.539 298.007Z" fill="#001A70"/>
<path d="M244.56 295.958L244.557 296.299L244.901 296.302L244.904 295.961L244.56 295.958Z" fill="#001A70"/>
<path d="M244.521 300.059L244.518 300.4L244.863 300.403L244.866 300.062L244.521 300.059Z" fill="#001A70"/>
<path d="M244.514 300.741L244.511 301.082L244.856 301.085L244.859 300.744L244.514 300.741Z" fill="#001A70"/>
<path d="M244.528 299.377L244.525 299.719L244.87 299.721L244.873 299.38L244.528 299.377Z" fill="#001A70"/>
<path d="M244.511 301.426L244.508 301.767L244.852 301.77L244.855 301.429L244.511 301.426Z" fill="#001A70"/>
<path d="M244.504 302.108L244.501 302.449L244.845 302.452L244.848 302.111L244.504 302.108Z" fill="#001A70"/>
<path d="M244.553 296.643L244.55 296.984L244.894 296.987L244.897 296.646L244.553 296.643Z" fill="#001A70"/>
<path d="M244.617 309.648L244.445 309.645L244.442 309.993H244.789L244.786 309.648H244.617Z" fill="#001A70"/>
<path d="M247.375 309.632L247.051 309.634L247.053 309.979L247.377 309.977L247.375 309.632Z" fill="#001A70"/>
<path d="M246.728 309.635L246.404 309.637L246.406 309.982L246.73 309.98L246.728 309.635Z" fill="#001A70"/>
<path d="M248.022 309.629L247.699 309.631L247.7 309.975L248.024 309.974L248.022 309.629Z" fill="#001A70"/>
<path d="M248.669 309.626L248.346 309.627L248.347 309.972L248.671 309.971L248.669 309.626Z" fill="#001A70"/>
<path d="M245.437 309.642L245.114 309.643L245.115 309.988L245.439 309.987L245.437 309.642Z" fill="#001A70"/>
<path d="M246.084 309.639L245.761 309.64L245.762 309.985L246.086 309.983L246.084 309.639Z" fill="#001A70"/>
<path d="M248.992 309.972L249.336 309.969V309.628H248.992V309.972Z" fill="#001A70"/>
<path d="M249.086 298.689L249.084 299.03L249.428 299.033L249.431 298.691L249.086 298.689Z" fill="#001A70"/>
<path d="M249.16 289.11L249.157 289.451L249.501 289.454L249.504 289.113L249.16 289.11Z" fill="#001A70"/>
<path d="M249.153 289.795L249.15 290.136L249.494 290.139L249.497 289.797L249.153 289.795Z" fill="#001A70"/>
<path d="M249.149 290.476L249.146 290.817L249.491 290.82L249.493 290.479L249.149 290.476Z" fill="#001A70"/>
<path d="M249.167 288.425L249.164 288.767L249.508 288.77L249.511 288.428L249.167 288.425Z" fill="#001A70"/>
<path d="M249.132 292.53L249.129 292.871L249.473 292.874L249.476 292.533L249.132 292.53Z" fill="#001A70"/>
<path d="M249.132 293.218L249.129 293.559L249.473 293.562L249.476 293.221L249.132 293.218Z" fill="#001A70"/>
<path d="M249.006 308.955L249.004 309.297L249.348 309.299L249.351 308.958L249.006 308.955Z" fill="#001A70"/>
<path d="M249.142 291.164L249.14 291.505L249.484 291.508L249.486 291.167L249.142 291.164Z" fill="#001A70"/>
<path d="M249.139 291.845L249.136 292.187L249.48 292.189L249.483 291.848L249.139 291.845Z" fill="#001A70"/>
<path d="M249.187 285.69L249.185 286.032L249.529 286.034L249.532 285.693L249.187 285.69Z" fill="#001A70"/>
<path d="M249.205 283.636L249.202 283.978L249.546 283.98L249.549 283.639L249.205 283.636Z" fill="#001A70"/>
<path d="M249.208 282.948L249.206 283.289L249.55 283.292L249.553 282.951L249.208 282.948Z" fill="#001A70"/>
<path d="M249.215 282.267L249.213 282.608L249.557 282.611L249.56 282.27L249.215 282.267Z" fill="#001A70"/>
<path d="M249.219 281.582L249.216 281.924L249.56 281.926L249.563 281.585L249.219 281.582Z" fill="#001A70"/>
<path d="M249.18 286.371L249.178 286.713L249.522 286.715L249.525 286.374L249.18 286.371Z" fill="#001A70"/>
<path d="M249.125 293.899L249.122 294.241L249.466 294.243L249.469 293.902L249.125 293.899Z" fill="#001A70"/>
<path d="M249.177 287.056L249.174 287.397L249.519 287.4L249.521 287.059L249.177 287.056Z" fill="#001A70"/>
<path d="M249.198 284.321L249.195 284.662L249.539 284.665L249.542 284.324L249.198 284.321Z" fill="#001A70"/>
<path d="M249.191 285.002L249.188 285.343L249.532 285.346L249.535 285.005L249.191 285.002Z" fill="#001A70"/>
<path d="M249.17 287.741L249.167 288.082L249.512 288.085L249.514 287.743L249.17 287.741Z" fill="#001A70"/>
<path d="M249.045 304.162L249.042 304.504L249.386 304.507L249.389 304.165L249.045 304.162Z" fill="#001A70"/>
<path d="M249.038 304.851L249.035 305.192L249.379 305.195L249.382 304.853L249.038 304.851Z" fill="#001A70"/>
<path d="M249.048 303.481L249.045 303.823L249.39 303.825L249.392 303.484L249.048 303.481Z" fill="#001A70"/>
<path d="M249.034 305.532L249.031 305.873L249.376 305.876L249.378 305.535L249.034 305.532Z" fill="#001A70"/>
<path d="M249.02 306.901L249.018 307.242L249.362 307.245L249.365 306.904L249.02 306.901Z" fill="#001A70"/>
<path d="M249.01 308.267L249.007 308.608L249.351 308.611L249.354 308.27L249.01 308.267Z" fill="#001A70"/>
<path d="M249.017 307.586L249.014 307.927L249.358 307.93L249.361 307.589L249.017 307.586Z" fill="#001A70"/>
<path d="M249.055 302.797L249.052 303.138L249.397 303.141L249.399 302.799L249.055 302.797Z" fill="#001A70"/>
<path d="M249.027 306.216L249.025 306.558L249.369 306.561L249.371 306.219L249.027 306.216Z" fill="#001A70"/>
<path d="M249.059 302.112L249.056 302.453L249.4 302.456L249.403 302.115L249.059 302.112Z" fill="#001A70"/>
<path d="M249.097 297.323L249.094 297.664L249.438 297.667L249.441 297.325L249.097 297.323Z" fill="#001A70"/>
<path d="M249.104 296.635L249.101 296.976L249.445 296.979L249.448 296.637L249.104 296.635Z" fill="#001A70"/>
<path d="M249.114 295.269L249.112 295.61L249.456 295.613L249.459 295.271L249.114 295.269Z" fill="#001A70"/>
<path d="M249.093 298.004L249.091 298.345L249.435 298.348L249.438 298.007L249.093 298.004Z" fill="#001A70"/>
<path d="M249.076 300.058L249.073 300.399L249.417 300.402L249.42 300.061L249.076 300.058Z" fill="#001A70"/>
<path d="M249.069 300.739L249.066 301.08L249.411 301.083L249.413 300.742L249.069 300.739Z" fill="#001A70"/>
<path d="M249.066 301.427L249.063 301.769L249.407 301.771L249.41 301.43L249.066 301.427Z" fill="#001A70"/>
<path d="M249.121 294.584L249.119 294.925L249.463 294.928L249.465 294.587L249.121 294.584Z" fill="#001A70"/>
<path d="M249.083 299.373L249.08 299.715L249.424 299.717L249.427 299.376L249.083 299.373Z" fill="#001A70"/>
<path d="M249.107 295.953L249.105 296.295L249.449 296.297L249.452 295.956L249.107 295.953Z" fill="#001A70"/>
<path d="M295.157 177.348H204.222V173.076H202.848V171.231H203.351V169.207H201.22V166.403H203.351V164.383H205.905V149.111H201.007L197.854 85.0121H199.616V81.3812H197.675C196.883 66.3194 196.091 51.2577 195.299 36.196H190.301V35.3995H195.086V33.8271H193.406V30.4306H191.595V23.0273H184.408V30.4306H182.511V33.8271H181.055V35.3995H185.85V36.196H180.115C179.73 45.1613 179.341 54.1301 178.955 63.0954H169.334V58.43H168.99V63.0954H168.205V58.43H167.861V63.0954H167.076V58.43H166.732V63.0954H165.944V58.43H165.599V63.0954H164.814V58.43H164.47V63.0954H161.589V78.0571H155.303V78.6743H164.47V95.6222H164.284V98.6808H164.47V125.811H164.284V128.873H164.47V149.111H161.648V156.11C153.809 158.01 145.968 159.91 138.126 161.81V177.348H68V179.296H185.74V179.303C185.74 179.665 185.74 180.031 185.74 180.393L186.081 179.941V179.475H186.439L187.396 178.22L186.728 177.348H185.933V176.307L185.847 176.196V177.348H180.436V173.834H179.413V171.231H185.847V175.665H185.933V171.231H190.212V175.665H190.298V171.231H196.848V173.076H196.177V177.348H190.298V176.165L190.212 176.276V177.348H189.396L188.731 178.213L189.692 179.465H190.212C190.212 179.689 190.212 179.917 190.212 180.144L190.556 180.596C190.556 180.162 190.556 179.731 190.556 179.296H295.153V177.348H295.157ZM164.47 77.3675H162.277V63.785H164.47V77.3675ZM165.599 95.6222H165.413V98.6808H165.599V125.811H165.413V128.873H165.599V149.111H164.814V128.873H165.004V125.811H164.814V98.6808H165.004V95.6222H164.814V78.6743H165.599V95.6222ZM165.599 77.3675H164.814V63.785H165.599V77.3675ZM166.732 95.6222H166.542V98.6808H166.732V125.811H166.542V128.873H166.732V149.111H165.944V128.873H166.133V125.811H165.944V98.6808H166.133V95.6222H165.944V78.6743H166.732V95.6222ZM166.732 77.3675H165.944V63.785H166.732V77.3675ZM167.861 95.6222H167.672V98.6808H167.861V125.811H167.672V128.873H167.861V149.111H167.076V128.873H167.262V125.811H167.076V98.6808H167.262V95.6222H167.076V78.6743H167.861V95.6222ZM167.861 77.3675H167.076V63.785H167.861V77.3675ZM168.99 95.6222H168.801V98.6808H168.99V125.811H168.801V128.873H168.99V149.111H168.205V128.873H168.391V125.811H168.205V98.6808H168.391V95.6222H168.205V78.6743H168.99V95.6222ZM168.99 77.3675H168.205V63.785H168.99V77.3675ZM169.334 63.785H178.587L177.782 77.3675H169.334V63.785ZM169.334 128.873H169.52V125.811H169.334V98.6808H169.52V95.6222H169.334V78.6743H178.215L178.084 81.3812H175.964V85.0121H177.912L174.862 149.111H169.334V128.873ZM176.222 169.207H173.43V173.834H172.398V177.348H169.334V164.383H173.43V166.403H176.222V169.207ZM179.62 169.207H177.245V166.403H179.62V169.207ZM183.764 169.207H180.298V166.403H183.764V169.207ZM185.85 169.207H184.442V166.403H185.85V169.207ZM185.85 149.111H175.592L176.112 138.228H185.85V149.111ZM185.85 136.204H178.102L185.85 127.735V136.204ZM185.85 125.611L176.208 136.149L177.269 113.863L185.85 123.287V125.611ZM185.85 121.215L177.475 112.015H185.85V121.215ZM185.85 109.994H179.176L185.85 100.619V109.994ZM185.85 98.3291L177.547 109.994H177.455L178.635 85.15L185.85 94.9705V98.3291ZM185.85 92.7154L180.191 85.0121H185.85V92.7154ZM185.85 81.3812H181.107L185.85 74.5434V81.3812ZM185.85 72.5572L179.726 81.3812H178.814L178.942 78.6743H178.955V78.4157L179.833 59.9782L185.85 68.6504V72.5572ZM185.85 66.6608L180.759 59.3231H185.85V66.6608ZM185.85 57.5334H181.668L185.85 51.506V57.5334ZM185.85 49.7612C184.084 52.3508 182.315 54.9438 180.549 57.5334H179.95L180.859 38.389L185.85 45.582V49.7612ZM185.85 43.8338L181.64 37.7684H185.85V43.8338ZM200.28 149.111H190.301V138.228H199.743L200.28 149.111ZM190.301 136.204V128.177L197.613 136.204H190.301ZM199.644 136.204H199.499L190.301 126.108V122.87L198.542 113.863L199.644 136.204ZM198.253 112.015C195.602 114.925 192.952 117.835 190.301 120.746V112.015H198.253ZM190.301 109.994V101.029L196.89 109.994H190.301ZM197.124 85.0121L198.339 109.712L190.301 98.7739V94.3636L196.962 85.0121H197.124ZM195.33 85.0121L190.301 92.074V85.0121H195.33ZM190.301 81.3812V75.0641L194.687 81.3812H190.301ZM196.945 81.3812H196.064L190.301 73.0779V68.1297L195.895 60.0713L196.945 81.3812ZM195.034 59.3231L190.301 66.1401V59.3231H195.034ZM190.301 57.5334V51.9956L194.146 57.5334H190.301ZM195.771 57.5334H195.358L190.301 50.2508V45.0889L194.838 38.558L195.771 57.5334ZM194.174 37.7684L190.301 43.3441V37.7684H194.174ZM187.744 169.207H185.936V166.403H187.744V169.207ZM190.215 169.207H188.422V166.403H190.215V169.207ZM190.215 149.111H185.936V138.228H190.215V149.111ZM190.215 136.204H185.936V127.642L187.881 125.518L190.215 128.084V136.204ZM185.936 125.518V123.38L186.911 124.453L185.936 125.518ZM190.215 126.011L188.828 124.484L190.215 122.966V126.011ZM190.215 120.839L187.857 123.418L185.936 121.311V112.015H190.215V120.839ZM190.215 109.994H185.936V100.498L187.892 97.7498L190.215 100.912V109.994ZM185.936 98.2084V95.0878L187.065 96.6222L185.936 98.2084ZM190.215 98.6566L188.707 96.605L190.215 94.4843V98.6566ZM190.215 92.1947L187.881 95.4774L185.936 92.8326V85.0121H190.215V92.1947ZM190.215 81.3812H185.936V74.4193L187.895 71.5986L190.215 74.9434V81.3812ZM185.936 72.4331V68.7746L187.207 70.6021L185.936 72.4331ZM190.215 72.9538L188.587 70.6021L190.215 68.2539V72.9538ZM190.215 66.2643L187.895 69.609L185.936 66.785V59.3231H190.215V66.2643ZM190.215 57.5334H185.936V51.3819L187.905 48.544L190.215 51.8715V57.5334ZM185.936 49.6371V45.7027L187.299 47.6716L185.936 49.6371ZM190.215 50.1267L188.511 47.6716L190.215 45.213V50.1267ZM190.215 43.4682L187.905 46.7992L185.936 43.9579V37.7684H190.215V43.4682ZM190.215 36.196H185.936V35.3995H190.215V36.196ZM190.215 30.4306H185.936V27.4721C186.27 28.3238 187.1 28.9272 188.071 28.9272C189.041 28.9272 189.892 28.3065 190.215 27.4376V30.4306ZM186.811 26.6307C186.811 25.9342 187.375 25.3687 188.071 25.3687C188.766 25.3687 189.33 25.9342 189.33 26.6307C189.33 27.3272 188.766 27.8927 188.071 27.8927C187.375 27.8927 186.811 27.3272 186.811 26.6307ZM188.071 24.3342C186.804 24.3342 185.778 25.3618 185.778 26.6307C185.778 26.8272 185.806 27.0203 185.85 27.2031V30.4306H184.752V23.3722H191.251V30.4306H190.301V27.1548C190.342 26.9859 190.363 26.81 190.363 26.6307C190.363 25.3618 189.337 24.3342 188.071 24.3342ZM191.995 169.207H190.301V166.403H191.995V169.207ZM196.029 169.207H192.673V166.403H196.029V169.207ZM200.542 169.207H196.707V166.403H200.542V169.207Z" fill="#001A70"/>
<path d="M185.737 198.506C185.719 208.213 185.702 218.247 185.799 228.261C185.96 232.388 186.959 235.678 188.766 238.036C190.422 240.264 193.072 242.067 196.649 243.395C203.85 245.808 211.124 248.084 218.16 250.284C223.987 252.108 230.011 253.994 235.97 255.946C238.493 256.829 240.235 257.743 241.46 258.836C243.633 260.453 244.593 264.498 244.579 267.794C244.569 270.204 244.59 272.356 244.607 274.253C244.627 276.804 244.648 279.011 244.603 281.297L244.948 281.304C244.948 281.304 244.948 281.287 244.948 281.28H245.047V281.108H244.948C244.989 278.884 244.968 276.732 244.948 274.249C244.93 272.26 244.913 270.204 244.92 267.794C244.934 264.415 243.932 260.246 241.674 258.57C240.424 257.456 238.645 256.522 236.077 255.622C230.115 253.667 224.087 251.781 218.259 249.957C211.227 247.757 203.953 245.481 196.762 243.071C193.251 241.767 190.652 240.005 189.038 237.829C187.272 235.526 186.298 232.302 186.139 228.254C186.04 218.247 186.06 208.213 186.077 198.51C186.088 192.748 186.098 186.803 186.084 180.886H185.74C185.754 186.803 185.74 192.748 185.733 198.51L185.737 198.506Z" fill="#001A70"/>
<path d="M249.409 272.653C249.371 271.032 249.323 269.191 249.316 266.153C249.061 261.308 247.467 257.612 244.59 255.167C242.889 253.667 240.638 252.46 237.495 251.37C231.55 249.419 225.481 247.519 219.616 245.684L219.578 245.674C212.556 243.477 205.292 241.205 198.225 238.836C195.551 237.826 193.716 236.616 192.614 235.133C191.01 233.026 190.704 230.098 190.614 228.081C190.521 218.126 190.539 208.137 190.556 198.478C190.566 192.723 190.577 186.789 190.563 180.882H190.219C190.232 186.789 190.219 192.723 190.212 198.478C190.194 208.14 190.177 218.13 190.27 228.092C190.363 230.157 190.676 233.16 192.339 235.34C193.482 236.871 195.368 238.119 198.108 239.16C205.186 241.533 212.449 243.805 219.475 246.005L219.512 246.015C225.378 247.85 231.443 249.75 237.385 251.698C240.479 252.77 242.7 253.957 244.366 255.429C247.171 257.812 248.724 261.425 248.975 266.163C248.982 269.198 249.03 271.035 249.068 272.66C249.126 275.025 249.171 276.897 249.078 281.277L249.423 281.283C249.423 281.266 249.423 281.249 249.423 281.228H249.557V281.056H249.423C249.509 276.832 249.464 274.977 249.405 272.649L249.409 272.653Z" fill="#001A70"/>
<path d="M188.084 177.362L188.349 177.013H187.823L188.084 177.362Z" fill="#001A70"/>
<path d="M188.071 179.086L187.785 179.469H187.812C187.823 185.137 187.812 191.12 187.806 196.93C187.788 207.413 187.771 218.25 187.867 228.164C187.936 229.598 188.077 230.819 188.305 231.902C188.7 233.822 189.416 235.471 190.425 236.802C191.847 238.712 194.098 240.226 197.31 241.436C204.435 243.826 211.74 246.112 218.8 248.319C224.659 250.153 230.714 252.046 236.634 253.991C239.412 254.96 241.368 255.994 242.793 257.253C245.058 259.177 246.328 262.194 246.565 266.201C246.724 276.063 246.71 277.19 246.682 279.442C246.662 281.19 246.631 283.583 246.672 291.29H245.863C245.843 291.29 245.825 291.301 245.812 291.318L245.237 292.138C245.237 292.138 245.226 292.163 245.226 292.173V294.876C245.226 294.911 245.254 294.938 245.288 294.938H245.571L245.66 295.197C245.677 295.249 245.75 295.249 245.767 295.197L245.877 294.876L246.083 295.145C246.118 295.187 246.183 295.166 246.183 295.111V294.773L246.466 294.959C246.51 294.99 246.569 294.945 246.552 294.893L246.441 294.573L246.769 294.656C246.82 294.669 246.861 294.607 246.827 294.566L246.62 294.3L246.958 294.273C247.013 294.269 247.03 294.197 246.985 294.169L246.703 293.983L247.013 293.849C247.061 293.828 247.058 293.756 247.003 293.742L246.686 293.663C246.686 293.663 246.703 293.638 246.71 293.625L246.923 293.428C246.958 293.397 246.941 293.349 246.903 293.335C246.934 293.29 246.965 293.242 246.996 293.197C247.02 293.159 247.075 293.159 247.099 293.197C247.13 293.242 247.161 293.29 247.192 293.335C247.154 293.349 247.137 293.397 247.171 293.428L247.385 293.625C247.385 293.625 247.398 293.649 247.409 293.659L247.092 293.738C247.04 293.752 247.034 293.825 247.082 293.845L247.392 293.98L247.109 294.166C247.065 294.197 247.082 294.266 247.137 294.269L247.474 294.297L247.268 294.562C247.233 294.604 247.275 294.666 247.326 294.652L247.653 294.569L247.543 294.89C247.526 294.942 247.581 294.987 247.629 294.956L247.911 294.769V295.107C247.911 295.162 247.98 295.183 248.011 295.142L248.218 294.873L248.328 295.194C248.345 295.245 248.417 295.245 248.435 295.194L248.524 294.935H248.806C248.841 294.935 248.868 294.907 248.868 294.873V292.169C248.868 292.169 248.865 292.145 248.858 292.135L248.28 291.314C248.28 291.314 248.249 291.287 248.228 291.287H247.02H247.364C247.326 283.583 247.354 281.194 247.374 279.446C247.402 277.187 247.416 276.053 247.257 266.17C247.006 261.949 245.657 258.77 243.247 256.725C241.757 255.408 239.729 254.332 236.858 253.329C230.931 251.384 224.869 249.488 219.01 247.653C211.95 245.443 204.652 243.16 197.544 240.778C194.47 239.619 192.322 238.181 190.979 236.378C190.029 235.129 189.358 233.574 188.983 231.754C188.766 230.709 188.625 229.519 188.559 228.136C188.466 218.24 188.484 207.402 188.501 196.923C188.511 191.182 188.518 185.272 188.511 179.658L188.081 179.075L188.071 179.086Z" fill="#001A70"/>
<path d="M190.783 180.882H189.396L188.071 179.086L187.781 179.469L186.725 180.882H185.368L185.744 180.393L186.084 179.941L187.399 178.22L186.732 177.348L185.936 176.307L185.85 176.196L185.444 175.665H186.811L187.823 177.013L188.084 177.362L188.349 177.013L189.368 175.665H190.687L190.301 176.165L190.215 176.276L189.399 177.348L188.735 178.213L189.695 179.465L190.219 180.144L190.563 180.596L190.783 180.882Z" fill="#001A70"/>
<path d="M243.412 276.763H241.385L239.412 279.377L237.45 276.763H235.347L238.356 280.701L235.227 284.797H237.316L239.385 282.028L241.43 284.797H243.564L240.411 280.687L243.412 276.763Z" fill="#001A70"/>
<path d="M207.65 239.178L205.254 236.716L204.883 238.036C195.179 235.222 192.965 232.295 193.027 222.364L194.397 222.381L192.721 219.381L190.966 222.333L192.342 222.354C192.277 232.602 194.69 235.795 204.697 238.698L204.325 240.026L207.65 239.181V239.178Z" fill="#001A70"/>
<path d="M230.067 256.632L230.438 255.305L227.113 256.15L229.509 258.612L229.881 257.291C239.584 260.105 241.801 263.029 241.736 272.963L240.366 272.946L242.042 275.946L243.798 272.994L242.421 272.973C242.486 262.725 240.073 259.532 230.067 256.629V256.632Z" fill="#001A70"/>
<path d="M134.354 214.475L136.068 217.45L137.786 214.475H136.412V185.431H137.786L136.068 182.451L134.354 185.431H135.724V214.475H134.354Z" fill="#001A70"/>
<path d="M137.786 281.846L136.068 278.87L134.354 281.846H135.724V310.024H134.354L136.068 313L137.786 310.024H136.412V281.846H137.786Z" fill="#001A70"/>
<path d="M127.393 185.431L125.679 182.451L123.961 185.431H125.335V278.235H123.961L125.679 281.215L127.393 278.235H126.023V185.431H127.393Z" fill="#001A70"/>
<path d="M169.764 18.2412C170.773 18.2412 171.606 17.8757 172.153 17.2068L171.293 16.4137C170.904 16.8689 170.418 17.0999 169.84 17.0999C168.759 17.0999 167.988 16.3378 167.988 15.2448C167.988 14.1517 168.756 13.3896 169.84 13.3896C170.418 13.3896 170.907 13.6207 171.293 14.0689L172.153 13.2758C171.61 12.6138 170.773 12.2483 169.775 12.2483C167.974 12.2483 166.635 13.4965 166.635 15.2448C166.635 16.993 167.974 18.2412 169.768 18.2412H169.764Z" fill="#001A70"/>
<path d="M174.918 18.2068C176.329 18.2068 177.355 17.2551 177.355 15.9137C177.355 14.5724 176.329 13.6207 174.918 13.6207C173.506 13.6207 172.474 14.5724 172.474 15.9137C172.474 17.2551 173.506 18.2068 174.918 18.2068ZM174.918 14.6827C175.561 14.6827 176.05 15.1448 176.05 15.9172C176.05 16.6895 175.561 17.1516 174.918 17.1516C174.274 17.1516 173.778 16.6895 173.778 15.9172C173.778 15.1448 174.274 14.6827 174.918 14.6827Z" fill="#001A70"/>
<path d="M179.503 15.9378C179.503 15.1172 179.95 14.7379 180.57 14.7379C181.141 14.7379 181.472 15.0689 181.472 15.7896V18.1412H182.759V15.593C182.759 14.2344 181.967 13.6241 180.917 13.6241C180.315 13.6241 179.795 13.831 179.448 14.2103V13.6896H178.215V18.1412H179.503V15.9378Z" fill="#001A70"/>
<path d="M185.881 18.2068C186.477 18.2068 186.948 18.0171 187.269 17.6275V18.1412H188.501V12H187.213V14.1586C186.89 13.7931 186.429 13.6207 185.885 13.6207C184.628 13.6207 183.661 14.5137 183.661 15.9137C183.661 17.3137 184.628 18.2068 185.885 18.2068H185.881ZM186.105 14.6827C186.742 14.6827 187.238 15.1448 187.238 15.9172C187.238 16.6895 186.742 17.1516 186.105 17.1516C185.468 17.1516 184.966 16.6895 184.966 15.9172C184.966 15.1448 185.461 14.6827 186.105 14.6827Z" fill="#001A70"/>
<path d="M191.564 18.2068C192.108 18.2068 192.604 17.9999 192.945 17.6102V18.1412H194.167V13.6896H192.879V15.8896C192.879 16.7102 192.449 17.0895 191.854 17.0895C191.258 17.0895 190.952 16.7585 190.952 16.0137V13.6896H189.664V16.2068C189.664 17.5792 190.449 18.2102 191.564 18.2102V18.2068Z" fill="#001A70"/>
<path d="M197.513 18.2068C198.446 18.2068 199.182 17.793 199.502 17.0826L198.504 16.5378C198.263 16.9689 197.909 17.1516 197.506 17.1516C196.852 17.1516 196.342 16.6964 196.342 15.9172C196.342 15.1379 196.855 14.6827 197.506 14.6827C197.912 14.6827 198.267 14.8723 198.504 15.2965L199.502 14.7586C199.179 14.031 198.446 13.6241 197.513 13.6241C196.067 13.6241 195.034 14.5758 195.034 15.9172C195.034 17.2585 196.067 18.2102 197.513 18.2102V18.2068Z" fill="#001A70"/>
<path d="M200.47 16.6102C200.47 17.6688 201.082 18.2068 202.129 18.2068C202.525 18.2068 202.914 18.1171 203.179 17.924L202.831 17.0137C202.69 17.1206 202.501 17.1792 202.311 17.1792C201.964 17.1792 201.757 16.9723 201.757 16.593V14.7792H202.866V13.7862H201.757V12.7034H200.47V13.7862H199.785V14.7792H200.47V16.6102Z" fill="#001A70"/>
<path d="M205.881 18.2068C207.292 18.2068 208.318 17.2551 208.318 15.9137C208.318 14.5724 207.292 13.6207 205.881 13.6207C204.47 13.6207 203.437 14.5724 203.437 15.9137C203.437 17.2551 204.47 18.2068 205.881 18.2068ZM205.881 14.6827C206.525 14.6827 207.013 15.1448 207.013 15.9172C207.013 16.6895 206.525 17.1516 205.881 17.1516C205.237 17.1516 204.742 16.6895 204.742 15.9172C204.742 15.1448 205.237 14.6827 205.881 14.6827Z" fill="#001A70"/>
<path d="M210.466 16.0378C210.466 15.1861 210.938 14.7965 211.647 14.7965C211.747 14.7965 211.829 14.8034 211.936 14.8137V13.6207C211.251 13.6207 210.721 13.8448 210.408 14.2758V13.6896H209.175V18.1412H210.463V16.0378H210.466Z" fill="#001A70"/>
<path d="M261.519 275.666C263.336 275.666 264.682 274.401 264.682 272.67C264.682 270.939 263.336 269.673 261.519 269.673C259.701 269.673 258.355 270.949 258.355 272.67C258.355 274.391 259.694 275.666 261.519 275.666ZM261.519 270.818C262.551 270.818 263.329 271.57 263.329 272.673C263.329 273.777 262.551 274.528 261.519 274.528C260.486 274.528 259.708 273.777 259.708 272.673C259.708 271.57 260.486 270.818 261.519 270.818Z" fill="#001A70"/>
<path d="M265.598 269.425V275.566H266.83V275.053C267.154 275.442 267.632 275.632 268.228 275.632C269.474 275.632 270.441 274.739 270.441 273.339C270.441 271.939 269.474 271.046 268.228 271.046C267.674 271.046 267.219 271.218 266.889 271.584V269.425H265.598ZM268.004 272.108C268.648 272.108 269.137 272.57 269.137 273.342C269.137 274.115 268.648 274.577 268.004 274.577C267.36 274.577 266.871 274.115 266.871 273.342C266.871 272.57 267.36 272.108 268.004 272.108Z" fill="#001A70"/>
<path d="M272.644 275.56V271.115H271.357V275.566C271.357 276.004 271.15 276.211 270.827 276.211C270.613 276.211 270.421 276.153 270.283 276.053L269.935 276.987C270.183 277.159 270.572 277.235 270.968 277.235C272.042 277.235 272.644 276.58 272.644 275.556V275.56Z" fill="#001A70"/>
<path d="M272.001 269.053C271.522 269.053 271.198 269.367 271.198 269.773C271.198 270.18 271.522 270.494 272.001 270.494C272.479 270.494 272.803 270.18 272.803 269.749C272.803 269.353 272.479 269.053 272.001 269.053Z" fill="#001A70"/>
<path d="M275.877 271.049C274.52 271.049 273.505 272.008 273.505 273.342C273.505 274.677 274.503 275.635 276.042 275.635C276.844 275.635 277.463 275.387 277.876 274.915L277.191 274.17C276.885 274.46 276.548 274.601 276.076 274.601C275.398 274.601 274.926 274.263 274.803 273.708H278.166C278.173 273.601 278.19 273.46 278.19 273.36C278.19 271.929 277.181 271.049 275.877 271.049ZM274.785 272.953C274.875 272.38 275.298 272.025 275.883 272.025C276.469 272.025 276.882 272.391 276.975 272.953H274.785Z" fill="#001A70"/>
<path d="M279.205 274.035C279.205 275.094 279.818 275.632 280.864 275.632C281.26 275.632 281.649 275.542 281.914 275.349L281.567 274.439C281.425 274.546 281.236 274.604 281.047 274.604C280.699 274.604 280.493 274.397 280.493 274.018V272.204H281.601V271.211H280.493V270.129H279.205V271.211H278.52V272.204H279.205V274.035Z" fill="#001A70"/>
<path d="M283.931 271.115H282.641V275.566H283.931V271.115Z" fill="#001A70"/>
<path d="M283.284 270.494C283.763 270.494 284.086 270.18 284.086 269.749C284.086 269.353 283.763 269.053 283.284 269.053C282.806 269.053 282.482 269.367 282.482 269.773C282.482 270.18 282.806 270.494 283.284 270.494Z" fill="#001A70"/>
<path d="M289.539 271.115H288.3L287.03 274.142L285.797 271.115H284.468L286.334 275.566H287.663L289.539 271.115Z" fill="#001A70"/>
<path d="M294.496 273.342C294.496 272.001 293.47 271.049 292.059 271.049C290.647 271.049 289.615 272.001 289.615 273.342C289.615 274.684 290.647 275.635 292.059 275.635C293.47 275.635 294.496 274.684 294.496 273.342ZM292.059 274.573C291.415 274.573 290.919 274.111 290.919 273.339C290.919 272.566 291.415 272.104 292.059 272.104C292.702 272.104 293.191 272.566 293.191 273.339C293.191 274.111 292.702 274.573 292.059 274.573Z" fill="#001A70"/>
<path d="M144.25 197.272V203.065H144.863V201.544L146.044 200.344L148.408 203.065H149.135L146.457 199.896L148.959 197.272H148.257L144.863 200.772V197.272H144.25Z" fill="#001A70"/>
<path d="M152.446 197.223C150.694 197.223 149.407 198.482 149.407 200.168C149.407 201.854 150.694 203.113 152.446 203.113C154.198 203.113 155.479 201.865 155.479 200.168C155.479 198.472 154.181 197.223 152.446 197.223ZM152.446 202.568C151.049 202.568 150.009 201.551 150.009 200.168C150.009 198.785 151.049 197.768 152.446 197.768C153.844 197.768 154.866 198.785 154.866 200.168C154.866 201.551 153.834 202.568 152.446 202.568Z" fill="#001A70"/>
<path d="M159.014 197.272H156.849V203.065H157.462V201.237H159.014C160.484 201.237 161.376 200.492 161.376 199.258C161.376 198.023 160.484 197.272 159.014 197.272ZM158.997 200.699H157.462V197.803H158.997C160.154 197.803 160.766 198.334 160.766 199.258C160.766 200.182 160.154 200.699 158.997 200.699Z" fill="#001A70"/>
<path d="M132.928 247.35H134.959V252.615H135.572V247.35H137.607V246.822H132.928V247.35Z" fill="#001A70"/>
<path d="M140.181 252.615H140.784L143.345 246.822H142.725L140.495 251.853L138.281 246.822H137.62L140.181 252.615Z" fill="#001A70"/>
<path d="M144.181 252.615H146.536C148.388 252.615 149.634 251.422 149.634 249.719C149.634 248.015 148.388 246.822 146.536 246.822H144.181V252.615ZM144.791 247.35H146.501C148.037 247.35 149.028 248.326 149.028 249.715C149.028 251.105 148.037 252.081 146.501 252.081H144.791V247.346V247.35Z" fill="#001A70"/>
<path d="M135.555 256.753L132.911 262.546H133.548L134.243 260.998H137.465L138.161 262.546H138.804L136.161 256.753H135.555ZM134.464 260.501L135.851 257.391L137.238 260.501H134.464Z" fill="#001A70"/>
<path d="M143.61 262.015H140.371V256.753H139.761V262.546H143.61V262.015Z" fill="#001A70"/>
<path d="M152.35 259.65C152.35 257.953 151.052 256.705 149.317 256.705C147.582 256.705 146.278 257.963 146.278 259.65C146.278 261.336 147.565 262.594 149.317 262.594C151.069 262.594 152.35 261.346 152.35 259.65ZM146.884 259.65C146.884 258.267 147.923 257.25 149.321 257.25C150.718 257.25 151.741 258.267 151.741 259.65C151.741 261.032 150.708 262.049 149.321 262.049C147.933 262.049 146.884 261.032 146.884 259.65Z" fill="#001A70"/>
<path d="M153.723 262.546H156.384C157.83 262.546 158.556 261.984 158.556 260.998C158.556 260.212 158.109 259.722 157.365 259.556C157.895 259.343 158.25 258.901 158.25 258.239C158.25 257.294 157.506 256.75 156.219 256.75H153.723V262.546ZM157.944 260.946C157.944 261.708 157.389 262.039 156.374 262.039H154.333V259.863H156.374C157.389 259.863 157.944 260.194 157.944 260.946ZM157.637 258.308C157.637 259.005 157.1 259.36 156.174 259.36H154.333V257.256H156.174C157.1 257.256 157.637 257.612 157.637 258.308Z" fill="#001A70"/>
<path d="M159.537 257.281H161.651V260.791C161.651 261.643 161.286 262.067 160.577 262.067C160.064 262.067 159.644 261.818 159.331 261.356L158.966 261.77C159.321 262.301 159.916 262.598 160.57 262.598C161.679 262.598 162.257 261.994 162.257 260.77V256.756H159.537V257.287V257.281Z" fill="#001A70"/>
<path d="M168.057 257.281V256.753H164.092V262.546H168.181V262.015H164.701V259.863H167.692V259.343H164.701V257.281H168.057Z" fill="#001A70"/>
<path d="M168.708 257.281H170.742V262.546H171.351V257.281H173.386V256.753H168.708V257.281Z" fill="#001A70"/>
<path d="M174.973 256.753H174.36V262.546H174.973V256.753Z" fill="#001A70"/>
<path d="M180.976 256.753L178.745 261.784L176.532 256.753H175.871L178.432 262.546H179.035L181.596 256.753H180.976Z" fill="#001A70"/>
<path d="M184.911 256.701C183.158 256.701 181.871 257.96 181.871 259.646C181.871 261.332 183.162 262.591 184.911 262.591C186.659 262.591 187.943 261.343 187.943 259.646C187.943 257.95 186.645 256.701 184.911 256.701ZM184.911 262.049C183.513 262.049 182.473 261.032 182.473 259.65C182.473 258.267 183.513 257.25 184.911 257.25C186.308 257.25 187.33 258.267 187.33 259.65C187.33 261.032 186.298 262.049 184.911 262.049Z" fill="#001A70"/>
<path d="M145.534 290.459H143.369V296.252H143.982V294.425H145.534C147.004 294.425 147.896 293.68 147.896 292.445C147.896 291.211 147.004 290.459 145.534 290.459ZM145.517 293.887H143.982V290.99H145.517C146.674 290.99 147.286 291.521 147.286 292.445C147.286 293.369 146.674 293.887 145.517 293.887Z" fill="#001A70"/>
<path d="M149.83 294.414H151.383C151.548 294.414 151.696 294.407 151.844 294.39L153.166 296.252H153.834L152.422 294.266C153.266 293.994 153.744 293.356 153.744 292.445C153.744 291.204 152.852 290.459 151.383 290.459H149.217V296.252H149.83V294.414ZM149.83 290.99H151.365C152.522 290.99 153.135 291.521 153.135 292.445C153.135 293.369 152.522 293.894 151.365 293.894H149.83V290.99Z" fill="#001A70"/>
<path d="M157.72 290.411C155.968 290.411 154.68 291.669 154.68 293.356C154.68 295.042 155.968 296.3 157.72 296.3C159.472 296.3 160.753 295.052 160.753 293.356C160.753 291.659 159.455 290.411 157.72 290.411ZM157.72 295.756C156.322 295.756 155.283 294.738 155.283 293.356C155.283 291.973 156.322 290.956 157.72 290.956C159.117 290.956 160.14 291.973 160.14 293.356C160.14 294.738 159.107 295.756 157.72 295.756Z" fill="#001A70"/>
<path d="M162.123 296.252H162.735V293.794H165.723V293.266H162.735V290.99H166.088V290.459H162.123V296.252Z" fill="#001A70"/>
<path d="M171.458 293.752C171.458 295.125 170.814 295.756 169.682 295.756C168.549 295.756 167.913 295.128 167.913 293.752V290.459H167.3V293.776C167.3 295.438 168.202 296.3 169.678 296.3C171.155 296.3 172.05 295.438 172.05 293.776V290.459H171.455V293.752H171.458Z" fill="#001A70"/>
<path d="M178.126 295.159L174.398 290.459H173.895V296.252H174.508V291.552L178.226 296.252H178.728V290.459H178.126V295.159Z" fill="#001A70"/>
<path d="M182.966 290.459H180.611V296.252H182.966C184.818 296.252 186.064 295.059 186.064 293.356C186.064 291.652 184.818 290.459 182.966 290.459ZM182.935 295.721H181.224V290.987H182.935C184.47 290.987 185.461 291.963 185.461 293.352C185.461 294.742 184.47 295.718 182.935 295.718V295.721Z" fill="#001A70"/>
<path d="M188.046 290.459H187.434V296.252H188.046V290.459Z" fill="#001A70"/>
<path d="M192.284 290.459H189.929V296.252H192.284C194.136 296.252 195.382 295.059 195.382 293.356C195.382 291.652 194.136 290.459 192.284 290.459ZM192.253 295.721H190.542V290.987H192.253C193.788 290.987 194.78 291.963 194.78 293.352C194.78 294.742 193.788 295.718 192.253 295.718V295.721Z" fill="#001A70"/>
<path d="M198.391 290.459L195.747 296.252H196.384L197.079 294.704H200.301L200.996 296.252H201.64L198.996 290.459H198.391ZM197.299 294.207L198.687 291.097L200.074 294.207H197.299Z" fill="#001A70"/>
<path d="M204.948 290.459H202.594V296.252H204.948C206.8 296.252 208.046 295.059 208.046 293.356C208.046 291.652 206.8 290.459 204.948 290.459ZM204.917 295.721H203.206V290.987H204.917C206.452 290.987 207.444 291.963 207.444 293.352C207.444 294.742 206.452 295.718 204.917 295.718V295.721Z" fill="#001A70"/>
<path d="M143.982 303.5H146.973V302.98H143.982V300.921H147.334V300.39H143.369V306.183H147.458V305.652H143.982V303.5Z" fill="#001A70"/>
<path d="M153.004 300.39H152.34L150.605 302.755L148.863 300.39H148.161L150.219 303.204L148.02 306.183H148.722L150.581 303.635L152.45 306.183H153.159L150.952 303.186L153.004 300.39Z" fill="#001A70"/>
<path d="M153.083 300.921H155.118V306.183H155.727V300.921H157.761V300.39H153.083V300.921Z" fill="#001A70"/>
<path d="M163.262 302.376C163.262 301.135 162.37 300.39 160.901 300.39H158.735V306.183H159.348V304.345H160.901C161.066 304.345 161.214 304.338 161.362 304.321L162.684 306.183H163.351L161.94 304.197C162.783 303.924 163.262 303.286 163.262 302.376ZM160.883 303.824H159.348V300.921H160.883C162.04 300.921 162.653 301.452 162.653 302.376C162.653 303.3 162.04 303.824 160.883 303.824Z" fill="#001A70"/>
<path d="M166.425 300.39L163.782 306.183H164.419L165.114 304.635H168.336L169.031 306.183H169.675L167.031 300.39H166.425ZM165.338 304.138L166.725 301.028L168.112 304.138H165.338Z" fill="#001A70"/>
<path d="M203.499 226.857C204.029 226.643 204.384 226.202 204.384 225.54C204.384 224.595 203.64 224.05 202.353 224.05H199.857V229.843H202.518C203.964 229.843 204.69 229.281 204.69 228.295C204.69 227.509 204.242 227.019 203.499 226.854V226.857ZM200.466 224.557H202.308C203.234 224.557 203.771 224.912 203.771 225.609C203.771 226.305 203.234 226.661 202.308 226.661H200.466V224.557ZM202.508 229.34H200.466V227.164H202.508C203.523 227.164 204.077 227.495 204.077 228.247C204.077 228.998 203.523 229.34 202.508 229.34Z" fill="#001A70"/>
<path d="M210.191 227.347C210.191 228.719 209.547 229.35 208.415 229.35C207.282 229.35 206.645 228.723 206.645 227.347V224.054H206.032V227.371C206.032 229.033 206.934 229.895 208.411 229.895C209.888 229.895 210.783 229.033 210.783 227.371V224.054H210.187V227.347H210.191Z" fill="#001A70"/>
<path d="M217.154 226.04C217.154 224.799 216.263 224.054 214.793 224.054H212.628V229.847H213.241V228.009H214.793C214.958 228.009 215.106 228.002 215.254 227.985L216.576 229.847H217.244L215.833 227.861C216.676 227.588 217.154 226.95 217.154 226.04ZM214.776 227.488H213.241V224.585H214.776C215.932 224.585 216.545 225.116 216.545 226.04C216.545 226.964 215.932 227.488 214.776 227.488Z" fill="#001A70"/>
<path d="M212.686 79.3226H213.247C212.593 78.1881 212.304 76.9226 212.304 75.4503C212.304 73.9779 212.593 72.7124 213.247 71.5779H212.686C212.074 72.5641 211.729 73.9296 211.729 75.4503C211.729 76.9709 212.077 78.3226 212.686 79.3226Z" fill="#001A70"/>
<path d="M216.249 77.7606C216.934 77.7606 217.54 77.5123 217.926 77.0502L217.595 76.6709C217.265 77.0502 216.793 77.2433 216.266 77.2433C215.316 77.2433 214.621 76.6399 214.556 75.7296H218.191C218.191 75.6641 218.197 75.5985 218.197 75.5468C218.197 74.2399 217.313 73.3365 216.091 73.3365C214.869 73.3365 213.967 74.2537 213.967 75.5468C213.967 76.8399 214.893 77.764 216.246 77.764L216.249 77.7606ZM216.091 73.8365C216.941 73.8365 217.561 74.433 217.636 75.2848H214.556C214.631 74.433 215.251 73.8365 216.091 73.8365Z" fill="#001A70"/>
<path d="M221.633 70.7504H221.096L218.37 78.5468H218.907L221.633 70.7504Z" fill="#001A70"/>
<path d="M222.8 77.7192H223.354L224.724 74.1503L226.094 77.7192H226.648L228.294 73.3641H227.757L226.376 77.064L224.989 73.3641H224.483L223.089 77.064L221.726 73.3641H221.165L222.8 77.7192Z" fill="#001A70"/>
<path d="M229.54 80.1984C229.182 80.1984 228.841 80.0743 228.638 79.9122L228.483 80.1812C228.69 80.3605 229.096 80.495 229.512 80.495C230.173 80.495 230.559 80.2088 230.559 79.7709C230.559 78.795 228.917 79.3122 228.917 78.6261C228.917 78.3847 229.12 78.2054 229.578 78.2054C229.839 78.2054 230.104 78.2674 230.325 78.4226L230.473 78.1468C230.259 78.0019 229.905 77.9088 229.578 77.9088C228.931 77.9088 228.576 78.2192 228.576 78.633C228.576 79.6364 230.218 79.1157 230.218 79.7778C230.218 80.0295 230.022 80.1915 229.54 80.1915V80.1984Z" fill="#001A70"/>
<path d="M232.235 80.4984C232.641 80.4984 232.968 80.3191 233.144 80.0122V80.4743H233.471V77.9364H233.13V79.2674C233.13 79.8467 232.8 80.1881 232.27 80.1881C231.788 80.1881 231.509 79.9122 231.509 79.3743V77.9364H231.168V79.4088C231.168 80.1364 231.591 80.4984 232.239 80.4984H232.235Z" fill="#001A70"/>
<path d="M234.776 79.9984C234.989 80.326 235.333 80.5019 235.739 80.5019C236.462 80.5019 237.003 79.9812 237.003 79.2088C237.003 78.4364 236.462 77.9192 235.739 77.9192C235.319 77.9192 234.968 78.1019 234.762 78.4398V77.9364H234.435V81.4088H234.776V79.995V79.9984ZM235.712 78.2157C236.245 78.2157 236.655 78.6157 236.655 79.2054C236.655 79.795 236.245 80.195 235.712 80.195C235.178 80.195 234.769 79.7984 234.769 79.2054C234.769 78.6123 235.171 78.2157 235.712 78.2157Z" fill="#001A70"/>
<path d="M237.963 77.7261L237.681 78.926H238.077L238.424 77.7847C238.507 77.5537 238.541 77.4468 238.541 77.3054C238.541 77.0571 238.359 76.8571 238.104 76.8571C237.85 76.8571 237.667 77.0468 237.667 77.3054C237.667 77.5192 237.791 77.6778 237.963 77.7261Z" fill="#001A70"/>
<path d="M242.541 75.433C242.541 74.4399 243.127 73.8606 244.063 73.8606C244.889 73.8606 245.368 74.3331 245.368 75.2503V77.7157H245.953V75.1917C245.953 73.9434 245.226 73.3296 244.17 73.3296C243.419 73.3296 242.831 73.6365 242.517 74.1641V73.3607H241.956V77.7123H242.545V75.4296L242.541 75.433Z" fill="#001A70"/>
<path d="M249.787 70.7504H249.25L246.524 78.5468H247.061L249.787 70.7504Z" fill="#001A70"/>
<path d="M249.309 74.5744C249.309 76.2951 252.125 75.402 252.125 76.5365C252.125 76.9675 251.787 77.2468 250.961 77.2468C250.348 77.2468 249.763 77.033 249.416 76.7571L249.151 77.2192C249.505 77.5261 250.2 77.7571 250.92 77.7571C252.052 77.7571 252.713 77.2675 252.713 76.5158C252.713 74.8434 249.898 75.7296 249.898 74.5537C249.898 74.14 250.245 73.8331 251.03 73.8331C251.478 73.8331 251.932 73.94 252.311 74.2055L252.565 73.7331C252.2 73.4848 251.591 73.3262 251.03 73.3262C249.922 73.3262 249.312 73.8572 249.312 74.5675L249.309 74.5744Z" fill="#001A70"/>
<path d="M254.156 80.1984C253.798 80.1984 253.457 80.0743 253.254 79.9122L253.099 80.1812C253.305 80.3605 253.712 80.495 254.128 80.495C254.789 80.495 255.175 80.2088 255.175 79.7709C255.175 78.795 253.533 79.3122 253.533 78.6261C253.533 78.3847 253.736 78.2054 254.194 78.2054C254.455 78.2054 254.72 78.2674 254.941 78.4226L255.089 78.1468C254.875 78.0019 254.521 77.9088 254.194 77.9088C253.546 77.9088 253.192 78.2192 253.192 78.633C253.192 79.6364 254.834 79.1157 254.834 79.7778C254.834 80.0295 254.638 80.1915 254.156 80.1915V80.1984Z" fill="#001A70"/>
<path d="M256.851 80.4984C257.254 80.4984 257.584 80.3191 257.76 80.0122V80.4743H258.087V77.9364H257.746V79.2674C257.746 79.8467 257.412 80.1881 256.885 80.1881C256.403 80.1881 256.125 79.9122 256.125 79.3743V77.9364H255.784V79.4088C255.784 80.1364 256.207 80.4984 256.854 80.4984H256.851Z" fill="#001A70"/>
<path d="M259.391 79.9984C259.605 80.326 259.949 80.5019 260.355 80.5019C261.078 80.5019 261.619 79.9812 261.619 79.2088C261.619 78.4364 261.078 77.9192 260.355 77.9192C259.935 77.9192 259.584 78.1019 259.378 78.4398V77.9364H259.051V81.4088H259.391V79.995V79.9984ZM260.331 78.2157C260.865 78.2157 261.274 78.6157 261.274 79.2054C261.274 79.795 260.865 80.195 260.331 80.195C259.798 80.195 259.388 79.7984 259.388 79.2054C259.388 78.6123 259.794 78.2157 260.331 78.2157Z" fill="#001A70"/>
<path d="M262.73 79.3226C263.35 78.3226 263.698 76.9709 263.698 75.4503C263.698 73.9296 263.35 72.5607 262.73 71.5779H262.169C262.83 72.7124 263.119 73.9779 263.119 75.4503C263.119 76.9226 262.83 78.1881 262.169 79.3226H262.73Z" fill="#001A70"/>
<path d="M259.505 280.573C258.892 281.559 258.548 282.925 258.548 284.445C258.548 285.966 258.896 287.318 259.505 288.318H260.066C259.412 287.183 259.123 285.918 259.123 284.445C259.123 282.973 259.412 281.708 260.066 280.573H259.505Z" fill="#001A70"/>
<path d="M262.909 282.328C261.687 282.328 260.786 283.246 260.786 284.539C260.786 285.832 261.712 286.756 263.064 286.756C263.749 286.756 264.355 286.508 264.741 286.045L264.41 285.666C264.08 286.045 263.608 286.239 263.082 286.239C262.131 286.239 261.436 285.635 261.371 284.725H265.006C265.006 284.659 265.013 284.594 265.013 284.542C265.013 283.235 264.128 282.332 262.906 282.332L262.909 282.328ZM261.371 284.28C261.446 283.428 262.066 282.832 262.906 282.832C263.746 282.832 264.376 283.428 264.452 284.28H261.371Z" fill="#001A70"/>
<path d="M267.915 279.746L265.188 287.542H265.725L268.452 279.746H267.915Z" fill="#001A70"/>
<path d="M273.195 286.063L271.808 282.363H271.302L269.908 286.063L268.544 282.363H267.98L269.618 286.714H270.169L271.543 283.149L272.913 286.714H273.467L275.112 282.363H274.575L273.195 286.063Z" fill="#001A70"/>
<path d="M276.689 286.914C275.949 286.914 275.398 287.449 275.398 288.204C275.398 288.959 275.949 289.497 276.689 289.497C277.429 289.497 277.976 288.956 277.976 288.204C277.976 287.452 277.432 286.914 276.689 286.914ZM276.689 289.19C276.148 289.19 275.746 288.794 275.746 288.201C275.746 287.607 276.152 287.211 276.689 287.211C277.226 287.211 277.629 287.607 277.629 288.201C277.629 288.794 277.229 289.19 276.689 289.19Z" fill="#001A70"/>
<path d="M279.98 286.914C279.574 286.914 279.229 287.087 279.016 287.418V285.894H278.675V289.473H279.002V288.97C279.209 289.311 279.56 289.494 279.98 289.494C280.703 289.494 281.243 288.97 281.243 288.201C281.243 287.432 280.703 286.911 279.98 286.911V286.914ZM279.956 289.19C279.415 289.19 279.012 288.794 279.012 288.201C279.012 287.607 279.415 287.211 279.956 287.211C280.496 287.211 280.899 287.607 280.899 288.201C280.899 288.794 280.489 289.19 279.956 289.19Z" fill="#001A70"/>
<path d="M282.138 285.89C281.997 285.89 281.887 286.001 281.887 286.132C281.887 286.263 281.997 286.376 282.138 286.376C282.279 286.376 282.389 286.266 282.389 286.125C282.389 285.994 282.279 285.887 282.138 285.887V285.89Z" fill="#001A70"/>
<path d="M281.962 289.659C281.962 289.973 281.814 290.138 281.543 290.138C281.384 290.138 281.25 290.094 281.147 290.007L281.026 290.27C281.15 290.38 281.357 290.435 281.56 290.435C282.042 290.435 282.303 290.132 282.303 289.663V286.935H281.962V289.663V289.659Z" fill="#001A70"/>
<path d="M283.666 285.856C283.419 285.856 283.229 286.045 283.229 286.304C283.229 286.518 283.353 286.676 283.525 286.725L283.243 287.925H283.639L283.987 286.783C284.069 286.552 284.104 286.445 284.104 286.304C284.104 286.056 283.921 285.856 283.666 285.856Z" fill="#001A70"/>
<path d="M289.728 282.328C288.978 282.328 288.389 282.635 288.076 283.163V282.359H287.515V286.711H288.104V284.428C288.104 283.435 288.689 282.856 289.625 282.856C290.451 282.856 290.93 283.328 290.93 284.245V286.711H291.515V284.187C291.515 282.939 290.789 282.325 289.732 282.325L289.728 282.328Z" fill="#001A70"/>
<path d="M294.813 279.746L292.083 287.542H292.62L295.35 279.746H294.813Z" fill="#001A70"/>
<path d="M295.456 283.552C295.456 283.139 295.804 282.832 296.589 282.832C297.036 282.832 297.491 282.939 297.869 283.204L298.124 282.732C297.759 282.483 297.15 282.325 296.589 282.325C295.48 282.325 294.871 282.856 294.871 283.566C294.871 285.287 297.687 284.394 297.687 285.528C297.687 285.959 297.35 286.239 296.523 286.239C295.911 286.239 295.325 286.025 294.978 285.749L294.713 286.211C295.067 286.518 295.763 286.749 296.482 286.749C297.615 286.749 298.276 286.259 298.276 285.508C298.276 283.835 295.46 284.721 295.46 283.546L295.456 283.552Z" fill="#001A70"/>
<path d="M300.048 286.914C299.308 286.914 298.757 287.449 298.757 288.204C298.757 288.959 299.308 289.497 300.048 289.497C300.788 289.497 301.336 288.956 301.336 288.204C301.336 287.452 300.792 286.914 300.048 286.914ZM300.048 289.19C299.508 289.19 299.105 288.794 299.105 288.201C299.105 287.607 299.511 287.211 300.048 287.211C300.585 287.211 300.988 287.607 300.988 288.201C300.988 288.794 300.589 289.19 300.048 289.19Z" fill="#001A70"/>
<path d="M303.339 286.914C302.936 286.914 302.589 287.087 302.375 287.418V285.894H302.035V289.473H302.362V288.97C302.568 289.311 302.919 289.494 303.339 289.494C304.062 289.494 304.602 288.97 304.602 288.201C304.602 287.432 304.062 286.911 303.339 286.911V286.914ZM303.315 289.19C302.775 289.19 302.372 288.794 302.372 288.201C302.372 287.607 302.778 287.211 303.315 287.211C303.852 287.211 304.258 287.607 304.258 288.201C304.258 288.794 303.849 289.19 303.315 289.19Z" fill="#001A70"/>
<path d="M305.322 289.659C305.322 289.973 305.174 290.138 304.902 290.138C304.744 290.138 304.609 290.094 304.506 290.007L304.386 290.27C304.51 290.38 304.716 290.435 304.919 290.435C305.401 290.435 305.663 290.132 305.663 289.663V286.935H305.322V289.663V289.659Z" fill="#001A70"/>
<path d="M305.497 285.89C305.356 285.89 305.246 286.001 305.246 286.132C305.246 286.263 305.356 286.376 305.497 286.376C305.639 286.376 305.749 286.266 305.749 286.125C305.749 285.994 305.639 285.887 305.497 285.887V285.89Z" fill="#001A70"/>
<path d="M307.033 280.573H306.472C307.133 281.708 307.422 282.973 307.422 284.445C307.422 285.918 307.133 287.183 306.472 288.318H307.033C307.652 287.318 308 285.966 308 284.445C308 282.925 307.652 281.556 307.033 280.573Z" fill="#001A70"/>
<path d="M213.506 265.894H215.86C217.712 265.894 218.958 267.087 218.958 268.791C218.958 270.494 217.712 271.687 215.86 271.687H213.506V265.894ZM215.826 271.16C217.361 271.16 218.352 270.184 218.352 268.794C218.352 267.404 217.361 266.429 215.826 266.429H214.115V271.163H215.826V271.16Z" fill="#001A70"/>
<path d="M219.815 268.791C219.815 267.101 221.103 265.846 222.855 265.846C224.607 265.846 225.888 267.094 225.888 268.791C225.888 270.487 224.59 271.735 222.855 271.735C221.12 271.735 219.815 270.477 219.815 268.791ZM225.278 268.791C225.278 267.408 224.246 266.391 222.858 266.391C221.471 266.391 220.421 267.408 220.421 268.791C220.421 270.173 221.461 271.191 222.858 271.191C224.256 271.191 225.278 270.173 225.278 268.791Z" fill="#001A70"/>
<path d="M231.209 271.687L229.888 269.825C229.74 269.842 229.591 269.849 229.426 269.849H227.874V271.687H227.261V265.894H229.426C230.896 265.894 231.788 266.639 231.788 267.88C231.788 268.791 231.309 269.429 230.466 269.701L231.877 271.687H231.209ZM231.175 267.88C231.175 266.953 230.562 266.425 229.406 266.425H227.87V269.329H229.406C230.562 269.329 231.175 268.791 231.175 267.88Z" fill="#001A70"/>
</svg>
